%TF.GenerationSoftware,KiCad,Pcbnew,7.0.1*%
%TF.CreationDate,2023-05-13T16:18:37+01:00*%
%TF.ProjectId,UGR-22 Screen,5547522d-3232-4205-9363-7265656e2e6b,rev?*%
%TF.SameCoordinates,Original*%
%TF.FileFunction,Legend,Top*%
%TF.FilePolarity,Positive*%
%FSLAX46Y46*%
G04 Gerber Fmt 4.6, Leading zero omitted, Abs format (unit mm)*
G04 Created by KiCad (PCBNEW 7.0.1) date 2023-05-13 16:18:37*
%MOMM*%
%LPD*%
G01*
G04 APERTURE LIST*
%ADD10C,0.150000*%
%ADD11C,0.125000*%
%ADD12C,0.120000*%
%ADD13C,0.100000*%
%ADD14R,0.760000X6.000000*%
G04 APERTURE END LIST*
D10*
X98910238Y-120561904D02*
X98862619Y-120657142D01*
X98862619Y-120657142D02*
X98862619Y-120799999D01*
X98862619Y-120799999D02*
X98910238Y-120942856D01*
X98910238Y-120942856D02*
X99005476Y-121038094D01*
X99005476Y-121038094D02*
X99100714Y-121085713D01*
X99100714Y-121085713D02*
X99291190Y-121133332D01*
X99291190Y-121133332D02*
X99434047Y-121133332D01*
X99434047Y-121133332D02*
X99624523Y-121085713D01*
X99624523Y-121085713D02*
X99719761Y-121038094D01*
X99719761Y-121038094D02*
X99815000Y-120942856D01*
X99815000Y-120942856D02*
X99862619Y-120799999D01*
X99862619Y-120799999D02*
X99862619Y-120704761D01*
X99862619Y-120704761D02*
X99815000Y-120561904D01*
X99815000Y-120561904D02*
X99767380Y-120514285D01*
X99767380Y-120514285D02*
X99434047Y-120514285D01*
X99434047Y-120514285D02*
X99434047Y-120704761D01*
X99862619Y-120085713D02*
X98862619Y-120085713D01*
X98862619Y-120085713D02*
X99862619Y-119514285D01*
X99862619Y-119514285D02*
X98862619Y-119514285D01*
X99862619Y-119038094D02*
X98862619Y-119038094D01*
X98862619Y-119038094D02*
X98862619Y-118799999D01*
X98862619Y-118799999D02*
X98910238Y-118657142D01*
X98910238Y-118657142D02*
X99005476Y-118561904D01*
X99005476Y-118561904D02*
X99100714Y-118514285D01*
X99100714Y-118514285D02*
X99291190Y-118466666D01*
X99291190Y-118466666D02*
X99434047Y-118466666D01*
X99434047Y-118466666D02*
X99624523Y-118514285D01*
X99624523Y-118514285D02*
X99719761Y-118561904D01*
X99719761Y-118561904D02*
X99815000Y-118657142D01*
X99815000Y-118657142D02*
X99862619Y-118799999D01*
X99862619Y-118799999D02*
X99862619Y-119038094D01*
X97215000Y-122719046D02*
X97262619Y-122576189D01*
X97262619Y-122576189D02*
X97262619Y-122338094D01*
X97262619Y-122338094D02*
X97215000Y-122242856D01*
X97215000Y-122242856D02*
X97167380Y-122195237D01*
X97167380Y-122195237D02*
X97072142Y-122147618D01*
X97072142Y-122147618D02*
X96976904Y-122147618D01*
X96976904Y-122147618D02*
X96881666Y-122195237D01*
X96881666Y-122195237D02*
X96834047Y-122242856D01*
X96834047Y-122242856D02*
X96786428Y-122338094D01*
X96786428Y-122338094D02*
X96738809Y-122528570D01*
X96738809Y-122528570D02*
X96691190Y-122623808D01*
X96691190Y-122623808D02*
X96643571Y-122671427D01*
X96643571Y-122671427D02*
X96548333Y-122719046D01*
X96548333Y-122719046D02*
X96453095Y-122719046D01*
X96453095Y-122719046D02*
X96357857Y-122671427D01*
X96357857Y-122671427D02*
X96310238Y-122623808D01*
X96310238Y-122623808D02*
X96262619Y-122528570D01*
X96262619Y-122528570D02*
X96262619Y-122290475D01*
X96262619Y-122290475D02*
X96310238Y-122147618D01*
X96262619Y-121814284D02*
X97262619Y-121576189D01*
X97262619Y-121576189D02*
X96548333Y-121385713D01*
X96548333Y-121385713D02*
X97262619Y-121195237D01*
X97262619Y-121195237D02*
X96262619Y-120957142D01*
X97262619Y-120576189D02*
X96262619Y-120576189D01*
X96262619Y-120576189D02*
X96262619Y-120338094D01*
X96262619Y-120338094D02*
X96310238Y-120195237D01*
X96310238Y-120195237D02*
X96405476Y-120099999D01*
X96405476Y-120099999D02*
X96500714Y-120052380D01*
X96500714Y-120052380D02*
X96691190Y-120004761D01*
X96691190Y-120004761D02*
X96834047Y-120004761D01*
X96834047Y-120004761D02*
X97024523Y-120052380D01*
X97024523Y-120052380D02*
X97119761Y-120099999D01*
X97119761Y-120099999D02*
X97215000Y-120195237D01*
X97215000Y-120195237D02*
X97262619Y-120338094D01*
X97262619Y-120338094D02*
X97262619Y-120576189D01*
X97262619Y-119576189D02*
X96262619Y-119576189D01*
X96262619Y-118909523D02*
X96262619Y-118719047D01*
X96262619Y-118719047D02*
X96310238Y-118623809D01*
X96310238Y-118623809D02*
X96405476Y-118528571D01*
X96405476Y-118528571D02*
X96595952Y-118480952D01*
X96595952Y-118480952D02*
X96929285Y-118480952D01*
X96929285Y-118480952D02*
X97119761Y-118528571D01*
X97119761Y-118528571D02*
X97215000Y-118623809D01*
X97215000Y-118623809D02*
X97262619Y-118719047D01*
X97262619Y-118719047D02*
X97262619Y-118909523D01*
X97262619Y-118909523D02*
X97215000Y-119004761D01*
X97215000Y-119004761D02*
X97119761Y-119099999D01*
X97119761Y-119099999D02*
X96929285Y-119147618D01*
X96929285Y-119147618D02*
X96595952Y-119147618D01*
X96595952Y-119147618D02*
X96405476Y-119099999D01*
X96405476Y-119099999D02*
X96310238Y-119004761D01*
X96310238Y-119004761D02*
X96262619Y-118909523D01*
X94615000Y-123961904D02*
X94662619Y-123819047D01*
X94662619Y-123819047D02*
X94662619Y-123580952D01*
X94662619Y-123580952D02*
X94615000Y-123485714D01*
X94615000Y-123485714D02*
X94567380Y-123438095D01*
X94567380Y-123438095D02*
X94472142Y-123390476D01*
X94472142Y-123390476D02*
X94376904Y-123390476D01*
X94376904Y-123390476D02*
X94281666Y-123438095D01*
X94281666Y-123438095D02*
X94234047Y-123485714D01*
X94234047Y-123485714D02*
X94186428Y-123580952D01*
X94186428Y-123580952D02*
X94138809Y-123771428D01*
X94138809Y-123771428D02*
X94091190Y-123866666D01*
X94091190Y-123866666D02*
X94043571Y-123914285D01*
X94043571Y-123914285D02*
X93948333Y-123961904D01*
X93948333Y-123961904D02*
X93853095Y-123961904D01*
X93853095Y-123961904D02*
X93757857Y-123914285D01*
X93757857Y-123914285D02*
X93710238Y-123866666D01*
X93710238Y-123866666D02*
X93662619Y-123771428D01*
X93662619Y-123771428D02*
X93662619Y-123533333D01*
X93662619Y-123533333D02*
X93710238Y-123390476D01*
X93662619Y-123057142D02*
X94662619Y-122819047D01*
X94662619Y-122819047D02*
X93948333Y-122628571D01*
X93948333Y-122628571D02*
X94662619Y-122438095D01*
X94662619Y-122438095D02*
X93662619Y-122200000D01*
X94662619Y-121819047D02*
X93662619Y-121819047D01*
X93662619Y-121819047D02*
X93662619Y-121580952D01*
X93662619Y-121580952D02*
X93710238Y-121438095D01*
X93710238Y-121438095D02*
X93805476Y-121342857D01*
X93805476Y-121342857D02*
X93900714Y-121295238D01*
X93900714Y-121295238D02*
X94091190Y-121247619D01*
X94091190Y-121247619D02*
X94234047Y-121247619D01*
X94234047Y-121247619D02*
X94424523Y-121295238D01*
X94424523Y-121295238D02*
X94519761Y-121342857D01*
X94519761Y-121342857D02*
X94615000Y-121438095D01*
X94615000Y-121438095D02*
X94662619Y-121580952D01*
X94662619Y-121580952D02*
X94662619Y-121819047D01*
X94567380Y-120247619D02*
X94615000Y-120295238D01*
X94615000Y-120295238D02*
X94662619Y-120438095D01*
X94662619Y-120438095D02*
X94662619Y-120533333D01*
X94662619Y-120533333D02*
X94615000Y-120676190D01*
X94615000Y-120676190D02*
X94519761Y-120771428D01*
X94519761Y-120771428D02*
X94424523Y-120819047D01*
X94424523Y-120819047D02*
X94234047Y-120866666D01*
X94234047Y-120866666D02*
X94091190Y-120866666D01*
X94091190Y-120866666D02*
X93900714Y-120819047D01*
X93900714Y-120819047D02*
X93805476Y-120771428D01*
X93805476Y-120771428D02*
X93710238Y-120676190D01*
X93710238Y-120676190D02*
X93662619Y-120533333D01*
X93662619Y-120533333D02*
X93662619Y-120438095D01*
X93662619Y-120438095D02*
X93710238Y-120295238D01*
X93710238Y-120295238D02*
X93757857Y-120247619D01*
X94662619Y-119342857D02*
X94662619Y-119819047D01*
X94662619Y-119819047D02*
X93662619Y-119819047D01*
X94662619Y-119009523D02*
X93662619Y-119009523D01*
X94662619Y-118438095D02*
X94091190Y-118866666D01*
X93662619Y-118438095D02*
X94234047Y-119009523D01*
D11*
X130833336Y-166423833D02*
X130833336Y-165723833D01*
X130833336Y-165723833D02*
X131000003Y-165723833D01*
X131000003Y-165723833D02*
X131100003Y-165757166D01*
X131100003Y-165757166D02*
X131166670Y-165823833D01*
X131166670Y-165823833D02*
X131200003Y-165890500D01*
X131200003Y-165890500D02*
X131233336Y-166023833D01*
X131233336Y-166023833D02*
X131233336Y-166123833D01*
X131233336Y-166123833D02*
X131200003Y-166257166D01*
X131200003Y-166257166D02*
X131166670Y-166323833D01*
X131166670Y-166323833D02*
X131100003Y-166390500D01*
X131100003Y-166390500D02*
X131000003Y-166423833D01*
X131000003Y-166423833D02*
X130833336Y-166423833D01*
X131800003Y-166390500D02*
X131733336Y-166423833D01*
X131733336Y-166423833D02*
X131600003Y-166423833D01*
X131600003Y-166423833D02*
X131533336Y-166390500D01*
X131533336Y-166390500D02*
X131500003Y-166323833D01*
X131500003Y-166323833D02*
X131500003Y-166057166D01*
X131500003Y-166057166D02*
X131533336Y-165990500D01*
X131533336Y-165990500D02*
X131600003Y-165957166D01*
X131600003Y-165957166D02*
X131733336Y-165957166D01*
X131733336Y-165957166D02*
X131800003Y-165990500D01*
X131800003Y-165990500D02*
X131833336Y-166057166D01*
X131833336Y-166057166D02*
X131833336Y-166123833D01*
X131833336Y-166123833D02*
X131500003Y-166190500D01*
X132100003Y-166390500D02*
X132166670Y-166423833D01*
X132166670Y-166423833D02*
X132300003Y-166423833D01*
X132300003Y-166423833D02*
X132366670Y-166390500D01*
X132366670Y-166390500D02*
X132400003Y-166323833D01*
X132400003Y-166323833D02*
X132400003Y-166290500D01*
X132400003Y-166290500D02*
X132366670Y-166223833D01*
X132366670Y-166223833D02*
X132300003Y-166190500D01*
X132300003Y-166190500D02*
X132200003Y-166190500D01*
X132200003Y-166190500D02*
X132133336Y-166157166D01*
X132133336Y-166157166D02*
X132100003Y-166090500D01*
X132100003Y-166090500D02*
X132100003Y-166057166D01*
X132100003Y-166057166D02*
X132133336Y-165990500D01*
X132133336Y-165990500D02*
X132200003Y-165957166D01*
X132200003Y-165957166D02*
X132300003Y-165957166D01*
X132300003Y-165957166D02*
X132366670Y-165990500D01*
X132700003Y-166423833D02*
X132700003Y-165957166D01*
X132700003Y-165723833D02*
X132666670Y-165757166D01*
X132666670Y-165757166D02*
X132700003Y-165790500D01*
X132700003Y-165790500D02*
X132733337Y-165757166D01*
X132733337Y-165757166D02*
X132700003Y-165723833D01*
X132700003Y-165723833D02*
X132700003Y-165790500D01*
X133333336Y-165957166D02*
X133333336Y-166523833D01*
X133333336Y-166523833D02*
X133300003Y-166590500D01*
X133300003Y-166590500D02*
X133266670Y-166623833D01*
X133266670Y-166623833D02*
X133200003Y-166657166D01*
X133200003Y-166657166D02*
X133100003Y-166657166D01*
X133100003Y-166657166D02*
X133033336Y-166623833D01*
X133333336Y-166390500D02*
X133266670Y-166423833D01*
X133266670Y-166423833D02*
X133133336Y-166423833D01*
X133133336Y-166423833D02*
X133066670Y-166390500D01*
X133066670Y-166390500D02*
X133033336Y-166357166D01*
X133033336Y-166357166D02*
X133000003Y-166290500D01*
X133000003Y-166290500D02*
X133000003Y-166090500D01*
X133000003Y-166090500D02*
X133033336Y-166023833D01*
X133033336Y-166023833D02*
X133066670Y-165990500D01*
X133066670Y-165990500D02*
X133133336Y-165957166D01*
X133133336Y-165957166D02*
X133266670Y-165957166D01*
X133266670Y-165957166D02*
X133333336Y-165990500D01*
X133666669Y-165957166D02*
X133666669Y-166423833D01*
X133666669Y-166023833D02*
X133700003Y-165990500D01*
X133700003Y-165990500D02*
X133766669Y-165957166D01*
X133766669Y-165957166D02*
X133866669Y-165957166D01*
X133866669Y-165957166D02*
X133933336Y-165990500D01*
X133933336Y-165990500D02*
X133966669Y-166057166D01*
X133966669Y-166057166D02*
X133966669Y-166423833D01*
X134566669Y-166390500D02*
X134500002Y-166423833D01*
X134500002Y-166423833D02*
X134366669Y-166423833D01*
X134366669Y-166423833D02*
X134300002Y-166390500D01*
X134300002Y-166390500D02*
X134266669Y-166323833D01*
X134266669Y-166323833D02*
X134266669Y-166057166D01*
X134266669Y-166057166D02*
X134300002Y-165990500D01*
X134300002Y-165990500D02*
X134366669Y-165957166D01*
X134366669Y-165957166D02*
X134500002Y-165957166D01*
X134500002Y-165957166D02*
X134566669Y-165990500D01*
X134566669Y-165990500D02*
X134600002Y-166057166D01*
X134600002Y-166057166D02*
X134600002Y-166123833D01*
X134600002Y-166123833D02*
X134266669Y-166190500D01*
X135200002Y-166423833D02*
X135200002Y-165723833D01*
X135200002Y-166390500D02*
X135133336Y-166423833D01*
X135133336Y-166423833D02*
X135000002Y-166423833D01*
X135000002Y-166423833D02*
X134933336Y-166390500D01*
X134933336Y-166390500D02*
X134900002Y-166357166D01*
X134900002Y-166357166D02*
X134866669Y-166290500D01*
X134866669Y-166290500D02*
X134866669Y-166090500D01*
X134866669Y-166090500D02*
X134900002Y-166023833D01*
X134900002Y-166023833D02*
X134933336Y-165990500D01*
X134933336Y-165990500D02*
X135000002Y-165957166D01*
X135000002Y-165957166D02*
X135133336Y-165957166D01*
X135133336Y-165957166D02*
X135200002Y-165990500D01*
X136066668Y-166423833D02*
X136066668Y-165723833D01*
X136066668Y-165990500D02*
X136133335Y-165957166D01*
X136133335Y-165957166D02*
X136266668Y-165957166D01*
X136266668Y-165957166D02*
X136333335Y-165990500D01*
X136333335Y-165990500D02*
X136366668Y-166023833D01*
X136366668Y-166023833D02*
X136400002Y-166090500D01*
X136400002Y-166090500D02*
X136400002Y-166290500D01*
X136400002Y-166290500D02*
X136366668Y-166357166D01*
X136366668Y-166357166D02*
X136333335Y-166390500D01*
X136333335Y-166390500D02*
X136266668Y-166423833D01*
X136266668Y-166423833D02*
X136133335Y-166423833D01*
X136133335Y-166423833D02*
X136066668Y-166390500D01*
X136633335Y-165957166D02*
X136800001Y-166423833D01*
X136966668Y-165957166D02*
X136800001Y-166423833D01*
X136800001Y-166423833D02*
X136733335Y-166590500D01*
X136733335Y-166590500D02*
X136700001Y-166623833D01*
X136700001Y-166623833D02*
X136633335Y-166657166D01*
X138166667Y-166357166D02*
X138133334Y-166390500D01*
X138133334Y-166390500D02*
X138033334Y-166423833D01*
X138033334Y-166423833D02*
X137966667Y-166423833D01*
X137966667Y-166423833D02*
X137866667Y-166390500D01*
X137866667Y-166390500D02*
X137800001Y-166323833D01*
X137800001Y-166323833D02*
X137766667Y-166257166D01*
X137766667Y-166257166D02*
X137733334Y-166123833D01*
X137733334Y-166123833D02*
X137733334Y-166023833D01*
X137733334Y-166023833D02*
X137766667Y-165890500D01*
X137766667Y-165890500D02*
X137800001Y-165823833D01*
X137800001Y-165823833D02*
X137866667Y-165757166D01*
X137866667Y-165757166D02*
X137966667Y-165723833D01*
X137966667Y-165723833D02*
X138033334Y-165723833D01*
X138033334Y-165723833D02*
X138133334Y-165757166D01*
X138133334Y-165757166D02*
X138166667Y-165790500D01*
X138766667Y-166423833D02*
X138766667Y-166057166D01*
X138766667Y-166057166D02*
X138733334Y-165990500D01*
X138733334Y-165990500D02*
X138666667Y-165957166D01*
X138666667Y-165957166D02*
X138533334Y-165957166D01*
X138533334Y-165957166D02*
X138466667Y-165990500D01*
X138766667Y-166390500D02*
X138700001Y-166423833D01*
X138700001Y-166423833D02*
X138533334Y-166423833D01*
X138533334Y-166423833D02*
X138466667Y-166390500D01*
X138466667Y-166390500D02*
X138433334Y-166323833D01*
X138433334Y-166323833D02*
X138433334Y-166257166D01*
X138433334Y-166257166D02*
X138466667Y-166190500D01*
X138466667Y-166190500D02*
X138533334Y-166157166D01*
X138533334Y-166157166D02*
X138700001Y-166157166D01*
X138700001Y-166157166D02*
X138766667Y-166123833D01*
X139100000Y-166423833D02*
X139100000Y-165957166D01*
X139100000Y-166023833D02*
X139133334Y-165990500D01*
X139133334Y-165990500D02*
X139200000Y-165957166D01*
X139200000Y-165957166D02*
X139300000Y-165957166D01*
X139300000Y-165957166D02*
X139366667Y-165990500D01*
X139366667Y-165990500D02*
X139400000Y-166057166D01*
X139400000Y-166057166D02*
X139400000Y-166423833D01*
X139400000Y-166057166D02*
X139433334Y-165990500D01*
X139433334Y-165990500D02*
X139500000Y-165957166D01*
X139500000Y-165957166D02*
X139600000Y-165957166D01*
X139600000Y-165957166D02*
X139666667Y-165990500D01*
X139666667Y-165990500D02*
X139700000Y-166057166D01*
X139700000Y-166057166D02*
X139700000Y-166423833D01*
X140300000Y-166390500D02*
X140233333Y-166423833D01*
X140233333Y-166423833D02*
X140100000Y-166423833D01*
X140100000Y-166423833D02*
X140033333Y-166390500D01*
X140033333Y-166390500D02*
X140000000Y-166323833D01*
X140000000Y-166323833D02*
X140000000Y-166057166D01*
X140000000Y-166057166D02*
X140033333Y-165990500D01*
X140033333Y-165990500D02*
X140100000Y-165957166D01*
X140100000Y-165957166D02*
X140233333Y-165957166D01*
X140233333Y-165957166D02*
X140300000Y-165990500D01*
X140300000Y-165990500D02*
X140333333Y-166057166D01*
X140333333Y-166057166D02*
X140333333Y-166123833D01*
X140333333Y-166123833D02*
X140000000Y-166190500D01*
X140633333Y-166423833D02*
X140633333Y-165957166D01*
X140633333Y-166090500D02*
X140666667Y-166023833D01*
X140666667Y-166023833D02*
X140700000Y-165990500D01*
X140700000Y-165990500D02*
X140766667Y-165957166D01*
X140766667Y-165957166D02*
X140833333Y-165957166D01*
X141166666Y-166423833D02*
X141100000Y-166390500D01*
X141100000Y-166390500D02*
X141066666Y-166357166D01*
X141066666Y-166357166D02*
X141033333Y-166290500D01*
X141033333Y-166290500D02*
X141033333Y-166090500D01*
X141033333Y-166090500D02*
X141066666Y-166023833D01*
X141066666Y-166023833D02*
X141100000Y-165990500D01*
X141100000Y-165990500D02*
X141166666Y-165957166D01*
X141166666Y-165957166D02*
X141266666Y-165957166D01*
X141266666Y-165957166D02*
X141333333Y-165990500D01*
X141333333Y-165990500D02*
X141366666Y-166023833D01*
X141366666Y-166023833D02*
X141400000Y-166090500D01*
X141400000Y-166090500D02*
X141400000Y-166290500D01*
X141400000Y-166290500D02*
X141366666Y-166357166D01*
X141366666Y-166357166D02*
X141333333Y-166390500D01*
X141333333Y-166390500D02*
X141266666Y-166423833D01*
X141266666Y-166423833D02*
X141166666Y-166423833D01*
X141699999Y-165957166D02*
X141699999Y-166423833D01*
X141699999Y-166023833D02*
X141733333Y-165990500D01*
X141733333Y-165990500D02*
X141799999Y-165957166D01*
X141799999Y-165957166D02*
X141899999Y-165957166D01*
X141899999Y-165957166D02*
X141966666Y-165990500D01*
X141966666Y-165990500D02*
X141999999Y-166057166D01*
X141999999Y-166057166D02*
X141999999Y-166423833D01*
X142866665Y-166423833D02*
X142866665Y-165723833D01*
X142866665Y-166057166D02*
X143266665Y-166057166D01*
X143266665Y-166423833D02*
X143266665Y-165723833D01*
X143699998Y-166423833D02*
X143633332Y-166390500D01*
X143633332Y-166390500D02*
X143599998Y-166357166D01*
X143599998Y-166357166D02*
X143566665Y-166290500D01*
X143566665Y-166290500D02*
X143566665Y-166090500D01*
X143566665Y-166090500D02*
X143599998Y-166023833D01*
X143599998Y-166023833D02*
X143633332Y-165990500D01*
X143633332Y-165990500D02*
X143699998Y-165957166D01*
X143699998Y-165957166D02*
X143799998Y-165957166D01*
X143799998Y-165957166D02*
X143866665Y-165990500D01*
X143866665Y-165990500D02*
X143899998Y-166023833D01*
X143899998Y-166023833D02*
X143933332Y-166090500D01*
X143933332Y-166090500D02*
X143933332Y-166290500D01*
X143933332Y-166290500D02*
X143899998Y-166357166D01*
X143899998Y-166357166D02*
X143866665Y-166390500D01*
X143866665Y-166390500D02*
X143799998Y-166423833D01*
X143799998Y-166423833D02*
X143699998Y-166423833D01*
X144533331Y-165957166D02*
X144533331Y-166423833D01*
X144233331Y-165957166D02*
X144233331Y-166323833D01*
X144233331Y-166323833D02*
X144266665Y-166390500D01*
X144266665Y-166390500D02*
X144333331Y-166423833D01*
X144333331Y-166423833D02*
X144433331Y-166423833D01*
X144433331Y-166423833D02*
X144499998Y-166390500D01*
X144499998Y-166390500D02*
X144533331Y-166357166D01*
X144833331Y-166390500D02*
X144899998Y-166423833D01*
X144899998Y-166423833D02*
X145033331Y-166423833D01*
X145033331Y-166423833D02*
X145099998Y-166390500D01*
X145099998Y-166390500D02*
X145133331Y-166323833D01*
X145133331Y-166323833D02*
X145133331Y-166290500D01*
X145133331Y-166290500D02*
X145099998Y-166223833D01*
X145099998Y-166223833D02*
X145033331Y-166190500D01*
X145033331Y-166190500D02*
X144933331Y-166190500D01*
X144933331Y-166190500D02*
X144866664Y-166157166D01*
X144866664Y-166157166D02*
X144833331Y-166090500D01*
X144833331Y-166090500D02*
X144833331Y-166057166D01*
X144833331Y-166057166D02*
X144866664Y-165990500D01*
X144866664Y-165990500D02*
X144933331Y-165957166D01*
X144933331Y-165957166D02*
X145033331Y-165957166D01*
X145033331Y-165957166D02*
X145099998Y-165990500D01*
X145333331Y-165957166D02*
X145599998Y-165957166D01*
X145433331Y-165723833D02*
X145433331Y-166323833D01*
X145433331Y-166323833D02*
X145466665Y-166390500D01*
X145466665Y-166390500D02*
X145533331Y-166423833D01*
X145533331Y-166423833D02*
X145599998Y-166423833D01*
X145933331Y-166423833D02*
X145866665Y-166390500D01*
X145866665Y-166390500D02*
X145833331Y-166357166D01*
X145833331Y-166357166D02*
X145799998Y-166290500D01*
X145799998Y-166290500D02*
X145799998Y-166090500D01*
X145799998Y-166090500D02*
X145833331Y-166023833D01*
X145833331Y-166023833D02*
X145866665Y-165990500D01*
X145866665Y-165990500D02*
X145933331Y-165957166D01*
X145933331Y-165957166D02*
X146033331Y-165957166D01*
X146033331Y-165957166D02*
X146099998Y-165990500D01*
X146099998Y-165990500D02*
X146133331Y-166023833D01*
X146133331Y-166023833D02*
X146166665Y-166090500D01*
X146166665Y-166090500D02*
X146166665Y-166290500D01*
X146166665Y-166290500D02*
X146133331Y-166357166D01*
X146133331Y-166357166D02*
X146099998Y-166390500D01*
X146099998Y-166390500D02*
X146033331Y-166423833D01*
X146033331Y-166423833D02*
X145933331Y-166423833D01*
X146466664Y-165957166D02*
X146466664Y-166423833D01*
X146466664Y-166023833D02*
X146499998Y-165990500D01*
X146499998Y-165990500D02*
X146566664Y-165957166D01*
X146566664Y-165957166D02*
X146666664Y-165957166D01*
X146666664Y-165957166D02*
X146733331Y-165990500D01*
X146733331Y-165990500D02*
X146766664Y-166057166D01*
X146766664Y-166057166D02*
X146766664Y-166423833D01*
X108937500Y-122651428D02*
X108974642Y-122540000D01*
X108974642Y-122540000D02*
X108974642Y-122354285D01*
X108974642Y-122354285D02*
X108937500Y-122280000D01*
X108937500Y-122280000D02*
X108900357Y-122242857D01*
X108900357Y-122242857D02*
X108826071Y-122205714D01*
X108826071Y-122205714D02*
X108751785Y-122205714D01*
X108751785Y-122205714D02*
X108677500Y-122242857D01*
X108677500Y-122242857D02*
X108640357Y-122280000D01*
X108640357Y-122280000D02*
X108603214Y-122354285D01*
X108603214Y-122354285D02*
X108566071Y-122502857D01*
X108566071Y-122502857D02*
X108528928Y-122577142D01*
X108528928Y-122577142D02*
X108491785Y-122614285D01*
X108491785Y-122614285D02*
X108417500Y-122651428D01*
X108417500Y-122651428D02*
X108343214Y-122651428D01*
X108343214Y-122651428D02*
X108268928Y-122614285D01*
X108268928Y-122614285D02*
X108231785Y-122577142D01*
X108231785Y-122577142D02*
X108194642Y-122502857D01*
X108194642Y-122502857D02*
X108194642Y-122317142D01*
X108194642Y-122317142D02*
X108231785Y-122205714D01*
X108194642Y-121945714D02*
X108974642Y-121760000D01*
X108974642Y-121760000D02*
X108417500Y-121611428D01*
X108417500Y-121611428D02*
X108974642Y-121462857D01*
X108974642Y-121462857D02*
X108194642Y-121277143D01*
X108974642Y-120979999D02*
X108194642Y-120979999D01*
X108194642Y-120979999D02*
X108194642Y-120794285D01*
X108194642Y-120794285D02*
X108231785Y-120682856D01*
X108231785Y-120682856D02*
X108306071Y-120608571D01*
X108306071Y-120608571D02*
X108380357Y-120571428D01*
X108380357Y-120571428D02*
X108528928Y-120534285D01*
X108528928Y-120534285D02*
X108640357Y-120534285D01*
X108640357Y-120534285D02*
X108788928Y-120571428D01*
X108788928Y-120571428D02*
X108863214Y-120608571D01*
X108863214Y-120608571D02*
X108937500Y-120682856D01*
X108937500Y-120682856D02*
X108974642Y-120794285D01*
X108974642Y-120794285D02*
X108974642Y-120979999D01*
X108974642Y-120199999D02*
X108194642Y-120199999D01*
X108194642Y-119679999D02*
X108194642Y-119531427D01*
X108194642Y-119531427D02*
X108231785Y-119457142D01*
X108231785Y-119457142D02*
X108306071Y-119382856D01*
X108306071Y-119382856D02*
X108454642Y-119345713D01*
X108454642Y-119345713D02*
X108714642Y-119345713D01*
X108714642Y-119345713D02*
X108863214Y-119382856D01*
X108863214Y-119382856D02*
X108937500Y-119457142D01*
X108937500Y-119457142D02*
X108974642Y-119531427D01*
X108974642Y-119531427D02*
X108974642Y-119679999D01*
X108974642Y-119679999D02*
X108937500Y-119754285D01*
X108937500Y-119754285D02*
X108863214Y-119828570D01*
X108863214Y-119828570D02*
X108714642Y-119865713D01*
X108714642Y-119865713D02*
X108454642Y-119865713D01*
X108454642Y-119865713D02*
X108306071Y-119828570D01*
X108306071Y-119828570D02*
X108231785Y-119754285D01*
X108231785Y-119754285D02*
X108194642Y-119679999D01*
X110201100Y-122651428D02*
X110238242Y-122540000D01*
X110238242Y-122540000D02*
X110238242Y-122354285D01*
X110238242Y-122354285D02*
X110201100Y-122280000D01*
X110201100Y-122280000D02*
X110163957Y-122242857D01*
X110163957Y-122242857D02*
X110089671Y-122205714D01*
X110089671Y-122205714D02*
X110015385Y-122205714D01*
X110015385Y-122205714D02*
X109941100Y-122242857D01*
X109941100Y-122242857D02*
X109903957Y-122280000D01*
X109903957Y-122280000D02*
X109866814Y-122354285D01*
X109866814Y-122354285D02*
X109829671Y-122502857D01*
X109829671Y-122502857D02*
X109792528Y-122577142D01*
X109792528Y-122577142D02*
X109755385Y-122614285D01*
X109755385Y-122614285D02*
X109681100Y-122651428D01*
X109681100Y-122651428D02*
X109606814Y-122651428D01*
X109606814Y-122651428D02*
X109532528Y-122614285D01*
X109532528Y-122614285D02*
X109495385Y-122577142D01*
X109495385Y-122577142D02*
X109458242Y-122502857D01*
X109458242Y-122502857D02*
X109458242Y-122317142D01*
X109458242Y-122317142D02*
X109495385Y-122205714D01*
X109458242Y-121945714D02*
X110238242Y-121760000D01*
X110238242Y-121760000D02*
X109681100Y-121611428D01*
X109681100Y-121611428D02*
X110238242Y-121462857D01*
X110238242Y-121462857D02*
X109458242Y-121277143D01*
X110163957Y-120534285D02*
X110201100Y-120571428D01*
X110201100Y-120571428D02*
X110238242Y-120682856D01*
X110238242Y-120682856D02*
X110238242Y-120757142D01*
X110238242Y-120757142D02*
X110201100Y-120868571D01*
X110201100Y-120868571D02*
X110126814Y-120942856D01*
X110126814Y-120942856D02*
X110052528Y-120979999D01*
X110052528Y-120979999D02*
X109903957Y-121017142D01*
X109903957Y-121017142D02*
X109792528Y-121017142D01*
X109792528Y-121017142D02*
X109643957Y-120979999D01*
X109643957Y-120979999D02*
X109569671Y-120942856D01*
X109569671Y-120942856D02*
X109495385Y-120868571D01*
X109495385Y-120868571D02*
X109458242Y-120757142D01*
X109458242Y-120757142D02*
X109458242Y-120682856D01*
X109458242Y-120682856D02*
X109495385Y-120571428D01*
X109495385Y-120571428D02*
X109532528Y-120534285D01*
X110238242Y-119828571D02*
X110238242Y-120199999D01*
X110238242Y-120199999D02*
X109458242Y-120199999D01*
X110238242Y-119568570D02*
X109458242Y-119568570D01*
X110238242Y-119122856D02*
X109792528Y-119457142D01*
X109458242Y-119122856D02*
X109903957Y-119568570D01*
X110758985Y-122205714D02*
X110721842Y-122280000D01*
X110721842Y-122280000D02*
X110721842Y-122391428D01*
X110721842Y-122391428D02*
X110758985Y-122502857D01*
X110758985Y-122502857D02*
X110833271Y-122577142D01*
X110833271Y-122577142D02*
X110907557Y-122614285D01*
X110907557Y-122614285D02*
X111056128Y-122651428D01*
X111056128Y-122651428D02*
X111167557Y-122651428D01*
X111167557Y-122651428D02*
X111316128Y-122614285D01*
X111316128Y-122614285D02*
X111390414Y-122577142D01*
X111390414Y-122577142D02*
X111464700Y-122502857D01*
X111464700Y-122502857D02*
X111501842Y-122391428D01*
X111501842Y-122391428D02*
X111501842Y-122317142D01*
X111501842Y-122317142D02*
X111464700Y-122205714D01*
X111464700Y-122205714D02*
X111427557Y-122168571D01*
X111427557Y-122168571D02*
X111167557Y-122168571D01*
X111167557Y-122168571D02*
X111167557Y-122317142D01*
X111501842Y-121834285D02*
X110721842Y-121834285D01*
X110721842Y-121834285D02*
X111501842Y-121388571D01*
X111501842Y-121388571D02*
X110721842Y-121388571D01*
X111501842Y-121017142D02*
X110721842Y-121017142D01*
X110721842Y-121017142D02*
X110721842Y-120831428D01*
X110721842Y-120831428D02*
X110758985Y-120719999D01*
X110758985Y-120719999D02*
X110833271Y-120645714D01*
X110833271Y-120645714D02*
X110907557Y-120608571D01*
X110907557Y-120608571D02*
X111056128Y-120571428D01*
X111056128Y-120571428D02*
X111167557Y-120571428D01*
X111167557Y-120571428D02*
X111316128Y-120608571D01*
X111316128Y-120608571D02*
X111390414Y-120645714D01*
X111390414Y-120645714D02*
X111464700Y-120719999D01*
X111464700Y-120719999D02*
X111501842Y-120831428D01*
X111501842Y-120831428D02*
X111501842Y-121017142D01*
X112691157Y-122168571D02*
X112728300Y-122205714D01*
X112728300Y-122205714D02*
X112765442Y-122317142D01*
X112765442Y-122317142D02*
X112765442Y-122391428D01*
X112765442Y-122391428D02*
X112728300Y-122502857D01*
X112728300Y-122502857D02*
X112654014Y-122577142D01*
X112654014Y-122577142D02*
X112579728Y-122614285D01*
X112579728Y-122614285D02*
X112431157Y-122651428D01*
X112431157Y-122651428D02*
X112319728Y-122651428D01*
X112319728Y-122651428D02*
X112171157Y-122614285D01*
X112171157Y-122614285D02*
X112096871Y-122577142D01*
X112096871Y-122577142D02*
X112022585Y-122502857D01*
X112022585Y-122502857D02*
X111985442Y-122391428D01*
X111985442Y-122391428D02*
X111985442Y-122317142D01*
X111985442Y-122317142D02*
X112022585Y-122205714D01*
X112022585Y-122205714D02*
X112059728Y-122168571D01*
X112542585Y-121871428D02*
X112542585Y-121500000D01*
X112765442Y-121945714D02*
X111985442Y-121685714D01*
X111985442Y-121685714D02*
X112765442Y-121425714D01*
X112765442Y-121165714D02*
X111985442Y-121165714D01*
X111985442Y-121165714D02*
X112765442Y-120720000D01*
X112765442Y-120720000D02*
X111985442Y-120720000D01*
X112765442Y-120348571D02*
X111985442Y-120348571D01*
X112356871Y-120348571D02*
X112356871Y-119902857D01*
X112765442Y-119902857D02*
X111985442Y-119902857D01*
X113954757Y-122168571D02*
X113991900Y-122205714D01*
X113991900Y-122205714D02*
X114029042Y-122317142D01*
X114029042Y-122317142D02*
X114029042Y-122391428D01*
X114029042Y-122391428D02*
X113991900Y-122502857D01*
X113991900Y-122502857D02*
X113917614Y-122577142D01*
X113917614Y-122577142D02*
X113843328Y-122614285D01*
X113843328Y-122614285D02*
X113694757Y-122651428D01*
X113694757Y-122651428D02*
X113583328Y-122651428D01*
X113583328Y-122651428D02*
X113434757Y-122614285D01*
X113434757Y-122614285D02*
X113360471Y-122577142D01*
X113360471Y-122577142D02*
X113286185Y-122502857D01*
X113286185Y-122502857D02*
X113249042Y-122391428D01*
X113249042Y-122391428D02*
X113249042Y-122317142D01*
X113249042Y-122317142D02*
X113286185Y-122205714D01*
X113286185Y-122205714D02*
X113323328Y-122168571D01*
X113806185Y-121871428D02*
X113806185Y-121500000D01*
X114029042Y-121945714D02*
X113249042Y-121685714D01*
X113249042Y-121685714D02*
X114029042Y-121425714D01*
X114029042Y-121165714D02*
X113249042Y-121165714D01*
X113249042Y-121165714D02*
X114029042Y-120720000D01*
X114029042Y-120720000D02*
X113249042Y-120720000D01*
X114029042Y-119977143D02*
X114029042Y-120348571D01*
X114029042Y-120348571D02*
X113249042Y-120348571D01*
X115292642Y-122205714D02*
X115292642Y-122651428D01*
X115292642Y-122428571D02*
X114512642Y-122428571D01*
X114512642Y-122428571D02*
X114624071Y-122502857D01*
X114624071Y-122502857D02*
X114698357Y-122577142D01*
X114698357Y-122577142D02*
X114735500Y-122651428D01*
X114586928Y-121908571D02*
X114549785Y-121871428D01*
X114549785Y-121871428D02*
X114512642Y-121797143D01*
X114512642Y-121797143D02*
X114512642Y-121611428D01*
X114512642Y-121611428D02*
X114549785Y-121537143D01*
X114549785Y-121537143D02*
X114586928Y-121500000D01*
X114586928Y-121500000D02*
X114661214Y-121462857D01*
X114661214Y-121462857D02*
X114735500Y-121462857D01*
X114735500Y-121462857D02*
X114846928Y-121500000D01*
X114846928Y-121500000D02*
X115292642Y-121945714D01*
X115292642Y-121945714D02*
X115292642Y-121462857D01*
X114512642Y-121240000D02*
X115292642Y-120980000D01*
X115292642Y-120980000D02*
X114512642Y-120720000D01*
X116519100Y-122651428D02*
X116556242Y-122540000D01*
X116556242Y-122540000D02*
X116556242Y-122354285D01*
X116556242Y-122354285D02*
X116519100Y-122280000D01*
X116519100Y-122280000D02*
X116481957Y-122242857D01*
X116481957Y-122242857D02*
X116407671Y-122205714D01*
X116407671Y-122205714D02*
X116333385Y-122205714D01*
X116333385Y-122205714D02*
X116259100Y-122242857D01*
X116259100Y-122242857D02*
X116221957Y-122280000D01*
X116221957Y-122280000D02*
X116184814Y-122354285D01*
X116184814Y-122354285D02*
X116147671Y-122502857D01*
X116147671Y-122502857D02*
X116110528Y-122577142D01*
X116110528Y-122577142D02*
X116073385Y-122614285D01*
X116073385Y-122614285D02*
X115999100Y-122651428D01*
X115999100Y-122651428D02*
X115924814Y-122651428D01*
X115924814Y-122651428D02*
X115850528Y-122614285D01*
X115850528Y-122614285D02*
X115813385Y-122577142D01*
X115813385Y-122577142D02*
X115776242Y-122502857D01*
X115776242Y-122502857D02*
X115776242Y-122317142D01*
X115776242Y-122317142D02*
X115813385Y-122205714D01*
X115776242Y-121945714D02*
X116556242Y-121760000D01*
X116556242Y-121760000D02*
X115999100Y-121611428D01*
X115999100Y-121611428D02*
X116556242Y-121462857D01*
X116556242Y-121462857D02*
X115776242Y-121277143D01*
X115850528Y-121017142D02*
X115813385Y-120979999D01*
X115813385Y-120979999D02*
X115776242Y-120905714D01*
X115776242Y-120905714D02*
X115776242Y-120719999D01*
X115776242Y-120719999D02*
X115813385Y-120645714D01*
X115813385Y-120645714D02*
X115850528Y-120608571D01*
X115850528Y-120608571D02*
X115924814Y-120571428D01*
X115924814Y-120571428D02*
X115999100Y-120571428D01*
X115999100Y-120571428D02*
X116110528Y-120608571D01*
X116110528Y-120608571D02*
X116556242Y-121054285D01*
X116556242Y-121054285D02*
X116556242Y-120571428D01*
X116630528Y-120422857D02*
X116630528Y-119828571D01*
X115850528Y-119679999D02*
X115813385Y-119642856D01*
X115813385Y-119642856D02*
X115776242Y-119568571D01*
X115776242Y-119568571D02*
X115776242Y-119382856D01*
X115776242Y-119382856D02*
X115813385Y-119308571D01*
X115813385Y-119308571D02*
X115850528Y-119271428D01*
X115850528Y-119271428D02*
X115924814Y-119234285D01*
X115924814Y-119234285D02*
X115999100Y-119234285D01*
X115999100Y-119234285D02*
X116110528Y-119271428D01*
X116110528Y-119271428D02*
X116556242Y-119717142D01*
X116556242Y-119717142D02*
X116556242Y-119234285D01*
X117782700Y-122651428D02*
X117819842Y-122540000D01*
X117819842Y-122540000D02*
X117819842Y-122354285D01*
X117819842Y-122354285D02*
X117782700Y-122280000D01*
X117782700Y-122280000D02*
X117745557Y-122242857D01*
X117745557Y-122242857D02*
X117671271Y-122205714D01*
X117671271Y-122205714D02*
X117596985Y-122205714D01*
X117596985Y-122205714D02*
X117522700Y-122242857D01*
X117522700Y-122242857D02*
X117485557Y-122280000D01*
X117485557Y-122280000D02*
X117448414Y-122354285D01*
X117448414Y-122354285D02*
X117411271Y-122502857D01*
X117411271Y-122502857D02*
X117374128Y-122577142D01*
X117374128Y-122577142D02*
X117336985Y-122614285D01*
X117336985Y-122614285D02*
X117262700Y-122651428D01*
X117262700Y-122651428D02*
X117188414Y-122651428D01*
X117188414Y-122651428D02*
X117114128Y-122614285D01*
X117114128Y-122614285D02*
X117076985Y-122577142D01*
X117076985Y-122577142D02*
X117039842Y-122502857D01*
X117039842Y-122502857D02*
X117039842Y-122317142D01*
X117039842Y-122317142D02*
X117076985Y-122205714D01*
X117039842Y-121945714D02*
X117819842Y-121760000D01*
X117819842Y-121760000D02*
X117262700Y-121611428D01*
X117262700Y-121611428D02*
X117819842Y-121462857D01*
X117819842Y-121462857D02*
X117039842Y-121277143D01*
X117114128Y-121017142D02*
X117076985Y-120979999D01*
X117076985Y-120979999D02*
X117039842Y-120905714D01*
X117039842Y-120905714D02*
X117039842Y-120719999D01*
X117039842Y-120719999D02*
X117076985Y-120645714D01*
X117076985Y-120645714D02*
X117114128Y-120608571D01*
X117114128Y-120608571D02*
X117188414Y-120571428D01*
X117188414Y-120571428D02*
X117262700Y-120571428D01*
X117262700Y-120571428D02*
X117374128Y-120608571D01*
X117374128Y-120608571D02*
X117819842Y-121054285D01*
X117819842Y-121054285D02*
X117819842Y-120571428D01*
X117894128Y-120422857D02*
X117894128Y-119828571D01*
X117819842Y-119234285D02*
X117819842Y-119679999D01*
X117819842Y-119457142D02*
X117039842Y-119457142D01*
X117039842Y-119457142D02*
X117151271Y-119531428D01*
X117151271Y-119531428D02*
X117225557Y-119605713D01*
X117225557Y-119605713D02*
X117262700Y-119679999D01*
X119046300Y-122651428D02*
X119083442Y-122540000D01*
X119083442Y-122540000D02*
X119083442Y-122354285D01*
X119083442Y-122354285D02*
X119046300Y-122280000D01*
X119046300Y-122280000D02*
X119009157Y-122242857D01*
X119009157Y-122242857D02*
X118934871Y-122205714D01*
X118934871Y-122205714D02*
X118860585Y-122205714D01*
X118860585Y-122205714D02*
X118786300Y-122242857D01*
X118786300Y-122242857D02*
X118749157Y-122280000D01*
X118749157Y-122280000D02*
X118712014Y-122354285D01*
X118712014Y-122354285D02*
X118674871Y-122502857D01*
X118674871Y-122502857D02*
X118637728Y-122577142D01*
X118637728Y-122577142D02*
X118600585Y-122614285D01*
X118600585Y-122614285D02*
X118526300Y-122651428D01*
X118526300Y-122651428D02*
X118452014Y-122651428D01*
X118452014Y-122651428D02*
X118377728Y-122614285D01*
X118377728Y-122614285D02*
X118340585Y-122577142D01*
X118340585Y-122577142D02*
X118303442Y-122502857D01*
X118303442Y-122502857D02*
X118303442Y-122317142D01*
X118303442Y-122317142D02*
X118340585Y-122205714D01*
X118303442Y-121945714D02*
X119083442Y-121760000D01*
X119083442Y-121760000D02*
X118526300Y-121611428D01*
X118526300Y-121611428D02*
X119083442Y-121462857D01*
X119083442Y-121462857D02*
X118303442Y-121277143D01*
X119083442Y-120571428D02*
X119083442Y-121017142D01*
X119083442Y-120794285D02*
X118303442Y-120794285D01*
X118303442Y-120794285D02*
X118414871Y-120868571D01*
X118414871Y-120868571D02*
X118489157Y-120942856D01*
X118489157Y-120942856D02*
X118526300Y-121017142D01*
X119157728Y-120422857D02*
X119157728Y-119828571D01*
X118377728Y-119679999D02*
X118340585Y-119642856D01*
X118340585Y-119642856D02*
X118303442Y-119568571D01*
X118303442Y-119568571D02*
X118303442Y-119382856D01*
X118303442Y-119382856D02*
X118340585Y-119308571D01*
X118340585Y-119308571D02*
X118377728Y-119271428D01*
X118377728Y-119271428D02*
X118452014Y-119234285D01*
X118452014Y-119234285D02*
X118526300Y-119234285D01*
X118526300Y-119234285D02*
X118637728Y-119271428D01*
X118637728Y-119271428D02*
X119083442Y-119717142D01*
X119083442Y-119717142D02*
X119083442Y-119234285D01*
X120309900Y-122651428D02*
X120347042Y-122540000D01*
X120347042Y-122540000D02*
X120347042Y-122354285D01*
X120347042Y-122354285D02*
X120309900Y-122280000D01*
X120309900Y-122280000D02*
X120272757Y-122242857D01*
X120272757Y-122242857D02*
X120198471Y-122205714D01*
X120198471Y-122205714D02*
X120124185Y-122205714D01*
X120124185Y-122205714D02*
X120049900Y-122242857D01*
X120049900Y-122242857D02*
X120012757Y-122280000D01*
X120012757Y-122280000D02*
X119975614Y-122354285D01*
X119975614Y-122354285D02*
X119938471Y-122502857D01*
X119938471Y-122502857D02*
X119901328Y-122577142D01*
X119901328Y-122577142D02*
X119864185Y-122614285D01*
X119864185Y-122614285D02*
X119789900Y-122651428D01*
X119789900Y-122651428D02*
X119715614Y-122651428D01*
X119715614Y-122651428D02*
X119641328Y-122614285D01*
X119641328Y-122614285D02*
X119604185Y-122577142D01*
X119604185Y-122577142D02*
X119567042Y-122502857D01*
X119567042Y-122502857D02*
X119567042Y-122317142D01*
X119567042Y-122317142D02*
X119604185Y-122205714D01*
X119567042Y-121945714D02*
X120347042Y-121760000D01*
X120347042Y-121760000D02*
X119789900Y-121611428D01*
X119789900Y-121611428D02*
X120347042Y-121462857D01*
X120347042Y-121462857D02*
X119567042Y-121277143D01*
X120347042Y-120571428D02*
X120347042Y-121017142D01*
X120347042Y-120794285D02*
X119567042Y-120794285D01*
X119567042Y-120794285D02*
X119678471Y-120868571D01*
X119678471Y-120868571D02*
X119752757Y-120942856D01*
X119752757Y-120942856D02*
X119789900Y-121017142D01*
X120421328Y-120422857D02*
X120421328Y-119828571D01*
X120347042Y-119234285D02*
X120347042Y-119679999D01*
X120347042Y-119457142D02*
X119567042Y-119457142D01*
X119567042Y-119457142D02*
X119678471Y-119531428D01*
X119678471Y-119531428D02*
X119752757Y-119605713D01*
X119752757Y-119605713D02*
X119789900Y-119679999D01*
D10*
X85642857Y-151678928D02*
X85642857Y-152893214D01*
X85642857Y-152893214D02*
X85714286Y-153036071D01*
X85714286Y-153036071D02*
X85785715Y-153107500D01*
X85785715Y-153107500D02*
X85928572Y-153178928D01*
X85928572Y-153178928D02*
X86214286Y-153178928D01*
X86214286Y-153178928D02*
X86357143Y-153107500D01*
X86357143Y-153107500D02*
X86428572Y-153036071D01*
X86428572Y-153036071D02*
X86500000Y-152893214D01*
X86500000Y-152893214D02*
X86500000Y-151678928D01*
X88000001Y-151750357D02*
X87857144Y-151678928D01*
X87857144Y-151678928D02*
X87642858Y-151678928D01*
X87642858Y-151678928D02*
X87428572Y-151750357D01*
X87428572Y-151750357D02*
X87285715Y-151893214D01*
X87285715Y-151893214D02*
X87214286Y-152036071D01*
X87214286Y-152036071D02*
X87142858Y-152321785D01*
X87142858Y-152321785D02*
X87142858Y-152536071D01*
X87142858Y-152536071D02*
X87214286Y-152821785D01*
X87214286Y-152821785D02*
X87285715Y-152964642D01*
X87285715Y-152964642D02*
X87428572Y-153107500D01*
X87428572Y-153107500D02*
X87642858Y-153178928D01*
X87642858Y-153178928D02*
X87785715Y-153178928D01*
X87785715Y-153178928D02*
X88000001Y-153107500D01*
X88000001Y-153107500D02*
X88071429Y-153036071D01*
X88071429Y-153036071D02*
X88071429Y-152536071D01*
X88071429Y-152536071D02*
X87785715Y-152536071D01*
X89571429Y-153178928D02*
X89071429Y-152464642D01*
X88714286Y-153178928D02*
X88714286Y-151678928D01*
X88714286Y-151678928D02*
X89285715Y-151678928D01*
X89285715Y-151678928D02*
X89428572Y-151750357D01*
X89428572Y-151750357D02*
X89500001Y-151821785D01*
X89500001Y-151821785D02*
X89571429Y-151964642D01*
X89571429Y-151964642D02*
X89571429Y-152178928D01*
X89571429Y-152178928D02*
X89500001Y-152321785D01*
X89500001Y-152321785D02*
X89428572Y-152393214D01*
X89428572Y-152393214D02*
X89285715Y-152464642D01*
X89285715Y-152464642D02*
X88714286Y-152464642D01*
X90142858Y-151821785D02*
X90214286Y-151750357D01*
X90214286Y-151750357D02*
X90357144Y-151678928D01*
X90357144Y-151678928D02*
X90714286Y-151678928D01*
X90714286Y-151678928D02*
X90857144Y-151750357D01*
X90857144Y-151750357D02*
X90928572Y-151821785D01*
X90928572Y-151821785D02*
X91000001Y-151964642D01*
X91000001Y-151964642D02*
X91000001Y-152107500D01*
X91000001Y-152107500D02*
X90928572Y-152321785D01*
X90928572Y-152321785D02*
X90071429Y-153178928D01*
X90071429Y-153178928D02*
X91000001Y-153178928D01*
X91500000Y-151678928D02*
X92428572Y-151678928D01*
X92428572Y-151678928D02*
X91928572Y-152250357D01*
X91928572Y-152250357D02*
X92142857Y-152250357D01*
X92142857Y-152250357D02*
X92285715Y-152321785D01*
X92285715Y-152321785D02*
X92357143Y-152393214D01*
X92357143Y-152393214D02*
X92428572Y-152536071D01*
X92428572Y-152536071D02*
X92428572Y-152893214D01*
X92428572Y-152893214D02*
X92357143Y-153036071D01*
X92357143Y-153036071D02*
X92285715Y-153107500D01*
X92285715Y-153107500D02*
X92142857Y-153178928D01*
X92142857Y-153178928D02*
X91714286Y-153178928D01*
X91714286Y-153178928D02*
X91571429Y-153107500D01*
X91571429Y-153107500D02*
X91500000Y-153036071D01*
X80892858Y-155537500D02*
X81107144Y-155608928D01*
X81107144Y-155608928D02*
X81464286Y-155608928D01*
X81464286Y-155608928D02*
X81607144Y-155537500D01*
X81607144Y-155537500D02*
X81678572Y-155466071D01*
X81678572Y-155466071D02*
X81750001Y-155323214D01*
X81750001Y-155323214D02*
X81750001Y-155180357D01*
X81750001Y-155180357D02*
X81678572Y-155037500D01*
X81678572Y-155037500D02*
X81607144Y-154966071D01*
X81607144Y-154966071D02*
X81464286Y-154894642D01*
X81464286Y-154894642D02*
X81178572Y-154823214D01*
X81178572Y-154823214D02*
X81035715Y-154751785D01*
X81035715Y-154751785D02*
X80964286Y-154680357D01*
X80964286Y-154680357D02*
X80892858Y-154537500D01*
X80892858Y-154537500D02*
X80892858Y-154394642D01*
X80892858Y-154394642D02*
X80964286Y-154251785D01*
X80964286Y-154251785D02*
X81035715Y-154180357D01*
X81035715Y-154180357D02*
X81178572Y-154108928D01*
X81178572Y-154108928D02*
X81535715Y-154108928D01*
X81535715Y-154108928D02*
X81750001Y-154180357D01*
X83035715Y-155537500D02*
X82892857Y-155608928D01*
X82892857Y-155608928D02*
X82607143Y-155608928D01*
X82607143Y-155608928D02*
X82464286Y-155537500D01*
X82464286Y-155537500D02*
X82392857Y-155466071D01*
X82392857Y-155466071D02*
X82321429Y-155323214D01*
X82321429Y-155323214D02*
X82321429Y-154894642D01*
X82321429Y-154894642D02*
X82392857Y-154751785D01*
X82392857Y-154751785D02*
X82464286Y-154680357D01*
X82464286Y-154680357D02*
X82607143Y-154608928D01*
X82607143Y-154608928D02*
X82892857Y-154608928D01*
X82892857Y-154608928D02*
X83035715Y-154680357D01*
X83678571Y-155608928D02*
X83678571Y-154608928D01*
X83678571Y-154894642D02*
X83750000Y-154751785D01*
X83750000Y-154751785D02*
X83821429Y-154680357D01*
X83821429Y-154680357D02*
X83964286Y-154608928D01*
X83964286Y-154608928D02*
X84107143Y-154608928D01*
X85178571Y-155537500D02*
X85035714Y-155608928D01*
X85035714Y-155608928D02*
X84750000Y-155608928D01*
X84750000Y-155608928D02*
X84607142Y-155537500D01*
X84607142Y-155537500D02*
X84535714Y-155394642D01*
X84535714Y-155394642D02*
X84535714Y-154823214D01*
X84535714Y-154823214D02*
X84607142Y-154680357D01*
X84607142Y-154680357D02*
X84750000Y-154608928D01*
X84750000Y-154608928D02*
X85035714Y-154608928D01*
X85035714Y-154608928D02*
X85178571Y-154680357D01*
X85178571Y-154680357D02*
X85250000Y-154823214D01*
X85250000Y-154823214D02*
X85250000Y-154966071D01*
X85250000Y-154966071D02*
X84535714Y-155108928D01*
X86464285Y-155537500D02*
X86321428Y-155608928D01*
X86321428Y-155608928D02*
X86035714Y-155608928D01*
X86035714Y-155608928D02*
X85892856Y-155537500D01*
X85892856Y-155537500D02*
X85821428Y-155394642D01*
X85821428Y-155394642D02*
X85821428Y-154823214D01*
X85821428Y-154823214D02*
X85892856Y-154680357D01*
X85892856Y-154680357D02*
X86035714Y-154608928D01*
X86035714Y-154608928D02*
X86321428Y-154608928D01*
X86321428Y-154608928D02*
X86464285Y-154680357D01*
X86464285Y-154680357D02*
X86535714Y-154823214D01*
X86535714Y-154823214D02*
X86535714Y-154966071D01*
X86535714Y-154966071D02*
X85821428Y-155108928D01*
X87178570Y-154608928D02*
X87178570Y-155608928D01*
X87178570Y-154751785D02*
X87249999Y-154680357D01*
X87249999Y-154680357D02*
X87392856Y-154608928D01*
X87392856Y-154608928D02*
X87607142Y-154608928D01*
X87607142Y-154608928D02*
X87749999Y-154680357D01*
X87749999Y-154680357D02*
X87821428Y-154823214D01*
X87821428Y-154823214D02*
X87821428Y-155608928D01*
X89678570Y-155608928D02*
X89678570Y-154108928D01*
X89678570Y-154108928D02*
X90035713Y-154108928D01*
X90035713Y-154108928D02*
X90249999Y-154180357D01*
X90249999Y-154180357D02*
X90392856Y-154323214D01*
X90392856Y-154323214D02*
X90464285Y-154466071D01*
X90464285Y-154466071D02*
X90535713Y-154751785D01*
X90535713Y-154751785D02*
X90535713Y-154966071D01*
X90535713Y-154966071D02*
X90464285Y-155251785D01*
X90464285Y-155251785D02*
X90392856Y-155394642D01*
X90392856Y-155394642D02*
X90249999Y-155537500D01*
X90249999Y-155537500D02*
X90035713Y-155608928D01*
X90035713Y-155608928D02*
X89678570Y-155608928D01*
X91178570Y-155608928D02*
X91178570Y-154608928D01*
X91178570Y-154108928D02*
X91107142Y-154180357D01*
X91107142Y-154180357D02*
X91178570Y-154251785D01*
X91178570Y-154251785D02*
X91249999Y-154180357D01*
X91249999Y-154180357D02*
X91178570Y-154108928D01*
X91178570Y-154108928D02*
X91178570Y-154251785D01*
X91821428Y-155537500D02*
X91964285Y-155608928D01*
X91964285Y-155608928D02*
X92249999Y-155608928D01*
X92249999Y-155608928D02*
X92392856Y-155537500D01*
X92392856Y-155537500D02*
X92464285Y-155394642D01*
X92464285Y-155394642D02*
X92464285Y-155323214D01*
X92464285Y-155323214D02*
X92392856Y-155180357D01*
X92392856Y-155180357D02*
X92249999Y-155108928D01*
X92249999Y-155108928D02*
X92035714Y-155108928D01*
X92035714Y-155108928D02*
X91892856Y-155037500D01*
X91892856Y-155037500D02*
X91821428Y-154894642D01*
X91821428Y-154894642D02*
X91821428Y-154823214D01*
X91821428Y-154823214D02*
X91892856Y-154680357D01*
X91892856Y-154680357D02*
X92035714Y-154608928D01*
X92035714Y-154608928D02*
X92249999Y-154608928D01*
X92249999Y-154608928D02*
X92392856Y-154680357D01*
X93107142Y-154608928D02*
X93107142Y-156108928D01*
X93107142Y-154680357D02*
X93250000Y-154608928D01*
X93250000Y-154608928D02*
X93535714Y-154608928D01*
X93535714Y-154608928D02*
X93678571Y-154680357D01*
X93678571Y-154680357D02*
X93750000Y-154751785D01*
X93750000Y-154751785D02*
X93821428Y-154894642D01*
X93821428Y-154894642D02*
X93821428Y-155323214D01*
X93821428Y-155323214D02*
X93750000Y-155466071D01*
X93750000Y-155466071D02*
X93678571Y-155537500D01*
X93678571Y-155537500D02*
X93535714Y-155608928D01*
X93535714Y-155608928D02*
X93250000Y-155608928D01*
X93250000Y-155608928D02*
X93107142Y-155537500D01*
X94678571Y-155608928D02*
X94535714Y-155537500D01*
X94535714Y-155537500D02*
X94464285Y-155394642D01*
X94464285Y-155394642D02*
X94464285Y-154108928D01*
X95892857Y-155608928D02*
X95892857Y-154823214D01*
X95892857Y-154823214D02*
X95821428Y-154680357D01*
X95821428Y-154680357D02*
X95678571Y-154608928D01*
X95678571Y-154608928D02*
X95392857Y-154608928D01*
X95392857Y-154608928D02*
X95249999Y-154680357D01*
X95892857Y-155537500D02*
X95749999Y-155608928D01*
X95749999Y-155608928D02*
X95392857Y-155608928D01*
X95392857Y-155608928D02*
X95249999Y-155537500D01*
X95249999Y-155537500D02*
X95178571Y-155394642D01*
X95178571Y-155394642D02*
X95178571Y-155251785D01*
X95178571Y-155251785D02*
X95249999Y-155108928D01*
X95249999Y-155108928D02*
X95392857Y-155037500D01*
X95392857Y-155037500D02*
X95749999Y-155037500D01*
X95749999Y-155037500D02*
X95892857Y-154966071D01*
X96464285Y-154608928D02*
X96821428Y-155608928D01*
X97178571Y-154608928D02*
X96821428Y-155608928D01*
X96821428Y-155608928D02*
X96678571Y-155966071D01*
X96678571Y-155966071D02*
X96607142Y-156037500D01*
X96607142Y-156037500D02*
X96464285Y-156108928D01*
X91162619Y-120790475D02*
X91162619Y-120171428D01*
X91162619Y-120171428D02*
X91543571Y-120504761D01*
X91543571Y-120504761D02*
X91543571Y-120361904D01*
X91543571Y-120361904D02*
X91591190Y-120266666D01*
X91591190Y-120266666D02*
X91638809Y-120219047D01*
X91638809Y-120219047D02*
X91734047Y-120171428D01*
X91734047Y-120171428D02*
X91972142Y-120171428D01*
X91972142Y-120171428D02*
X92067380Y-120219047D01*
X92067380Y-120219047D02*
X92115000Y-120266666D01*
X92115000Y-120266666D02*
X92162619Y-120361904D01*
X92162619Y-120361904D02*
X92162619Y-120647618D01*
X92162619Y-120647618D02*
X92115000Y-120742856D01*
X92115000Y-120742856D02*
X92067380Y-120790475D01*
X91495952Y-119838094D02*
X92162619Y-119599999D01*
X92162619Y-119599999D02*
X91495952Y-119361904D01*
X91162619Y-119076189D02*
X91162619Y-118457142D01*
X91162619Y-118457142D02*
X91543571Y-118790475D01*
X91543571Y-118790475D02*
X91543571Y-118647618D01*
X91543571Y-118647618D02*
X91591190Y-118552380D01*
X91591190Y-118552380D02*
X91638809Y-118504761D01*
X91638809Y-118504761D02*
X91734047Y-118457142D01*
X91734047Y-118457142D02*
X91972142Y-118457142D01*
X91972142Y-118457142D02*
X92067380Y-118504761D01*
X92067380Y-118504761D02*
X92115000Y-118552380D01*
X92115000Y-118552380D02*
X92162619Y-118647618D01*
X92162619Y-118647618D02*
X92162619Y-118933332D01*
X92162619Y-118933332D02*
X92115000Y-119028570D01*
X92115000Y-119028570D02*
X92067380Y-119076189D01*
D11*
%TO.C,R5*%
X90331309Y-135583333D02*
X90093214Y-135749999D01*
X90331309Y-135869047D02*
X89831309Y-135869047D01*
X89831309Y-135869047D02*
X89831309Y-135678571D01*
X89831309Y-135678571D02*
X89855119Y-135630952D01*
X89855119Y-135630952D02*
X89878928Y-135607142D01*
X89878928Y-135607142D02*
X89926547Y-135583333D01*
X89926547Y-135583333D02*
X89997976Y-135583333D01*
X89997976Y-135583333D02*
X90045595Y-135607142D01*
X90045595Y-135607142D02*
X90069404Y-135630952D01*
X90069404Y-135630952D02*
X90093214Y-135678571D01*
X90093214Y-135678571D02*
X90093214Y-135869047D01*
X89831309Y-135130952D02*
X89831309Y-135369047D01*
X89831309Y-135369047D02*
X90069404Y-135392856D01*
X90069404Y-135392856D02*
X90045595Y-135369047D01*
X90045595Y-135369047D02*
X90021785Y-135321428D01*
X90021785Y-135321428D02*
X90021785Y-135202380D01*
X90021785Y-135202380D02*
X90045595Y-135154761D01*
X90045595Y-135154761D02*
X90069404Y-135130952D01*
X90069404Y-135130952D02*
X90117023Y-135107142D01*
X90117023Y-135107142D02*
X90236071Y-135107142D01*
X90236071Y-135107142D02*
X90283690Y-135130952D01*
X90283690Y-135130952D02*
X90307500Y-135154761D01*
X90307500Y-135154761D02*
X90331309Y-135202380D01*
X90331309Y-135202380D02*
X90331309Y-135321428D01*
X90331309Y-135321428D02*
X90307500Y-135369047D01*
X90307500Y-135369047D02*
X90283690Y-135392856D01*
D10*
%TO.C,C6*%
X105733333Y-143807380D02*
X105685714Y-143855000D01*
X105685714Y-143855000D02*
X105542857Y-143902619D01*
X105542857Y-143902619D02*
X105447619Y-143902619D01*
X105447619Y-143902619D02*
X105304762Y-143855000D01*
X105304762Y-143855000D02*
X105209524Y-143759761D01*
X105209524Y-143759761D02*
X105161905Y-143664523D01*
X105161905Y-143664523D02*
X105114286Y-143474047D01*
X105114286Y-143474047D02*
X105114286Y-143331190D01*
X105114286Y-143331190D02*
X105161905Y-143140714D01*
X105161905Y-143140714D02*
X105209524Y-143045476D01*
X105209524Y-143045476D02*
X105304762Y-142950238D01*
X105304762Y-142950238D02*
X105447619Y-142902619D01*
X105447619Y-142902619D02*
X105542857Y-142902619D01*
X105542857Y-142902619D02*
X105685714Y-142950238D01*
X105685714Y-142950238D02*
X105733333Y-142997857D01*
X106590476Y-142902619D02*
X106400000Y-142902619D01*
X106400000Y-142902619D02*
X106304762Y-142950238D01*
X106304762Y-142950238D02*
X106257143Y-142997857D01*
X106257143Y-142997857D02*
X106161905Y-143140714D01*
X106161905Y-143140714D02*
X106114286Y-143331190D01*
X106114286Y-143331190D02*
X106114286Y-143712142D01*
X106114286Y-143712142D02*
X106161905Y-143807380D01*
X106161905Y-143807380D02*
X106209524Y-143855000D01*
X106209524Y-143855000D02*
X106304762Y-143902619D01*
X106304762Y-143902619D02*
X106495238Y-143902619D01*
X106495238Y-143902619D02*
X106590476Y-143855000D01*
X106590476Y-143855000D02*
X106638095Y-143807380D01*
X106638095Y-143807380D02*
X106685714Y-143712142D01*
X106685714Y-143712142D02*
X106685714Y-143474047D01*
X106685714Y-143474047D02*
X106638095Y-143378809D01*
X106638095Y-143378809D02*
X106590476Y-143331190D01*
X106590476Y-143331190D02*
X106495238Y-143283571D01*
X106495238Y-143283571D02*
X106304762Y-143283571D01*
X106304762Y-143283571D02*
X106209524Y-143331190D01*
X106209524Y-143331190D02*
X106161905Y-143378809D01*
X106161905Y-143378809D02*
X106114286Y-143474047D01*
%TO.C,X1*%
X118115476Y-163937619D02*
X118782142Y-164937619D01*
X118782142Y-163937619D02*
X118115476Y-164937619D01*
X119686904Y-164937619D02*
X119115476Y-164937619D01*
X119401190Y-164937619D02*
X119401190Y-163937619D01*
X119401190Y-163937619D02*
X119305952Y-164080476D01*
X119305952Y-164080476D02*
X119210714Y-164175714D01*
X119210714Y-164175714D02*
X119115476Y-164223333D01*
%TO.C,C21*%
X105642380Y-153667857D02*
X105690000Y-153715476D01*
X105690000Y-153715476D02*
X105737619Y-153858333D01*
X105737619Y-153858333D02*
X105737619Y-153953571D01*
X105737619Y-153953571D02*
X105690000Y-154096428D01*
X105690000Y-154096428D02*
X105594761Y-154191666D01*
X105594761Y-154191666D02*
X105499523Y-154239285D01*
X105499523Y-154239285D02*
X105309047Y-154286904D01*
X105309047Y-154286904D02*
X105166190Y-154286904D01*
X105166190Y-154286904D02*
X104975714Y-154239285D01*
X104975714Y-154239285D02*
X104880476Y-154191666D01*
X104880476Y-154191666D02*
X104785238Y-154096428D01*
X104785238Y-154096428D02*
X104737619Y-153953571D01*
X104737619Y-153953571D02*
X104737619Y-153858333D01*
X104737619Y-153858333D02*
X104785238Y-153715476D01*
X104785238Y-153715476D02*
X104832857Y-153667857D01*
X104832857Y-153286904D02*
X104785238Y-153239285D01*
X104785238Y-153239285D02*
X104737619Y-153144047D01*
X104737619Y-153144047D02*
X104737619Y-152905952D01*
X104737619Y-152905952D02*
X104785238Y-152810714D01*
X104785238Y-152810714D02*
X104832857Y-152763095D01*
X104832857Y-152763095D02*
X104928095Y-152715476D01*
X104928095Y-152715476D02*
X105023333Y-152715476D01*
X105023333Y-152715476D02*
X105166190Y-152763095D01*
X105166190Y-152763095D02*
X105737619Y-153334523D01*
X105737619Y-153334523D02*
X105737619Y-152715476D01*
X105737619Y-151763095D02*
X105737619Y-152334523D01*
X105737619Y-152048809D02*
X104737619Y-152048809D01*
X104737619Y-152048809D02*
X104880476Y-152144047D01*
X104880476Y-152144047D02*
X104975714Y-152239285D01*
X104975714Y-152239285D02*
X105023333Y-152334523D01*
%TO.C,R1*%
X110937619Y-153191666D02*
X110461428Y-153524999D01*
X110937619Y-153763094D02*
X109937619Y-153763094D01*
X109937619Y-153763094D02*
X109937619Y-153382142D01*
X109937619Y-153382142D02*
X109985238Y-153286904D01*
X109985238Y-153286904D02*
X110032857Y-153239285D01*
X110032857Y-153239285D02*
X110128095Y-153191666D01*
X110128095Y-153191666D02*
X110270952Y-153191666D01*
X110270952Y-153191666D02*
X110366190Y-153239285D01*
X110366190Y-153239285D02*
X110413809Y-153286904D01*
X110413809Y-153286904D02*
X110461428Y-153382142D01*
X110461428Y-153382142D02*
X110461428Y-153763094D01*
X110937619Y-152239285D02*
X110937619Y-152810713D01*
X110937619Y-152524999D02*
X109937619Y-152524999D01*
X109937619Y-152524999D02*
X110080476Y-152620237D01*
X110080476Y-152620237D02*
X110175714Y-152715475D01*
X110175714Y-152715475D02*
X110223333Y-152810713D01*
%TO.C,C1*%
X116292380Y-157041666D02*
X116340000Y-157089285D01*
X116340000Y-157089285D02*
X116387619Y-157232142D01*
X116387619Y-157232142D02*
X116387619Y-157327380D01*
X116387619Y-157327380D02*
X116340000Y-157470237D01*
X116340000Y-157470237D02*
X116244761Y-157565475D01*
X116244761Y-157565475D02*
X116149523Y-157613094D01*
X116149523Y-157613094D02*
X115959047Y-157660713D01*
X115959047Y-157660713D02*
X115816190Y-157660713D01*
X115816190Y-157660713D02*
X115625714Y-157613094D01*
X115625714Y-157613094D02*
X115530476Y-157565475D01*
X115530476Y-157565475D02*
X115435238Y-157470237D01*
X115435238Y-157470237D02*
X115387619Y-157327380D01*
X115387619Y-157327380D02*
X115387619Y-157232142D01*
X115387619Y-157232142D02*
X115435238Y-157089285D01*
X115435238Y-157089285D02*
X115482857Y-157041666D01*
X116387619Y-156089285D02*
X116387619Y-156660713D01*
X116387619Y-156374999D02*
X115387619Y-156374999D01*
X115387619Y-156374999D02*
X115530476Y-156470237D01*
X115530476Y-156470237D02*
X115625714Y-156565475D01*
X115625714Y-156565475D02*
X115673333Y-156660713D01*
%TO.C,R12*%
X139587619Y-163792857D02*
X139111428Y-164126190D01*
X139587619Y-164364285D02*
X138587619Y-164364285D01*
X138587619Y-164364285D02*
X138587619Y-163983333D01*
X138587619Y-163983333D02*
X138635238Y-163888095D01*
X138635238Y-163888095D02*
X138682857Y-163840476D01*
X138682857Y-163840476D02*
X138778095Y-163792857D01*
X138778095Y-163792857D02*
X138920952Y-163792857D01*
X138920952Y-163792857D02*
X139016190Y-163840476D01*
X139016190Y-163840476D02*
X139063809Y-163888095D01*
X139063809Y-163888095D02*
X139111428Y-163983333D01*
X139111428Y-163983333D02*
X139111428Y-164364285D01*
X139587619Y-162840476D02*
X139587619Y-163411904D01*
X139587619Y-163126190D02*
X138587619Y-163126190D01*
X138587619Y-163126190D02*
X138730476Y-163221428D01*
X138730476Y-163221428D02*
X138825714Y-163316666D01*
X138825714Y-163316666D02*
X138873333Y-163411904D01*
X138682857Y-162459523D02*
X138635238Y-162411904D01*
X138635238Y-162411904D02*
X138587619Y-162316666D01*
X138587619Y-162316666D02*
X138587619Y-162078571D01*
X138587619Y-162078571D02*
X138635238Y-161983333D01*
X138635238Y-161983333D02*
X138682857Y-161935714D01*
X138682857Y-161935714D02*
X138778095Y-161888095D01*
X138778095Y-161888095D02*
X138873333Y-161888095D01*
X138873333Y-161888095D02*
X139016190Y-161935714D01*
X139016190Y-161935714D02*
X139587619Y-162507142D01*
X139587619Y-162507142D02*
X139587619Y-161888095D01*
%TO.C,J2*%
X101666666Y-123287619D02*
X101666666Y-124001904D01*
X101666666Y-124001904D02*
X101619047Y-124144761D01*
X101619047Y-124144761D02*
X101523809Y-124240000D01*
X101523809Y-124240000D02*
X101380952Y-124287619D01*
X101380952Y-124287619D02*
X101285714Y-124287619D01*
X102095238Y-123382857D02*
X102142857Y-123335238D01*
X102142857Y-123335238D02*
X102238095Y-123287619D01*
X102238095Y-123287619D02*
X102476190Y-123287619D01*
X102476190Y-123287619D02*
X102571428Y-123335238D01*
X102571428Y-123335238D02*
X102619047Y-123382857D01*
X102619047Y-123382857D02*
X102666666Y-123478095D01*
X102666666Y-123478095D02*
X102666666Y-123573333D01*
X102666666Y-123573333D02*
X102619047Y-123716190D01*
X102619047Y-123716190D02*
X102047619Y-124287619D01*
X102047619Y-124287619D02*
X102666666Y-124287619D01*
%TO.C,R6*%
X123533333Y-154387619D02*
X123200000Y-153911428D01*
X122961905Y-154387619D02*
X122961905Y-153387619D01*
X122961905Y-153387619D02*
X123342857Y-153387619D01*
X123342857Y-153387619D02*
X123438095Y-153435238D01*
X123438095Y-153435238D02*
X123485714Y-153482857D01*
X123485714Y-153482857D02*
X123533333Y-153578095D01*
X123533333Y-153578095D02*
X123533333Y-153720952D01*
X123533333Y-153720952D02*
X123485714Y-153816190D01*
X123485714Y-153816190D02*
X123438095Y-153863809D01*
X123438095Y-153863809D02*
X123342857Y-153911428D01*
X123342857Y-153911428D02*
X122961905Y-153911428D01*
X124390476Y-153387619D02*
X124200000Y-153387619D01*
X124200000Y-153387619D02*
X124104762Y-153435238D01*
X124104762Y-153435238D02*
X124057143Y-153482857D01*
X124057143Y-153482857D02*
X123961905Y-153625714D01*
X123961905Y-153625714D02*
X123914286Y-153816190D01*
X123914286Y-153816190D02*
X123914286Y-154197142D01*
X123914286Y-154197142D02*
X123961905Y-154292380D01*
X123961905Y-154292380D02*
X124009524Y-154340000D01*
X124009524Y-154340000D02*
X124104762Y-154387619D01*
X124104762Y-154387619D02*
X124295238Y-154387619D01*
X124295238Y-154387619D02*
X124390476Y-154340000D01*
X124390476Y-154340000D02*
X124438095Y-154292380D01*
X124438095Y-154292380D02*
X124485714Y-154197142D01*
X124485714Y-154197142D02*
X124485714Y-153959047D01*
X124485714Y-153959047D02*
X124438095Y-153863809D01*
X124438095Y-153863809D02*
X124390476Y-153816190D01*
X124390476Y-153816190D02*
X124295238Y-153768571D01*
X124295238Y-153768571D02*
X124104762Y-153768571D01*
X124104762Y-153768571D02*
X124009524Y-153816190D01*
X124009524Y-153816190D02*
X123961905Y-153863809D01*
X123961905Y-153863809D02*
X123914286Y-153959047D01*
%TO.C,U1*%
X111688095Y-148662619D02*
X111688095Y-149472142D01*
X111688095Y-149472142D02*
X111735714Y-149567380D01*
X111735714Y-149567380D02*
X111783333Y-149615000D01*
X111783333Y-149615000D02*
X111878571Y-149662619D01*
X111878571Y-149662619D02*
X112069047Y-149662619D01*
X112069047Y-149662619D02*
X112164285Y-149615000D01*
X112164285Y-149615000D02*
X112211904Y-149567380D01*
X112211904Y-149567380D02*
X112259523Y-149472142D01*
X112259523Y-149472142D02*
X112259523Y-148662619D01*
X113259523Y-149662619D02*
X112688095Y-149662619D01*
X112973809Y-149662619D02*
X112973809Y-148662619D01*
X112973809Y-148662619D02*
X112878571Y-148805476D01*
X112878571Y-148805476D02*
X112783333Y-148900714D01*
X112783333Y-148900714D02*
X112688095Y-148948333D01*
%TO.C,C2*%
X112233333Y-162867380D02*
X112185714Y-162915000D01*
X112185714Y-162915000D02*
X112042857Y-162962619D01*
X112042857Y-162962619D02*
X111947619Y-162962619D01*
X111947619Y-162962619D02*
X111804762Y-162915000D01*
X111804762Y-162915000D02*
X111709524Y-162819761D01*
X111709524Y-162819761D02*
X111661905Y-162724523D01*
X111661905Y-162724523D02*
X111614286Y-162534047D01*
X111614286Y-162534047D02*
X111614286Y-162391190D01*
X111614286Y-162391190D02*
X111661905Y-162200714D01*
X111661905Y-162200714D02*
X111709524Y-162105476D01*
X111709524Y-162105476D02*
X111804762Y-162010238D01*
X111804762Y-162010238D02*
X111947619Y-161962619D01*
X111947619Y-161962619D02*
X112042857Y-161962619D01*
X112042857Y-161962619D02*
X112185714Y-162010238D01*
X112185714Y-162010238D02*
X112233333Y-162057857D01*
X112614286Y-162057857D02*
X112661905Y-162010238D01*
X112661905Y-162010238D02*
X112757143Y-161962619D01*
X112757143Y-161962619D02*
X112995238Y-161962619D01*
X112995238Y-161962619D02*
X113090476Y-162010238D01*
X113090476Y-162010238D02*
X113138095Y-162057857D01*
X113138095Y-162057857D02*
X113185714Y-162153095D01*
X113185714Y-162153095D02*
X113185714Y-162248333D01*
X113185714Y-162248333D02*
X113138095Y-162391190D01*
X113138095Y-162391190D02*
X112566667Y-162962619D01*
X112566667Y-162962619D02*
X113185714Y-162962619D01*
%TO.C,J1*%
X113966666Y-130012619D02*
X113966666Y-130726904D01*
X113966666Y-130726904D02*
X113919047Y-130869761D01*
X113919047Y-130869761D02*
X113823809Y-130965000D01*
X113823809Y-130965000D02*
X113680952Y-131012619D01*
X113680952Y-131012619D02*
X113585714Y-131012619D01*
X114966666Y-131012619D02*
X114395238Y-131012619D01*
X114680952Y-131012619D02*
X114680952Y-130012619D01*
X114680952Y-130012619D02*
X114585714Y-130155476D01*
X114585714Y-130155476D02*
X114490476Y-130250714D01*
X114490476Y-130250714D02*
X114395238Y-130298333D01*
D11*
%TO.C,R10*%
X90231309Y-142421428D02*
X89993214Y-142588094D01*
X90231309Y-142707142D02*
X89731309Y-142707142D01*
X89731309Y-142707142D02*
X89731309Y-142516666D01*
X89731309Y-142516666D02*
X89755119Y-142469047D01*
X89755119Y-142469047D02*
X89778928Y-142445237D01*
X89778928Y-142445237D02*
X89826547Y-142421428D01*
X89826547Y-142421428D02*
X89897976Y-142421428D01*
X89897976Y-142421428D02*
X89945595Y-142445237D01*
X89945595Y-142445237D02*
X89969404Y-142469047D01*
X89969404Y-142469047D02*
X89993214Y-142516666D01*
X89993214Y-142516666D02*
X89993214Y-142707142D01*
X90231309Y-141945237D02*
X90231309Y-142230951D01*
X90231309Y-142088094D02*
X89731309Y-142088094D01*
X89731309Y-142088094D02*
X89802738Y-142135713D01*
X89802738Y-142135713D02*
X89850357Y-142183332D01*
X89850357Y-142183332D02*
X89874166Y-142230951D01*
X89731309Y-141635714D02*
X89731309Y-141588095D01*
X89731309Y-141588095D02*
X89755119Y-141540476D01*
X89755119Y-141540476D02*
X89778928Y-141516666D01*
X89778928Y-141516666D02*
X89826547Y-141492857D01*
X89826547Y-141492857D02*
X89921785Y-141469047D01*
X89921785Y-141469047D02*
X90040833Y-141469047D01*
X90040833Y-141469047D02*
X90136071Y-141492857D01*
X90136071Y-141492857D02*
X90183690Y-141516666D01*
X90183690Y-141516666D02*
X90207500Y-141540476D01*
X90207500Y-141540476D02*
X90231309Y-141588095D01*
X90231309Y-141588095D02*
X90231309Y-141635714D01*
X90231309Y-141635714D02*
X90207500Y-141683333D01*
X90207500Y-141683333D02*
X90183690Y-141707142D01*
X90183690Y-141707142D02*
X90136071Y-141730952D01*
X90136071Y-141730952D02*
X90040833Y-141754761D01*
X90040833Y-141754761D02*
X89921785Y-141754761D01*
X89921785Y-141754761D02*
X89826547Y-141730952D01*
X89826547Y-141730952D02*
X89778928Y-141707142D01*
X89778928Y-141707142D02*
X89755119Y-141683333D01*
X89755119Y-141683333D02*
X89731309Y-141635714D01*
D10*
%TO.C,C3*%
X109083333Y-162867380D02*
X109035714Y-162915000D01*
X109035714Y-162915000D02*
X108892857Y-162962619D01*
X108892857Y-162962619D02*
X108797619Y-162962619D01*
X108797619Y-162962619D02*
X108654762Y-162915000D01*
X108654762Y-162915000D02*
X108559524Y-162819761D01*
X108559524Y-162819761D02*
X108511905Y-162724523D01*
X108511905Y-162724523D02*
X108464286Y-162534047D01*
X108464286Y-162534047D02*
X108464286Y-162391190D01*
X108464286Y-162391190D02*
X108511905Y-162200714D01*
X108511905Y-162200714D02*
X108559524Y-162105476D01*
X108559524Y-162105476D02*
X108654762Y-162010238D01*
X108654762Y-162010238D02*
X108797619Y-161962619D01*
X108797619Y-161962619D02*
X108892857Y-161962619D01*
X108892857Y-161962619D02*
X109035714Y-162010238D01*
X109035714Y-162010238D02*
X109083333Y-162057857D01*
X109416667Y-161962619D02*
X110035714Y-161962619D01*
X110035714Y-161962619D02*
X109702381Y-162343571D01*
X109702381Y-162343571D02*
X109845238Y-162343571D01*
X109845238Y-162343571D02*
X109940476Y-162391190D01*
X109940476Y-162391190D02*
X109988095Y-162438809D01*
X109988095Y-162438809D02*
X110035714Y-162534047D01*
X110035714Y-162534047D02*
X110035714Y-162772142D01*
X110035714Y-162772142D02*
X109988095Y-162867380D01*
X109988095Y-162867380D02*
X109940476Y-162915000D01*
X109940476Y-162915000D02*
X109845238Y-162962619D01*
X109845238Y-162962619D02*
X109559524Y-162962619D01*
X109559524Y-162962619D02*
X109464286Y-162915000D01*
X109464286Y-162915000D02*
X109416667Y-162867380D01*
%TO.C,L2*%
X96133333Y-143762619D02*
X95657143Y-143762619D01*
X95657143Y-143762619D02*
X95657143Y-142762619D01*
X96419048Y-142857857D02*
X96466667Y-142810238D01*
X96466667Y-142810238D02*
X96561905Y-142762619D01*
X96561905Y-142762619D02*
X96800000Y-142762619D01*
X96800000Y-142762619D02*
X96895238Y-142810238D01*
X96895238Y-142810238D02*
X96942857Y-142857857D01*
X96942857Y-142857857D02*
X96990476Y-142953095D01*
X96990476Y-142953095D02*
X96990476Y-143048333D01*
X96990476Y-143048333D02*
X96942857Y-143191190D01*
X96942857Y-143191190D02*
X96371429Y-143762619D01*
X96371429Y-143762619D02*
X96990476Y-143762619D01*
%TO.C,C8*%
X112383333Y-146992380D02*
X112335714Y-147040000D01*
X112335714Y-147040000D02*
X112192857Y-147087619D01*
X112192857Y-147087619D02*
X112097619Y-147087619D01*
X112097619Y-147087619D02*
X111954762Y-147040000D01*
X111954762Y-147040000D02*
X111859524Y-146944761D01*
X111859524Y-146944761D02*
X111811905Y-146849523D01*
X111811905Y-146849523D02*
X111764286Y-146659047D01*
X111764286Y-146659047D02*
X111764286Y-146516190D01*
X111764286Y-146516190D02*
X111811905Y-146325714D01*
X111811905Y-146325714D02*
X111859524Y-146230476D01*
X111859524Y-146230476D02*
X111954762Y-146135238D01*
X111954762Y-146135238D02*
X112097619Y-146087619D01*
X112097619Y-146087619D02*
X112192857Y-146087619D01*
X112192857Y-146087619D02*
X112335714Y-146135238D01*
X112335714Y-146135238D02*
X112383333Y-146182857D01*
X112954762Y-146516190D02*
X112859524Y-146468571D01*
X112859524Y-146468571D02*
X112811905Y-146420952D01*
X112811905Y-146420952D02*
X112764286Y-146325714D01*
X112764286Y-146325714D02*
X112764286Y-146278095D01*
X112764286Y-146278095D02*
X112811905Y-146182857D01*
X112811905Y-146182857D02*
X112859524Y-146135238D01*
X112859524Y-146135238D02*
X112954762Y-146087619D01*
X112954762Y-146087619D02*
X113145238Y-146087619D01*
X113145238Y-146087619D02*
X113240476Y-146135238D01*
X113240476Y-146135238D02*
X113288095Y-146182857D01*
X113288095Y-146182857D02*
X113335714Y-146278095D01*
X113335714Y-146278095D02*
X113335714Y-146325714D01*
X113335714Y-146325714D02*
X113288095Y-146420952D01*
X113288095Y-146420952D02*
X113240476Y-146468571D01*
X113240476Y-146468571D02*
X113145238Y-146516190D01*
X113145238Y-146516190D02*
X112954762Y-146516190D01*
X112954762Y-146516190D02*
X112859524Y-146563809D01*
X112859524Y-146563809D02*
X112811905Y-146611428D01*
X112811905Y-146611428D02*
X112764286Y-146706666D01*
X112764286Y-146706666D02*
X112764286Y-146897142D01*
X112764286Y-146897142D02*
X112811905Y-146992380D01*
X112811905Y-146992380D02*
X112859524Y-147040000D01*
X112859524Y-147040000D02*
X112954762Y-147087619D01*
X112954762Y-147087619D02*
X113145238Y-147087619D01*
X113145238Y-147087619D02*
X113240476Y-147040000D01*
X113240476Y-147040000D02*
X113288095Y-146992380D01*
X113288095Y-146992380D02*
X113335714Y-146897142D01*
X113335714Y-146897142D02*
X113335714Y-146706666D01*
X113335714Y-146706666D02*
X113288095Y-146611428D01*
X113288095Y-146611428D02*
X113240476Y-146563809D01*
X113240476Y-146563809D02*
X113145238Y-146516190D01*
%TO.C,R8*%
X81830119Y-140266666D02*
X81353928Y-140599999D01*
X81830119Y-140838094D02*
X80830119Y-140838094D01*
X80830119Y-140838094D02*
X80830119Y-140457142D01*
X80830119Y-140457142D02*
X80877738Y-140361904D01*
X80877738Y-140361904D02*
X80925357Y-140314285D01*
X80925357Y-140314285D02*
X81020595Y-140266666D01*
X81020595Y-140266666D02*
X81163452Y-140266666D01*
X81163452Y-140266666D02*
X81258690Y-140314285D01*
X81258690Y-140314285D02*
X81306309Y-140361904D01*
X81306309Y-140361904D02*
X81353928Y-140457142D01*
X81353928Y-140457142D02*
X81353928Y-140838094D01*
X81258690Y-139695237D02*
X81211071Y-139790475D01*
X81211071Y-139790475D02*
X81163452Y-139838094D01*
X81163452Y-139838094D02*
X81068214Y-139885713D01*
X81068214Y-139885713D02*
X81020595Y-139885713D01*
X81020595Y-139885713D02*
X80925357Y-139838094D01*
X80925357Y-139838094D02*
X80877738Y-139790475D01*
X80877738Y-139790475D02*
X80830119Y-139695237D01*
X80830119Y-139695237D02*
X80830119Y-139504761D01*
X80830119Y-139504761D02*
X80877738Y-139409523D01*
X80877738Y-139409523D02*
X80925357Y-139361904D01*
X80925357Y-139361904D02*
X81020595Y-139314285D01*
X81020595Y-139314285D02*
X81068214Y-139314285D01*
X81068214Y-139314285D02*
X81163452Y-139361904D01*
X81163452Y-139361904D02*
X81211071Y-139409523D01*
X81211071Y-139409523D02*
X81258690Y-139504761D01*
X81258690Y-139504761D02*
X81258690Y-139695237D01*
X81258690Y-139695237D02*
X81306309Y-139790475D01*
X81306309Y-139790475D02*
X81353928Y-139838094D01*
X81353928Y-139838094D02*
X81449166Y-139885713D01*
X81449166Y-139885713D02*
X81639642Y-139885713D01*
X81639642Y-139885713D02*
X81734880Y-139838094D01*
X81734880Y-139838094D02*
X81782500Y-139790475D01*
X81782500Y-139790475D02*
X81830119Y-139695237D01*
X81830119Y-139695237D02*
X81830119Y-139504761D01*
X81830119Y-139504761D02*
X81782500Y-139409523D01*
X81782500Y-139409523D02*
X81734880Y-139361904D01*
X81734880Y-139361904D02*
X81639642Y-139314285D01*
X81639642Y-139314285D02*
X81449166Y-139314285D01*
X81449166Y-139314285D02*
X81353928Y-139361904D01*
X81353928Y-139361904D02*
X81306309Y-139409523D01*
X81306309Y-139409523D02*
X81258690Y-139504761D01*
%TO.C,U5*%
X94838095Y-137862619D02*
X94838095Y-138672142D01*
X94838095Y-138672142D02*
X94885714Y-138767380D01*
X94885714Y-138767380D02*
X94933333Y-138815000D01*
X94933333Y-138815000D02*
X95028571Y-138862619D01*
X95028571Y-138862619D02*
X95219047Y-138862619D01*
X95219047Y-138862619D02*
X95314285Y-138815000D01*
X95314285Y-138815000D02*
X95361904Y-138767380D01*
X95361904Y-138767380D02*
X95409523Y-138672142D01*
X95409523Y-138672142D02*
X95409523Y-137862619D01*
X96361904Y-137862619D02*
X95885714Y-137862619D01*
X95885714Y-137862619D02*
X95838095Y-138338809D01*
X95838095Y-138338809D02*
X95885714Y-138291190D01*
X95885714Y-138291190D02*
X95980952Y-138243571D01*
X95980952Y-138243571D02*
X96219047Y-138243571D01*
X96219047Y-138243571D02*
X96314285Y-138291190D01*
X96314285Y-138291190D02*
X96361904Y-138338809D01*
X96361904Y-138338809D02*
X96409523Y-138434047D01*
X96409523Y-138434047D02*
X96409523Y-138672142D01*
X96409523Y-138672142D02*
X96361904Y-138767380D01*
X96361904Y-138767380D02*
X96314285Y-138815000D01*
X96314285Y-138815000D02*
X96219047Y-138862619D01*
X96219047Y-138862619D02*
X95980952Y-138862619D01*
X95980952Y-138862619D02*
X95885714Y-138815000D01*
X95885714Y-138815000D02*
X95838095Y-138767380D01*
%TO.C,F1*%
X117258809Y-132833333D02*
X117258809Y-133166666D01*
X117782619Y-133166666D02*
X116782619Y-133166666D01*
X116782619Y-133166666D02*
X116782619Y-132690476D01*
X117782619Y-131785714D02*
X117782619Y-132357142D01*
X117782619Y-132071428D02*
X116782619Y-132071428D01*
X116782619Y-132071428D02*
X116925476Y-132166666D01*
X116925476Y-132166666D02*
X117020714Y-132261904D01*
X117020714Y-132261904D02*
X117068333Y-132357142D01*
%TO.C,C16*%
X96567380Y-146342857D02*
X96615000Y-146390476D01*
X96615000Y-146390476D02*
X96662619Y-146533333D01*
X96662619Y-146533333D02*
X96662619Y-146628571D01*
X96662619Y-146628571D02*
X96615000Y-146771428D01*
X96615000Y-146771428D02*
X96519761Y-146866666D01*
X96519761Y-146866666D02*
X96424523Y-146914285D01*
X96424523Y-146914285D02*
X96234047Y-146961904D01*
X96234047Y-146961904D02*
X96091190Y-146961904D01*
X96091190Y-146961904D02*
X95900714Y-146914285D01*
X95900714Y-146914285D02*
X95805476Y-146866666D01*
X95805476Y-146866666D02*
X95710238Y-146771428D01*
X95710238Y-146771428D02*
X95662619Y-146628571D01*
X95662619Y-146628571D02*
X95662619Y-146533333D01*
X95662619Y-146533333D02*
X95710238Y-146390476D01*
X95710238Y-146390476D02*
X95757857Y-146342857D01*
X96662619Y-145390476D02*
X96662619Y-145961904D01*
X96662619Y-145676190D02*
X95662619Y-145676190D01*
X95662619Y-145676190D02*
X95805476Y-145771428D01*
X95805476Y-145771428D02*
X95900714Y-145866666D01*
X95900714Y-145866666D02*
X95948333Y-145961904D01*
X95662619Y-144533333D02*
X95662619Y-144723809D01*
X95662619Y-144723809D02*
X95710238Y-144819047D01*
X95710238Y-144819047D02*
X95757857Y-144866666D01*
X95757857Y-144866666D02*
X95900714Y-144961904D01*
X95900714Y-144961904D02*
X96091190Y-145009523D01*
X96091190Y-145009523D02*
X96472142Y-145009523D01*
X96472142Y-145009523D02*
X96567380Y-144961904D01*
X96567380Y-144961904D02*
X96615000Y-144914285D01*
X96615000Y-144914285D02*
X96662619Y-144819047D01*
X96662619Y-144819047D02*
X96662619Y-144628571D01*
X96662619Y-144628571D02*
X96615000Y-144533333D01*
X96615000Y-144533333D02*
X96567380Y-144485714D01*
X96567380Y-144485714D02*
X96472142Y-144438095D01*
X96472142Y-144438095D02*
X96234047Y-144438095D01*
X96234047Y-144438095D02*
X96138809Y-144485714D01*
X96138809Y-144485714D02*
X96091190Y-144533333D01*
X96091190Y-144533333D02*
X96043571Y-144628571D01*
X96043571Y-144628571D02*
X96043571Y-144819047D01*
X96043571Y-144819047D02*
X96091190Y-144914285D01*
X96091190Y-144914285D02*
X96138809Y-144961904D01*
X96138809Y-144961904D02*
X96234047Y-145009523D01*
%TO.C,C24*%
X127957142Y-119717380D02*
X127909523Y-119765000D01*
X127909523Y-119765000D02*
X127766666Y-119812619D01*
X127766666Y-119812619D02*
X127671428Y-119812619D01*
X127671428Y-119812619D02*
X127528571Y-119765000D01*
X127528571Y-119765000D02*
X127433333Y-119669761D01*
X127433333Y-119669761D02*
X127385714Y-119574523D01*
X127385714Y-119574523D02*
X127338095Y-119384047D01*
X127338095Y-119384047D02*
X127338095Y-119241190D01*
X127338095Y-119241190D02*
X127385714Y-119050714D01*
X127385714Y-119050714D02*
X127433333Y-118955476D01*
X127433333Y-118955476D02*
X127528571Y-118860238D01*
X127528571Y-118860238D02*
X127671428Y-118812619D01*
X127671428Y-118812619D02*
X127766666Y-118812619D01*
X127766666Y-118812619D02*
X127909523Y-118860238D01*
X127909523Y-118860238D02*
X127957142Y-118907857D01*
X128338095Y-118907857D02*
X128385714Y-118860238D01*
X128385714Y-118860238D02*
X128480952Y-118812619D01*
X128480952Y-118812619D02*
X128719047Y-118812619D01*
X128719047Y-118812619D02*
X128814285Y-118860238D01*
X128814285Y-118860238D02*
X128861904Y-118907857D01*
X128861904Y-118907857D02*
X128909523Y-119003095D01*
X128909523Y-119003095D02*
X128909523Y-119098333D01*
X128909523Y-119098333D02*
X128861904Y-119241190D01*
X128861904Y-119241190D02*
X128290476Y-119812619D01*
X128290476Y-119812619D02*
X128909523Y-119812619D01*
X129766666Y-119145952D02*
X129766666Y-119812619D01*
X129528571Y-118765000D02*
X129290476Y-119479285D01*
X129290476Y-119479285D02*
X129909523Y-119479285D01*
%TO.C,U7*%
X110712619Y-143074404D02*
X111522142Y-143074404D01*
X111522142Y-143074404D02*
X111617380Y-143026785D01*
X111617380Y-143026785D02*
X111665000Y-142979166D01*
X111665000Y-142979166D02*
X111712619Y-142883928D01*
X111712619Y-142883928D02*
X111712619Y-142693452D01*
X111712619Y-142693452D02*
X111665000Y-142598214D01*
X111665000Y-142598214D02*
X111617380Y-142550595D01*
X111617380Y-142550595D02*
X111522142Y-142502976D01*
X111522142Y-142502976D02*
X110712619Y-142502976D01*
X110712619Y-142122023D02*
X110712619Y-141455357D01*
X110712619Y-141455357D02*
X111712619Y-141883928D01*
%TO.C,D3*%
X110636905Y-134912619D02*
X110636905Y-133912619D01*
X110636905Y-133912619D02*
X110875000Y-133912619D01*
X110875000Y-133912619D02*
X111017857Y-133960238D01*
X111017857Y-133960238D02*
X111113095Y-134055476D01*
X111113095Y-134055476D02*
X111160714Y-134150714D01*
X111160714Y-134150714D02*
X111208333Y-134341190D01*
X111208333Y-134341190D02*
X111208333Y-134484047D01*
X111208333Y-134484047D02*
X111160714Y-134674523D01*
X111160714Y-134674523D02*
X111113095Y-134769761D01*
X111113095Y-134769761D02*
X111017857Y-134865000D01*
X111017857Y-134865000D02*
X110875000Y-134912619D01*
X110875000Y-134912619D02*
X110636905Y-134912619D01*
X111541667Y-133912619D02*
X112160714Y-133912619D01*
X112160714Y-133912619D02*
X111827381Y-134293571D01*
X111827381Y-134293571D02*
X111970238Y-134293571D01*
X111970238Y-134293571D02*
X112065476Y-134341190D01*
X112065476Y-134341190D02*
X112113095Y-134388809D01*
X112113095Y-134388809D02*
X112160714Y-134484047D01*
X112160714Y-134484047D02*
X112160714Y-134722142D01*
X112160714Y-134722142D02*
X112113095Y-134817380D01*
X112113095Y-134817380D02*
X112065476Y-134865000D01*
X112065476Y-134865000D02*
X111970238Y-134912619D01*
X111970238Y-134912619D02*
X111684524Y-134912619D01*
X111684524Y-134912619D02*
X111589286Y-134865000D01*
X111589286Y-134865000D02*
X111541667Y-134817380D01*
%TO.C,R3*%
X123533333Y-150662619D02*
X123200000Y-150186428D01*
X122961905Y-150662619D02*
X122961905Y-149662619D01*
X122961905Y-149662619D02*
X123342857Y-149662619D01*
X123342857Y-149662619D02*
X123438095Y-149710238D01*
X123438095Y-149710238D02*
X123485714Y-149757857D01*
X123485714Y-149757857D02*
X123533333Y-149853095D01*
X123533333Y-149853095D02*
X123533333Y-149995952D01*
X123533333Y-149995952D02*
X123485714Y-150091190D01*
X123485714Y-150091190D02*
X123438095Y-150138809D01*
X123438095Y-150138809D02*
X123342857Y-150186428D01*
X123342857Y-150186428D02*
X122961905Y-150186428D01*
X123866667Y-149662619D02*
X124485714Y-149662619D01*
X124485714Y-149662619D02*
X124152381Y-150043571D01*
X124152381Y-150043571D02*
X124295238Y-150043571D01*
X124295238Y-150043571D02*
X124390476Y-150091190D01*
X124390476Y-150091190D02*
X124438095Y-150138809D01*
X124438095Y-150138809D02*
X124485714Y-150234047D01*
X124485714Y-150234047D02*
X124485714Y-150472142D01*
X124485714Y-150472142D02*
X124438095Y-150567380D01*
X124438095Y-150567380D02*
X124390476Y-150615000D01*
X124390476Y-150615000D02*
X124295238Y-150662619D01*
X124295238Y-150662619D02*
X124009524Y-150662619D01*
X124009524Y-150662619D02*
X123914286Y-150615000D01*
X123914286Y-150615000D02*
X123866667Y-150567380D01*
%TO.C,C26*%
X127057380Y-123225357D02*
X127105000Y-123272976D01*
X127105000Y-123272976D02*
X127152619Y-123415833D01*
X127152619Y-123415833D02*
X127152619Y-123511071D01*
X127152619Y-123511071D02*
X127105000Y-123653928D01*
X127105000Y-123653928D02*
X127009761Y-123749166D01*
X127009761Y-123749166D02*
X126914523Y-123796785D01*
X126914523Y-123796785D02*
X126724047Y-123844404D01*
X126724047Y-123844404D02*
X126581190Y-123844404D01*
X126581190Y-123844404D02*
X126390714Y-123796785D01*
X126390714Y-123796785D02*
X126295476Y-123749166D01*
X126295476Y-123749166D02*
X126200238Y-123653928D01*
X126200238Y-123653928D02*
X126152619Y-123511071D01*
X126152619Y-123511071D02*
X126152619Y-123415833D01*
X126152619Y-123415833D02*
X126200238Y-123272976D01*
X126200238Y-123272976D02*
X126247857Y-123225357D01*
X126247857Y-122844404D02*
X126200238Y-122796785D01*
X126200238Y-122796785D02*
X126152619Y-122701547D01*
X126152619Y-122701547D02*
X126152619Y-122463452D01*
X126152619Y-122463452D02*
X126200238Y-122368214D01*
X126200238Y-122368214D02*
X126247857Y-122320595D01*
X126247857Y-122320595D02*
X126343095Y-122272976D01*
X126343095Y-122272976D02*
X126438333Y-122272976D01*
X126438333Y-122272976D02*
X126581190Y-122320595D01*
X126581190Y-122320595D02*
X127152619Y-122892023D01*
X127152619Y-122892023D02*
X127152619Y-122272976D01*
X126152619Y-121415833D02*
X126152619Y-121606309D01*
X126152619Y-121606309D02*
X126200238Y-121701547D01*
X126200238Y-121701547D02*
X126247857Y-121749166D01*
X126247857Y-121749166D02*
X126390714Y-121844404D01*
X126390714Y-121844404D02*
X126581190Y-121892023D01*
X126581190Y-121892023D02*
X126962142Y-121892023D01*
X126962142Y-121892023D02*
X127057380Y-121844404D01*
X127057380Y-121844404D02*
X127105000Y-121796785D01*
X127105000Y-121796785D02*
X127152619Y-121701547D01*
X127152619Y-121701547D02*
X127152619Y-121511071D01*
X127152619Y-121511071D02*
X127105000Y-121415833D01*
X127105000Y-121415833D02*
X127057380Y-121368214D01*
X127057380Y-121368214D02*
X126962142Y-121320595D01*
X126962142Y-121320595D02*
X126724047Y-121320595D01*
X126724047Y-121320595D02*
X126628809Y-121368214D01*
X126628809Y-121368214D02*
X126581190Y-121415833D01*
X126581190Y-121415833D02*
X126533571Y-121511071D01*
X126533571Y-121511071D02*
X126533571Y-121701547D01*
X126533571Y-121701547D02*
X126581190Y-121796785D01*
X126581190Y-121796785D02*
X126628809Y-121844404D01*
X126628809Y-121844404D02*
X126724047Y-121892023D01*
%TO.C,R4*%
X82987619Y-135491666D02*
X82511428Y-135824999D01*
X82987619Y-136063094D02*
X81987619Y-136063094D01*
X81987619Y-136063094D02*
X81987619Y-135682142D01*
X81987619Y-135682142D02*
X82035238Y-135586904D01*
X82035238Y-135586904D02*
X82082857Y-135539285D01*
X82082857Y-135539285D02*
X82178095Y-135491666D01*
X82178095Y-135491666D02*
X82320952Y-135491666D01*
X82320952Y-135491666D02*
X82416190Y-135539285D01*
X82416190Y-135539285D02*
X82463809Y-135586904D01*
X82463809Y-135586904D02*
X82511428Y-135682142D01*
X82511428Y-135682142D02*
X82511428Y-136063094D01*
X82320952Y-134634523D02*
X82987619Y-134634523D01*
X81940000Y-134872618D02*
X82654285Y-135110713D01*
X82654285Y-135110713D02*
X82654285Y-134491666D01*
D11*
%TO.C,C13*%
X88883690Y-142521428D02*
X88907500Y-142545237D01*
X88907500Y-142545237D02*
X88931309Y-142616666D01*
X88931309Y-142616666D02*
X88931309Y-142664285D01*
X88931309Y-142664285D02*
X88907500Y-142735713D01*
X88907500Y-142735713D02*
X88859880Y-142783332D01*
X88859880Y-142783332D02*
X88812261Y-142807142D01*
X88812261Y-142807142D02*
X88717023Y-142830951D01*
X88717023Y-142830951D02*
X88645595Y-142830951D01*
X88645595Y-142830951D02*
X88550357Y-142807142D01*
X88550357Y-142807142D02*
X88502738Y-142783332D01*
X88502738Y-142783332D02*
X88455119Y-142735713D01*
X88455119Y-142735713D02*
X88431309Y-142664285D01*
X88431309Y-142664285D02*
X88431309Y-142616666D01*
X88431309Y-142616666D02*
X88455119Y-142545237D01*
X88455119Y-142545237D02*
X88478928Y-142521428D01*
X88931309Y-142045237D02*
X88931309Y-142330951D01*
X88931309Y-142188094D02*
X88431309Y-142188094D01*
X88431309Y-142188094D02*
X88502738Y-142235713D01*
X88502738Y-142235713D02*
X88550357Y-142283332D01*
X88550357Y-142283332D02*
X88574166Y-142330951D01*
X88431309Y-141878571D02*
X88431309Y-141569047D01*
X88431309Y-141569047D02*
X88621785Y-141735714D01*
X88621785Y-141735714D02*
X88621785Y-141664285D01*
X88621785Y-141664285D02*
X88645595Y-141616666D01*
X88645595Y-141616666D02*
X88669404Y-141592857D01*
X88669404Y-141592857D02*
X88717023Y-141569047D01*
X88717023Y-141569047D02*
X88836071Y-141569047D01*
X88836071Y-141569047D02*
X88883690Y-141592857D01*
X88883690Y-141592857D02*
X88907500Y-141616666D01*
X88907500Y-141616666D02*
X88931309Y-141664285D01*
X88931309Y-141664285D02*
X88931309Y-141807142D01*
X88931309Y-141807142D02*
X88907500Y-141854761D01*
X88907500Y-141854761D02*
X88883690Y-141878571D01*
D10*
%TO.C,J5*%
X102966666Y-155762619D02*
X102966666Y-156476904D01*
X102966666Y-156476904D02*
X102919047Y-156619761D01*
X102919047Y-156619761D02*
X102823809Y-156715000D01*
X102823809Y-156715000D02*
X102680952Y-156762619D01*
X102680952Y-156762619D02*
X102585714Y-156762619D01*
X103919047Y-155762619D02*
X103442857Y-155762619D01*
X103442857Y-155762619D02*
X103395238Y-156238809D01*
X103395238Y-156238809D02*
X103442857Y-156191190D01*
X103442857Y-156191190D02*
X103538095Y-156143571D01*
X103538095Y-156143571D02*
X103776190Y-156143571D01*
X103776190Y-156143571D02*
X103871428Y-156191190D01*
X103871428Y-156191190D02*
X103919047Y-156238809D01*
X103919047Y-156238809D02*
X103966666Y-156334047D01*
X103966666Y-156334047D02*
X103966666Y-156572142D01*
X103966666Y-156572142D02*
X103919047Y-156667380D01*
X103919047Y-156667380D02*
X103871428Y-156715000D01*
X103871428Y-156715000D02*
X103776190Y-156762619D01*
X103776190Y-156762619D02*
X103538095Y-156762619D01*
X103538095Y-156762619D02*
X103442857Y-156715000D01*
X103442857Y-156715000D02*
X103395238Y-156667380D01*
%TO.C,C14*%
X96667380Y-141042857D02*
X96715000Y-141090476D01*
X96715000Y-141090476D02*
X96762619Y-141233333D01*
X96762619Y-141233333D02*
X96762619Y-141328571D01*
X96762619Y-141328571D02*
X96715000Y-141471428D01*
X96715000Y-141471428D02*
X96619761Y-141566666D01*
X96619761Y-141566666D02*
X96524523Y-141614285D01*
X96524523Y-141614285D02*
X96334047Y-141661904D01*
X96334047Y-141661904D02*
X96191190Y-141661904D01*
X96191190Y-141661904D02*
X96000714Y-141614285D01*
X96000714Y-141614285D02*
X95905476Y-141566666D01*
X95905476Y-141566666D02*
X95810238Y-141471428D01*
X95810238Y-141471428D02*
X95762619Y-141328571D01*
X95762619Y-141328571D02*
X95762619Y-141233333D01*
X95762619Y-141233333D02*
X95810238Y-141090476D01*
X95810238Y-141090476D02*
X95857857Y-141042857D01*
X96762619Y-140090476D02*
X96762619Y-140661904D01*
X96762619Y-140376190D02*
X95762619Y-140376190D01*
X95762619Y-140376190D02*
X95905476Y-140471428D01*
X95905476Y-140471428D02*
X96000714Y-140566666D01*
X96000714Y-140566666D02*
X96048333Y-140661904D01*
X96095952Y-139233333D02*
X96762619Y-139233333D01*
X95715000Y-139471428D02*
X96429285Y-139709523D01*
X96429285Y-139709523D02*
X96429285Y-139090476D01*
%TO.C,C17*%
X82892380Y-149742857D02*
X82940000Y-149790476D01*
X82940000Y-149790476D02*
X82987619Y-149933333D01*
X82987619Y-149933333D02*
X82987619Y-150028571D01*
X82987619Y-150028571D02*
X82940000Y-150171428D01*
X82940000Y-150171428D02*
X82844761Y-150266666D01*
X82844761Y-150266666D02*
X82749523Y-150314285D01*
X82749523Y-150314285D02*
X82559047Y-150361904D01*
X82559047Y-150361904D02*
X82416190Y-150361904D01*
X82416190Y-150361904D02*
X82225714Y-150314285D01*
X82225714Y-150314285D02*
X82130476Y-150266666D01*
X82130476Y-150266666D02*
X82035238Y-150171428D01*
X82035238Y-150171428D02*
X81987619Y-150028571D01*
X81987619Y-150028571D02*
X81987619Y-149933333D01*
X81987619Y-149933333D02*
X82035238Y-149790476D01*
X82035238Y-149790476D02*
X82082857Y-149742857D01*
X82987619Y-148790476D02*
X82987619Y-149361904D01*
X82987619Y-149076190D02*
X81987619Y-149076190D01*
X81987619Y-149076190D02*
X82130476Y-149171428D01*
X82130476Y-149171428D02*
X82225714Y-149266666D01*
X82225714Y-149266666D02*
X82273333Y-149361904D01*
X81987619Y-148457142D02*
X81987619Y-147790476D01*
X81987619Y-147790476D02*
X82987619Y-148219047D01*
%TO.C,L1*%
X82133333Y-143862619D02*
X81657143Y-143862619D01*
X81657143Y-143862619D02*
X81657143Y-142862619D01*
X82990476Y-143862619D02*
X82419048Y-143862619D01*
X82704762Y-143862619D02*
X82704762Y-142862619D01*
X82704762Y-142862619D02*
X82609524Y-143005476D01*
X82609524Y-143005476D02*
X82514286Y-143100714D01*
X82514286Y-143100714D02*
X82419048Y-143148333D01*
%TO.C,J6*%
X136362619Y-125533333D02*
X137076904Y-125533333D01*
X137076904Y-125533333D02*
X137219761Y-125580952D01*
X137219761Y-125580952D02*
X137315000Y-125676190D01*
X137315000Y-125676190D02*
X137362619Y-125819047D01*
X137362619Y-125819047D02*
X137362619Y-125914285D01*
X136362619Y-124628571D02*
X136362619Y-124819047D01*
X136362619Y-124819047D02*
X136410238Y-124914285D01*
X136410238Y-124914285D02*
X136457857Y-124961904D01*
X136457857Y-124961904D02*
X136600714Y-125057142D01*
X136600714Y-125057142D02*
X136791190Y-125104761D01*
X136791190Y-125104761D02*
X137172142Y-125104761D01*
X137172142Y-125104761D02*
X137267380Y-125057142D01*
X137267380Y-125057142D02*
X137315000Y-125009523D01*
X137315000Y-125009523D02*
X137362619Y-124914285D01*
X137362619Y-124914285D02*
X137362619Y-124723809D01*
X137362619Y-124723809D02*
X137315000Y-124628571D01*
X137315000Y-124628571D02*
X137267380Y-124580952D01*
X137267380Y-124580952D02*
X137172142Y-124533333D01*
X137172142Y-124533333D02*
X136934047Y-124533333D01*
X136934047Y-124533333D02*
X136838809Y-124580952D01*
X136838809Y-124580952D02*
X136791190Y-124628571D01*
X136791190Y-124628571D02*
X136743571Y-124723809D01*
X136743571Y-124723809D02*
X136743571Y-124914285D01*
X136743571Y-124914285D02*
X136791190Y-125009523D01*
X136791190Y-125009523D02*
X136838809Y-125057142D01*
X136838809Y-125057142D02*
X136934047Y-125104761D01*
%TO.C,C12*%
X95157142Y-137167380D02*
X95109523Y-137215000D01*
X95109523Y-137215000D02*
X94966666Y-137262619D01*
X94966666Y-137262619D02*
X94871428Y-137262619D01*
X94871428Y-137262619D02*
X94728571Y-137215000D01*
X94728571Y-137215000D02*
X94633333Y-137119761D01*
X94633333Y-137119761D02*
X94585714Y-137024523D01*
X94585714Y-137024523D02*
X94538095Y-136834047D01*
X94538095Y-136834047D02*
X94538095Y-136691190D01*
X94538095Y-136691190D02*
X94585714Y-136500714D01*
X94585714Y-136500714D02*
X94633333Y-136405476D01*
X94633333Y-136405476D02*
X94728571Y-136310238D01*
X94728571Y-136310238D02*
X94871428Y-136262619D01*
X94871428Y-136262619D02*
X94966666Y-136262619D01*
X94966666Y-136262619D02*
X95109523Y-136310238D01*
X95109523Y-136310238D02*
X95157142Y-136357857D01*
X96109523Y-137262619D02*
X95538095Y-137262619D01*
X95823809Y-137262619D02*
X95823809Y-136262619D01*
X95823809Y-136262619D02*
X95728571Y-136405476D01*
X95728571Y-136405476D02*
X95633333Y-136500714D01*
X95633333Y-136500714D02*
X95538095Y-136548333D01*
X96490476Y-136357857D02*
X96538095Y-136310238D01*
X96538095Y-136310238D02*
X96633333Y-136262619D01*
X96633333Y-136262619D02*
X96871428Y-136262619D01*
X96871428Y-136262619D02*
X96966666Y-136310238D01*
X96966666Y-136310238D02*
X97014285Y-136357857D01*
X97014285Y-136357857D02*
X97061904Y-136453095D01*
X97061904Y-136453095D02*
X97061904Y-136548333D01*
X97061904Y-136548333D02*
X97014285Y-136691190D01*
X97014285Y-136691190D02*
X96442857Y-137262619D01*
X96442857Y-137262619D02*
X97061904Y-137262619D01*
%TO.C,JP4*%
X91166666Y-156137619D02*
X91166666Y-156851904D01*
X91166666Y-156851904D02*
X91119047Y-156994761D01*
X91119047Y-156994761D02*
X91023809Y-157090000D01*
X91023809Y-157090000D02*
X90880952Y-157137619D01*
X90880952Y-157137619D02*
X90785714Y-157137619D01*
X91642857Y-157137619D02*
X91642857Y-156137619D01*
X91642857Y-156137619D02*
X92023809Y-156137619D01*
X92023809Y-156137619D02*
X92119047Y-156185238D01*
X92119047Y-156185238D02*
X92166666Y-156232857D01*
X92166666Y-156232857D02*
X92214285Y-156328095D01*
X92214285Y-156328095D02*
X92214285Y-156470952D01*
X92214285Y-156470952D02*
X92166666Y-156566190D01*
X92166666Y-156566190D02*
X92119047Y-156613809D01*
X92119047Y-156613809D02*
X92023809Y-156661428D01*
X92023809Y-156661428D02*
X91642857Y-156661428D01*
X93071428Y-156470952D02*
X93071428Y-157137619D01*
X92833333Y-156090000D02*
X92595238Y-156804285D01*
X92595238Y-156804285D02*
X93214285Y-156804285D01*
X97185714Y-159162619D02*
X96614286Y-159162619D01*
X96900000Y-159162619D02*
X96900000Y-158162619D01*
X96900000Y-158162619D02*
X96804762Y-158305476D01*
X96804762Y-158305476D02*
X96709524Y-158400714D01*
X96709524Y-158400714D02*
X96614286Y-158448333D01*
X91366667Y-158162619D02*
X91985714Y-158162619D01*
X91985714Y-158162619D02*
X91652381Y-158543571D01*
X91652381Y-158543571D02*
X91795238Y-158543571D01*
X91795238Y-158543571D02*
X91890476Y-158591190D01*
X91890476Y-158591190D02*
X91938095Y-158638809D01*
X91938095Y-158638809D02*
X91985714Y-158734047D01*
X91985714Y-158734047D02*
X91985714Y-158972142D01*
X91985714Y-158972142D02*
X91938095Y-159067380D01*
X91938095Y-159067380D02*
X91890476Y-159115000D01*
X91890476Y-159115000D02*
X91795238Y-159162619D01*
X91795238Y-159162619D02*
X91509524Y-159162619D01*
X91509524Y-159162619D02*
X91414286Y-159115000D01*
X91414286Y-159115000D02*
X91366667Y-159067380D01*
%TO.C,Y1*%
X107923809Y-159886428D02*
X107923809Y-160362619D01*
X107590476Y-159362619D02*
X107923809Y-159886428D01*
X107923809Y-159886428D02*
X108257142Y-159362619D01*
X109114285Y-160362619D02*
X108542857Y-160362619D01*
X108828571Y-160362619D02*
X108828571Y-159362619D01*
X108828571Y-159362619D02*
X108733333Y-159505476D01*
X108733333Y-159505476D02*
X108638095Y-159600714D01*
X108638095Y-159600714D02*
X108542857Y-159648333D01*
D11*
%TO.C,C11*%
X87478571Y-136883690D02*
X87454762Y-136907500D01*
X87454762Y-136907500D02*
X87383333Y-136931309D01*
X87383333Y-136931309D02*
X87335714Y-136931309D01*
X87335714Y-136931309D02*
X87264286Y-136907500D01*
X87264286Y-136907500D02*
X87216667Y-136859880D01*
X87216667Y-136859880D02*
X87192857Y-136812261D01*
X87192857Y-136812261D02*
X87169048Y-136717023D01*
X87169048Y-136717023D02*
X87169048Y-136645595D01*
X87169048Y-136645595D02*
X87192857Y-136550357D01*
X87192857Y-136550357D02*
X87216667Y-136502738D01*
X87216667Y-136502738D02*
X87264286Y-136455119D01*
X87264286Y-136455119D02*
X87335714Y-136431309D01*
X87335714Y-136431309D02*
X87383333Y-136431309D01*
X87383333Y-136431309D02*
X87454762Y-136455119D01*
X87454762Y-136455119D02*
X87478571Y-136478928D01*
X87954762Y-136931309D02*
X87669048Y-136931309D01*
X87811905Y-136931309D02*
X87811905Y-136431309D01*
X87811905Y-136431309D02*
X87764286Y-136502738D01*
X87764286Y-136502738D02*
X87716667Y-136550357D01*
X87716667Y-136550357D02*
X87669048Y-136574166D01*
X88430952Y-136931309D02*
X88145238Y-136931309D01*
X88288095Y-136931309D02*
X88288095Y-136431309D01*
X88288095Y-136431309D02*
X88240476Y-136502738D01*
X88240476Y-136502738D02*
X88192857Y-136550357D01*
X88192857Y-136550357D02*
X88145238Y-136574166D01*
D10*
%TO.C,C19*%
X138167380Y-163817857D02*
X138215000Y-163865476D01*
X138215000Y-163865476D02*
X138262619Y-164008333D01*
X138262619Y-164008333D02*
X138262619Y-164103571D01*
X138262619Y-164103571D02*
X138215000Y-164246428D01*
X138215000Y-164246428D02*
X138119761Y-164341666D01*
X138119761Y-164341666D02*
X138024523Y-164389285D01*
X138024523Y-164389285D02*
X137834047Y-164436904D01*
X137834047Y-164436904D02*
X137691190Y-164436904D01*
X137691190Y-164436904D02*
X137500714Y-164389285D01*
X137500714Y-164389285D02*
X137405476Y-164341666D01*
X137405476Y-164341666D02*
X137310238Y-164246428D01*
X137310238Y-164246428D02*
X137262619Y-164103571D01*
X137262619Y-164103571D02*
X137262619Y-164008333D01*
X137262619Y-164008333D02*
X137310238Y-163865476D01*
X137310238Y-163865476D02*
X137357857Y-163817857D01*
X138262619Y-162865476D02*
X138262619Y-163436904D01*
X138262619Y-163151190D02*
X137262619Y-163151190D01*
X137262619Y-163151190D02*
X137405476Y-163246428D01*
X137405476Y-163246428D02*
X137500714Y-163341666D01*
X137500714Y-163341666D02*
X137548333Y-163436904D01*
X138262619Y-162389285D02*
X138262619Y-162198809D01*
X138262619Y-162198809D02*
X138215000Y-162103571D01*
X138215000Y-162103571D02*
X138167380Y-162055952D01*
X138167380Y-162055952D02*
X138024523Y-161960714D01*
X138024523Y-161960714D02*
X137834047Y-161913095D01*
X137834047Y-161913095D02*
X137453095Y-161913095D01*
X137453095Y-161913095D02*
X137357857Y-161960714D01*
X137357857Y-161960714D02*
X137310238Y-162008333D01*
X137310238Y-162008333D02*
X137262619Y-162103571D01*
X137262619Y-162103571D02*
X137262619Y-162294047D01*
X137262619Y-162294047D02*
X137310238Y-162389285D01*
X137310238Y-162389285D02*
X137357857Y-162436904D01*
X137357857Y-162436904D02*
X137453095Y-162484523D01*
X137453095Y-162484523D02*
X137691190Y-162484523D01*
X137691190Y-162484523D02*
X137786428Y-162436904D01*
X137786428Y-162436904D02*
X137834047Y-162389285D01*
X137834047Y-162389285D02*
X137881666Y-162294047D01*
X137881666Y-162294047D02*
X137881666Y-162103571D01*
X137881666Y-162103571D02*
X137834047Y-162008333D01*
X137834047Y-162008333D02*
X137786428Y-161960714D01*
X137786428Y-161960714D02*
X137691190Y-161913095D01*
%TO.C,C18*%
X96567380Y-149742857D02*
X96615000Y-149790476D01*
X96615000Y-149790476D02*
X96662619Y-149933333D01*
X96662619Y-149933333D02*
X96662619Y-150028571D01*
X96662619Y-150028571D02*
X96615000Y-150171428D01*
X96615000Y-150171428D02*
X96519761Y-150266666D01*
X96519761Y-150266666D02*
X96424523Y-150314285D01*
X96424523Y-150314285D02*
X96234047Y-150361904D01*
X96234047Y-150361904D02*
X96091190Y-150361904D01*
X96091190Y-150361904D02*
X95900714Y-150314285D01*
X95900714Y-150314285D02*
X95805476Y-150266666D01*
X95805476Y-150266666D02*
X95710238Y-150171428D01*
X95710238Y-150171428D02*
X95662619Y-150028571D01*
X95662619Y-150028571D02*
X95662619Y-149933333D01*
X95662619Y-149933333D02*
X95710238Y-149790476D01*
X95710238Y-149790476D02*
X95757857Y-149742857D01*
X96662619Y-148790476D02*
X96662619Y-149361904D01*
X96662619Y-149076190D02*
X95662619Y-149076190D01*
X95662619Y-149076190D02*
X95805476Y-149171428D01*
X95805476Y-149171428D02*
X95900714Y-149266666D01*
X95900714Y-149266666D02*
X95948333Y-149361904D01*
X96091190Y-148219047D02*
X96043571Y-148314285D01*
X96043571Y-148314285D02*
X95995952Y-148361904D01*
X95995952Y-148361904D02*
X95900714Y-148409523D01*
X95900714Y-148409523D02*
X95853095Y-148409523D01*
X95853095Y-148409523D02*
X95757857Y-148361904D01*
X95757857Y-148361904D02*
X95710238Y-148314285D01*
X95710238Y-148314285D02*
X95662619Y-148219047D01*
X95662619Y-148219047D02*
X95662619Y-148028571D01*
X95662619Y-148028571D02*
X95710238Y-147933333D01*
X95710238Y-147933333D02*
X95757857Y-147885714D01*
X95757857Y-147885714D02*
X95853095Y-147838095D01*
X95853095Y-147838095D02*
X95900714Y-147838095D01*
X95900714Y-147838095D02*
X95995952Y-147885714D01*
X95995952Y-147885714D02*
X96043571Y-147933333D01*
X96043571Y-147933333D02*
X96091190Y-148028571D01*
X96091190Y-148028571D02*
X96091190Y-148219047D01*
X96091190Y-148219047D02*
X96138809Y-148314285D01*
X96138809Y-148314285D02*
X96186428Y-148361904D01*
X96186428Y-148361904D02*
X96281666Y-148409523D01*
X96281666Y-148409523D02*
X96472142Y-148409523D01*
X96472142Y-148409523D02*
X96567380Y-148361904D01*
X96567380Y-148361904D02*
X96615000Y-148314285D01*
X96615000Y-148314285D02*
X96662619Y-148219047D01*
X96662619Y-148219047D02*
X96662619Y-148028571D01*
X96662619Y-148028571D02*
X96615000Y-147933333D01*
X96615000Y-147933333D02*
X96567380Y-147885714D01*
X96567380Y-147885714D02*
X96472142Y-147838095D01*
X96472142Y-147838095D02*
X96281666Y-147838095D01*
X96281666Y-147838095D02*
X96186428Y-147885714D01*
X96186428Y-147885714D02*
X96138809Y-147933333D01*
X96138809Y-147933333D02*
X96091190Y-148028571D01*
%TO.C,JP5*%
X119166666Y-153162619D02*
X119166666Y-153876904D01*
X119166666Y-153876904D02*
X119119047Y-154019761D01*
X119119047Y-154019761D02*
X119023809Y-154115000D01*
X119023809Y-154115000D02*
X118880952Y-154162619D01*
X118880952Y-154162619D02*
X118785714Y-154162619D01*
X119642857Y-154162619D02*
X119642857Y-153162619D01*
X119642857Y-153162619D02*
X120023809Y-153162619D01*
X120023809Y-153162619D02*
X120119047Y-153210238D01*
X120119047Y-153210238D02*
X120166666Y-153257857D01*
X120166666Y-153257857D02*
X120214285Y-153353095D01*
X120214285Y-153353095D02*
X120214285Y-153495952D01*
X120214285Y-153495952D02*
X120166666Y-153591190D01*
X120166666Y-153591190D02*
X120119047Y-153638809D01*
X120119047Y-153638809D02*
X120023809Y-153686428D01*
X120023809Y-153686428D02*
X119642857Y-153686428D01*
X121119047Y-153162619D02*
X120642857Y-153162619D01*
X120642857Y-153162619D02*
X120595238Y-153638809D01*
X120595238Y-153638809D02*
X120642857Y-153591190D01*
X120642857Y-153591190D02*
X120738095Y-153543571D01*
X120738095Y-153543571D02*
X120976190Y-153543571D01*
X120976190Y-153543571D02*
X121071428Y-153591190D01*
X121071428Y-153591190D02*
X121119047Y-153638809D01*
X121119047Y-153638809D02*
X121166666Y-153734047D01*
X121166666Y-153734047D02*
X121166666Y-153972142D01*
X121166666Y-153972142D02*
X121119047Y-154067380D01*
X121119047Y-154067380D02*
X121071428Y-154115000D01*
X121071428Y-154115000D02*
X120976190Y-154162619D01*
X120976190Y-154162619D02*
X120738095Y-154162619D01*
X120738095Y-154162619D02*
X120642857Y-154115000D01*
X120642857Y-154115000D02*
X120595238Y-154067380D01*
X120085714Y-155862619D02*
X119514286Y-155862619D01*
X119800000Y-155862619D02*
X119800000Y-154862619D01*
X119800000Y-154862619D02*
X119704762Y-155005476D01*
X119704762Y-155005476D02*
X119609524Y-155100714D01*
X119609524Y-155100714D02*
X119514286Y-155148333D01*
X124666667Y-154862619D02*
X125285714Y-154862619D01*
X125285714Y-154862619D02*
X124952381Y-155243571D01*
X124952381Y-155243571D02*
X125095238Y-155243571D01*
X125095238Y-155243571D02*
X125190476Y-155291190D01*
X125190476Y-155291190D02*
X125238095Y-155338809D01*
X125238095Y-155338809D02*
X125285714Y-155434047D01*
X125285714Y-155434047D02*
X125285714Y-155672142D01*
X125285714Y-155672142D02*
X125238095Y-155767380D01*
X125238095Y-155767380D02*
X125190476Y-155815000D01*
X125190476Y-155815000D02*
X125095238Y-155862619D01*
X125095238Y-155862619D02*
X124809524Y-155862619D01*
X124809524Y-155862619D02*
X124714286Y-155815000D01*
X124714286Y-155815000D02*
X124666667Y-155767380D01*
%TO.C,R15*%
X109012619Y-150342857D02*
X108536428Y-150676190D01*
X109012619Y-150914285D02*
X108012619Y-150914285D01*
X108012619Y-150914285D02*
X108012619Y-150533333D01*
X108012619Y-150533333D02*
X108060238Y-150438095D01*
X108060238Y-150438095D02*
X108107857Y-150390476D01*
X108107857Y-150390476D02*
X108203095Y-150342857D01*
X108203095Y-150342857D02*
X108345952Y-150342857D01*
X108345952Y-150342857D02*
X108441190Y-150390476D01*
X108441190Y-150390476D02*
X108488809Y-150438095D01*
X108488809Y-150438095D02*
X108536428Y-150533333D01*
X108536428Y-150533333D02*
X108536428Y-150914285D01*
X109012619Y-149390476D02*
X109012619Y-149961904D01*
X109012619Y-149676190D02*
X108012619Y-149676190D01*
X108012619Y-149676190D02*
X108155476Y-149771428D01*
X108155476Y-149771428D02*
X108250714Y-149866666D01*
X108250714Y-149866666D02*
X108298333Y-149961904D01*
X108012619Y-148485714D02*
X108012619Y-148961904D01*
X108012619Y-148961904D02*
X108488809Y-149009523D01*
X108488809Y-149009523D02*
X108441190Y-148961904D01*
X108441190Y-148961904D02*
X108393571Y-148866666D01*
X108393571Y-148866666D02*
X108393571Y-148628571D01*
X108393571Y-148628571D02*
X108441190Y-148533333D01*
X108441190Y-148533333D02*
X108488809Y-148485714D01*
X108488809Y-148485714D02*
X108584047Y-148438095D01*
X108584047Y-148438095D02*
X108822142Y-148438095D01*
X108822142Y-148438095D02*
X108917380Y-148485714D01*
X108917380Y-148485714D02*
X108965000Y-148533333D01*
X108965000Y-148533333D02*
X109012619Y-148628571D01*
X109012619Y-148628571D02*
X109012619Y-148866666D01*
X109012619Y-148866666D02*
X108965000Y-148961904D01*
X108965000Y-148961904D02*
X108917380Y-149009523D01*
%TO.C,JP3*%
X93466666Y-164337619D02*
X93466666Y-165051904D01*
X93466666Y-165051904D02*
X93419047Y-165194761D01*
X93419047Y-165194761D02*
X93323809Y-165290000D01*
X93323809Y-165290000D02*
X93180952Y-165337619D01*
X93180952Y-165337619D02*
X93085714Y-165337619D01*
X93942857Y-165337619D02*
X93942857Y-164337619D01*
X93942857Y-164337619D02*
X94323809Y-164337619D01*
X94323809Y-164337619D02*
X94419047Y-164385238D01*
X94419047Y-164385238D02*
X94466666Y-164432857D01*
X94466666Y-164432857D02*
X94514285Y-164528095D01*
X94514285Y-164528095D02*
X94514285Y-164670952D01*
X94514285Y-164670952D02*
X94466666Y-164766190D01*
X94466666Y-164766190D02*
X94419047Y-164813809D01*
X94419047Y-164813809D02*
X94323809Y-164861428D01*
X94323809Y-164861428D02*
X93942857Y-164861428D01*
X94847619Y-164337619D02*
X95466666Y-164337619D01*
X95466666Y-164337619D02*
X95133333Y-164718571D01*
X95133333Y-164718571D02*
X95276190Y-164718571D01*
X95276190Y-164718571D02*
X95371428Y-164766190D01*
X95371428Y-164766190D02*
X95419047Y-164813809D01*
X95419047Y-164813809D02*
X95466666Y-164909047D01*
X95466666Y-164909047D02*
X95466666Y-165147142D01*
X95466666Y-165147142D02*
X95419047Y-165242380D01*
X95419047Y-165242380D02*
X95371428Y-165290000D01*
X95371428Y-165290000D02*
X95276190Y-165337619D01*
X95276190Y-165337619D02*
X94990476Y-165337619D01*
X94990476Y-165337619D02*
X94895238Y-165290000D01*
X94895238Y-165290000D02*
X94847619Y-165242380D01*
X97185714Y-162162619D02*
X96614286Y-162162619D01*
X96900000Y-162162619D02*
X96900000Y-161162619D01*
X96900000Y-161162619D02*
X96804762Y-161305476D01*
X96804762Y-161305476D02*
X96709524Y-161400714D01*
X96709524Y-161400714D02*
X96614286Y-161448333D01*
X91366667Y-161162619D02*
X91985714Y-161162619D01*
X91985714Y-161162619D02*
X91652381Y-161543571D01*
X91652381Y-161543571D02*
X91795238Y-161543571D01*
X91795238Y-161543571D02*
X91890476Y-161591190D01*
X91890476Y-161591190D02*
X91938095Y-161638809D01*
X91938095Y-161638809D02*
X91985714Y-161734047D01*
X91985714Y-161734047D02*
X91985714Y-161972142D01*
X91985714Y-161972142D02*
X91938095Y-162067380D01*
X91938095Y-162067380D02*
X91890476Y-162115000D01*
X91890476Y-162115000D02*
X91795238Y-162162619D01*
X91795238Y-162162619D02*
X91509524Y-162162619D01*
X91509524Y-162162619D02*
X91414286Y-162115000D01*
X91414286Y-162115000D02*
X91366667Y-162067380D01*
%TO.C,D2*%
X105762619Y-135638094D02*
X104762619Y-135638094D01*
X104762619Y-135638094D02*
X104762619Y-135399999D01*
X104762619Y-135399999D02*
X104810238Y-135257142D01*
X104810238Y-135257142D02*
X104905476Y-135161904D01*
X104905476Y-135161904D02*
X105000714Y-135114285D01*
X105000714Y-135114285D02*
X105191190Y-135066666D01*
X105191190Y-135066666D02*
X105334047Y-135066666D01*
X105334047Y-135066666D02*
X105524523Y-135114285D01*
X105524523Y-135114285D02*
X105619761Y-135161904D01*
X105619761Y-135161904D02*
X105715000Y-135257142D01*
X105715000Y-135257142D02*
X105762619Y-135399999D01*
X105762619Y-135399999D02*
X105762619Y-135638094D01*
X104857857Y-134685713D02*
X104810238Y-134638094D01*
X104810238Y-134638094D02*
X104762619Y-134542856D01*
X104762619Y-134542856D02*
X104762619Y-134304761D01*
X104762619Y-134304761D02*
X104810238Y-134209523D01*
X104810238Y-134209523D02*
X104857857Y-134161904D01*
X104857857Y-134161904D02*
X104953095Y-134114285D01*
X104953095Y-134114285D02*
X105048333Y-134114285D01*
X105048333Y-134114285D02*
X105191190Y-134161904D01*
X105191190Y-134161904D02*
X105762619Y-134733332D01*
X105762619Y-134733332D02*
X105762619Y-134114285D01*
D11*
%TO.C,U4*%
X87619047Y-138231309D02*
X87619047Y-138636071D01*
X87619047Y-138636071D02*
X87642857Y-138683690D01*
X87642857Y-138683690D02*
X87666666Y-138707500D01*
X87666666Y-138707500D02*
X87714285Y-138731309D01*
X87714285Y-138731309D02*
X87809523Y-138731309D01*
X87809523Y-138731309D02*
X87857142Y-138707500D01*
X87857142Y-138707500D02*
X87880952Y-138683690D01*
X87880952Y-138683690D02*
X87904761Y-138636071D01*
X87904761Y-138636071D02*
X87904761Y-138231309D01*
X88357143Y-138397976D02*
X88357143Y-138731309D01*
X88238095Y-138207500D02*
X88119048Y-138564642D01*
X88119048Y-138564642D02*
X88428571Y-138564642D01*
D10*
%TO.C,U2*%
X101963095Y-142962619D02*
X101963095Y-143772142D01*
X101963095Y-143772142D02*
X102010714Y-143867380D01*
X102010714Y-143867380D02*
X102058333Y-143915000D01*
X102058333Y-143915000D02*
X102153571Y-143962619D01*
X102153571Y-143962619D02*
X102344047Y-143962619D01*
X102344047Y-143962619D02*
X102439285Y-143915000D01*
X102439285Y-143915000D02*
X102486904Y-143867380D01*
X102486904Y-143867380D02*
X102534523Y-143772142D01*
X102534523Y-143772142D02*
X102534523Y-142962619D01*
X102963095Y-143057857D02*
X103010714Y-143010238D01*
X103010714Y-143010238D02*
X103105952Y-142962619D01*
X103105952Y-142962619D02*
X103344047Y-142962619D01*
X103344047Y-142962619D02*
X103439285Y-143010238D01*
X103439285Y-143010238D02*
X103486904Y-143057857D01*
X103486904Y-143057857D02*
X103534523Y-143153095D01*
X103534523Y-143153095D02*
X103534523Y-143248333D01*
X103534523Y-143248333D02*
X103486904Y-143391190D01*
X103486904Y-143391190D02*
X102915476Y-143962619D01*
X102915476Y-143962619D02*
X103534523Y-143962619D01*
%TO.C,C20*%
X90542380Y-163717857D02*
X90590000Y-163765476D01*
X90590000Y-163765476D02*
X90637619Y-163908333D01*
X90637619Y-163908333D02*
X90637619Y-164003571D01*
X90637619Y-164003571D02*
X90590000Y-164146428D01*
X90590000Y-164146428D02*
X90494761Y-164241666D01*
X90494761Y-164241666D02*
X90399523Y-164289285D01*
X90399523Y-164289285D02*
X90209047Y-164336904D01*
X90209047Y-164336904D02*
X90066190Y-164336904D01*
X90066190Y-164336904D02*
X89875714Y-164289285D01*
X89875714Y-164289285D02*
X89780476Y-164241666D01*
X89780476Y-164241666D02*
X89685238Y-164146428D01*
X89685238Y-164146428D02*
X89637619Y-164003571D01*
X89637619Y-164003571D02*
X89637619Y-163908333D01*
X89637619Y-163908333D02*
X89685238Y-163765476D01*
X89685238Y-163765476D02*
X89732857Y-163717857D01*
X89732857Y-163336904D02*
X89685238Y-163289285D01*
X89685238Y-163289285D02*
X89637619Y-163194047D01*
X89637619Y-163194047D02*
X89637619Y-162955952D01*
X89637619Y-162955952D02*
X89685238Y-162860714D01*
X89685238Y-162860714D02*
X89732857Y-162813095D01*
X89732857Y-162813095D02*
X89828095Y-162765476D01*
X89828095Y-162765476D02*
X89923333Y-162765476D01*
X89923333Y-162765476D02*
X90066190Y-162813095D01*
X90066190Y-162813095D02*
X90637619Y-163384523D01*
X90637619Y-163384523D02*
X90637619Y-162765476D01*
X89637619Y-162146428D02*
X89637619Y-162051190D01*
X89637619Y-162051190D02*
X89685238Y-161955952D01*
X89685238Y-161955952D02*
X89732857Y-161908333D01*
X89732857Y-161908333D02*
X89828095Y-161860714D01*
X89828095Y-161860714D02*
X90018571Y-161813095D01*
X90018571Y-161813095D02*
X90256666Y-161813095D01*
X90256666Y-161813095D02*
X90447142Y-161860714D01*
X90447142Y-161860714D02*
X90542380Y-161908333D01*
X90542380Y-161908333D02*
X90590000Y-161955952D01*
X90590000Y-161955952D02*
X90637619Y-162051190D01*
X90637619Y-162051190D02*
X90637619Y-162146428D01*
X90637619Y-162146428D02*
X90590000Y-162241666D01*
X90590000Y-162241666D02*
X90542380Y-162289285D01*
X90542380Y-162289285D02*
X90447142Y-162336904D01*
X90447142Y-162336904D02*
X90256666Y-162384523D01*
X90256666Y-162384523D02*
X90018571Y-162384523D01*
X90018571Y-162384523D02*
X89828095Y-162336904D01*
X89828095Y-162336904D02*
X89732857Y-162289285D01*
X89732857Y-162289285D02*
X89685238Y-162241666D01*
X89685238Y-162241666D02*
X89637619Y-162146428D01*
%TO.C,C9*%
X87633333Y-132667380D02*
X87585714Y-132715000D01*
X87585714Y-132715000D02*
X87442857Y-132762619D01*
X87442857Y-132762619D02*
X87347619Y-132762619D01*
X87347619Y-132762619D02*
X87204762Y-132715000D01*
X87204762Y-132715000D02*
X87109524Y-132619761D01*
X87109524Y-132619761D02*
X87061905Y-132524523D01*
X87061905Y-132524523D02*
X87014286Y-132334047D01*
X87014286Y-132334047D02*
X87014286Y-132191190D01*
X87014286Y-132191190D02*
X87061905Y-132000714D01*
X87061905Y-132000714D02*
X87109524Y-131905476D01*
X87109524Y-131905476D02*
X87204762Y-131810238D01*
X87204762Y-131810238D02*
X87347619Y-131762619D01*
X87347619Y-131762619D02*
X87442857Y-131762619D01*
X87442857Y-131762619D02*
X87585714Y-131810238D01*
X87585714Y-131810238D02*
X87633333Y-131857857D01*
X88109524Y-132762619D02*
X88300000Y-132762619D01*
X88300000Y-132762619D02*
X88395238Y-132715000D01*
X88395238Y-132715000D02*
X88442857Y-132667380D01*
X88442857Y-132667380D02*
X88538095Y-132524523D01*
X88538095Y-132524523D02*
X88585714Y-132334047D01*
X88585714Y-132334047D02*
X88585714Y-131953095D01*
X88585714Y-131953095D02*
X88538095Y-131857857D01*
X88538095Y-131857857D02*
X88490476Y-131810238D01*
X88490476Y-131810238D02*
X88395238Y-131762619D01*
X88395238Y-131762619D02*
X88204762Y-131762619D01*
X88204762Y-131762619D02*
X88109524Y-131810238D01*
X88109524Y-131810238D02*
X88061905Y-131857857D01*
X88061905Y-131857857D02*
X88014286Y-131953095D01*
X88014286Y-131953095D02*
X88014286Y-132191190D01*
X88014286Y-132191190D02*
X88061905Y-132286428D01*
X88061905Y-132286428D02*
X88109524Y-132334047D01*
X88109524Y-132334047D02*
X88204762Y-132381666D01*
X88204762Y-132381666D02*
X88395238Y-132381666D01*
X88395238Y-132381666D02*
X88490476Y-132334047D01*
X88490476Y-132334047D02*
X88538095Y-132286428D01*
X88538095Y-132286428D02*
X88585714Y-132191190D01*
%TO.C,C22*%
X110092380Y-150342857D02*
X110140000Y-150390476D01*
X110140000Y-150390476D02*
X110187619Y-150533333D01*
X110187619Y-150533333D02*
X110187619Y-150628571D01*
X110187619Y-150628571D02*
X110140000Y-150771428D01*
X110140000Y-150771428D02*
X110044761Y-150866666D01*
X110044761Y-150866666D02*
X109949523Y-150914285D01*
X109949523Y-150914285D02*
X109759047Y-150961904D01*
X109759047Y-150961904D02*
X109616190Y-150961904D01*
X109616190Y-150961904D02*
X109425714Y-150914285D01*
X109425714Y-150914285D02*
X109330476Y-150866666D01*
X109330476Y-150866666D02*
X109235238Y-150771428D01*
X109235238Y-150771428D02*
X109187619Y-150628571D01*
X109187619Y-150628571D02*
X109187619Y-150533333D01*
X109187619Y-150533333D02*
X109235238Y-150390476D01*
X109235238Y-150390476D02*
X109282857Y-150342857D01*
X109282857Y-149961904D02*
X109235238Y-149914285D01*
X109235238Y-149914285D02*
X109187619Y-149819047D01*
X109187619Y-149819047D02*
X109187619Y-149580952D01*
X109187619Y-149580952D02*
X109235238Y-149485714D01*
X109235238Y-149485714D02*
X109282857Y-149438095D01*
X109282857Y-149438095D02*
X109378095Y-149390476D01*
X109378095Y-149390476D02*
X109473333Y-149390476D01*
X109473333Y-149390476D02*
X109616190Y-149438095D01*
X109616190Y-149438095D02*
X110187619Y-150009523D01*
X110187619Y-150009523D02*
X110187619Y-149390476D01*
X109282857Y-149009523D02*
X109235238Y-148961904D01*
X109235238Y-148961904D02*
X109187619Y-148866666D01*
X109187619Y-148866666D02*
X109187619Y-148628571D01*
X109187619Y-148628571D02*
X109235238Y-148533333D01*
X109235238Y-148533333D02*
X109282857Y-148485714D01*
X109282857Y-148485714D02*
X109378095Y-148438095D01*
X109378095Y-148438095D02*
X109473333Y-148438095D01*
X109473333Y-148438095D02*
X109616190Y-148485714D01*
X109616190Y-148485714D02*
X110187619Y-149057142D01*
X110187619Y-149057142D02*
X110187619Y-148438095D01*
%TO.C,C23*%
X118532142Y-158842380D02*
X118484523Y-158890000D01*
X118484523Y-158890000D02*
X118341666Y-158937619D01*
X118341666Y-158937619D02*
X118246428Y-158937619D01*
X118246428Y-158937619D02*
X118103571Y-158890000D01*
X118103571Y-158890000D02*
X118008333Y-158794761D01*
X118008333Y-158794761D02*
X117960714Y-158699523D01*
X117960714Y-158699523D02*
X117913095Y-158509047D01*
X117913095Y-158509047D02*
X117913095Y-158366190D01*
X117913095Y-158366190D02*
X117960714Y-158175714D01*
X117960714Y-158175714D02*
X118008333Y-158080476D01*
X118008333Y-158080476D02*
X118103571Y-157985238D01*
X118103571Y-157985238D02*
X118246428Y-157937619D01*
X118246428Y-157937619D02*
X118341666Y-157937619D01*
X118341666Y-157937619D02*
X118484523Y-157985238D01*
X118484523Y-157985238D02*
X118532142Y-158032857D01*
X118913095Y-158032857D02*
X118960714Y-157985238D01*
X118960714Y-157985238D02*
X119055952Y-157937619D01*
X119055952Y-157937619D02*
X119294047Y-157937619D01*
X119294047Y-157937619D02*
X119389285Y-157985238D01*
X119389285Y-157985238D02*
X119436904Y-158032857D01*
X119436904Y-158032857D02*
X119484523Y-158128095D01*
X119484523Y-158128095D02*
X119484523Y-158223333D01*
X119484523Y-158223333D02*
X119436904Y-158366190D01*
X119436904Y-158366190D02*
X118865476Y-158937619D01*
X118865476Y-158937619D02*
X119484523Y-158937619D01*
X119817857Y-157937619D02*
X120436904Y-157937619D01*
X120436904Y-157937619D02*
X120103571Y-158318571D01*
X120103571Y-158318571D02*
X120246428Y-158318571D01*
X120246428Y-158318571D02*
X120341666Y-158366190D01*
X120341666Y-158366190D02*
X120389285Y-158413809D01*
X120389285Y-158413809D02*
X120436904Y-158509047D01*
X120436904Y-158509047D02*
X120436904Y-158747142D01*
X120436904Y-158747142D02*
X120389285Y-158842380D01*
X120389285Y-158842380D02*
X120341666Y-158890000D01*
X120341666Y-158890000D02*
X120246428Y-158937619D01*
X120246428Y-158937619D02*
X119960714Y-158937619D01*
X119960714Y-158937619D02*
X119865476Y-158890000D01*
X119865476Y-158890000D02*
X119817857Y-158842380D01*
%TO.C,R13*%
X89212619Y-163717857D02*
X88736428Y-164051190D01*
X89212619Y-164289285D02*
X88212619Y-164289285D01*
X88212619Y-164289285D02*
X88212619Y-163908333D01*
X88212619Y-163908333D02*
X88260238Y-163813095D01*
X88260238Y-163813095D02*
X88307857Y-163765476D01*
X88307857Y-163765476D02*
X88403095Y-163717857D01*
X88403095Y-163717857D02*
X88545952Y-163717857D01*
X88545952Y-163717857D02*
X88641190Y-163765476D01*
X88641190Y-163765476D02*
X88688809Y-163813095D01*
X88688809Y-163813095D02*
X88736428Y-163908333D01*
X88736428Y-163908333D02*
X88736428Y-164289285D01*
X89212619Y-162765476D02*
X89212619Y-163336904D01*
X89212619Y-163051190D02*
X88212619Y-163051190D01*
X88212619Y-163051190D02*
X88355476Y-163146428D01*
X88355476Y-163146428D02*
X88450714Y-163241666D01*
X88450714Y-163241666D02*
X88498333Y-163336904D01*
X88212619Y-162432142D02*
X88212619Y-161813095D01*
X88212619Y-161813095D02*
X88593571Y-162146428D01*
X88593571Y-162146428D02*
X88593571Y-162003571D01*
X88593571Y-162003571D02*
X88641190Y-161908333D01*
X88641190Y-161908333D02*
X88688809Y-161860714D01*
X88688809Y-161860714D02*
X88784047Y-161813095D01*
X88784047Y-161813095D02*
X89022142Y-161813095D01*
X89022142Y-161813095D02*
X89117380Y-161860714D01*
X89117380Y-161860714D02*
X89165000Y-161908333D01*
X89165000Y-161908333D02*
X89212619Y-162003571D01*
X89212619Y-162003571D02*
X89212619Y-162289285D01*
X89212619Y-162289285D02*
X89165000Y-162384523D01*
X89165000Y-162384523D02*
X89117380Y-162432142D01*
%TO.C,D1*%
X112361905Y-139687619D02*
X112361905Y-138687619D01*
X112361905Y-138687619D02*
X112600000Y-138687619D01*
X112600000Y-138687619D02*
X112742857Y-138735238D01*
X112742857Y-138735238D02*
X112838095Y-138830476D01*
X112838095Y-138830476D02*
X112885714Y-138925714D01*
X112885714Y-138925714D02*
X112933333Y-139116190D01*
X112933333Y-139116190D02*
X112933333Y-139259047D01*
X112933333Y-139259047D02*
X112885714Y-139449523D01*
X112885714Y-139449523D02*
X112838095Y-139544761D01*
X112838095Y-139544761D02*
X112742857Y-139640000D01*
X112742857Y-139640000D02*
X112600000Y-139687619D01*
X112600000Y-139687619D02*
X112361905Y-139687619D01*
X113885714Y-139687619D02*
X113314286Y-139687619D01*
X113600000Y-139687619D02*
X113600000Y-138687619D01*
X113600000Y-138687619D02*
X113504762Y-138830476D01*
X113504762Y-138830476D02*
X113409524Y-138925714D01*
X113409524Y-138925714D02*
X113314286Y-138973333D01*
%TO.C,R17*%
X121834642Y-133682619D02*
X121501309Y-133206428D01*
X121263214Y-133682619D02*
X121263214Y-132682619D01*
X121263214Y-132682619D02*
X121644166Y-132682619D01*
X121644166Y-132682619D02*
X121739404Y-132730238D01*
X121739404Y-132730238D02*
X121787023Y-132777857D01*
X121787023Y-132777857D02*
X121834642Y-132873095D01*
X121834642Y-132873095D02*
X121834642Y-133015952D01*
X121834642Y-133015952D02*
X121787023Y-133111190D01*
X121787023Y-133111190D02*
X121739404Y-133158809D01*
X121739404Y-133158809D02*
X121644166Y-133206428D01*
X121644166Y-133206428D02*
X121263214Y-133206428D01*
X122787023Y-133682619D02*
X122215595Y-133682619D01*
X122501309Y-133682619D02*
X122501309Y-132682619D01*
X122501309Y-132682619D02*
X122406071Y-132825476D01*
X122406071Y-132825476D02*
X122310833Y-132920714D01*
X122310833Y-132920714D02*
X122215595Y-132968333D01*
X123120357Y-132682619D02*
X123787023Y-132682619D01*
X123787023Y-132682619D02*
X123358452Y-133682619D01*
%TO.C,J3*%
X128166666Y-128062619D02*
X128166666Y-128776904D01*
X128166666Y-128776904D02*
X128119047Y-128919761D01*
X128119047Y-128919761D02*
X128023809Y-129015000D01*
X128023809Y-129015000D02*
X127880952Y-129062619D01*
X127880952Y-129062619D02*
X127785714Y-129062619D01*
X128547619Y-128062619D02*
X129166666Y-128062619D01*
X129166666Y-128062619D02*
X128833333Y-128443571D01*
X128833333Y-128443571D02*
X128976190Y-128443571D01*
X128976190Y-128443571D02*
X129071428Y-128491190D01*
X129071428Y-128491190D02*
X129119047Y-128538809D01*
X129119047Y-128538809D02*
X129166666Y-128634047D01*
X129166666Y-128634047D02*
X129166666Y-128872142D01*
X129166666Y-128872142D02*
X129119047Y-128967380D01*
X129119047Y-128967380D02*
X129071428Y-129015000D01*
X129071428Y-129015000D02*
X128976190Y-129062619D01*
X128976190Y-129062619D02*
X128690476Y-129062619D01*
X128690476Y-129062619D02*
X128595238Y-129015000D01*
X128595238Y-129015000D02*
X128547619Y-128967380D01*
%TO.C,U3*%
X111488095Y-139325119D02*
X111488095Y-140134642D01*
X111488095Y-140134642D02*
X111535714Y-140229880D01*
X111535714Y-140229880D02*
X111583333Y-140277500D01*
X111583333Y-140277500D02*
X111678571Y-140325119D01*
X111678571Y-140325119D02*
X111869047Y-140325119D01*
X111869047Y-140325119D02*
X111964285Y-140277500D01*
X111964285Y-140277500D02*
X112011904Y-140229880D01*
X112011904Y-140229880D02*
X112059523Y-140134642D01*
X112059523Y-140134642D02*
X112059523Y-139325119D01*
X112440476Y-139325119D02*
X113059523Y-139325119D01*
X113059523Y-139325119D02*
X112726190Y-139706071D01*
X112726190Y-139706071D02*
X112869047Y-139706071D01*
X112869047Y-139706071D02*
X112964285Y-139753690D01*
X112964285Y-139753690D02*
X113011904Y-139801309D01*
X113011904Y-139801309D02*
X113059523Y-139896547D01*
X113059523Y-139896547D02*
X113059523Y-140134642D01*
X113059523Y-140134642D02*
X113011904Y-140229880D01*
X113011904Y-140229880D02*
X112964285Y-140277500D01*
X112964285Y-140277500D02*
X112869047Y-140325119D01*
X112869047Y-140325119D02*
X112583333Y-140325119D01*
X112583333Y-140325119D02*
X112488095Y-140277500D01*
X112488095Y-140277500D02*
X112440476Y-140229880D01*
%TO.C,C4*%
X108983333Y-157042380D02*
X108935714Y-157090000D01*
X108935714Y-157090000D02*
X108792857Y-157137619D01*
X108792857Y-157137619D02*
X108697619Y-157137619D01*
X108697619Y-157137619D02*
X108554762Y-157090000D01*
X108554762Y-157090000D02*
X108459524Y-156994761D01*
X108459524Y-156994761D02*
X108411905Y-156899523D01*
X108411905Y-156899523D02*
X108364286Y-156709047D01*
X108364286Y-156709047D02*
X108364286Y-156566190D01*
X108364286Y-156566190D02*
X108411905Y-156375714D01*
X108411905Y-156375714D02*
X108459524Y-156280476D01*
X108459524Y-156280476D02*
X108554762Y-156185238D01*
X108554762Y-156185238D02*
X108697619Y-156137619D01*
X108697619Y-156137619D02*
X108792857Y-156137619D01*
X108792857Y-156137619D02*
X108935714Y-156185238D01*
X108935714Y-156185238D02*
X108983333Y-156232857D01*
X109840476Y-156470952D02*
X109840476Y-157137619D01*
X109602381Y-156090000D02*
X109364286Y-156804285D01*
X109364286Y-156804285D02*
X109983333Y-156804285D01*
%TO.C,R16*%
X119554642Y-131342619D02*
X119221309Y-130866428D01*
X118983214Y-131342619D02*
X118983214Y-130342619D01*
X118983214Y-130342619D02*
X119364166Y-130342619D01*
X119364166Y-130342619D02*
X119459404Y-130390238D01*
X119459404Y-130390238D02*
X119507023Y-130437857D01*
X119507023Y-130437857D02*
X119554642Y-130533095D01*
X119554642Y-130533095D02*
X119554642Y-130675952D01*
X119554642Y-130675952D02*
X119507023Y-130771190D01*
X119507023Y-130771190D02*
X119459404Y-130818809D01*
X119459404Y-130818809D02*
X119364166Y-130866428D01*
X119364166Y-130866428D02*
X118983214Y-130866428D01*
X120507023Y-131342619D02*
X119935595Y-131342619D01*
X120221309Y-131342619D02*
X120221309Y-130342619D01*
X120221309Y-130342619D02*
X120126071Y-130485476D01*
X120126071Y-130485476D02*
X120030833Y-130580714D01*
X120030833Y-130580714D02*
X119935595Y-130628333D01*
X121364166Y-130342619D02*
X121173690Y-130342619D01*
X121173690Y-130342619D02*
X121078452Y-130390238D01*
X121078452Y-130390238D02*
X121030833Y-130437857D01*
X121030833Y-130437857D02*
X120935595Y-130580714D01*
X120935595Y-130580714D02*
X120887976Y-130771190D01*
X120887976Y-130771190D02*
X120887976Y-131152142D01*
X120887976Y-131152142D02*
X120935595Y-131247380D01*
X120935595Y-131247380D02*
X120983214Y-131295000D01*
X120983214Y-131295000D02*
X121078452Y-131342619D01*
X121078452Y-131342619D02*
X121268928Y-131342619D01*
X121268928Y-131342619D02*
X121364166Y-131295000D01*
X121364166Y-131295000D02*
X121411785Y-131247380D01*
X121411785Y-131247380D02*
X121459404Y-131152142D01*
X121459404Y-131152142D02*
X121459404Y-130914047D01*
X121459404Y-130914047D02*
X121411785Y-130818809D01*
X121411785Y-130818809D02*
X121364166Y-130771190D01*
X121364166Y-130771190D02*
X121268928Y-130723571D01*
X121268928Y-130723571D02*
X121078452Y-130723571D01*
X121078452Y-130723571D02*
X120983214Y-130771190D01*
X120983214Y-130771190D02*
X120935595Y-130818809D01*
X120935595Y-130818809D02*
X120887976Y-130914047D01*
%TO.C,R14*%
X107062619Y-153667857D02*
X106586428Y-154001190D01*
X107062619Y-154239285D02*
X106062619Y-154239285D01*
X106062619Y-154239285D02*
X106062619Y-153858333D01*
X106062619Y-153858333D02*
X106110238Y-153763095D01*
X106110238Y-153763095D02*
X106157857Y-153715476D01*
X106157857Y-153715476D02*
X106253095Y-153667857D01*
X106253095Y-153667857D02*
X106395952Y-153667857D01*
X106395952Y-153667857D02*
X106491190Y-153715476D01*
X106491190Y-153715476D02*
X106538809Y-153763095D01*
X106538809Y-153763095D02*
X106586428Y-153858333D01*
X106586428Y-153858333D02*
X106586428Y-154239285D01*
X107062619Y-152715476D02*
X107062619Y-153286904D01*
X107062619Y-153001190D02*
X106062619Y-153001190D01*
X106062619Y-153001190D02*
X106205476Y-153096428D01*
X106205476Y-153096428D02*
X106300714Y-153191666D01*
X106300714Y-153191666D02*
X106348333Y-153286904D01*
X106395952Y-151858333D02*
X107062619Y-151858333D01*
X106015000Y-152096428D02*
X106729285Y-152334523D01*
X106729285Y-152334523D02*
X106729285Y-151715476D01*
%TO.C,C5*%
X114758333Y-149567380D02*
X114710714Y-149615000D01*
X114710714Y-149615000D02*
X114567857Y-149662619D01*
X114567857Y-149662619D02*
X114472619Y-149662619D01*
X114472619Y-149662619D02*
X114329762Y-149615000D01*
X114329762Y-149615000D02*
X114234524Y-149519761D01*
X114234524Y-149519761D02*
X114186905Y-149424523D01*
X114186905Y-149424523D02*
X114139286Y-149234047D01*
X114139286Y-149234047D02*
X114139286Y-149091190D01*
X114139286Y-149091190D02*
X114186905Y-148900714D01*
X114186905Y-148900714D02*
X114234524Y-148805476D01*
X114234524Y-148805476D02*
X114329762Y-148710238D01*
X114329762Y-148710238D02*
X114472619Y-148662619D01*
X114472619Y-148662619D02*
X114567857Y-148662619D01*
X114567857Y-148662619D02*
X114710714Y-148710238D01*
X114710714Y-148710238D02*
X114758333Y-148757857D01*
X115663095Y-148662619D02*
X115186905Y-148662619D01*
X115186905Y-148662619D02*
X115139286Y-149138809D01*
X115139286Y-149138809D02*
X115186905Y-149091190D01*
X115186905Y-149091190D02*
X115282143Y-149043571D01*
X115282143Y-149043571D02*
X115520238Y-149043571D01*
X115520238Y-149043571D02*
X115615476Y-149091190D01*
X115615476Y-149091190D02*
X115663095Y-149138809D01*
X115663095Y-149138809D02*
X115710714Y-149234047D01*
X115710714Y-149234047D02*
X115710714Y-149472142D01*
X115710714Y-149472142D02*
X115663095Y-149567380D01*
X115663095Y-149567380D02*
X115615476Y-149615000D01*
X115615476Y-149615000D02*
X115520238Y-149662619D01*
X115520238Y-149662619D02*
X115282143Y-149662619D01*
X115282143Y-149662619D02*
X115186905Y-149615000D01*
X115186905Y-149615000D02*
X115139286Y-149567380D01*
%TO.C,R9*%
X81830119Y-137866666D02*
X81353928Y-138199999D01*
X81830119Y-138438094D02*
X80830119Y-138438094D01*
X80830119Y-138438094D02*
X80830119Y-138057142D01*
X80830119Y-138057142D02*
X80877738Y-137961904D01*
X80877738Y-137961904D02*
X80925357Y-137914285D01*
X80925357Y-137914285D02*
X81020595Y-137866666D01*
X81020595Y-137866666D02*
X81163452Y-137866666D01*
X81163452Y-137866666D02*
X81258690Y-137914285D01*
X81258690Y-137914285D02*
X81306309Y-137961904D01*
X81306309Y-137961904D02*
X81353928Y-138057142D01*
X81353928Y-138057142D02*
X81353928Y-138438094D01*
X81830119Y-137390475D02*
X81830119Y-137199999D01*
X81830119Y-137199999D02*
X81782500Y-137104761D01*
X81782500Y-137104761D02*
X81734880Y-137057142D01*
X81734880Y-137057142D02*
X81592023Y-136961904D01*
X81592023Y-136961904D02*
X81401547Y-136914285D01*
X81401547Y-136914285D02*
X81020595Y-136914285D01*
X81020595Y-136914285D02*
X80925357Y-136961904D01*
X80925357Y-136961904D02*
X80877738Y-137009523D01*
X80877738Y-137009523D02*
X80830119Y-137104761D01*
X80830119Y-137104761D02*
X80830119Y-137295237D01*
X80830119Y-137295237D02*
X80877738Y-137390475D01*
X80877738Y-137390475D02*
X80925357Y-137438094D01*
X80925357Y-137438094D02*
X81020595Y-137485713D01*
X81020595Y-137485713D02*
X81258690Y-137485713D01*
X81258690Y-137485713D02*
X81353928Y-137438094D01*
X81353928Y-137438094D02*
X81401547Y-137390475D01*
X81401547Y-137390475D02*
X81449166Y-137295237D01*
X81449166Y-137295237D02*
X81449166Y-137104761D01*
X81449166Y-137104761D02*
X81401547Y-137009523D01*
X81401547Y-137009523D02*
X81353928Y-136961904D01*
X81353928Y-136961904D02*
X81258690Y-136914285D01*
%TO.C,U6*%
X130238095Y-126912619D02*
X130238095Y-127722142D01*
X130238095Y-127722142D02*
X130285714Y-127817380D01*
X130285714Y-127817380D02*
X130333333Y-127865000D01*
X130333333Y-127865000D02*
X130428571Y-127912619D01*
X130428571Y-127912619D02*
X130619047Y-127912619D01*
X130619047Y-127912619D02*
X130714285Y-127865000D01*
X130714285Y-127865000D02*
X130761904Y-127817380D01*
X130761904Y-127817380D02*
X130809523Y-127722142D01*
X130809523Y-127722142D02*
X130809523Y-126912619D01*
X131714285Y-126912619D02*
X131523809Y-126912619D01*
X131523809Y-126912619D02*
X131428571Y-126960238D01*
X131428571Y-126960238D02*
X131380952Y-127007857D01*
X131380952Y-127007857D02*
X131285714Y-127150714D01*
X131285714Y-127150714D02*
X131238095Y-127341190D01*
X131238095Y-127341190D02*
X131238095Y-127722142D01*
X131238095Y-127722142D02*
X131285714Y-127817380D01*
X131285714Y-127817380D02*
X131333333Y-127865000D01*
X131333333Y-127865000D02*
X131428571Y-127912619D01*
X131428571Y-127912619D02*
X131619047Y-127912619D01*
X131619047Y-127912619D02*
X131714285Y-127865000D01*
X131714285Y-127865000D02*
X131761904Y-127817380D01*
X131761904Y-127817380D02*
X131809523Y-127722142D01*
X131809523Y-127722142D02*
X131809523Y-127484047D01*
X131809523Y-127484047D02*
X131761904Y-127388809D01*
X131761904Y-127388809D02*
X131714285Y-127341190D01*
X131714285Y-127341190D02*
X131619047Y-127293571D01*
X131619047Y-127293571D02*
X131428571Y-127293571D01*
X131428571Y-127293571D02*
X131333333Y-127341190D01*
X131333333Y-127341190D02*
X131285714Y-127388809D01*
X131285714Y-127388809D02*
X131238095Y-127484047D01*
%TO.C,R7*%
X123533333Y-151912619D02*
X123200000Y-151436428D01*
X122961905Y-151912619D02*
X122961905Y-150912619D01*
X122961905Y-150912619D02*
X123342857Y-150912619D01*
X123342857Y-150912619D02*
X123438095Y-150960238D01*
X123438095Y-150960238D02*
X123485714Y-151007857D01*
X123485714Y-151007857D02*
X123533333Y-151103095D01*
X123533333Y-151103095D02*
X123533333Y-151245952D01*
X123533333Y-151245952D02*
X123485714Y-151341190D01*
X123485714Y-151341190D02*
X123438095Y-151388809D01*
X123438095Y-151388809D02*
X123342857Y-151436428D01*
X123342857Y-151436428D02*
X122961905Y-151436428D01*
X123866667Y-150912619D02*
X124533333Y-150912619D01*
X124533333Y-150912619D02*
X124104762Y-151912619D01*
D11*
%TO.C,R11*%
X89631309Y-136021428D02*
X89393214Y-136188094D01*
X89631309Y-136307142D02*
X89131309Y-136307142D01*
X89131309Y-136307142D02*
X89131309Y-136116666D01*
X89131309Y-136116666D02*
X89155119Y-136069047D01*
X89155119Y-136069047D02*
X89178928Y-136045237D01*
X89178928Y-136045237D02*
X89226547Y-136021428D01*
X89226547Y-136021428D02*
X89297976Y-136021428D01*
X89297976Y-136021428D02*
X89345595Y-136045237D01*
X89345595Y-136045237D02*
X89369404Y-136069047D01*
X89369404Y-136069047D02*
X89393214Y-136116666D01*
X89393214Y-136116666D02*
X89393214Y-136307142D01*
X89631309Y-135545237D02*
X89631309Y-135830951D01*
X89631309Y-135688094D02*
X89131309Y-135688094D01*
X89131309Y-135688094D02*
X89202738Y-135735713D01*
X89202738Y-135735713D02*
X89250357Y-135783332D01*
X89250357Y-135783332D02*
X89274166Y-135830951D01*
X89631309Y-135069047D02*
X89631309Y-135354761D01*
X89631309Y-135211904D02*
X89131309Y-135211904D01*
X89131309Y-135211904D02*
X89202738Y-135259523D01*
X89202738Y-135259523D02*
X89250357Y-135307142D01*
X89250357Y-135307142D02*
X89274166Y-135354761D01*
D10*
%TO.C,J4*%
X124966666Y-155762619D02*
X124966666Y-156476904D01*
X124966666Y-156476904D02*
X124919047Y-156619761D01*
X124919047Y-156619761D02*
X124823809Y-156715000D01*
X124823809Y-156715000D02*
X124680952Y-156762619D01*
X124680952Y-156762619D02*
X124585714Y-156762619D01*
X125871428Y-156095952D02*
X125871428Y-156762619D01*
X125633333Y-155715000D02*
X125395238Y-156429285D01*
X125395238Y-156429285D02*
X126014285Y-156429285D01*
%TO.C,JP2*%
X130641666Y-163137619D02*
X130641666Y-163851904D01*
X130641666Y-163851904D02*
X130594047Y-163994761D01*
X130594047Y-163994761D02*
X130498809Y-164090000D01*
X130498809Y-164090000D02*
X130355952Y-164137619D01*
X130355952Y-164137619D02*
X130260714Y-164137619D01*
X131117857Y-164137619D02*
X131117857Y-163137619D01*
X131117857Y-163137619D02*
X131498809Y-163137619D01*
X131498809Y-163137619D02*
X131594047Y-163185238D01*
X131594047Y-163185238D02*
X131641666Y-163232857D01*
X131641666Y-163232857D02*
X131689285Y-163328095D01*
X131689285Y-163328095D02*
X131689285Y-163470952D01*
X131689285Y-163470952D02*
X131641666Y-163566190D01*
X131641666Y-163566190D02*
X131594047Y-163613809D01*
X131594047Y-163613809D02*
X131498809Y-163661428D01*
X131498809Y-163661428D02*
X131117857Y-163661428D01*
X132070238Y-163232857D02*
X132117857Y-163185238D01*
X132117857Y-163185238D02*
X132213095Y-163137619D01*
X132213095Y-163137619D02*
X132451190Y-163137619D01*
X132451190Y-163137619D02*
X132546428Y-163185238D01*
X132546428Y-163185238D02*
X132594047Y-163232857D01*
X132594047Y-163232857D02*
X132641666Y-163328095D01*
X132641666Y-163328095D02*
X132641666Y-163423333D01*
X132641666Y-163423333D02*
X132594047Y-163566190D01*
X132594047Y-163566190D02*
X132022619Y-164137619D01*
X132022619Y-164137619D02*
X132641666Y-164137619D01*
X131485714Y-162162619D02*
X130914286Y-162162619D01*
X131200000Y-162162619D02*
X131200000Y-161162619D01*
X131200000Y-161162619D02*
X131104762Y-161305476D01*
X131104762Y-161305476D02*
X131009524Y-161400714D01*
X131009524Y-161400714D02*
X130914286Y-161448333D01*
X136066667Y-161162619D02*
X136685714Y-161162619D01*
X136685714Y-161162619D02*
X136352381Y-161543571D01*
X136352381Y-161543571D02*
X136495238Y-161543571D01*
X136495238Y-161543571D02*
X136590476Y-161591190D01*
X136590476Y-161591190D02*
X136638095Y-161638809D01*
X136638095Y-161638809D02*
X136685714Y-161734047D01*
X136685714Y-161734047D02*
X136685714Y-161972142D01*
X136685714Y-161972142D02*
X136638095Y-162067380D01*
X136638095Y-162067380D02*
X136590476Y-162115000D01*
X136590476Y-162115000D02*
X136495238Y-162162619D01*
X136495238Y-162162619D02*
X136209524Y-162162619D01*
X136209524Y-162162619D02*
X136114286Y-162115000D01*
X136114286Y-162115000D02*
X136066667Y-162067380D01*
%TO.C,R2*%
X123533333Y-153162619D02*
X123200000Y-152686428D01*
X122961905Y-153162619D02*
X122961905Y-152162619D01*
X122961905Y-152162619D02*
X123342857Y-152162619D01*
X123342857Y-152162619D02*
X123438095Y-152210238D01*
X123438095Y-152210238D02*
X123485714Y-152257857D01*
X123485714Y-152257857D02*
X123533333Y-152353095D01*
X123533333Y-152353095D02*
X123533333Y-152495952D01*
X123533333Y-152495952D02*
X123485714Y-152591190D01*
X123485714Y-152591190D02*
X123438095Y-152638809D01*
X123438095Y-152638809D02*
X123342857Y-152686428D01*
X123342857Y-152686428D02*
X122961905Y-152686428D01*
X123914286Y-152257857D02*
X123961905Y-152210238D01*
X123961905Y-152210238D02*
X124057143Y-152162619D01*
X124057143Y-152162619D02*
X124295238Y-152162619D01*
X124295238Y-152162619D02*
X124390476Y-152210238D01*
X124390476Y-152210238D02*
X124438095Y-152257857D01*
X124438095Y-152257857D02*
X124485714Y-152353095D01*
X124485714Y-152353095D02*
X124485714Y-152448333D01*
X124485714Y-152448333D02*
X124438095Y-152591190D01*
X124438095Y-152591190D02*
X123866667Y-153162619D01*
X123866667Y-153162619D02*
X124485714Y-153162619D01*
%TO.C,J7*%
X91162619Y-125533333D02*
X91876904Y-125533333D01*
X91876904Y-125533333D02*
X92019761Y-125580952D01*
X92019761Y-125580952D02*
X92115000Y-125676190D01*
X92115000Y-125676190D02*
X92162619Y-125819047D01*
X92162619Y-125819047D02*
X92162619Y-125914285D01*
X91162619Y-125152380D02*
X91162619Y-124485714D01*
X91162619Y-124485714D02*
X92162619Y-124914285D01*
%TO.C,C10*%
X89857142Y-132667380D02*
X89809523Y-132715000D01*
X89809523Y-132715000D02*
X89666666Y-132762619D01*
X89666666Y-132762619D02*
X89571428Y-132762619D01*
X89571428Y-132762619D02*
X89428571Y-132715000D01*
X89428571Y-132715000D02*
X89333333Y-132619761D01*
X89333333Y-132619761D02*
X89285714Y-132524523D01*
X89285714Y-132524523D02*
X89238095Y-132334047D01*
X89238095Y-132334047D02*
X89238095Y-132191190D01*
X89238095Y-132191190D02*
X89285714Y-132000714D01*
X89285714Y-132000714D02*
X89333333Y-131905476D01*
X89333333Y-131905476D02*
X89428571Y-131810238D01*
X89428571Y-131810238D02*
X89571428Y-131762619D01*
X89571428Y-131762619D02*
X89666666Y-131762619D01*
X89666666Y-131762619D02*
X89809523Y-131810238D01*
X89809523Y-131810238D02*
X89857142Y-131857857D01*
X90809523Y-132762619D02*
X90238095Y-132762619D01*
X90523809Y-132762619D02*
X90523809Y-131762619D01*
X90523809Y-131762619D02*
X90428571Y-131905476D01*
X90428571Y-131905476D02*
X90333333Y-132000714D01*
X90333333Y-132000714D02*
X90238095Y-132048333D01*
X91428571Y-131762619D02*
X91523809Y-131762619D01*
X91523809Y-131762619D02*
X91619047Y-131810238D01*
X91619047Y-131810238D02*
X91666666Y-131857857D01*
X91666666Y-131857857D02*
X91714285Y-131953095D01*
X91714285Y-131953095D02*
X91761904Y-132143571D01*
X91761904Y-132143571D02*
X91761904Y-132381666D01*
X91761904Y-132381666D02*
X91714285Y-132572142D01*
X91714285Y-132572142D02*
X91666666Y-132667380D01*
X91666666Y-132667380D02*
X91619047Y-132715000D01*
X91619047Y-132715000D02*
X91523809Y-132762619D01*
X91523809Y-132762619D02*
X91428571Y-132762619D01*
X91428571Y-132762619D02*
X91333333Y-132715000D01*
X91333333Y-132715000D02*
X91285714Y-132667380D01*
X91285714Y-132667380D02*
X91238095Y-132572142D01*
X91238095Y-132572142D02*
X91190476Y-132381666D01*
X91190476Y-132381666D02*
X91190476Y-132143571D01*
X91190476Y-132143571D02*
X91238095Y-131953095D01*
X91238095Y-131953095D02*
X91285714Y-131857857D01*
X91285714Y-131857857D02*
X91333333Y-131810238D01*
X91333333Y-131810238D02*
X91428571Y-131762619D01*
%TO.C,JP1*%
X130666666Y-156287619D02*
X130666666Y-157001904D01*
X130666666Y-157001904D02*
X130619047Y-157144761D01*
X130619047Y-157144761D02*
X130523809Y-157240000D01*
X130523809Y-157240000D02*
X130380952Y-157287619D01*
X130380952Y-157287619D02*
X130285714Y-157287619D01*
X131142857Y-157287619D02*
X131142857Y-156287619D01*
X131142857Y-156287619D02*
X131523809Y-156287619D01*
X131523809Y-156287619D02*
X131619047Y-156335238D01*
X131619047Y-156335238D02*
X131666666Y-156382857D01*
X131666666Y-156382857D02*
X131714285Y-156478095D01*
X131714285Y-156478095D02*
X131714285Y-156620952D01*
X131714285Y-156620952D02*
X131666666Y-156716190D01*
X131666666Y-156716190D02*
X131619047Y-156763809D01*
X131619047Y-156763809D02*
X131523809Y-156811428D01*
X131523809Y-156811428D02*
X131142857Y-156811428D01*
X132666666Y-157287619D02*
X132095238Y-157287619D01*
X132380952Y-157287619D02*
X132380952Y-156287619D01*
X132380952Y-156287619D02*
X132285714Y-156430476D01*
X132285714Y-156430476D02*
X132190476Y-156525714D01*
X132190476Y-156525714D02*
X132095238Y-156573333D01*
X131485714Y-159162619D02*
X130914286Y-159162619D01*
X131200000Y-159162619D02*
X131200000Y-158162619D01*
X131200000Y-158162619D02*
X131104762Y-158305476D01*
X131104762Y-158305476D02*
X131009524Y-158400714D01*
X131009524Y-158400714D02*
X130914286Y-158448333D01*
X136066667Y-158162619D02*
X136685714Y-158162619D01*
X136685714Y-158162619D02*
X136352381Y-158543571D01*
X136352381Y-158543571D02*
X136495238Y-158543571D01*
X136495238Y-158543571D02*
X136590476Y-158591190D01*
X136590476Y-158591190D02*
X136638095Y-158638809D01*
X136638095Y-158638809D02*
X136685714Y-158734047D01*
X136685714Y-158734047D02*
X136685714Y-158972142D01*
X136685714Y-158972142D02*
X136638095Y-159067380D01*
X136638095Y-159067380D02*
X136590476Y-159115000D01*
X136590476Y-159115000D02*
X136495238Y-159162619D01*
X136495238Y-159162619D02*
X136209524Y-159162619D01*
X136209524Y-159162619D02*
X136114286Y-159115000D01*
X136114286Y-159115000D02*
X136066667Y-159067380D01*
%TO.C,C7*%
X117567380Y-157091666D02*
X117615000Y-157139285D01*
X117615000Y-157139285D02*
X117662619Y-157282142D01*
X117662619Y-157282142D02*
X117662619Y-157377380D01*
X117662619Y-157377380D02*
X117615000Y-157520237D01*
X117615000Y-157520237D02*
X117519761Y-157615475D01*
X117519761Y-157615475D02*
X117424523Y-157663094D01*
X117424523Y-157663094D02*
X117234047Y-157710713D01*
X117234047Y-157710713D02*
X117091190Y-157710713D01*
X117091190Y-157710713D02*
X116900714Y-157663094D01*
X116900714Y-157663094D02*
X116805476Y-157615475D01*
X116805476Y-157615475D02*
X116710238Y-157520237D01*
X116710238Y-157520237D02*
X116662619Y-157377380D01*
X116662619Y-157377380D02*
X116662619Y-157282142D01*
X116662619Y-157282142D02*
X116710238Y-157139285D01*
X116710238Y-157139285D02*
X116757857Y-157091666D01*
X116662619Y-156758332D02*
X116662619Y-156091666D01*
X116662619Y-156091666D02*
X117662619Y-156520237D01*
%TO.C,C15*%
X82892380Y-146342857D02*
X82940000Y-146390476D01*
X82940000Y-146390476D02*
X82987619Y-146533333D01*
X82987619Y-146533333D02*
X82987619Y-146628571D01*
X82987619Y-146628571D02*
X82940000Y-146771428D01*
X82940000Y-146771428D02*
X82844761Y-146866666D01*
X82844761Y-146866666D02*
X82749523Y-146914285D01*
X82749523Y-146914285D02*
X82559047Y-146961904D01*
X82559047Y-146961904D02*
X82416190Y-146961904D01*
X82416190Y-146961904D02*
X82225714Y-146914285D01*
X82225714Y-146914285D02*
X82130476Y-146866666D01*
X82130476Y-146866666D02*
X82035238Y-146771428D01*
X82035238Y-146771428D02*
X81987619Y-146628571D01*
X81987619Y-146628571D02*
X81987619Y-146533333D01*
X81987619Y-146533333D02*
X82035238Y-146390476D01*
X82035238Y-146390476D02*
X82082857Y-146342857D01*
X82987619Y-145390476D02*
X82987619Y-145961904D01*
X82987619Y-145676190D02*
X81987619Y-145676190D01*
X81987619Y-145676190D02*
X82130476Y-145771428D01*
X82130476Y-145771428D02*
X82225714Y-145866666D01*
X82225714Y-145866666D02*
X82273333Y-145961904D01*
X81987619Y-144485714D02*
X81987619Y-144961904D01*
X81987619Y-144961904D02*
X82463809Y-145009523D01*
X82463809Y-145009523D02*
X82416190Y-144961904D01*
X82416190Y-144961904D02*
X82368571Y-144866666D01*
X82368571Y-144866666D02*
X82368571Y-144628571D01*
X82368571Y-144628571D02*
X82416190Y-144533333D01*
X82416190Y-144533333D02*
X82463809Y-144485714D01*
X82463809Y-144485714D02*
X82559047Y-144438095D01*
X82559047Y-144438095D02*
X82797142Y-144438095D01*
X82797142Y-144438095D02*
X82892380Y-144485714D01*
X82892380Y-144485714D02*
X82940000Y-144533333D01*
X82940000Y-144533333D02*
X82987619Y-144628571D01*
X82987619Y-144628571D02*
X82987619Y-144866666D01*
X82987619Y-144866666D02*
X82940000Y-144961904D01*
X82940000Y-144961904D02*
X82892380Y-145009523D01*
%TO.C,C25*%
X133057142Y-119717380D02*
X133009523Y-119765000D01*
X133009523Y-119765000D02*
X132866666Y-119812619D01*
X132866666Y-119812619D02*
X132771428Y-119812619D01*
X132771428Y-119812619D02*
X132628571Y-119765000D01*
X132628571Y-119765000D02*
X132533333Y-119669761D01*
X132533333Y-119669761D02*
X132485714Y-119574523D01*
X132485714Y-119574523D02*
X132438095Y-119384047D01*
X132438095Y-119384047D02*
X132438095Y-119241190D01*
X132438095Y-119241190D02*
X132485714Y-119050714D01*
X132485714Y-119050714D02*
X132533333Y-118955476D01*
X132533333Y-118955476D02*
X132628571Y-118860238D01*
X132628571Y-118860238D02*
X132771428Y-118812619D01*
X132771428Y-118812619D02*
X132866666Y-118812619D01*
X132866666Y-118812619D02*
X133009523Y-118860238D01*
X133009523Y-118860238D02*
X133057142Y-118907857D01*
X133438095Y-118907857D02*
X133485714Y-118860238D01*
X133485714Y-118860238D02*
X133580952Y-118812619D01*
X133580952Y-118812619D02*
X133819047Y-118812619D01*
X133819047Y-118812619D02*
X133914285Y-118860238D01*
X133914285Y-118860238D02*
X133961904Y-118907857D01*
X133961904Y-118907857D02*
X134009523Y-119003095D01*
X134009523Y-119003095D02*
X134009523Y-119098333D01*
X134009523Y-119098333D02*
X133961904Y-119241190D01*
X133961904Y-119241190D02*
X133390476Y-119812619D01*
X133390476Y-119812619D02*
X134009523Y-119812619D01*
X134914285Y-118812619D02*
X134438095Y-118812619D01*
X134438095Y-118812619D02*
X134390476Y-119288809D01*
X134390476Y-119288809D02*
X134438095Y-119241190D01*
X134438095Y-119241190D02*
X134533333Y-119193571D01*
X134533333Y-119193571D02*
X134771428Y-119193571D01*
X134771428Y-119193571D02*
X134866666Y-119241190D01*
X134866666Y-119241190D02*
X134914285Y-119288809D01*
X134914285Y-119288809D02*
X134961904Y-119384047D01*
X134961904Y-119384047D02*
X134961904Y-119622142D01*
X134961904Y-119622142D02*
X134914285Y-119717380D01*
X134914285Y-119717380D02*
X134866666Y-119765000D01*
X134866666Y-119765000D02*
X134771428Y-119812619D01*
X134771428Y-119812619D02*
X134533333Y-119812619D01*
X134533333Y-119812619D02*
X134438095Y-119765000D01*
X134438095Y-119765000D02*
X134390476Y-119717380D01*
D12*
%TO.C,R5*%
X91117500Y-137132379D02*
X91117500Y-137467621D01*
X90357500Y-137132379D02*
X90357500Y-137467621D01*
%TO.C,C6*%
X105784165Y-144960000D02*
X106015835Y-144960000D01*
X105784165Y-144240000D02*
X106015835Y-144240000D01*
%TO.C,X1*%
X113600000Y-162000000D02*
X113900000Y-162000000D01*
X115500000Y-163200000D02*
X115500000Y-163600000D01*
X113900000Y-162000000D02*
X113900000Y-160800000D01*
X115500000Y-159600000D02*
X117700000Y-159600000D01*
X119300000Y-160800000D02*
X119300000Y-162000000D01*
X117700000Y-163200000D02*
X115500000Y-163200000D01*
%TO.C,C21*%
X105090000Y-155765835D02*
X105090000Y-155534165D01*
X105810000Y-155765835D02*
X105810000Y-155534165D01*
%TO.C,R1*%
X110930000Y-155165121D02*
X110930000Y-154829879D01*
X110170000Y-155165121D02*
X110170000Y-154829879D01*
%TO.C,C1*%
X113390000Y-157784165D02*
X113390000Y-158015835D01*
X114110000Y-157784165D02*
X114110000Y-158015835D01*
%TO.C,R12*%
X137970000Y-160132379D02*
X137970000Y-160467621D01*
X138730000Y-160132379D02*
X138730000Y-160467621D01*
%TO.C,J2*%
X101825000Y-124680000D02*
X101825000Y-127420000D01*
X100875000Y-118680000D02*
X100875000Y-124680000D01*
X95795000Y-118680000D02*
X95795000Y-124680000D01*
X99995000Y-124680000D02*
X99995000Y-118680000D01*
X94915000Y-129530000D02*
X94915000Y-127420000D01*
X92815000Y-132670000D02*
X91995000Y-132670000D01*
X99995000Y-118680000D02*
X100875000Y-118680000D01*
X91995000Y-132670000D02*
X91995000Y-131100000D01*
X99995000Y-129530000D02*
X99995000Y-127420000D01*
X101825000Y-127420000D02*
X91425000Y-127420000D01*
X93255000Y-118680000D02*
X93255000Y-124680000D01*
X95795000Y-129530000D02*
X95795000Y-127420000D01*
X91425000Y-127420000D02*
X91425000Y-124680000D01*
X98335000Y-118680000D02*
X98335000Y-124680000D01*
X97455000Y-124680000D02*
X97455000Y-118680000D01*
X97455000Y-129530000D02*
X97455000Y-127420000D01*
X97455000Y-118680000D02*
X98335000Y-118680000D01*
X92375000Y-129530000D02*
X92375000Y-127420000D01*
X92375000Y-118680000D02*
X93255000Y-118680000D01*
X94915000Y-124680000D02*
X94915000Y-118680000D01*
X91425000Y-124680000D02*
X101825000Y-124680000D01*
X100875000Y-129530000D02*
X100875000Y-127420000D01*
X92375000Y-124680000D02*
X92375000Y-118680000D01*
X98335000Y-129530000D02*
X98335000Y-127420000D01*
X94915000Y-118680000D02*
X95795000Y-118680000D01*
X93255000Y-129530000D02*
X93255000Y-127420000D01*
%TO.C,R6*%
X126067621Y-153120000D02*
X125732379Y-153120000D01*
X126067621Y-153880000D02*
X125732379Y-153880000D01*
%TO.C,U1*%
X116885000Y-150315000D02*
X116410000Y-150315000D01*
X116885000Y-155535000D02*
X116410000Y-155535000D01*
X111665000Y-150315000D02*
X112140000Y-150315000D01*
X116885000Y-150790000D02*
X116885000Y-150315000D01*
X116885000Y-155060000D02*
X116885000Y-155535000D01*
X111665000Y-155060000D02*
X111665000Y-155535000D01*
X111665000Y-150790000D02*
X111665000Y-150315000D01*
%TO.C,C2*%
X112140835Y-161660000D02*
X111909165Y-161660000D01*
X112140835Y-160940000D02*
X111909165Y-160940000D01*
%TO.C,J1*%
X107065000Y-127410000D02*
X107065000Y-127860000D01*
X121535000Y-123440000D02*
X107065000Y-123440000D01*
X107065000Y-123440000D02*
X107065000Y-123890000D01*
X120585000Y-127860000D02*
X120585000Y-129350000D01*
X121535000Y-127860000D02*
X120585000Y-127860000D01*
X121535000Y-123890000D02*
X121535000Y-123440000D01*
X121535000Y-127410000D02*
X121535000Y-127860000D01*
X107065000Y-127860000D02*
X108015000Y-127860000D01*
%TO.C,R10*%
X90117500Y-140267621D02*
X90117500Y-139932379D01*
X89357500Y-140267621D02*
X89357500Y-139932379D01*
%TO.C,C3*%
X109741665Y-160940000D02*
X109973335Y-160940000D01*
X109741665Y-161660000D02*
X109973335Y-161660000D01*
%TO.C,L2*%
X93772742Y-141790000D02*
X92102258Y-141790000D01*
X93772742Y-143610000D02*
X92102258Y-143610000D01*
%TO.C,C8*%
X114534165Y-146860000D02*
X114765835Y-146860000D01*
X114534165Y-146140000D02*
X114765835Y-146140000D01*
%TO.C,R8*%
X82157500Y-140267621D02*
X82157500Y-139932379D01*
X82917500Y-140267621D02*
X82917500Y-139932379D01*
%TO.C,U5*%
X94497500Y-139300000D02*
X94497500Y-140100000D01*
X91377500Y-139300000D02*
X91377500Y-138500000D01*
X94497500Y-139300000D02*
X94497500Y-137500000D01*
X91377500Y-139300000D02*
X91377500Y-140100000D01*
%TO.C,F1*%
X114590000Y-131897936D02*
X114590000Y-133102064D01*
X116410000Y-131897936D02*
X116410000Y-133102064D01*
%TO.C,G\u002A\u002A\u002A*%
G36*
X124227992Y-146201970D02*
G01*
X123944058Y-146201970D01*
X123808058Y-146203090D01*
X123718459Y-146209073D01*
X123659111Y-146223853D01*
X123613859Y-146251366D01*
X123568689Y-146293406D01*
X123502176Y-146379577D01*
X123478306Y-146475990D01*
X123477253Y-146510900D01*
X123494115Y-146663537D01*
X123548974Y-146770621D01*
X123648240Y-146840601D01*
X123751986Y-146873015D01*
X123852622Y-146895118D01*
X123852622Y-146577340D01*
X124227992Y-146577340D01*
X124227992Y-147296798D01*
X123967782Y-147296798D01*
X123713584Y-147281243D01*
X123507824Y-147232516D01*
X123344085Y-147147523D01*
X123215948Y-147023168D01*
X123136039Y-146895783D01*
X123096182Y-146774821D01*
X123074407Y-146619234D01*
X123071525Y-146454012D01*
X123088346Y-146304144D01*
X123114047Y-146217610D01*
X123205103Y-146067244D01*
X123330459Y-145937537D01*
X123460318Y-145854117D01*
X123545404Y-145824377D01*
X123651761Y-145806187D01*
X123795093Y-145797505D01*
X123907364Y-145796007D01*
X124227992Y-145795320D01*
X124227992Y-146201970D01*
G37*
G36*
X123328557Y-140155552D02*
G01*
X123311653Y-140202382D01*
X123266712Y-140292525D01*
X123192441Y-140428438D01*
X123087544Y-140612582D01*
X122956807Y-140837055D01*
X122882772Y-140965950D01*
X122837851Y-141053608D01*
X122817805Y-141111726D01*
X122818397Y-141151997D01*
X122832098Y-141181144D01*
X122860146Y-141227692D01*
X122913453Y-141318645D01*
X122986258Y-141444081D01*
X123072797Y-141594073D01*
X123160292Y-141746446D01*
X123448176Y-142248926D01*
X123947566Y-142631957D01*
X124099133Y-142748862D01*
X124232194Y-142852745D01*
X124339309Y-142937692D01*
X124413035Y-142997790D01*
X124445932Y-143027126D01*
X124446957Y-143028799D01*
X124417121Y-143032700D01*
X124333393Y-143036174D01*
X124204441Y-143039057D01*
X124038933Y-143041185D01*
X123845538Y-143042394D01*
X123716872Y-143042610D01*
X122986786Y-143042610D01*
X122434360Y-142087972D01*
X122306156Y-141866024D01*
X122188480Y-141661524D01*
X122084878Y-141480696D01*
X121998894Y-141329762D01*
X121934077Y-141214944D01*
X121893970Y-141142465D01*
X121881933Y-141118607D01*
X121906894Y-141098073D01*
X121977268Y-141047668D01*
X122086295Y-140972040D01*
X122227212Y-140875838D01*
X122393256Y-140763710D01*
X122577666Y-140640306D01*
X122577930Y-140640130D01*
X122765028Y-140515575D01*
X122936466Y-140401655D01*
X123084919Y-140303220D01*
X123203061Y-140225123D01*
X123283567Y-140172214D01*
X123318720Y-140149574D01*
X123328557Y-140155552D01*
G37*
G36*
X125228977Y-139265107D02*
G01*
X125231027Y-139315506D01*
X125236774Y-139418518D01*
X125245616Y-139564341D01*
X125256950Y-139743175D01*
X125270173Y-139945218D01*
X125278013Y-140062384D01*
X125291615Y-140273561D01*
X125302904Y-140467456D01*
X125311398Y-140634139D01*
X125316613Y-140763674D01*
X125318068Y-140846130D01*
X125317114Y-140867639D01*
X125307341Y-140885376D01*
X125284051Y-140870266D01*
X125243847Y-140817477D01*
X125183333Y-140722182D01*
X125099113Y-140579549D01*
X125030652Y-140460223D01*
X124754125Y-139974796D01*
X123399051Y-139992840D01*
X122828176Y-140233387D01*
X122654304Y-140305670D01*
X122502042Y-140367094D01*
X122379970Y-140414352D01*
X122296672Y-140444137D01*
X122260728Y-140453145D01*
X122259950Y-140452299D01*
X122275817Y-140420188D01*
X122318847Y-140342018D01*
X122384558Y-140225695D01*
X122468462Y-140079124D01*
X122566076Y-139910213D01*
X122622691Y-139812869D01*
X122982784Y-139195074D01*
X125228977Y-139195074D01*
X125228977Y-139265107D01*
G37*
G36*
X125135135Y-144346609D02*
G01*
X124642462Y-144367042D01*
X124451043Y-144374359D01*
X124260965Y-144380530D01*
X124090378Y-144385041D01*
X123957429Y-144387373D01*
X123921451Y-144387580D01*
X123770031Y-144395208D01*
X123651352Y-144416165D01*
X123604214Y-144433655D01*
X123524620Y-144505458D01*
X123467775Y-144615180D01*
X123445972Y-144739058D01*
X123445972Y-144739534D01*
X123467084Y-144840008D01*
X123520145Y-144942561D01*
X123589737Y-145020704D01*
X123620996Y-145040247D01*
X123685105Y-145053792D01*
X123810047Y-145064177D01*
X123994170Y-145071328D01*
X124235819Y-145075172D01*
X124418641Y-145075862D01*
X125138120Y-145075862D01*
X125119494Y-145466872D01*
X124337474Y-145466872D01*
X124094745Y-145466607D01*
X123906120Y-145465396D01*
X123763142Y-145462609D01*
X123657354Y-145457619D01*
X123580299Y-145449800D01*
X123523521Y-145438521D01*
X123478563Y-145423157D01*
X123436967Y-145403079D01*
X123430332Y-145399534D01*
X123272740Y-145291677D01*
X123163670Y-145159631D01*
X123098413Y-144994554D01*
X123072262Y-144787600D01*
X123071290Y-144724958D01*
X123085937Y-144523006D01*
X123129146Y-144371304D01*
X123129811Y-144369831D01*
X123222904Y-144229273D01*
X123356765Y-144108370D01*
X123509606Y-144025997D01*
X123537383Y-144016739D01*
X123613917Y-144004097D01*
X123747600Y-143993986D01*
X123933064Y-143986629D01*
X124164940Y-143982249D01*
X124395845Y-143981034D01*
X125135135Y-143981034D01*
X125135135Y-144346609D01*
G37*
G36*
X124227992Y-148344704D02*
G01*
X124226800Y-148598992D01*
X124223131Y-148793606D01*
X124216845Y-148931391D01*
X124207805Y-149015191D01*
X124195871Y-149047851D01*
X124193583Y-149048522D01*
X124152265Y-149026724D01*
X124088130Y-148971962D01*
X124017371Y-148900180D01*
X123956180Y-148827324D01*
X123930824Y-148789778D01*
X123913634Y-148771767D01*
X123884722Y-148768910D01*
X123835599Y-148784753D01*
X123757777Y-148822841D01*
X123642765Y-148886722D01*
X123498393Y-148970394D01*
X123356942Y-149052596D01*
X123235529Y-149122213D01*
X123143924Y-149173715D01*
X123091901Y-149201573D01*
X123083923Y-149204926D01*
X123077538Y-149176203D01*
X123072824Y-149100260D01*
X123070655Y-148992431D01*
X123070603Y-148971705D01*
X123070603Y-148738484D01*
X123883407Y-148282142D01*
X123883655Y-148164840D01*
X123883903Y-148047537D01*
X123070603Y-148047537D01*
X123070603Y-147680881D01*
X123234827Y-147661156D01*
X123330120Y-147653544D01*
X123469528Y-147647250D01*
X123634606Y-147642911D01*
X123806910Y-147641165D01*
X123813521Y-147641158D01*
X124227992Y-147640886D01*
X124227992Y-148344704D01*
G37*
%TO.C,C16*%
X92226248Y-144340000D02*
X93648752Y-144340000D01*
X92226248Y-147060000D02*
X93648752Y-147060000D01*
%TO.C,C24*%
X129334165Y-121310000D02*
X129565835Y-121310000D01*
X129334165Y-120590000D02*
X129565835Y-120590000D01*
%TO.C,U7*%
X117210000Y-142312500D02*
X117210000Y-144262500D01*
X112090000Y-142312500D02*
X112090000Y-140362500D01*
X117210000Y-142312500D02*
X117210000Y-140362500D01*
X112090000Y-142312500D02*
X112090000Y-145762500D01*
%TO.C,D3*%
X111700000Y-133660000D02*
X113375000Y-133660000D01*
X111700000Y-130540000D02*
X112350000Y-130540000D01*
X111700000Y-133660000D02*
X111050000Y-133660000D01*
X111700000Y-130540000D02*
X111050000Y-130540000D01*
%TO.C,R3*%
X125732379Y-150880000D02*
X126067621Y-150880000D01*
X125732379Y-150120000D02*
X126067621Y-150120000D01*
%TO.C,C26*%
X127490000Y-122698335D02*
X127490000Y-122466665D01*
X128210000Y-122698335D02*
X128210000Y-122466665D01*
%TO.C,R4*%
X83917500Y-137132379D02*
X83917500Y-137467621D01*
X83157500Y-137132379D02*
X83157500Y-137467621D01*
%TO.C,C13*%
X87577500Y-140184165D02*
X87577500Y-140415835D01*
X88297500Y-140184165D02*
X88297500Y-140415835D01*
%TO.C,J5*%
X105535000Y-163410000D02*
X105535000Y-162960000D01*
X101065000Y-163410000D02*
X105535000Y-163410000D01*
X101065000Y-158990000D02*
X102015000Y-158990000D01*
X101065000Y-162960000D02*
X101065000Y-163410000D01*
X105535000Y-158990000D02*
X104585000Y-158990000D01*
X102015000Y-158990000D02*
X102015000Y-157500000D01*
X105535000Y-159440000D02*
X105535000Y-158990000D01*
X101065000Y-159440000D02*
X101065000Y-158990000D01*
%TO.C,C14*%
X95497500Y-140184165D02*
X95497500Y-140415835D01*
X94777500Y-140184165D02*
X94777500Y-140415835D01*
%TO.C,C17*%
X85026248Y-147740000D02*
X86448752Y-147740000D01*
X85026248Y-150460000D02*
X86448752Y-150460000D01*
%TO.C,L1*%
X86572742Y-143610000D02*
X84902258Y-143610000D01*
X86572742Y-141790000D02*
X84902258Y-141790000D01*
%TO.C,J6*%
X140040000Y-122965000D02*
X139590000Y-122965000D01*
X139590000Y-127435000D02*
X139590000Y-126485000D01*
X144010000Y-122965000D02*
X143560000Y-122965000D01*
X139590000Y-122965000D02*
X139590000Y-123915000D01*
X140040000Y-127435000D02*
X139590000Y-127435000D01*
X143560000Y-127435000D02*
X144010000Y-127435000D01*
X144010000Y-127435000D02*
X144010000Y-122965000D01*
X139590000Y-126485000D02*
X138100000Y-126485000D01*
%TO.C,C12*%
X92821665Y-137060000D02*
X93053335Y-137060000D01*
X92821665Y-136340000D02*
X93053335Y-136340000D01*
%TO.C,JP4*%
X92900000Y-157700000D02*
X95700000Y-157700000D01*
X96350000Y-158400000D02*
X96350000Y-159000000D01*
X95700000Y-159700000D02*
X92900000Y-159700000D01*
X92250000Y-159000000D02*
X92250000Y-158400000D01*
X96350000Y-158400000D02*
G75*
G03*
X95650000Y-157700000I-699999J1D01*
G01*
X92250000Y-159000000D02*
G75*
G03*
X92950000Y-159700000I700000J0D01*
G01*
X92950000Y-157700000D02*
G75*
G03*
X92250000Y-158400000I0J-700000D01*
G01*
X95650000Y-159700000D02*
G75*
G03*
X96350000Y-159000000I1J699999D01*
G01*
%TO.C,Y1*%
X111050000Y-159200000D02*
X110850000Y-159200000D01*
X111050000Y-160600000D02*
X110850000Y-160600000D01*
X112500000Y-160500000D02*
X112500000Y-159300000D01*
%TO.C,C11*%
X85589165Y-137060000D02*
X85820835Y-137060000D01*
X85589165Y-136340000D02*
X85820835Y-136340000D01*
%TO.C,C19*%
X136990000Y-160184165D02*
X136990000Y-160415835D01*
X137710000Y-160184165D02*
X137710000Y-160415835D01*
%TO.C,C18*%
X92226248Y-147740000D02*
X93648752Y-147740000D01*
X92226248Y-150460000D02*
X93648752Y-150460000D01*
%TO.C,JP5*%
X120350000Y-155700000D02*
X120350000Y-155100000D01*
X123800000Y-156400000D02*
X121000000Y-156400000D01*
X124450000Y-155100000D02*
X124450000Y-155700000D01*
X121000000Y-154400000D02*
X123800000Y-154400000D01*
X124450000Y-155100000D02*
G75*
G03*
X123750000Y-154400000I-700000J0D01*
G01*
X123750000Y-156400000D02*
G75*
G03*
X124450000Y-155700000I0J700000D01*
G01*
X121050000Y-154400000D02*
G75*
G03*
X120350000Y-155100000I-1J-699999D01*
G01*
X120350000Y-155700000D02*
G75*
G03*
X121050000Y-156400000I699999J-1D01*
G01*
%TO.C,R15*%
X108120000Y-147292621D02*
X108120000Y-146957379D01*
X108880000Y-147292621D02*
X108880000Y-146957379D01*
%TO.C,JP3*%
X96350000Y-161400000D02*
X96350000Y-162000000D01*
X92250000Y-162000000D02*
X92250000Y-161400000D01*
X92900000Y-160700000D02*
X95700000Y-160700000D01*
X95700000Y-162700000D02*
X92900000Y-162700000D01*
X96350000Y-161400000D02*
G75*
G03*
X95650000Y-160700000I-699999J1D01*
G01*
X92950000Y-160700000D02*
G75*
G03*
X92250000Y-161400000I0J-700000D01*
G01*
X92250000Y-162000000D02*
G75*
G03*
X92950000Y-162700000I700000J0D01*
G01*
X95650000Y-162700000D02*
G75*
G03*
X96350000Y-162000000I1J699999D01*
G01*
%TO.C,D2*%
X109450000Y-139300000D02*
X109450000Y-132400000D01*
X106150000Y-139300000D02*
X109450000Y-139300000D01*
X106150000Y-139300000D02*
X106150000Y-132400000D01*
%TO.C,U4*%
X84177500Y-139300000D02*
X84177500Y-140100000D01*
X87297500Y-139300000D02*
X87297500Y-137500000D01*
X87297500Y-139300000D02*
X87297500Y-140100000D01*
X84177500Y-139300000D02*
X84177500Y-138500000D01*
D13*
%TO.C,U2*%
X98725000Y-151600000D02*
X106725000Y-151600000D01*
X103725000Y-145200000D02*
X106725000Y-145200000D01*
D12*
%TO.C,C20*%
X91110000Y-160365835D02*
X91110000Y-160134165D01*
X90390000Y-160365835D02*
X90390000Y-160134165D01*
%TO.C,C9*%
X85026248Y-135860000D02*
X86448752Y-135860000D01*
X85026248Y-133140000D02*
X86448752Y-133140000D01*
%TO.C,C22*%
X109860000Y-147240835D02*
X109860000Y-147009165D01*
X109140000Y-147240835D02*
X109140000Y-147009165D01*
%TO.C,C23*%
X116715835Y-158860000D02*
X116484165Y-158860000D01*
X116715835Y-158140000D02*
X116484165Y-158140000D01*
%TO.C,R13*%
X90130000Y-160417621D02*
X90130000Y-160082379D01*
X89370000Y-160417621D02*
X89370000Y-160082379D01*
%TO.C,D1*%
X109700000Y-135150000D02*
X109700000Y-138450000D01*
X109700000Y-135150000D02*
X115100000Y-135150000D01*
X109700000Y-138450000D02*
X115100000Y-138450000D01*
%TO.C,R17*%
X122645121Y-132430000D02*
X122309879Y-132430000D01*
X122645121Y-131670000D02*
X122309879Y-131670000D01*
%TO.C,J3*%
X129400000Y-155140000D02*
X130740000Y-155140000D01*
X133460000Y-155140000D02*
X135200000Y-155140000D01*
X129400000Y-129340000D02*
X130740000Y-129340000D01*
X135200000Y-155140000D02*
X135200000Y-129340000D01*
X135200000Y-129340000D02*
X133460000Y-129340000D01*
X129400000Y-153650000D02*
X129400000Y-155140000D01*
X129400000Y-130830000D02*
X129400000Y-129340000D01*
X129400000Y-153650000D02*
X128200000Y-153650000D01*
%TO.C,U3*%
X116210000Y-143872500D02*
X116210000Y-140752500D01*
X113090000Y-140752500D02*
X113240000Y-140752500D01*
X116210000Y-140752500D02*
X116060000Y-140752500D01*
X113090000Y-142312500D02*
X113090000Y-140752500D01*
X116210000Y-143872500D02*
X116060000Y-143872500D01*
%TO.C,C4*%
X111333335Y-156340000D02*
X111101665Y-156340000D01*
X111333335Y-157060000D02*
X111101665Y-157060000D01*
%TO.C,R16*%
X120029879Y-131670000D02*
X120365121Y-131670000D01*
X120029879Y-132430000D02*
X120365121Y-132430000D01*
%TO.C,R14*%
X106070000Y-155817621D02*
X106070000Y-155482379D01*
X106830000Y-155817621D02*
X106830000Y-155482379D01*
%TO.C,C5*%
X116834165Y-148840000D02*
X117065835Y-148840000D01*
X116834165Y-149560000D02*
X117065835Y-149560000D01*
%TO.C,R9*%
X82157500Y-137867621D02*
X82157500Y-137532379D01*
X82917500Y-137867621D02*
X82917500Y-137532379D01*
%TO.C,U6*%
X129615000Y-121990000D02*
X128890000Y-121990000D01*
X133110000Y-121990000D02*
X133110000Y-122715000D01*
X128890000Y-121990000D02*
X128890000Y-122715000D01*
X132385000Y-121990000D02*
X133110000Y-121990000D01*
X132385000Y-126210000D02*
X133110000Y-126210000D01*
X128890000Y-126210000D02*
X128890000Y-125485000D01*
X129615000Y-126210000D02*
X128890000Y-126210000D01*
%TO.C,R7*%
X126070121Y-151880000D02*
X125734879Y-151880000D01*
X126070121Y-151120000D02*
X125734879Y-151120000D01*
%TO.C,R11*%
X90117500Y-137867621D02*
X90117500Y-137532379D01*
X89357500Y-137867621D02*
X89357500Y-137532379D01*
%TO.C,J4*%
X123065000Y-163410000D02*
X127535000Y-163410000D01*
X123065000Y-158990000D02*
X124015000Y-158990000D01*
X127535000Y-159440000D02*
X127535000Y-158990000D01*
X127535000Y-163410000D02*
X127535000Y-162960000D01*
X124015000Y-158990000D02*
X124015000Y-157500000D01*
X123065000Y-162960000D02*
X123065000Y-163410000D01*
X127535000Y-158990000D02*
X126585000Y-158990000D01*
X123065000Y-159440000D02*
X123065000Y-158990000D01*
%TO.C,JP2*%
X132400000Y-160700000D02*
X135200000Y-160700000D01*
X131750000Y-162000000D02*
X131750000Y-161400000D01*
X135200000Y-162700000D02*
X132400000Y-162700000D01*
X135850000Y-161400000D02*
X135850000Y-162000000D01*
X135850000Y-161400000D02*
G75*
G03*
X135150000Y-160700000I-700000J0D01*
G01*
X135150000Y-162700000D02*
G75*
G03*
X135850000Y-162000000I0J700000D01*
G01*
X131750000Y-162000000D02*
G75*
G03*
X132450000Y-162700000I699999J-1D01*
G01*
X132450000Y-160700000D02*
G75*
G03*
X131750000Y-161400000I-1J-699999D01*
G01*
%TO.C,R2*%
X125734879Y-152120000D02*
X126070121Y-152120000D01*
X125734879Y-152880000D02*
X126070121Y-152880000D01*
%TO.C,J7*%
X88560000Y-127435000D02*
X89010000Y-127435000D01*
X89010000Y-122965000D02*
X89010000Y-123915000D01*
X85040000Y-122965000D02*
X84590000Y-122965000D01*
X84590000Y-122965000D02*
X84590000Y-127435000D01*
X88560000Y-122965000D02*
X89010000Y-122965000D01*
X89010000Y-127435000D02*
X89010000Y-126485000D01*
X89010000Y-123915000D02*
X90500000Y-123915000D01*
X84590000Y-127435000D02*
X85040000Y-127435000D01*
%TO.C,C10*%
X92226248Y-133140000D02*
X93648752Y-133140000D01*
X92226248Y-135860000D02*
X93648752Y-135860000D01*
%TO.C,JP1*%
X132400000Y-157700000D02*
X135200000Y-157700000D01*
X131750000Y-159000000D02*
X131750000Y-158400000D01*
X135850000Y-158400000D02*
X135850000Y-159000000D01*
X135200000Y-159700000D02*
X132400000Y-159700000D01*
X132450000Y-157700000D02*
G75*
G03*
X131750000Y-158400000I-1J-699999D01*
G01*
X131750000Y-159000000D02*
G75*
G03*
X132450000Y-159700000I699999J-1D01*
G01*
X135850000Y-158400000D02*
G75*
G03*
X135150000Y-157700000I-700000J0D01*
G01*
X135150000Y-159700000D02*
G75*
G03*
X135850000Y-159000000I0J700000D01*
G01*
%TO.C,C7*%
X114390000Y-157784165D02*
X114390000Y-158015835D01*
X115110000Y-157784165D02*
X115110000Y-158015835D01*
%TO.C,C15*%
X85026248Y-147060000D02*
X86448752Y-147060000D01*
X85026248Y-144340000D02*
X86448752Y-144340000D01*
%TO.C,C25*%
X132351665Y-121260000D02*
X132583335Y-121260000D01*
X132351665Y-120540000D02*
X132583335Y-120540000D01*
%TD*%
D14*
%TO.C,J2*%
X92815000Y-121680000D03*
%TD*%
M02*
