M48
; DRILL file {KiCad 7.0.1} date Sat May 13 16:15:55 2023
; FORMAT={-:-/ absolute / metric / decimal}
; #@! TF.CreationDate,2023-05-13T16:15:55+01:00
; #@! TF.GenerationSoftware,Kicad,Pcbnew,7.0.1
; #@! TF.FileFunction,Plated,1,2,PTH
FMAT,2
METRIC
; #@! TA.AperFunction,Plated,PTH,ViaDrill
T1C0.400
%
G90
G05
T1
X81.825Y-163.4
X83.825Y-130.25
X86.7Y-161.4
X89.075Y-134.475
X89.35Y-145.675
X89.375Y-149.125
X89.5Y-119.8
X90.4Y-120.8
X91.375Y-151.175
X91.475Y-163.375
X93.325Y-129.1
X94.3Y-157.025
X94.325Y-163.375
X96.25Y-134.475
X97.1Y-153.9
X97.2Y-145.9
X97.2Y-150.9
X97.3Y-140.9
X97.3Y-155.3
X97.475Y-163.375
X97.8Y-147.1
X100.4Y-139.5
X100.475Y-133.7
X101.2Y-155.325
X102.7Y-151.8
X103.6Y-122.6
X103.775Y-143.8
X104.749Y-129.319
X105.45Y-128.6
X105.45Y-139.3
X106.025Y-158.175
X106.151Y-129.325
X106.225Y-141.101
X106.45Y-143.7
X107.725Y-143.875
X107.9Y-142.4
X108.375Y-153.9
X108.5Y-145.55
X109.625Y-155.625
X110.0Y-139.6
X110.075Y-133.475
X110.2Y-140.9
X110.3Y-125.5
X110.3Y-158.15
X110.4Y-130.7
X110.925Y-148.9
X110.925Y-162.65
X112.635Y-131.935
X112.9Y-134.3
X113.075Y-158.475
X114.0Y-139.0
X114.1Y-147.5
X114.3Y-152.9
X114.4Y-118.7
X114.6Y-161.1
X115.3Y-139.0
X116.6Y-139.0
X116.6Y-163.7
X116.8Y-124.9
X117.716Y-147.366
X118.025Y-154.425
X118.1Y-165.5
X118.425Y-135.25
X119.025Y-140.375
X119.2Y-156.7
X119.3Y-149.7
X119.4Y-144.8
X119.7Y-147.59
X121.8Y-144.85
X122.0Y-129.8
X122.15Y-137.25
X123.125Y-121.5
X124.1Y-141.3
X124.225Y-134.25
X124.9Y-132.05
X125.3Y-165.4
X125.35Y-125.2
X125.425Y-122.175
X125.8Y-149.3
X125.85Y-138.25
X126.025Y-128.1
X126.5Y-144.8
X126.875Y-130.35
X126.975Y-154.625
X127.025Y-128.1
X127.175Y-149.2
X127.85Y-120.95
X130.55Y-118.075
X131.1Y-120.9
X131.475Y-118.95
X132.1Y-130.2
X132.1Y-134.2
X132.1Y-138.2
X132.1Y-142.2
X132.1Y-146.2
X132.1Y-150.2
X132.1Y-154.2
X132.7Y-152.6
X132.85Y-126.074
X133.8Y-157.025
X133.8Y-163.375
X134.075Y-127.25
X134.2Y-122.4
X134.7Y-124.325
X135.1Y-126.25
X135.5Y-123.0
X136.6Y-128.8
X136.675Y-162.35
X137.525Y-158.375
X139.5Y-159.9
X139.6Y-155.3
X142.425Y-159.475
X143.4Y-164.0
X144.7Y-129.0
X147.7Y-129.0
X147.7Y-155.3
T0
M30
