%TF.GenerationSoftware,KiCad,Pcbnew,(6.0.1)*%
%TF.CreationDate,2022-03-14T14:07:41+00:00*%
%TF.ProjectId,UGR-22 Screen,5547522d-3232-4205-9363-7265656e2e6b,rev?*%
%TF.SameCoordinates,Original*%
%TF.FileFunction,Legend,Top*%
%TF.FilePolarity,Positive*%
%FSLAX46Y46*%
G04 Gerber Fmt 4.6, Leading zero omitted, Abs format (unit mm)*
G04 Created by KiCad (PCBNEW (6.0.1)) date 2022-03-14 14:07:41*
%MOMM*%
%LPD*%
G01*
G04 APERTURE LIST*
%ADD10C,0.150000*%
%ADD11C,0.125000*%
%ADD12C,0.120000*%
%ADD13C,0.100000*%
%ADD14R,0.760000X6.000000*%
G04 APERTURE END LIST*
D10*
X98900000Y-120561904D02*
X98852380Y-120657142D01*
X98852380Y-120800000D01*
X98900000Y-120942857D01*
X98995238Y-121038095D01*
X99090476Y-121085714D01*
X99280952Y-121133333D01*
X99423809Y-121133333D01*
X99614285Y-121085714D01*
X99709523Y-121038095D01*
X99804761Y-120942857D01*
X99852380Y-120800000D01*
X99852380Y-120704761D01*
X99804761Y-120561904D01*
X99757142Y-120514285D01*
X99423809Y-120514285D01*
X99423809Y-120704761D01*
X99852380Y-120085714D02*
X98852380Y-120085714D01*
X99852380Y-119514285D01*
X98852380Y-119514285D01*
X99852380Y-119038095D02*
X98852380Y-119038095D01*
X98852380Y-118800000D01*
X98900000Y-118657142D01*
X98995238Y-118561904D01*
X99090476Y-118514285D01*
X99280952Y-118466666D01*
X99423809Y-118466666D01*
X99614285Y-118514285D01*
X99709523Y-118561904D01*
X99804761Y-118657142D01*
X99852380Y-118800000D01*
X99852380Y-119038095D01*
X97204761Y-122719047D02*
X97252380Y-122576190D01*
X97252380Y-122338095D01*
X97204761Y-122242857D01*
X97157142Y-122195238D01*
X97061904Y-122147619D01*
X96966666Y-122147619D01*
X96871428Y-122195238D01*
X96823809Y-122242857D01*
X96776190Y-122338095D01*
X96728571Y-122528571D01*
X96680952Y-122623809D01*
X96633333Y-122671428D01*
X96538095Y-122719047D01*
X96442857Y-122719047D01*
X96347619Y-122671428D01*
X96300000Y-122623809D01*
X96252380Y-122528571D01*
X96252380Y-122290476D01*
X96300000Y-122147619D01*
X96252380Y-121814285D02*
X97252380Y-121576190D01*
X96538095Y-121385714D01*
X97252380Y-121195238D01*
X96252380Y-120957142D01*
X97252380Y-120576190D02*
X96252380Y-120576190D01*
X96252380Y-120338095D01*
X96300000Y-120195238D01*
X96395238Y-120100000D01*
X96490476Y-120052380D01*
X96680952Y-120004761D01*
X96823809Y-120004761D01*
X97014285Y-120052380D01*
X97109523Y-120100000D01*
X97204761Y-120195238D01*
X97252380Y-120338095D01*
X97252380Y-120576190D01*
X97252380Y-119576190D02*
X96252380Y-119576190D01*
X96252380Y-118909523D02*
X96252380Y-118719047D01*
X96300000Y-118623809D01*
X96395238Y-118528571D01*
X96585714Y-118480952D01*
X96919047Y-118480952D01*
X97109523Y-118528571D01*
X97204761Y-118623809D01*
X97252380Y-118719047D01*
X97252380Y-118909523D01*
X97204761Y-119004761D01*
X97109523Y-119100000D01*
X96919047Y-119147619D01*
X96585714Y-119147619D01*
X96395238Y-119100000D01*
X96300000Y-119004761D01*
X96252380Y-118909523D01*
X94604761Y-123961904D02*
X94652380Y-123819047D01*
X94652380Y-123580952D01*
X94604761Y-123485714D01*
X94557142Y-123438095D01*
X94461904Y-123390476D01*
X94366666Y-123390476D01*
X94271428Y-123438095D01*
X94223809Y-123485714D01*
X94176190Y-123580952D01*
X94128571Y-123771428D01*
X94080952Y-123866666D01*
X94033333Y-123914285D01*
X93938095Y-123961904D01*
X93842857Y-123961904D01*
X93747619Y-123914285D01*
X93700000Y-123866666D01*
X93652380Y-123771428D01*
X93652380Y-123533333D01*
X93700000Y-123390476D01*
X93652380Y-123057142D02*
X94652380Y-122819047D01*
X93938095Y-122628571D01*
X94652380Y-122438095D01*
X93652380Y-122200000D01*
X94652380Y-121819047D02*
X93652380Y-121819047D01*
X93652380Y-121580952D01*
X93700000Y-121438095D01*
X93795238Y-121342857D01*
X93890476Y-121295238D01*
X94080952Y-121247619D01*
X94223809Y-121247619D01*
X94414285Y-121295238D01*
X94509523Y-121342857D01*
X94604761Y-121438095D01*
X94652380Y-121580952D01*
X94652380Y-121819047D01*
X94557142Y-120247619D02*
X94604761Y-120295238D01*
X94652380Y-120438095D01*
X94652380Y-120533333D01*
X94604761Y-120676190D01*
X94509523Y-120771428D01*
X94414285Y-120819047D01*
X94223809Y-120866666D01*
X94080952Y-120866666D01*
X93890476Y-120819047D01*
X93795238Y-120771428D01*
X93700000Y-120676190D01*
X93652380Y-120533333D01*
X93652380Y-120438095D01*
X93700000Y-120295238D01*
X93747619Y-120247619D01*
X94652380Y-119342857D02*
X94652380Y-119819047D01*
X93652380Y-119819047D01*
X94652380Y-119009523D02*
X93652380Y-119009523D01*
X94652380Y-118438095D02*
X94080952Y-118866666D01*
X93652380Y-118438095D02*
X94223809Y-119009523D01*
D11*
X130833333Y-166416666D02*
X130833333Y-165716666D01*
X130999999Y-165716666D01*
X131099999Y-165750000D01*
X131166666Y-165816666D01*
X131199999Y-165883333D01*
X131233333Y-166016666D01*
X131233333Y-166116666D01*
X131199999Y-166250000D01*
X131166666Y-166316666D01*
X131099999Y-166383333D01*
X130999999Y-166416666D01*
X130833333Y-166416666D01*
X131799999Y-166383333D02*
X131733333Y-166416666D01*
X131599999Y-166416666D01*
X131533333Y-166383333D01*
X131499999Y-166316666D01*
X131499999Y-166050000D01*
X131533333Y-165983333D01*
X131599999Y-165950000D01*
X131733333Y-165950000D01*
X131799999Y-165983333D01*
X131833333Y-166050000D01*
X131833333Y-166116666D01*
X131499999Y-166183333D01*
X132099999Y-166383333D02*
X132166666Y-166416666D01*
X132299999Y-166416666D01*
X132366666Y-166383333D01*
X132399999Y-166316666D01*
X132399999Y-166283333D01*
X132366666Y-166216666D01*
X132299999Y-166183333D01*
X132199999Y-166183333D01*
X132133333Y-166150000D01*
X132099999Y-166083333D01*
X132099999Y-166050000D01*
X132133333Y-165983333D01*
X132199999Y-165950000D01*
X132299999Y-165950000D01*
X132366666Y-165983333D01*
X132699999Y-166416666D02*
X132699999Y-165950000D01*
X132699999Y-165716666D02*
X132666666Y-165750000D01*
X132699999Y-165783333D01*
X132733333Y-165750000D01*
X132699999Y-165716666D01*
X132699999Y-165783333D01*
X133333333Y-165950000D02*
X133333333Y-166516666D01*
X133299999Y-166583333D01*
X133266666Y-166616666D01*
X133199999Y-166650000D01*
X133099999Y-166650000D01*
X133033333Y-166616666D01*
X133333333Y-166383333D02*
X133266666Y-166416666D01*
X133133333Y-166416666D01*
X133066666Y-166383333D01*
X133033333Y-166350000D01*
X132999999Y-166283333D01*
X132999999Y-166083333D01*
X133033333Y-166016666D01*
X133066666Y-165983333D01*
X133133333Y-165950000D01*
X133266666Y-165950000D01*
X133333333Y-165983333D01*
X133666666Y-165950000D02*
X133666666Y-166416666D01*
X133666666Y-166016666D02*
X133699999Y-165983333D01*
X133766666Y-165950000D01*
X133866666Y-165950000D01*
X133933333Y-165983333D01*
X133966666Y-166050000D01*
X133966666Y-166416666D01*
X134566666Y-166383333D02*
X134500000Y-166416666D01*
X134366666Y-166416666D01*
X134300000Y-166383333D01*
X134266666Y-166316666D01*
X134266666Y-166050000D01*
X134300000Y-165983333D01*
X134366666Y-165950000D01*
X134500000Y-165950000D01*
X134566666Y-165983333D01*
X134600000Y-166050000D01*
X134600000Y-166116666D01*
X134266666Y-166183333D01*
X135200000Y-166416666D02*
X135200000Y-165716666D01*
X135200000Y-166383333D02*
X135133333Y-166416666D01*
X135000000Y-166416666D01*
X134933333Y-166383333D01*
X134900000Y-166350000D01*
X134866666Y-166283333D01*
X134866666Y-166083333D01*
X134900000Y-166016666D01*
X134933333Y-165983333D01*
X135000000Y-165950000D01*
X135133333Y-165950000D01*
X135200000Y-165983333D01*
X136066666Y-166416666D02*
X136066666Y-165716666D01*
X136066666Y-165983333D02*
X136133333Y-165950000D01*
X136266666Y-165950000D01*
X136333333Y-165983333D01*
X136366666Y-166016666D01*
X136400000Y-166083333D01*
X136400000Y-166283333D01*
X136366666Y-166350000D01*
X136333333Y-166383333D01*
X136266666Y-166416666D01*
X136133333Y-166416666D01*
X136066666Y-166383333D01*
X136633333Y-165950000D02*
X136800000Y-166416666D01*
X136966666Y-165950000D02*
X136800000Y-166416666D01*
X136733333Y-166583333D01*
X136700000Y-166616666D01*
X136633333Y-166650000D01*
X138166666Y-166350000D02*
X138133333Y-166383333D01*
X138033333Y-166416666D01*
X137966666Y-166416666D01*
X137866666Y-166383333D01*
X137800000Y-166316666D01*
X137766666Y-166250000D01*
X137733333Y-166116666D01*
X137733333Y-166016666D01*
X137766666Y-165883333D01*
X137800000Y-165816666D01*
X137866666Y-165750000D01*
X137966666Y-165716666D01*
X138033333Y-165716666D01*
X138133333Y-165750000D01*
X138166666Y-165783333D01*
X138766666Y-166416666D02*
X138766666Y-166050000D01*
X138733333Y-165983333D01*
X138666666Y-165950000D01*
X138533333Y-165950000D01*
X138466666Y-165983333D01*
X138766666Y-166383333D02*
X138700000Y-166416666D01*
X138533333Y-166416666D01*
X138466666Y-166383333D01*
X138433333Y-166316666D01*
X138433333Y-166250000D01*
X138466666Y-166183333D01*
X138533333Y-166150000D01*
X138700000Y-166150000D01*
X138766666Y-166116666D01*
X139100000Y-166416666D02*
X139100000Y-165950000D01*
X139100000Y-166016666D02*
X139133333Y-165983333D01*
X139200000Y-165950000D01*
X139300000Y-165950000D01*
X139366666Y-165983333D01*
X139400000Y-166050000D01*
X139400000Y-166416666D01*
X139400000Y-166050000D02*
X139433333Y-165983333D01*
X139500000Y-165950000D01*
X139600000Y-165950000D01*
X139666666Y-165983333D01*
X139700000Y-166050000D01*
X139700000Y-166416666D01*
X140300000Y-166383333D02*
X140233333Y-166416666D01*
X140100000Y-166416666D01*
X140033333Y-166383333D01*
X140000000Y-166316666D01*
X140000000Y-166050000D01*
X140033333Y-165983333D01*
X140100000Y-165950000D01*
X140233333Y-165950000D01*
X140300000Y-165983333D01*
X140333333Y-166050000D01*
X140333333Y-166116666D01*
X140000000Y-166183333D01*
X140633333Y-166416666D02*
X140633333Y-165950000D01*
X140633333Y-166083333D02*
X140666666Y-166016666D01*
X140700000Y-165983333D01*
X140766666Y-165950000D01*
X140833333Y-165950000D01*
X141166666Y-166416666D02*
X141100000Y-166383333D01*
X141066666Y-166350000D01*
X141033333Y-166283333D01*
X141033333Y-166083333D01*
X141066666Y-166016666D01*
X141100000Y-165983333D01*
X141166666Y-165950000D01*
X141266666Y-165950000D01*
X141333333Y-165983333D01*
X141366666Y-166016666D01*
X141400000Y-166083333D01*
X141400000Y-166283333D01*
X141366666Y-166350000D01*
X141333333Y-166383333D01*
X141266666Y-166416666D01*
X141166666Y-166416666D01*
X141700000Y-165950000D02*
X141700000Y-166416666D01*
X141700000Y-166016666D02*
X141733333Y-165983333D01*
X141800000Y-165950000D01*
X141900000Y-165950000D01*
X141966666Y-165983333D01*
X142000000Y-166050000D01*
X142000000Y-166416666D01*
X142866666Y-166416666D02*
X142866666Y-165716666D01*
X142866666Y-166050000D02*
X143266666Y-166050000D01*
X143266666Y-166416666D02*
X143266666Y-165716666D01*
X143700000Y-166416666D02*
X143633333Y-166383333D01*
X143600000Y-166350000D01*
X143566666Y-166283333D01*
X143566666Y-166083333D01*
X143600000Y-166016666D01*
X143633333Y-165983333D01*
X143700000Y-165950000D01*
X143800000Y-165950000D01*
X143866666Y-165983333D01*
X143900000Y-166016666D01*
X143933333Y-166083333D01*
X143933333Y-166283333D01*
X143900000Y-166350000D01*
X143866666Y-166383333D01*
X143800000Y-166416666D01*
X143700000Y-166416666D01*
X144533333Y-165950000D02*
X144533333Y-166416666D01*
X144233333Y-165950000D02*
X144233333Y-166316666D01*
X144266666Y-166383333D01*
X144333333Y-166416666D01*
X144433333Y-166416666D01*
X144500000Y-166383333D01*
X144533333Y-166350000D01*
X144833333Y-166383333D02*
X144900000Y-166416666D01*
X145033333Y-166416666D01*
X145100000Y-166383333D01*
X145133333Y-166316666D01*
X145133333Y-166283333D01*
X145100000Y-166216666D01*
X145033333Y-166183333D01*
X144933333Y-166183333D01*
X144866666Y-166150000D01*
X144833333Y-166083333D01*
X144833333Y-166050000D01*
X144866666Y-165983333D01*
X144933333Y-165950000D01*
X145033333Y-165950000D01*
X145100000Y-165983333D01*
X145333333Y-165950000D02*
X145600000Y-165950000D01*
X145433333Y-165716666D02*
X145433333Y-166316666D01*
X145466666Y-166383333D01*
X145533333Y-166416666D01*
X145600000Y-166416666D01*
X145933333Y-166416666D02*
X145866666Y-166383333D01*
X145833333Y-166350000D01*
X145800000Y-166283333D01*
X145800000Y-166083333D01*
X145833333Y-166016666D01*
X145866666Y-165983333D01*
X145933333Y-165950000D01*
X146033333Y-165950000D01*
X146100000Y-165983333D01*
X146133333Y-166016666D01*
X146166666Y-166083333D01*
X146166666Y-166283333D01*
X146133333Y-166350000D01*
X146100000Y-166383333D01*
X146033333Y-166416666D01*
X145933333Y-166416666D01*
X146466666Y-165950000D02*
X146466666Y-166416666D01*
X146466666Y-166016666D02*
X146500000Y-165983333D01*
X146566666Y-165950000D01*
X146666666Y-165950000D01*
X146733333Y-165983333D01*
X146766666Y-166050000D01*
X146766666Y-166416666D01*
X108964614Y-122570178D02*
X109001757Y-122458750D01*
X109001757Y-122273035D01*
X108964614Y-122198750D01*
X108927471Y-122161607D01*
X108853185Y-122124464D01*
X108778900Y-122124464D01*
X108704614Y-122161607D01*
X108667471Y-122198750D01*
X108630328Y-122273035D01*
X108593185Y-122421607D01*
X108556042Y-122495892D01*
X108518900Y-122533035D01*
X108444614Y-122570178D01*
X108370328Y-122570178D01*
X108296042Y-122533035D01*
X108258900Y-122495892D01*
X108221757Y-122421607D01*
X108221757Y-122235892D01*
X108258900Y-122124464D01*
X108221757Y-121864464D02*
X109001757Y-121678750D01*
X108444614Y-121530178D01*
X109001757Y-121381607D01*
X108221757Y-121195892D01*
X109001757Y-120898750D02*
X108221757Y-120898750D01*
X108221757Y-120713035D01*
X108258900Y-120601607D01*
X108333185Y-120527321D01*
X108407471Y-120490178D01*
X108556042Y-120453035D01*
X108667471Y-120453035D01*
X108816042Y-120490178D01*
X108890328Y-120527321D01*
X108964614Y-120601607D01*
X109001757Y-120713035D01*
X109001757Y-120898750D01*
X109001757Y-120118750D02*
X108221757Y-120118750D01*
X108221757Y-119598750D02*
X108221757Y-119450178D01*
X108258900Y-119375892D01*
X108333185Y-119301607D01*
X108481757Y-119264464D01*
X108741757Y-119264464D01*
X108890328Y-119301607D01*
X108964614Y-119375892D01*
X109001757Y-119450178D01*
X109001757Y-119598750D01*
X108964614Y-119673035D01*
X108890328Y-119747321D01*
X108741757Y-119784464D01*
X108481757Y-119784464D01*
X108333185Y-119747321D01*
X108258900Y-119673035D01*
X108221757Y-119598750D01*
X110220414Y-122570178D02*
X110257557Y-122458750D01*
X110257557Y-122273035D01*
X110220414Y-122198750D01*
X110183271Y-122161607D01*
X110108985Y-122124464D01*
X110034700Y-122124464D01*
X109960414Y-122161607D01*
X109923271Y-122198750D01*
X109886128Y-122273035D01*
X109848985Y-122421607D01*
X109811842Y-122495892D01*
X109774700Y-122533035D01*
X109700414Y-122570178D01*
X109626128Y-122570178D01*
X109551842Y-122533035D01*
X109514700Y-122495892D01*
X109477557Y-122421607D01*
X109477557Y-122235892D01*
X109514700Y-122124464D01*
X109477557Y-121864464D02*
X110257557Y-121678750D01*
X109700414Y-121530178D01*
X110257557Y-121381607D01*
X109477557Y-121195892D01*
X110183271Y-120453035D02*
X110220414Y-120490178D01*
X110257557Y-120601607D01*
X110257557Y-120675892D01*
X110220414Y-120787321D01*
X110146128Y-120861607D01*
X110071842Y-120898750D01*
X109923271Y-120935892D01*
X109811842Y-120935892D01*
X109663271Y-120898750D01*
X109588985Y-120861607D01*
X109514700Y-120787321D01*
X109477557Y-120675892D01*
X109477557Y-120601607D01*
X109514700Y-120490178D01*
X109551842Y-120453035D01*
X110257557Y-119747321D02*
X110257557Y-120118750D01*
X109477557Y-120118750D01*
X110257557Y-119487321D02*
X109477557Y-119487321D01*
X110257557Y-119041607D02*
X109811842Y-119375892D01*
X109477557Y-119041607D02*
X109923271Y-119487321D01*
X110770500Y-122124464D02*
X110733357Y-122198750D01*
X110733357Y-122310178D01*
X110770500Y-122421607D01*
X110844785Y-122495892D01*
X110919071Y-122533035D01*
X111067642Y-122570178D01*
X111179071Y-122570178D01*
X111327642Y-122533035D01*
X111401928Y-122495892D01*
X111476214Y-122421607D01*
X111513357Y-122310178D01*
X111513357Y-122235892D01*
X111476214Y-122124464D01*
X111439071Y-122087321D01*
X111179071Y-122087321D01*
X111179071Y-122235892D01*
X111513357Y-121753035D02*
X110733357Y-121753035D01*
X111513357Y-121307321D01*
X110733357Y-121307321D01*
X111513357Y-120935892D02*
X110733357Y-120935892D01*
X110733357Y-120750178D01*
X110770500Y-120638750D01*
X110844785Y-120564464D01*
X110919071Y-120527321D01*
X111067642Y-120490178D01*
X111179071Y-120490178D01*
X111327642Y-120527321D01*
X111401928Y-120564464D01*
X111476214Y-120638750D01*
X111513357Y-120750178D01*
X111513357Y-120935892D01*
X112694871Y-122087321D02*
X112732014Y-122124464D01*
X112769157Y-122235892D01*
X112769157Y-122310178D01*
X112732014Y-122421607D01*
X112657728Y-122495892D01*
X112583442Y-122533035D01*
X112434871Y-122570178D01*
X112323442Y-122570178D01*
X112174871Y-122533035D01*
X112100585Y-122495892D01*
X112026300Y-122421607D01*
X111989157Y-122310178D01*
X111989157Y-122235892D01*
X112026300Y-122124464D01*
X112063442Y-122087321D01*
X112546300Y-121790178D02*
X112546300Y-121418750D01*
X112769157Y-121864464D02*
X111989157Y-121604464D01*
X112769157Y-121344464D01*
X112769157Y-121084464D02*
X111989157Y-121084464D01*
X112769157Y-120638750D01*
X111989157Y-120638750D01*
X112769157Y-120267321D02*
X111989157Y-120267321D01*
X112360585Y-120267321D02*
X112360585Y-119821607D01*
X112769157Y-119821607D02*
X111989157Y-119821607D01*
X113950671Y-122087321D02*
X113987814Y-122124464D01*
X114024957Y-122235892D01*
X114024957Y-122310178D01*
X113987814Y-122421607D01*
X113913528Y-122495892D01*
X113839242Y-122533035D01*
X113690671Y-122570178D01*
X113579242Y-122570178D01*
X113430671Y-122533035D01*
X113356385Y-122495892D01*
X113282100Y-122421607D01*
X113244957Y-122310178D01*
X113244957Y-122235892D01*
X113282100Y-122124464D01*
X113319242Y-122087321D01*
X113802100Y-121790178D02*
X113802100Y-121418750D01*
X114024957Y-121864464D02*
X113244957Y-121604464D01*
X114024957Y-121344464D01*
X114024957Y-121084464D02*
X113244957Y-121084464D01*
X114024957Y-120638750D01*
X113244957Y-120638750D01*
X114024957Y-119895892D02*
X114024957Y-120267321D01*
X113244957Y-120267321D01*
X115280757Y-122124464D02*
X115280757Y-122570178D01*
X115280757Y-122347321D02*
X114500757Y-122347321D01*
X114612185Y-122421607D01*
X114686471Y-122495892D01*
X114723614Y-122570178D01*
X114575042Y-121827321D02*
X114537900Y-121790178D01*
X114500757Y-121715892D01*
X114500757Y-121530178D01*
X114537900Y-121455892D01*
X114575042Y-121418750D01*
X114649328Y-121381607D01*
X114723614Y-121381607D01*
X114835042Y-121418750D01*
X115280757Y-121864464D01*
X115280757Y-121381607D01*
X114500757Y-121158750D02*
X115280757Y-120898750D01*
X114500757Y-120638750D01*
X116499414Y-122570178D02*
X116536557Y-122458750D01*
X116536557Y-122273035D01*
X116499414Y-122198750D01*
X116462271Y-122161607D01*
X116387985Y-122124464D01*
X116313700Y-122124464D01*
X116239414Y-122161607D01*
X116202271Y-122198750D01*
X116165128Y-122273035D01*
X116127985Y-122421607D01*
X116090842Y-122495892D01*
X116053700Y-122533035D01*
X115979414Y-122570178D01*
X115905128Y-122570178D01*
X115830842Y-122533035D01*
X115793700Y-122495892D01*
X115756557Y-122421607D01*
X115756557Y-122235892D01*
X115793700Y-122124464D01*
X115756557Y-121864464D02*
X116536557Y-121678750D01*
X115979414Y-121530178D01*
X116536557Y-121381607D01*
X115756557Y-121195892D01*
X115830842Y-120935892D02*
X115793700Y-120898750D01*
X115756557Y-120824464D01*
X115756557Y-120638750D01*
X115793700Y-120564464D01*
X115830842Y-120527321D01*
X115905128Y-120490178D01*
X115979414Y-120490178D01*
X116090842Y-120527321D01*
X116536557Y-120973035D01*
X116536557Y-120490178D01*
X116610842Y-120341607D02*
X116610842Y-119747321D01*
X115830842Y-119598750D02*
X115793700Y-119561607D01*
X115756557Y-119487321D01*
X115756557Y-119301607D01*
X115793700Y-119227321D01*
X115830842Y-119190178D01*
X115905128Y-119153035D01*
X115979414Y-119153035D01*
X116090842Y-119190178D01*
X116536557Y-119635892D01*
X116536557Y-119153035D01*
X117755214Y-122570178D02*
X117792357Y-122458750D01*
X117792357Y-122273035D01*
X117755214Y-122198750D01*
X117718071Y-122161607D01*
X117643785Y-122124464D01*
X117569500Y-122124464D01*
X117495214Y-122161607D01*
X117458071Y-122198750D01*
X117420928Y-122273035D01*
X117383785Y-122421607D01*
X117346642Y-122495892D01*
X117309500Y-122533035D01*
X117235214Y-122570178D01*
X117160928Y-122570178D01*
X117086642Y-122533035D01*
X117049500Y-122495892D01*
X117012357Y-122421607D01*
X117012357Y-122235892D01*
X117049500Y-122124464D01*
X117012357Y-121864464D02*
X117792357Y-121678750D01*
X117235214Y-121530178D01*
X117792357Y-121381607D01*
X117012357Y-121195892D01*
X117086642Y-120935892D02*
X117049500Y-120898750D01*
X117012357Y-120824464D01*
X117012357Y-120638750D01*
X117049500Y-120564464D01*
X117086642Y-120527321D01*
X117160928Y-120490178D01*
X117235214Y-120490178D01*
X117346642Y-120527321D01*
X117792357Y-120973035D01*
X117792357Y-120490178D01*
X117866642Y-120341607D02*
X117866642Y-119747321D01*
X117792357Y-119153035D02*
X117792357Y-119598750D01*
X117792357Y-119375892D02*
X117012357Y-119375892D01*
X117123785Y-119450178D01*
X117198071Y-119524464D01*
X117235214Y-119598750D01*
X119011014Y-122570178D02*
X119048157Y-122458750D01*
X119048157Y-122273035D01*
X119011014Y-122198750D01*
X118973871Y-122161607D01*
X118899585Y-122124464D01*
X118825300Y-122124464D01*
X118751014Y-122161607D01*
X118713871Y-122198750D01*
X118676728Y-122273035D01*
X118639585Y-122421607D01*
X118602442Y-122495892D01*
X118565300Y-122533035D01*
X118491014Y-122570178D01*
X118416728Y-122570178D01*
X118342442Y-122533035D01*
X118305300Y-122495892D01*
X118268157Y-122421607D01*
X118268157Y-122235892D01*
X118305300Y-122124464D01*
X118268157Y-121864464D02*
X119048157Y-121678750D01*
X118491014Y-121530178D01*
X119048157Y-121381607D01*
X118268157Y-121195892D01*
X119048157Y-120490178D02*
X119048157Y-120935892D01*
X119048157Y-120713035D02*
X118268157Y-120713035D01*
X118379585Y-120787321D01*
X118453871Y-120861607D01*
X118491014Y-120935892D01*
X119122442Y-120341607D02*
X119122442Y-119747321D01*
X118342442Y-119598750D02*
X118305300Y-119561607D01*
X118268157Y-119487321D01*
X118268157Y-119301607D01*
X118305300Y-119227321D01*
X118342442Y-119190178D01*
X118416728Y-119153035D01*
X118491014Y-119153035D01*
X118602442Y-119190178D01*
X119048157Y-119635892D01*
X119048157Y-119153035D01*
X120266814Y-122570178D02*
X120303957Y-122458750D01*
X120303957Y-122273035D01*
X120266814Y-122198750D01*
X120229671Y-122161607D01*
X120155385Y-122124464D01*
X120081100Y-122124464D01*
X120006814Y-122161607D01*
X119969671Y-122198750D01*
X119932528Y-122273035D01*
X119895385Y-122421607D01*
X119858242Y-122495892D01*
X119821100Y-122533035D01*
X119746814Y-122570178D01*
X119672528Y-122570178D01*
X119598242Y-122533035D01*
X119561100Y-122495892D01*
X119523957Y-122421607D01*
X119523957Y-122235892D01*
X119561100Y-122124464D01*
X119523957Y-121864464D02*
X120303957Y-121678750D01*
X119746814Y-121530178D01*
X120303957Y-121381607D01*
X119523957Y-121195892D01*
X120303957Y-120490178D02*
X120303957Y-120935892D01*
X120303957Y-120713035D02*
X119523957Y-120713035D01*
X119635385Y-120787321D01*
X119709671Y-120861607D01*
X119746814Y-120935892D01*
X120378242Y-120341607D02*
X120378242Y-119747321D01*
X120303957Y-119153035D02*
X120303957Y-119598750D01*
X120303957Y-119375892D02*
X119523957Y-119375892D01*
X119635385Y-119450178D01*
X119709671Y-119524464D01*
X119746814Y-119598750D01*
D10*
X80607142Y-151671071D02*
X80607142Y-152885357D01*
X80678571Y-153028214D01*
X80750000Y-153099642D01*
X80892857Y-153171071D01*
X81178571Y-153171071D01*
X81321428Y-153099642D01*
X81392857Y-153028214D01*
X81464285Y-152885357D01*
X81464285Y-151671071D01*
X82964285Y-151742500D02*
X82821428Y-151671071D01*
X82607142Y-151671071D01*
X82392857Y-151742500D01*
X82250000Y-151885357D01*
X82178571Y-152028214D01*
X82107142Y-152313928D01*
X82107142Y-152528214D01*
X82178571Y-152813928D01*
X82250000Y-152956785D01*
X82392857Y-153099642D01*
X82607142Y-153171071D01*
X82750000Y-153171071D01*
X82964285Y-153099642D01*
X83035714Y-153028214D01*
X83035714Y-152528214D01*
X82750000Y-152528214D01*
X84535714Y-153171071D02*
X84035714Y-152456785D01*
X83678571Y-153171071D02*
X83678571Y-151671071D01*
X84250000Y-151671071D01*
X84392857Y-151742500D01*
X84464285Y-151813928D01*
X84535714Y-151956785D01*
X84535714Y-152171071D01*
X84464285Y-152313928D01*
X84392857Y-152385357D01*
X84250000Y-152456785D01*
X83678571Y-152456785D01*
X85821428Y-153171071D02*
X85821428Y-152385357D01*
X85750000Y-152242500D01*
X85607142Y-152171071D01*
X85321428Y-152171071D01*
X85178571Y-152242500D01*
X85821428Y-153099642D02*
X85678571Y-153171071D01*
X85321428Y-153171071D01*
X85178571Y-153099642D01*
X85107142Y-152956785D01*
X85107142Y-152813928D01*
X85178571Y-152671071D01*
X85321428Y-152599642D01*
X85678571Y-152599642D01*
X85821428Y-152528214D01*
X87178571Y-153099642D02*
X87035714Y-153171071D01*
X86750000Y-153171071D01*
X86607142Y-153099642D01*
X86535714Y-153028214D01*
X86464285Y-152885357D01*
X86464285Y-152456785D01*
X86535714Y-152313928D01*
X86607142Y-152242500D01*
X86750000Y-152171071D01*
X87035714Y-152171071D01*
X87178571Y-152242500D01*
X87821428Y-153171071D02*
X87821428Y-152171071D01*
X87821428Y-151671071D02*
X87750000Y-151742500D01*
X87821428Y-151813928D01*
X87892857Y-151742500D01*
X87821428Y-151671071D01*
X87821428Y-151813928D01*
X88535714Y-152171071D02*
X88535714Y-153171071D01*
X88535714Y-152313928D02*
X88607142Y-152242500D01*
X88750000Y-152171071D01*
X88964285Y-152171071D01*
X89107142Y-152242500D01*
X89178571Y-152385357D01*
X89178571Y-153171071D01*
X90535714Y-152171071D02*
X90535714Y-153385357D01*
X90464285Y-153528214D01*
X90392857Y-153599642D01*
X90250000Y-153671071D01*
X90035714Y-153671071D01*
X89892857Y-153599642D01*
X90535714Y-153099642D02*
X90392857Y-153171071D01*
X90107142Y-153171071D01*
X89964285Y-153099642D01*
X89892857Y-153028214D01*
X89821428Y-152885357D01*
X89821428Y-152456785D01*
X89892857Y-152313928D01*
X89964285Y-152242500D01*
X90107142Y-152171071D01*
X90392857Y-152171071D01*
X90535714Y-152242500D01*
X92321428Y-151813928D02*
X92392857Y-151742500D01*
X92535714Y-151671071D01*
X92892857Y-151671071D01*
X93035714Y-151742500D01*
X93107142Y-151813928D01*
X93178571Y-151956785D01*
X93178571Y-152099642D01*
X93107142Y-152313928D01*
X92250000Y-153171071D01*
X93178571Y-153171071D01*
X94107142Y-151671071D02*
X94250000Y-151671071D01*
X94392857Y-151742500D01*
X94464285Y-151813928D01*
X94535714Y-151956785D01*
X94607142Y-152242500D01*
X94607142Y-152599642D01*
X94535714Y-152885357D01*
X94464285Y-153028214D01*
X94392857Y-153099642D01*
X94250000Y-153171071D01*
X94107142Y-153171071D01*
X93964285Y-153099642D01*
X93892857Y-153028214D01*
X93821428Y-152885357D01*
X93750000Y-152599642D01*
X93750000Y-152242500D01*
X93821428Y-151956785D01*
X93892857Y-151813928D01*
X93964285Y-151742500D01*
X94107142Y-151671071D01*
X95178571Y-151813928D02*
X95250000Y-151742500D01*
X95392857Y-151671071D01*
X95750000Y-151671071D01*
X95892857Y-151742500D01*
X95964285Y-151813928D01*
X96035714Y-151956785D01*
X96035714Y-152099642D01*
X95964285Y-152313928D01*
X95107142Y-153171071D01*
X96035714Y-153171071D01*
X96607142Y-151813928D02*
X96678571Y-151742500D01*
X96821428Y-151671071D01*
X97178571Y-151671071D01*
X97321428Y-151742500D01*
X97392857Y-151813928D01*
X97464285Y-151956785D01*
X97464285Y-152099642D01*
X97392857Y-152313928D01*
X96535714Y-153171071D01*
X97464285Y-153171071D01*
X81571428Y-155514642D02*
X81785714Y-155586071D01*
X82142857Y-155586071D01*
X82285714Y-155514642D01*
X82357142Y-155443214D01*
X82428571Y-155300357D01*
X82428571Y-155157500D01*
X82357142Y-155014642D01*
X82285714Y-154943214D01*
X82142857Y-154871785D01*
X81857142Y-154800357D01*
X81714285Y-154728928D01*
X81642857Y-154657500D01*
X81571428Y-154514642D01*
X81571428Y-154371785D01*
X81642857Y-154228928D01*
X81714285Y-154157500D01*
X81857142Y-154086071D01*
X82214285Y-154086071D01*
X82428571Y-154157500D01*
X83714285Y-155514642D02*
X83571428Y-155586071D01*
X83285714Y-155586071D01*
X83142857Y-155514642D01*
X83071428Y-155443214D01*
X83000000Y-155300357D01*
X83000000Y-154871785D01*
X83071428Y-154728928D01*
X83142857Y-154657500D01*
X83285714Y-154586071D01*
X83571428Y-154586071D01*
X83714285Y-154657500D01*
X84357142Y-155586071D02*
X84357142Y-154586071D01*
X84357142Y-154871785D02*
X84428571Y-154728928D01*
X84500000Y-154657500D01*
X84642857Y-154586071D01*
X84785714Y-154586071D01*
X85857142Y-155514642D02*
X85714285Y-155586071D01*
X85428571Y-155586071D01*
X85285714Y-155514642D01*
X85214285Y-155371785D01*
X85214285Y-154800357D01*
X85285714Y-154657500D01*
X85428571Y-154586071D01*
X85714285Y-154586071D01*
X85857142Y-154657500D01*
X85928571Y-154800357D01*
X85928571Y-154943214D01*
X85214285Y-155086071D01*
X87142857Y-155514642D02*
X87000000Y-155586071D01*
X86714285Y-155586071D01*
X86571428Y-155514642D01*
X86500000Y-155371785D01*
X86500000Y-154800357D01*
X86571428Y-154657500D01*
X86714285Y-154586071D01*
X87000000Y-154586071D01*
X87142857Y-154657500D01*
X87214285Y-154800357D01*
X87214285Y-154943214D01*
X86500000Y-155086071D01*
X87857142Y-154586071D02*
X87857142Y-155586071D01*
X87857142Y-154728928D02*
X87928571Y-154657500D01*
X88071428Y-154586071D01*
X88285714Y-154586071D01*
X88428571Y-154657500D01*
X88500000Y-154800357D01*
X88500000Y-155586071D01*
X90357142Y-155586071D02*
X90357142Y-154086071D01*
X90714285Y-154086071D01*
X90928571Y-154157500D01*
X91071428Y-154300357D01*
X91142857Y-154443214D01*
X91214285Y-154728928D01*
X91214285Y-154943214D01*
X91142857Y-155228928D01*
X91071428Y-155371785D01*
X90928571Y-155514642D01*
X90714285Y-155586071D01*
X90357142Y-155586071D01*
X91857142Y-155586071D02*
X91857142Y-154586071D01*
X91857142Y-154086071D02*
X91785714Y-154157500D01*
X91857142Y-154228928D01*
X91928571Y-154157500D01*
X91857142Y-154086071D01*
X91857142Y-154228928D01*
X92500000Y-155514642D02*
X92642857Y-155586071D01*
X92928571Y-155586071D01*
X93071428Y-155514642D01*
X93142857Y-155371785D01*
X93142857Y-155300357D01*
X93071428Y-155157500D01*
X92928571Y-155086071D01*
X92714285Y-155086071D01*
X92571428Y-155014642D01*
X92500000Y-154871785D01*
X92500000Y-154800357D01*
X92571428Y-154657500D01*
X92714285Y-154586071D01*
X92928571Y-154586071D01*
X93071428Y-154657500D01*
X94000000Y-155586071D02*
X93857142Y-155514642D01*
X93785714Y-155371785D01*
X93785714Y-154086071D01*
X95214285Y-155586071D02*
X95214285Y-154800357D01*
X95142857Y-154657500D01*
X95000000Y-154586071D01*
X94714285Y-154586071D01*
X94571428Y-154657500D01*
X95214285Y-155514642D02*
X95071428Y-155586071D01*
X94714285Y-155586071D01*
X94571428Y-155514642D01*
X94500000Y-155371785D01*
X94500000Y-155228928D01*
X94571428Y-155086071D01*
X94714285Y-155014642D01*
X95071428Y-155014642D01*
X95214285Y-154943214D01*
X95785714Y-154586071D02*
X96142857Y-155586071D01*
X96500000Y-154586071D02*
X96142857Y-155586071D01*
X96000000Y-155943214D01*
X95928571Y-156014642D01*
X95785714Y-156086071D01*
X91152380Y-120790476D02*
X91152380Y-120171428D01*
X91533333Y-120504761D01*
X91533333Y-120361904D01*
X91580952Y-120266666D01*
X91628571Y-120219047D01*
X91723809Y-120171428D01*
X91961904Y-120171428D01*
X92057142Y-120219047D01*
X92104761Y-120266666D01*
X92152380Y-120361904D01*
X92152380Y-120647619D01*
X92104761Y-120742857D01*
X92057142Y-120790476D01*
X91485714Y-119838095D02*
X92152380Y-119600000D01*
X91485714Y-119361904D01*
X91152380Y-119076190D02*
X91152380Y-118457142D01*
X91533333Y-118790476D01*
X91533333Y-118647619D01*
X91580952Y-118552380D01*
X91628571Y-118504761D01*
X91723809Y-118457142D01*
X91961904Y-118457142D01*
X92057142Y-118504761D01*
X92104761Y-118552380D01*
X92152380Y-118647619D01*
X92152380Y-118933333D01*
X92104761Y-119028571D01*
X92057142Y-119076190D01*
D11*
%TO.C,R5*%
X90326190Y-135583333D02*
X90088095Y-135750000D01*
X90326190Y-135869047D02*
X89826190Y-135869047D01*
X89826190Y-135678571D01*
X89850000Y-135630952D01*
X89873809Y-135607142D01*
X89921428Y-135583333D01*
X89992857Y-135583333D01*
X90040476Y-135607142D01*
X90064285Y-135630952D01*
X90088095Y-135678571D01*
X90088095Y-135869047D01*
X89826190Y-135130952D02*
X89826190Y-135369047D01*
X90064285Y-135392857D01*
X90040476Y-135369047D01*
X90016666Y-135321428D01*
X90016666Y-135202380D01*
X90040476Y-135154761D01*
X90064285Y-135130952D01*
X90111904Y-135107142D01*
X90230952Y-135107142D01*
X90278571Y-135130952D01*
X90302380Y-135154761D01*
X90326190Y-135202380D01*
X90326190Y-135321428D01*
X90302380Y-135369047D01*
X90278571Y-135392857D01*
D10*
%TO.C,C6*%
X105733333Y-143797142D02*
X105685714Y-143844761D01*
X105542857Y-143892380D01*
X105447619Y-143892380D01*
X105304761Y-143844761D01*
X105209523Y-143749523D01*
X105161904Y-143654285D01*
X105114285Y-143463809D01*
X105114285Y-143320952D01*
X105161904Y-143130476D01*
X105209523Y-143035238D01*
X105304761Y-142940000D01*
X105447619Y-142892380D01*
X105542857Y-142892380D01*
X105685714Y-142940000D01*
X105733333Y-142987619D01*
X106590476Y-142892380D02*
X106400000Y-142892380D01*
X106304761Y-142940000D01*
X106257142Y-142987619D01*
X106161904Y-143130476D01*
X106114285Y-143320952D01*
X106114285Y-143701904D01*
X106161904Y-143797142D01*
X106209523Y-143844761D01*
X106304761Y-143892380D01*
X106495238Y-143892380D01*
X106590476Y-143844761D01*
X106638095Y-143797142D01*
X106685714Y-143701904D01*
X106685714Y-143463809D01*
X106638095Y-143368571D01*
X106590476Y-143320952D01*
X106495238Y-143273333D01*
X106304761Y-143273333D01*
X106209523Y-143320952D01*
X106161904Y-143368571D01*
X106114285Y-143463809D01*
%TO.C,X1*%
X118115476Y-163927380D02*
X118782142Y-164927380D01*
X118782142Y-163927380D02*
X118115476Y-164927380D01*
X119686904Y-164927380D02*
X119115476Y-164927380D01*
X119401190Y-164927380D02*
X119401190Y-163927380D01*
X119305952Y-164070238D01*
X119210714Y-164165476D01*
X119115476Y-164213095D01*
%TO.C,C21*%
X105632142Y-153667857D02*
X105679761Y-153715476D01*
X105727380Y-153858333D01*
X105727380Y-153953571D01*
X105679761Y-154096428D01*
X105584523Y-154191666D01*
X105489285Y-154239285D01*
X105298809Y-154286904D01*
X105155952Y-154286904D01*
X104965476Y-154239285D01*
X104870238Y-154191666D01*
X104775000Y-154096428D01*
X104727380Y-153953571D01*
X104727380Y-153858333D01*
X104775000Y-153715476D01*
X104822619Y-153667857D01*
X104822619Y-153286904D02*
X104775000Y-153239285D01*
X104727380Y-153144047D01*
X104727380Y-152905952D01*
X104775000Y-152810714D01*
X104822619Y-152763095D01*
X104917857Y-152715476D01*
X105013095Y-152715476D01*
X105155952Y-152763095D01*
X105727380Y-153334523D01*
X105727380Y-152715476D01*
X105727380Y-151763095D02*
X105727380Y-152334523D01*
X105727380Y-152048809D02*
X104727380Y-152048809D01*
X104870238Y-152144047D01*
X104965476Y-152239285D01*
X105013095Y-152334523D01*
%TO.C,R1*%
X110927380Y-153191666D02*
X110451190Y-153525000D01*
X110927380Y-153763095D02*
X109927380Y-153763095D01*
X109927380Y-153382142D01*
X109975000Y-153286904D01*
X110022619Y-153239285D01*
X110117857Y-153191666D01*
X110260714Y-153191666D01*
X110355952Y-153239285D01*
X110403571Y-153286904D01*
X110451190Y-153382142D01*
X110451190Y-153763095D01*
X110927380Y-152239285D02*
X110927380Y-152810714D01*
X110927380Y-152525000D02*
X109927380Y-152525000D01*
X110070238Y-152620238D01*
X110165476Y-152715476D01*
X110213095Y-152810714D01*
%TO.C,C1*%
X116282142Y-157041666D02*
X116329761Y-157089285D01*
X116377380Y-157232142D01*
X116377380Y-157327380D01*
X116329761Y-157470238D01*
X116234523Y-157565476D01*
X116139285Y-157613095D01*
X115948809Y-157660714D01*
X115805952Y-157660714D01*
X115615476Y-157613095D01*
X115520238Y-157565476D01*
X115425000Y-157470238D01*
X115377380Y-157327380D01*
X115377380Y-157232142D01*
X115425000Y-157089285D01*
X115472619Y-157041666D01*
X116377380Y-156089285D02*
X116377380Y-156660714D01*
X116377380Y-156375000D02*
X115377380Y-156375000D01*
X115520238Y-156470238D01*
X115615476Y-156565476D01*
X115663095Y-156660714D01*
%TO.C,R12*%
X139577380Y-163792857D02*
X139101190Y-164126190D01*
X139577380Y-164364285D02*
X138577380Y-164364285D01*
X138577380Y-163983333D01*
X138625000Y-163888095D01*
X138672619Y-163840476D01*
X138767857Y-163792857D01*
X138910714Y-163792857D01*
X139005952Y-163840476D01*
X139053571Y-163888095D01*
X139101190Y-163983333D01*
X139101190Y-164364285D01*
X139577380Y-162840476D02*
X139577380Y-163411904D01*
X139577380Y-163126190D02*
X138577380Y-163126190D01*
X138720238Y-163221428D01*
X138815476Y-163316666D01*
X138863095Y-163411904D01*
X138672619Y-162459523D02*
X138625000Y-162411904D01*
X138577380Y-162316666D01*
X138577380Y-162078571D01*
X138625000Y-161983333D01*
X138672619Y-161935714D01*
X138767857Y-161888095D01*
X138863095Y-161888095D01*
X139005952Y-161935714D01*
X139577380Y-162507142D01*
X139577380Y-161888095D01*
%TO.C,J2*%
X101666666Y-123277380D02*
X101666666Y-123991666D01*
X101619047Y-124134523D01*
X101523809Y-124229761D01*
X101380952Y-124277380D01*
X101285714Y-124277380D01*
X102095238Y-123372619D02*
X102142857Y-123325000D01*
X102238095Y-123277380D01*
X102476190Y-123277380D01*
X102571428Y-123325000D01*
X102619047Y-123372619D01*
X102666666Y-123467857D01*
X102666666Y-123563095D01*
X102619047Y-123705952D01*
X102047619Y-124277380D01*
X102666666Y-124277380D01*
%TO.C,R6*%
X123533333Y-154377380D02*
X123200000Y-153901190D01*
X122961904Y-154377380D02*
X122961904Y-153377380D01*
X123342857Y-153377380D01*
X123438095Y-153425000D01*
X123485714Y-153472619D01*
X123533333Y-153567857D01*
X123533333Y-153710714D01*
X123485714Y-153805952D01*
X123438095Y-153853571D01*
X123342857Y-153901190D01*
X122961904Y-153901190D01*
X124390476Y-153377380D02*
X124200000Y-153377380D01*
X124104761Y-153425000D01*
X124057142Y-153472619D01*
X123961904Y-153615476D01*
X123914285Y-153805952D01*
X123914285Y-154186904D01*
X123961904Y-154282142D01*
X124009523Y-154329761D01*
X124104761Y-154377380D01*
X124295238Y-154377380D01*
X124390476Y-154329761D01*
X124438095Y-154282142D01*
X124485714Y-154186904D01*
X124485714Y-153948809D01*
X124438095Y-153853571D01*
X124390476Y-153805952D01*
X124295238Y-153758333D01*
X124104761Y-153758333D01*
X124009523Y-153805952D01*
X123961904Y-153853571D01*
X123914285Y-153948809D01*
%TO.C,U1*%
X111688095Y-148652380D02*
X111688095Y-149461904D01*
X111735714Y-149557142D01*
X111783333Y-149604761D01*
X111878571Y-149652380D01*
X112069047Y-149652380D01*
X112164285Y-149604761D01*
X112211904Y-149557142D01*
X112259523Y-149461904D01*
X112259523Y-148652380D01*
X113259523Y-149652380D02*
X112688095Y-149652380D01*
X112973809Y-149652380D02*
X112973809Y-148652380D01*
X112878571Y-148795238D01*
X112783333Y-148890476D01*
X112688095Y-148938095D01*
%TO.C,C2*%
X112233333Y-162857142D02*
X112185714Y-162904761D01*
X112042857Y-162952380D01*
X111947619Y-162952380D01*
X111804761Y-162904761D01*
X111709523Y-162809523D01*
X111661904Y-162714285D01*
X111614285Y-162523809D01*
X111614285Y-162380952D01*
X111661904Y-162190476D01*
X111709523Y-162095238D01*
X111804761Y-162000000D01*
X111947619Y-161952380D01*
X112042857Y-161952380D01*
X112185714Y-162000000D01*
X112233333Y-162047619D01*
X112614285Y-162047619D02*
X112661904Y-162000000D01*
X112757142Y-161952380D01*
X112995238Y-161952380D01*
X113090476Y-162000000D01*
X113138095Y-162047619D01*
X113185714Y-162142857D01*
X113185714Y-162238095D01*
X113138095Y-162380952D01*
X112566666Y-162952380D01*
X113185714Y-162952380D01*
D11*
%TO.C,R10*%
X90226190Y-142421428D02*
X89988095Y-142588095D01*
X90226190Y-142707142D02*
X89726190Y-142707142D01*
X89726190Y-142516666D01*
X89750000Y-142469047D01*
X89773809Y-142445238D01*
X89821428Y-142421428D01*
X89892857Y-142421428D01*
X89940476Y-142445238D01*
X89964285Y-142469047D01*
X89988095Y-142516666D01*
X89988095Y-142707142D01*
X90226190Y-141945238D02*
X90226190Y-142230952D01*
X90226190Y-142088095D02*
X89726190Y-142088095D01*
X89797619Y-142135714D01*
X89845238Y-142183333D01*
X89869047Y-142230952D01*
X89726190Y-141635714D02*
X89726190Y-141588095D01*
X89750000Y-141540476D01*
X89773809Y-141516666D01*
X89821428Y-141492857D01*
X89916666Y-141469047D01*
X90035714Y-141469047D01*
X90130952Y-141492857D01*
X90178571Y-141516666D01*
X90202380Y-141540476D01*
X90226190Y-141588095D01*
X90226190Y-141635714D01*
X90202380Y-141683333D01*
X90178571Y-141707142D01*
X90130952Y-141730952D01*
X90035714Y-141754761D01*
X89916666Y-141754761D01*
X89821428Y-141730952D01*
X89773809Y-141707142D01*
X89750000Y-141683333D01*
X89726190Y-141635714D01*
D10*
%TO.C,C3*%
X109083333Y-162857142D02*
X109035714Y-162904761D01*
X108892857Y-162952380D01*
X108797619Y-162952380D01*
X108654761Y-162904761D01*
X108559523Y-162809523D01*
X108511904Y-162714285D01*
X108464285Y-162523809D01*
X108464285Y-162380952D01*
X108511904Y-162190476D01*
X108559523Y-162095238D01*
X108654761Y-162000000D01*
X108797619Y-161952380D01*
X108892857Y-161952380D01*
X109035714Y-162000000D01*
X109083333Y-162047619D01*
X109416666Y-161952380D02*
X110035714Y-161952380D01*
X109702380Y-162333333D01*
X109845238Y-162333333D01*
X109940476Y-162380952D01*
X109988095Y-162428571D01*
X110035714Y-162523809D01*
X110035714Y-162761904D01*
X109988095Y-162857142D01*
X109940476Y-162904761D01*
X109845238Y-162952380D01*
X109559523Y-162952380D01*
X109464285Y-162904761D01*
X109416666Y-162857142D01*
%TO.C,L2*%
X96133333Y-143752380D02*
X95657142Y-143752380D01*
X95657142Y-142752380D01*
X96419047Y-142847619D02*
X96466666Y-142800000D01*
X96561904Y-142752380D01*
X96800000Y-142752380D01*
X96895238Y-142800000D01*
X96942857Y-142847619D01*
X96990476Y-142942857D01*
X96990476Y-143038095D01*
X96942857Y-143180952D01*
X96371428Y-143752380D01*
X96990476Y-143752380D01*
%TO.C,C8*%
X112033333Y-146782142D02*
X111985714Y-146829761D01*
X111842857Y-146877380D01*
X111747619Y-146877380D01*
X111604761Y-146829761D01*
X111509523Y-146734523D01*
X111461904Y-146639285D01*
X111414285Y-146448809D01*
X111414285Y-146305952D01*
X111461904Y-146115476D01*
X111509523Y-146020238D01*
X111604761Y-145925000D01*
X111747619Y-145877380D01*
X111842857Y-145877380D01*
X111985714Y-145925000D01*
X112033333Y-145972619D01*
X112604761Y-146305952D02*
X112509523Y-146258333D01*
X112461904Y-146210714D01*
X112414285Y-146115476D01*
X112414285Y-146067857D01*
X112461904Y-145972619D01*
X112509523Y-145925000D01*
X112604761Y-145877380D01*
X112795238Y-145877380D01*
X112890476Y-145925000D01*
X112938095Y-145972619D01*
X112985714Y-146067857D01*
X112985714Y-146115476D01*
X112938095Y-146210714D01*
X112890476Y-146258333D01*
X112795238Y-146305952D01*
X112604761Y-146305952D01*
X112509523Y-146353571D01*
X112461904Y-146401190D01*
X112414285Y-146496428D01*
X112414285Y-146686904D01*
X112461904Y-146782142D01*
X112509523Y-146829761D01*
X112604761Y-146877380D01*
X112795238Y-146877380D01*
X112890476Y-146829761D01*
X112938095Y-146782142D01*
X112985714Y-146686904D01*
X112985714Y-146496428D01*
X112938095Y-146401190D01*
X112890476Y-146353571D01*
X112795238Y-146305952D01*
%TO.C,R8*%
X81819880Y-140266666D02*
X81343690Y-140600000D01*
X81819880Y-140838095D02*
X80819880Y-140838095D01*
X80819880Y-140457142D01*
X80867500Y-140361904D01*
X80915119Y-140314285D01*
X81010357Y-140266666D01*
X81153214Y-140266666D01*
X81248452Y-140314285D01*
X81296071Y-140361904D01*
X81343690Y-140457142D01*
X81343690Y-140838095D01*
X81248452Y-139695238D02*
X81200833Y-139790476D01*
X81153214Y-139838095D01*
X81057976Y-139885714D01*
X81010357Y-139885714D01*
X80915119Y-139838095D01*
X80867500Y-139790476D01*
X80819880Y-139695238D01*
X80819880Y-139504761D01*
X80867500Y-139409523D01*
X80915119Y-139361904D01*
X81010357Y-139314285D01*
X81057976Y-139314285D01*
X81153214Y-139361904D01*
X81200833Y-139409523D01*
X81248452Y-139504761D01*
X81248452Y-139695238D01*
X81296071Y-139790476D01*
X81343690Y-139838095D01*
X81438928Y-139885714D01*
X81629404Y-139885714D01*
X81724642Y-139838095D01*
X81772261Y-139790476D01*
X81819880Y-139695238D01*
X81819880Y-139504761D01*
X81772261Y-139409523D01*
X81724642Y-139361904D01*
X81629404Y-139314285D01*
X81438928Y-139314285D01*
X81343690Y-139361904D01*
X81296071Y-139409523D01*
X81248452Y-139504761D01*
%TO.C,U5*%
X94838095Y-137852380D02*
X94838095Y-138661904D01*
X94885714Y-138757142D01*
X94933333Y-138804761D01*
X95028571Y-138852380D01*
X95219047Y-138852380D01*
X95314285Y-138804761D01*
X95361904Y-138757142D01*
X95409523Y-138661904D01*
X95409523Y-137852380D01*
X96361904Y-137852380D02*
X95885714Y-137852380D01*
X95838095Y-138328571D01*
X95885714Y-138280952D01*
X95980952Y-138233333D01*
X96219047Y-138233333D01*
X96314285Y-138280952D01*
X96361904Y-138328571D01*
X96409523Y-138423809D01*
X96409523Y-138661904D01*
X96361904Y-138757142D01*
X96314285Y-138804761D01*
X96219047Y-138852380D01*
X95980952Y-138852380D01*
X95885714Y-138804761D01*
X95838095Y-138757142D01*
%TO.C,F1*%
X117248571Y-132833333D02*
X117248571Y-133166666D01*
X117772380Y-133166666D02*
X116772380Y-133166666D01*
X116772380Y-132690476D01*
X117772380Y-131785714D02*
X117772380Y-132357142D01*
X117772380Y-132071428D02*
X116772380Y-132071428D01*
X116915238Y-132166666D01*
X117010476Y-132261904D01*
X117058095Y-132357142D01*
%TO.C,C16*%
X96557142Y-146342857D02*
X96604761Y-146390476D01*
X96652380Y-146533333D01*
X96652380Y-146628571D01*
X96604761Y-146771428D01*
X96509523Y-146866666D01*
X96414285Y-146914285D01*
X96223809Y-146961904D01*
X96080952Y-146961904D01*
X95890476Y-146914285D01*
X95795238Y-146866666D01*
X95700000Y-146771428D01*
X95652380Y-146628571D01*
X95652380Y-146533333D01*
X95700000Y-146390476D01*
X95747619Y-146342857D01*
X96652380Y-145390476D02*
X96652380Y-145961904D01*
X96652380Y-145676190D02*
X95652380Y-145676190D01*
X95795238Y-145771428D01*
X95890476Y-145866666D01*
X95938095Y-145961904D01*
X95652380Y-144533333D02*
X95652380Y-144723809D01*
X95700000Y-144819047D01*
X95747619Y-144866666D01*
X95890476Y-144961904D01*
X96080952Y-145009523D01*
X96461904Y-145009523D01*
X96557142Y-144961904D01*
X96604761Y-144914285D01*
X96652380Y-144819047D01*
X96652380Y-144628571D01*
X96604761Y-144533333D01*
X96557142Y-144485714D01*
X96461904Y-144438095D01*
X96223809Y-144438095D01*
X96128571Y-144485714D01*
X96080952Y-144533333D01*
X96033333Y-144628571D01*
X96033333Y-144819047D01*
X96080952Y-144914285D01*
X96128571Y-144961904D01*
X96223809Y-145009523D01*
%TO.C,C24*%
X127957142Y-119707142D02*
X127909523Y-119754761D01*
X127766666Y-119802380D01*
X127671428Y-119802380D01*
X127528571Y-119754761D01*
X127433333Y-119659523D01*
X127385714Y-119564285D01*
X127338095Y-119373809D01*
X127338095Y-119230952D01*
X127385714Y-119040476D01*
X127433333Y-118945238D01*
X127528571Y-118850000D01*
X127671428Y-118802380D01*
X127766666Y-118802380D01*
X127909523Y-118850000D01*
X127957142Y-118897619D01*
X128338095Y-118897619D02*
X128385714Y-118850000D01*
X128480952Y-118802380D01*
X128719047Y-118802380D01*
X128814285Y-118850000D01*
X128861904Y-118897619D01*
X128909523Y-118992857D01*
X128909523Y-119088095D01*
X128861904Y-119230952D01*
X128290476Y-119802380D01*
X128909523Y-119802380D01*
X129766666Y-119135714D02*
X129766666Y-119802380D01*
X129528571Y-118754761D02*
X129290476Y-119469047D01*
X129909523Y-119469047D01*
%TO.C,D3*%
X110636904Y-134902380D02*
X110636904Y-133902380D01*
X110875000Y-133902380D01*
X111017857Y-133950000D01*
X111113095Y-134045238D01*
X111160714Y-134140476D01*
X111208333Y-134330952D01*
X111208333Y-134473809D01*
X111160714Y-134664285D01*
X111113095Y-134759523D01*
X111017857Y-134854761D01*
X110875000Y-134902380D01*
X110636904Y-134902380D01*
X111541666Y-133902380D02*
X112160714Y-133902380D01*
X111827380Y-134283333D01*
X111970238Y-134283333D01*
X112065476Y-134330952D01*
X112113095Y-134378571D01*
X112160714Y-134473809D01*
X112160714Y-134711904D01*
X112113095Y-134807142D01*
X112065476Y-134854761D01*
X111970238Y-134902380D01*
X111684523Y-134902380D01*
X111589285Y-134854761D01*
X111541666Y-134807142D01*
%TO.C,R3*%
X123533333Y-150652380D02*
X123200000Y-150176190D01*
X122961904Y-150652380D02*
X122961904Y-149652380D01*
X123342857Y-149652380D01*
X123438095Y-149700000D01*
X123485714Y-149747619D01*
X123533333Y-149842857D01*
X123533333Y-149985714D01*
X123485714Y-150080952D01*
X123438095Y-150128571D01*
X123342857Y-150176190D01*
X122961904Y-150176190D01*
X123866666Y-149652380D02*
X124485714Y-149652380D01*
X124152380Y-150033333D01*
X124295238Y-150033333D01*
X124390476Y-150080952D01*
X124438095Y-150128571D01*
X124485714Y-150223809D01*
X124485714Y-150461904D01*
X124438095Y-150557142D01*
X124390476Y-150604761D01*
X124295238Y-150652380D01*
X124009523Y-150652380D01*
X123914285Y-150604761D01*
X123866666Y-150557142D01*
%TO.C,C26*%
X127047142Y-123225357D02*
X127094761Y-123272976D01*
X127142380Y-123415833D01*
X127142380Y-123511071D01*
X127094761Y-123653928D01*
X126999523Y-123749166D01*
X126904285Y-123796785D01*
X126713809Y-123844404D01*
X126570952Y-123844404D01*
X126380476Y-123796785D01*
X126285238Y-123749166D01*
X126190000Y-123653928D01*
X126142380Y-123511071D01*
X126142380Y-123415833D01*
X126190000Y-123272976D01*
X126237619Y-123225357D01*
X126237619Y-122844404D02*
X126190000Y-122796785D01*
X126142380Y-122701547D01*
X126142380Y-122463452D01*
X126190000Y-122368214D01*
X126237619Y-122320595D01*
X126332857Y-122272976D01*
X126428095Y-122272976D01*
X126570952Y-122320595D01*
X127142380Y-122892023D01*
X127142380Y-122272976D01*
X126142380Y-121415833D02*
X126142380Y-121606309D01*
X126190000Y-121701547D01*
X126237619Y-121749166D01*
X126380476Y-121844404D01*
X126570952Y-121892023D01*
X126951904Y-121892023D01*
X127047142Y-121844404D01*
X127094761Y-121796785D01*
X127142380Y-121701547D01*
X127142380Y-121511071D01*
X127094761Y-121415833D01*
X127047142Y-121368214D01*
X126951904Y-121320595D01*
X126713809Y-121320595D01*
X126618571Y-121368214D01*
X126570952Y-121415833D01*
X126523333Y-121511071D01*
X126523333Y-121701547D01*
X126570952Y-121796785D01*
X126618571Y-121844404D01*
X126713809Y-121892023D01*
%TO.C,R4*%
X82977380Y-135491666D02*
X82501190Y-135825000D01*
X82977380Y-136063095D02*
X81977380Y-136063095D01*
X81977380Y-135682142D01*
X82025000Y-135586904D01*
X82072619Y-135539285D01*
X82167857Y-135491666D01*
X82310714Y-135491666D01*
X82405952Y-135539285D01*
X82453571Y-135586904D01*
X82501190Y-135682142D01*
X82501190Y-136063095D01*
X82310714Y-134634523D02*
X82977380Y-134634523D01*
X81929761Y-134872619D02*
X82644047Y-135110714D01*
X82644047Y-134491666D01*
D11*
%TO.C,C13*%
X88878571Y-142521428D02*
X88902380Y-142545238D01*
X88926190Y-142616666D01*
X88926190Y-142664285D01*
X88902380Y-142735714D01*
X88854761Y-142783333D01*
X88807142Y-142807142D01*
X88711904Y-142830952D01*
X88640476Y-142830952D01*
X88545238Y-142807142D01*
X88497619Y-142783333D01*
X88450000Y-142735714D01*
X88426190Y-142664285D01*
X88426190Y-142616666D01*
X88450000Y-142545238D01*
X88473809Y-142521428D01*
X88926190Y-142045238D02*
X88926190Y-142330952D01*
X88926190Y-142188095D02*
X88426190Y-142188095D01*
X88497619Y-142235714D01*
X88545238Y-142283333D01*
X88569047Y-142330952D01*
X88426190Y-141878571D02*
X88426190Y-141569047D01*
X88616666Y-141735714D01*
X88616666Y-141664285D01*
X88640476Y-141616666D01*
X88664285Y-141592857D01*
X88711904Y-141569047D01*
X88830952Y-141569047D01*
X88878571Y-141592857D01*
X88902380Y-141616666D01*
X88926190Y-141664285D01*
X88926190Y-141807142D01*
X88902380Y-141854761D01*
X88878571Y-141878571D01*
D10*
%TO.C,J5*%
X100802380Y-158358333D02*
X101516666Y-158358333D01*
X101659523Y-158405952D01*
X101754761Y-158501190D01*
X101802380Y-158644047D01*
X101802380Y-158739285D01*
X100802380Y-157405952D02*
X100802380Y-157882142D01*
X101278571Y-157929761D01*
X101230952Y-157882142D01*
X101183333Y-157786904D01*
X101183333Y-157548809D01*
X101230952Y-157453571D01*
X101278571Y-157405952D01*
X101373809Y-157358333D01*
X101611904Y-157358333D01*
X101707142Y-157405952D01*
X101754761Y-157453571D01*
X101802380Y-157548809D01*
X101802380Y-157786904D01*
X101754761Y-157882142D01*
X101707142Y-157929761D01*
%TO.C,C14*%
X96657142Y-141042857D02*
X96704761Y-141090476D01*
X96752380Y-141233333D01*
X96752380Y-141328571D01*
X96704761Y-141471428D01*
X96609523Y-141566666D01*
X96514285Y-141614285D01*
X96323809Y-141661904D01*
X96180952Y-141661904D01*
X95990476Y-141614285D01*
X95895238Y-141566666D01*
X95800000Y-141471428D01*
X95752380Y-141328571D01*
X95752380Y-141233333D01*
X95800000Y-141090476D01*
X95847619Y-141042857D01*
X96752380Y-140090476D02*
X96752380Y-140661904D01*
X96752380Y-140376190D02*
X95752380Y-140376190D01*
X95895238Y-140471428D01*
X95990476Y-140566666D01*
X96038095Y-140661904D01*
X96085714Y-139233333D02*
X96752380Y-139233333D01*
X95704761Y-139471428D02*
X96419047Y-139709523D01*
X96419047Y-139090476D01*
%TO.C,C17*%
X82882142Y-149742857D02*
X82929761Y-149790476D01*
X82977380Y-149933333D01*
X82977380Y-150028571D01*
X82929761Y-150171428D01*
X82834523Y-150266666D01*
X82739285Y-150314285D01*
X82548809Y-150361904D01*
X82405952Y-150361904D01*
X82215476Y-150314285D01*
X82120238Y-150266666D01*
X82025000Y-150171428D01*
X81977380Y-150028571D01*
X81977380Y-149933333D01*
X82025000Y-149790476D01*
X82072619Y-149742857D01*
X82977380Y-148790476D02*
X82977380Y-149361904D01*
X82977380Y-149076190D02*
X81977380Y-149076190D01*
X82120238Y-149171428D01*
X82215476Y-149266666D01*
X82263095Y-149361904D01*
X81977380Y-148457142D02*
X81977380Y-147790476D01*
X82977380Y-148219047D01*
%TO.C,L1*%
X82133333Y-143852380D02*
X81657142Y-143852380D01*
X81657142Y-142852380D01*
X82990476Y-143852380D02*
X82419047Y-143852380D01*
X82704761Y-143852380D02*
X82704761Y-142852380D01*
X82609523Y-142995238D01*
X82514285Y-143090476D01*
X82419047Y-143138095D01*
%TO.C,J6*%
X138291666Y-126602380D02*
X138291666Y-127316666D01*
X138244047Y-127459523D01*
X138148809Y-127554761D01*
X138005952Y-127602380D01*
X137910714Y-127602380D01*
X139196428Y-126602380D02*
X139005952Y-126602380D01*
X138910714Y-126650000D01*
X138863095Y-126697619D01*
X138767857Y-126840476D01*
X138720238Y-127030952D01*
X138720238Y-127411904D01*
X138767857Y-127507142D01*
X138815476Y-127554761D01*
X138910714Y-127602380D01*
X139101190Y-127602380D01*
X139196428Y-127554761D01*
X139244047Y-127507142D01*
X139291666Y-127411904D01*
X139291666Y-127173809D01*
X139244047Y-127078571D01*
X139196428Y-127030952D01*
X139101190Y-126983333D01*
X138910714Y-126983333D01*
X138815476Y-127030952D01*
X138767857Y-127078571D01*
X138720238Y-127173809D01*
%TO.C,C12*%
X95157142Y-137157142D02*
X95109523Y-137204761D01*
X94966666Y-137252380D01*
X94871428Y-137252380D01*
X94728571Y-137204761D01*
X94633333Y-137109523D01*
X94585714Y-137014285D01*
X94538095Y-136823809D01*
X94538095Y-136680952D01*
X94585714Y-136490476D01*
X94633333Y-136395238D01*
X94728571Y-136300000D01*
X94871428Y-136252380D01*
X94966666Y-136252380D01*
X95109523Y-136300000D01*
X95157142Y-136347619D01*
X96109523Y-137252380D02*
X95538095Y-137252380D01*
X95823809Y-137252380D02*
X95823809Y-136252380D01*
X95728571Y-136395238D01*
X95633333Y-136490476D01*
X95538095Y-136538095D01*
X96490476Y-136347619D02*
X96538095Y-136300000D01*
X96633333Y-136252380D01*
X96871428Y-136252380D01*
X96966666Y-136300000D01*
X97014285Y-136347619D01*
X97061904Y-136442857D01*
X97061904Y-136538095D01*
X97014285Y-136680952D01*
X96442857Y-137252380D01*
X97061904Y-137252380D01*
%TO.C,JP4*%
X91166666Y-156127380D02*
X91166666Y-156841666D01*
X91119047Y-156984523D01*
X91023809Y-157079761D01*
X90880952Y-157127380D01*
X90785714Y-157127380D01*
X91642857Y-157127380D02*
X91642857Y-156127380D01*
X92023809Y-156127380D01*
X92119047Y-156175000D01*
X92166666Y-156222619D01*
X92214285Y-156317857D01*
X92214285Y-156460714D01*
X92166666Y-156555952D01*
X92119047Y-156603571D01*
X92023809Y-156651190D01*
X91642857Y-156651190D01*
X93071428Y-156460714D02*
X93071428Y-157127380D01*
X92833333Y-156079761D02*
X92595238Y-156794047D01*
X93214285Y-156794047D01*
X97185714Y-159152380D02*
X96614285Y-159152380D01*
X96900000Y-159152380D02*
X96900000Y-158152380D01*
X96804761Y-158295238D01*
X96709523Y-158390476D01*
X96614285Y-158438095D01*
X91366666Y-158152380D02*
X91985714Y-158152380D01*
X91652380Y-158533333D01*
X91795238Y-158533333D01*
X91890476Y-158580952D01*
X91938095Y-158628571D01*
X91985714Y-158723809D01*
X91985714Y-158961904D01*
X91938095Y-159057142D01*
X91890476Y-159104761D01*
X91795238Y-159152380D01*
X91509523Y-159152380D01*
X91414285Y-159104761D01*
X91366666Y-159057142D01*
%TO.C,Y1*%
X107923809Y-159876190D02*
X107923809Y-160352380D01*
X107590476Y-159352380D02*
X107923809Y-159876190D01*
X108257142Y-159352380D01*
X109114285Y-160352380D02*
X108542857Y-160352380D01*
X108828571Y-160352380D02*
X108828571Y-159352380D01*
X108733333Y-159495238D01*
X108638095Y-159590476D01*
X108542857Y-159638095D01*
D11*
%TO.C,C11*%
X87478571Y-136878571D02*
X87454761Y-136902380D01*
X87383333Y-136926190D01*
X87335714Y-136926190D01*
X87264285Y-136902380D01*
X87216666Y-136854761D01*
X87192857Y-136807142D01*
X87169047Y-136711904D01*
X87169047Y-136640476D01*
X87192857Y-136545238D01*
X87216666Y-136497619D01*
X87264285Y-136450000D01*
X87335714Y-136426190D01*
X87383333Y-136426190D01*
X87454761Y-136450000D01*
X87478571Y-136473809D01*
X87954761Y-136926190D02*
X87669047Y-136926190D01*
X87811904Y-136926190D02*
X87811904Y-136426190D01*
X87764285Y-136497619D01*
X87716666Y-136545238D01*
X87669047Y-136569047D01*
X88430952Y-136926190D02*
X88145238Y-136926190D01*
X88288095Y-136926190D02*
X88288095Y-136426190D01*
X88240476Y-136497619D01*
X88192857Y-136545238D01*
X88145238Y-136569047D01*
D10*
%TO.C,C19*%
X138157142Y-163817857D02*
X138204761Y-163865476D01*
X138252380Y-164008333D01*
X138252380Y-164103571D01*
X138204761Y-164246428D01*
X138109523Y-164341666D01*
X138014285Y-164389285D01*
X137823809Y-164436904D01*
X137680952Y-164436904D01*
X137490476Y-164389285D01*
X137395238Y-164341666D01*
X137300000Y-164246428D01*
X137252380Y-164103571D01*
X137252380Y-164008333D01*
X137300000Y-163865476D01*
X137347619Y-163817857D01*
X138252380Y-162865476D02*
X138252380Y-163436904D01*
X138252380Y-163151190D02*
X137252380Y-163151190D01*
X137395238Y-163246428D01*
X137490476Y-163341666D01*
X137538095Y-163436904D01*
X138252380Y-162389285D02*
X138252380Y-162198809D01*
X138204761Y-162103571D01*
X138157142Y-162055952D01*
X138014285Y-161960714D01*
X137823809Y-161913095D01*
X137442857Y-161913095D01*
X137347619Y-161960714D01*
X137300000Y-162008333D01*
X137252380Y-162103571D01*
X137252380Y-162294047D01*
X137300000Y-162389285D01*
X137347619Y-162436904D01*
X137442857Y-162484523D01*
X137680952Y-162484523D01*
X137776190Y-162436904D01*
X137823809Y-162389285D01*
X137871428Y-162294047D01*
X137871428Y-162103571D01*
X137823809Y-162008333D01*
X137776190Y-161960714D01*
X137680952Y-161913095D01*
%TO.C,C18*%
X96557142Y-149742857D02*
X96604761Y-149790476D01*
X96652380Y-149933333D01*
X96652380Y-150028571D01*
X96604761Y-150171428D01*
X96509523Y-150266666D01*
X96414285Y-150314285D01*
X96223809Y-150361904D01*
X96080952Y-150361904D01*
X95890476Y-150314285D01*
X95795238Y-150266666D01*
X95700000Y-150171428D01*
X95652380Y-150028571D01*
X95652380Y-149933333D01*
X95700000Y-149790476D01*
X95747619Y-149742857D01*
X96652380Y-148790476D02*
X96652380Y-149361904D01*
X96652380Y-149076190D02*
X95652380Y-149076190D01*
X95795238Y-149171428D01*
X95890476Y-149266666D01*
X95938095Y-149361904D01*
X96080952Y-148219047D02*
X96033333Y-148314285D01*
X95985714Y-148361904D01*
X95890476Y-148409523D01*
X95842857Y-148409523D01*
X95747619Y-148361904D01*
X95700000Y-148314285D01*
X95652380Y-148219047D01*
X95652380Y-148028571D01*
X95700000Y-147933333D01*
X95747619Y-147885714D01*
X95842857Y-147838095D01*
X95890476Y-147838095D01*
X95985714Y-147885714D01*
X96033333Y-147933333D01*
X96080952Y-148028571D01*
X96080952Y-148219047D01*
X96128571Y-148314285D01*
X96176190Y-148361904D01*
X96271428Y-148409523D01*
X96461904Y-148409523D01*
X96557142Y-148361904D01*
X96604761Y-148314285D01*
X96652380Y-148219047D01*
X96652380Y-148028571D01*
X96604761Y-147933333D01*
X96557142Y-147885714D01*
X96461904Y-147838095D01*
X96271428Y-147838095D01*
X96176190Y-147885714D01*
X96128571Y-147933333D01*
X96080952Y-148028571D01*
%TO.C,JP5*%
X119166666Y-153152380D02*
X119166666Y-153866666D01*
X119119047Y-154009523D01*
X119023809Y-154104761D01*
X118880952Y-154152380D01*
X118785714Y-154152380D01*
X119642857Y-154152380D02*
X119642857Y-153152380D01*
X120023809Y-153152380D01*
X120119047Y-153200000D01*
X120166666Y-153247619D01*
X120214285Y-153342857D01*
X120214285Y-153485714D01*
X120166666Y-153580952D01*
X120119047Y-153628571D01*
X120023809Y-153676190D01*
X119642857Y-153676190D01*
X121119047Y-153152380D02*
X120642857Y-153152380D01*
X120595238Y-153628571D01*
X120642857Y-153580952D01*
X120738095Y-153533333D01*
X120976190Y-153533333D01*
X121071428Y-153580952D01*
X121119047Y-153628571D01*
X121166666Y-153723809D01*
X121166666Y-153961904D01*
X121119047Y-154057142D01*
X121071428Y-154104761D01*
X120976190Y-154152380D01*
X120738095Y-154152380D01*
X120642857Y-154104761D01*
X120595238Y-154057142D01*
X120085714Y-155852380D02*
X119514285Y-155852380D01*
X119800000Y-155852380D02*
X119800000Y-154852380D01*
X119704761Y-154995238D01*
X119609523Y-155090476D01*
X119514285Y-155138095D01*
X124666666Y-154852380D02*
X125285714Y-154852380D01*
X124952380Y-155233333D01*
X125095238Y-155233333D01*
X125190476Y-155280952D01*
X125238095Y-155328571D01*
X125285714Y-155423809D01*
X125285714Y-155661904D01*
X125238095Y-155757142D01*
X125190476Y-155804761D01*
X125095238Y-155852380D01*
X124809523Y-155852380D01*
X124714285Y-155804761D01*
X124666666Y-155757142D01*
%TO.C,R15*%
X109002380Y-150342857D02*
X108526190Y-150676190D01*
X109002380Y-150914285D02*
X108002380Y-150914285D01*
X108002380Y-150533333D01*
X108050000Y-150438095D01*
X108097619Y-150390476D01*
X108192857Y-150342857D01*
X108335714Y-150342857D01*
X108430952Y-150390476D01*
X108478571Y-150438095D01*
X108526190Y-150533333D01*
X108526190Y-150914285D01*
X109002380Y-149390476D02*
X109002380Y-149961904D01*
X109002380Y-149676190D02*
X108002380Y-149676190D01*
X108145238Y-149771428D01*
X108240476Y-149866666D01*
X108288095Y-149961904D01*
X108002380Y-148485714D02*
X108002380Y-148961904D01*
X108478571Y-149009523D01*
X108430952Y-148961904D01*
X108383333Y-148866666D01*
X108383333Y-148628571D01*
X108430952Y-148533333D01*
X108478571Y-148485714D01*
X108573809Y-148438095D01*
X108811904Y-148438095D01*
X108907142Y-148485714D01*
X108954761Y-148533333D01*
X109002380Y-148628571D01*
X109002380Y-148866666D01*
X108954761Y-148961904D01*
X108907142Y-149009523D01*
%TO.C,JP3*%
X93466666Y-164327380D02*
X93466666Y-165041666D01*
X93419047Y-165184523D01*
X93323809Y-165279761D01*
X93180952Y-165327380D01*
X93085714Y-165327380D01*
X93942857Y-165327380D02*
X93942857Y-164327380D01*
X94323809Y-164327380D01*
X94419047Y-164375000D01*
X94466666Y-164422619D01*
X94514285Y-164517857D01*
X94514285Y-164660714D01*
X94466666Y-164755952D01*
X94419047Y-164803571D01*
X94323809Y-164851190D01*
X93942857Y-164851190D01*
X94847619Y-164327380D02*
X95466666Y-164327380D01*
X95133333Y-164708333D01*
X95276190Y-164708333D01*
X95371428Y-164755952D01*
X95419047Y-164803571D01*
X95466666Y-164898809D01*
X95466666Y-165136904D01*
X95419047Y-165232142D01*
X95371428Y-165279761D01*
X95276190Y-165327380D01*
X94990476Y-165327380D01*
X94895238Y-165279761D01*
X94847619Y-165232142D01*
X97185714Y-162152380D02*
X96614285Y-162152380D01*
X96900000Y-162152380D02*
X96900000Y-161152380D01*
X96804761Y-161295238D01*
X96709523Y-161390476D01*
X96614285Y-161438095D01*
X91366666Y-161152380D02*
X91985714Y-161152380D01*
X91652380Y-161533333D01*
X91795238Y-161533333D01*
X91890476Y-161580952D01*
X91938095Y-161628571D01*
X91985714Y-161723809D01*
X91985714Y-161961904D01*
X91938095Y-162057142D01*
X91890476Y-162104761D01*
X91795238Y-162152380D01*
X91509523Y-162152380D01*
X91414285Y-162104761D01*
X91366666Y-162057142D01*
%TO.C,D2*%
X105752380Y-135638095D02*
X104752380Y-135638095D01*
X104752380Y-135400000D01*
X104800000Y-135257142D01*
X104895238Y-135161904D01*
X104990476Y-135114285D01*
X105180952Y-135066666D01*
X105323809Y-135066666D01*
X105514285Y-135114285D01*
X105609523Y-135161904D01*
X105704761Y-135257142D01*
X105752380Y-135400000D01*
X105752380Y-135638095D01*
X104847619Y-134685714D02*
X104800000Y-134638095D01*
X104752380Y-134542857D01*
X104752380Y-134304761D01*
X104800000Y-134209523D01*
X104847619Y-134161904D01*
X104942857Y-134114285D01*
X105038095Y-134114285D01*
X105180952Y-134161904D01*
X105752380Y-134733333D01*
X105752380Y-134114285D01*
D11*
%TO.C,U4*%
X87619047Y-138226190D02*
X87619047Y-138630952D01*
X87642857Y-138678571D01*
X87666666Y-138702380D01*
X87714285Y-138726190D01*
X87809523Y-138726190D01*
X87857142Y-138702380D01*
X87880952Y-138678571D01*
X87904761Y-138630952D01*
X87904761Y-138226190D01*
X88357142Y-138392857D02*
X88357142Y-138726190D01*
X88238095Y-138202380D02*
X88119047Y-138559523D01*
X88428571Y-138559523D01*
D10*
%TO.C,U2*%
X101963095Y-142952380D02*
X101963095Y-143761904D01*
X102010714Y-143857142D01*
X102058333Y-143904761D01*
X102153571Y-143952380D01*
X102344047Y-143952380D01*
X102439285Y-143904761D01*
X102486904Y-143857142D01*
X102534523Y-143761904D01*
X102534523Y-142952380D01*
X102963095Y-143047619D02*
X103010714Y-143000000D01*
X103105952Y-142952380D01*
X103344047Y-142952380D01*
X103439285Y-143000000D01*
X103486904Y-143047619D01*
X103534523Y-143142857D01*
X103534523Y-143238095D01*
X103486904Y-143380952D01*
X102915476Y-143952380D01*
X103534523Y-143952380D01*
%TO.C,C20*%
X90532142Y-163717857D02*
X90579761Y-163765476D01*
X90627380Y-163908333D01*
X90627380Y-164003571D01*
X90579761Y-164146428D01*
X90484523Y-164241666D01*
X90389285Y-164289285D01*
X90198809Y-164336904D01*
X90055952Y-164336904D01*
X89865476Y-164289285D01*
X89770238Y-164241666D01*
X89675000Y-164146428D01*
X89627380Y-164003571D01*
X89627380Y-163908333D01*
X89675000Y-163765476D01*
X89722619Y-163717857D01*
X89722619Y-163336904D02*
X89675000Y-163289285D01*
X89627380Y-163194047D01*
X89627380Y-162955952D01*
X89675000Y-162860714D01*
X89722619Y-162813095D01*
X89817857Y-162765476D01*
X89913095Y-162765476D01*
X90055952Y-162813095D01*
X90627380Y-163384523D01*
X90627380Y-162765476D01*
X89627380Y-162146428D02*
X89627380Y-162051190D01*
X89675000Y-161955952D01*
X89722619Y-161908333D01*
X89817857Y-161860714D01*
X90008333Y-161813095D01*
X90246428Y-161813095D01*
X90436904Y-161860714D01*
X90532142Y-161908333D01*
X90579761Y-161955952D01*
X90627380Y-162051190D01*
X90627380Y-162146428D01*
X90579761Y-162241666D01*
X90532142Y-162289285D01*
X90436904Y-162336904D01*
X90246428Y-162384523D01*
X90008333Y-162384523D01*
X89817857Y-162336904D01*
X89722619Y-162289285D01*
X89675000Y-162241666D01*
X89627380Y-162146428D01*
%TO.C,C9*%
X87633333Y-132657142D02*
X87585714Y-132704761D01*
X87442857Y-132752380D01*
X87347619Y-132752380D01*
X87204761Y-132704761D01*
X87109523Y-132609523D01*
X87061904Y-132514285D01*
X87014285Y-132323809D01*
X87014285Y-132180952D01*
X87061904Y-131990476D01*
X87109523Y-131895238D01*
X87204761Y-131800000D01*
X87347619Y-131752380D01*
X87442857Y-131752380D01*
X87585714Y-131800000D01*
X87633333Y-131847619D01*
X88109523Y-132752380D02*
X88300000Y-132752380D01*
X88395238Y-132704761D01*
X88442857Y-132657142D01*
X88538095Y-132514285D01*
X88585714Y-132323809D01*
X88585714Y-131942857D01*
X88538095Y-131847619D01*
X88490476Y-131800000D01*
X88395238Y-131752380D01*
X88204761Y-131752380D01*
X88109523Y-131800000D01*
X88061904Y-131847619D01*
X88014285Y-131942857D01*
X88014285Y-132180952D01*
X88061904Y-132276190D01*
X88109523Y-132323809D01*
X88204761Y-132371428D01*
X88395238Y-132371428D01*
X88490476Y-132323809D01*
X88538095Y-132276190D01*
X88585714Y-132180952D01*
%TO.C,C22*%
X110082142Y-150342857D02*
X110129761Y-150390476D01*
X110177380Y-150533333D01*
X110177380Y-150628571D01*
X110129761Y-150771428D01*
X110034523Y-150866666D01*
X109939285Y-150914285D01*
X109748809Y-150961904D01*
X109605952Y-150961904D01*
X109415476Y-150914285D01*
X109320238Y-150866666D01*
X109225000Y-150771428D01*
X109177380Y-150628571D01*
X109177380Y-150533333D01*
X109225000Y-150390476D01*
X109272619Y-150342857D01*
X109272619Y-149961904D02*
X109225000Y-149914285D01*
X109177380Y-149819047D01*
X109177380Y-149580952D01*
X109225000Y-149485714D01*
X109272619Y-149438095D01*
X109367857Y-149390476D01*
X109463095Y-149390476D01*
X109605952Y-149438095D01*
X110177380Y-150009523D01*
X110177380Y-149390476D01*
X109272619Y-149009523D02*
X109225000Y-148961904D01*
X109177380Y-148866666D01*
X109177380Y-148628571D01*
X109225000Y-148533333D01*
X109272619Y-148485714D01*
X109367857Y-148438095D01*
X109463095Y-148438095D01*
X109605952Y-148485714D01*
X110177380Y-149057142D01*
X110177380Y-148438095D01*
%TO.C,C23*%
X118532142Y-158832142D02*
X118484523Y-158879761D01*
X118341666Y-158927380D01*
X118246428Y-158927380D01*
X118103571Y-158879761D01*
X118008333Y-158784523D01*
X117960714Y-158689285D01*
X117913095Y-158498809D01*
X117913095Y-158355952D01*
X117960714Y-158165476D01*
X118008333Y-158070238D01*
X118103571Y-157975000D01*
X118246428Y-157927380D01*
X118341666Y-157927380D01*
X118484523Y-157975000D01*
X118532142Y-158022619D01*
X118913095Y-158022619D02*
X118960714Y-157975000D01*
X119055952Y-157927380D01*
X119294047Y-157927380D01*
X119389285Y-157975000D01*
X119436904Y-158022619D01*
X119484523Y-158117857D01*
X119484523Y-158213095D01*
X119436904Y-158355952D01*
X118865476Y-158927380D01*
X119484523Y-158927380D01*
X119817857Y-157927380D02*
X120436904Y-157927380D01*
X120103571Y-158308333D01*
X120246428Y-158308333D01*
X120341666Y-158355952D01*
X120389285Y-158403571D01*
X120436904Y-158498809D01*
X120436904Y-158736904D01*
X120389285Y-158832142D01*
X120341666Y-158879761D01*
X120246428Y-158927380D01*
X119960714Y-158927380D01*
X119865476Y-158879761D01*
X119817857Y-158832142D01*
%TO.C,R13*%
X89202380Y-163717857D02*
X88726190Y-164051190D01*
X89202380Y-164289285D02*
X88202380Y-164289285D01*
X88202380Y-163908333D01*
X88250000Y-163813095D01*
X88297619Y-163765476D01*
X88392857Y-163717857D01*
X88535714Y-163717857D01*
X88630952Y-163765476D01*
X88678571Y-163813095D01*
X88726190Y-163908333D01*
X88726190Y-164289285D01*
X89202380Y-162765476D02*
X89202380Y-163336904D01*
X89202380Y-163051190D02*
X88202380Y-163051190D01*
X88345238Y-163146428D01*
X88440476Y-163241666D01*
X88488095Y-163336904D01*
X88202380Y-162432142D02*
X88202380Y-161813095D01*
X88583333Y-162146428D01*
X88583333Y-162003571D01*
X88630952Y-161908333D01*
X88678571Y-161860714D01*
X88773809Y-161813095D01*
X89011904Y-161813095D01*
X89107142Y-161860714D01*
X89154761Y-161908333D01*
X89202380Y-162003571D01*
X89202380Y-162289285D01*
X89154761Y-162384523D01*
X89107142Y-162432142D01*
%TO.C,D1*%
X112361904Y-139677380D02*
X112361904Y-138677380D01*
X112600000Y-138677380D01*
X112742857Y-138725000D01*
X112838095Y-138820238D01*
X112885714Y-138915476D01*
X112933333Y-139105952D01*
X112933333Y-139248809D01*
X112885714Y-139439285D01*
X112838095Y-139534523D01*
X112742857Y-139629761D01*
X112600000Y-139677380D01*
X112361904Y-139677380D01*
X113885714Y-139677380D02*
X113314285Y-139677380D01*
X113600000Y-139677380D02*
X113600000Y-138677380D01*
X113504761Y-138820238D01*
X113409523Y-138915476D01*
X113314285Y-138963095D01*
%TO.C,R17*%
X121834642Y-133672380D02*
X121501309Y-133196190D01*
X121263214Y-133672380D02*
X121263214Y-132672380D01*
X121644166Y-132672380D01*
X121739404Y-132720000D01*
X121787023Y-132767619D01*
X121834642Y-132862857D01*
X121834642Y-133005714D01*
X121787023Y-133100952D01*
X121739404Y-133148571D01*
X121644166Y-133196190D01*
X121263214Y-133196190D01*
X122787023Y-133672380D02*
X122215595Y-133672380D01*
X122501309Y-133672380D02*
X122501309Y-132672380D01*
X122406071Y-132815238D01*
X122310833Y-132910476D01*
X122215595Y-132958095D01*
X123120357Y-132672380D02*
X123787023Y-132672380D01*
X123358452Y-133672380D01*
%TO.C,J3*%
X128166666Y-128052380D02*
X128166666Y-128766666D01*
X128119047Y-128909523D01*
X128023809Y-129004761D01*
X127880952Y-129052380D01*
X127785714Y-129052380D01*
X128547619Y-128052380D02*
X129166666Y-128052380D01*
X128833333Y-128433333D01*
X128976190Y-128433333D01*
X129071428Y-128480952D01*
X129119047Y-128528571D01*
X129166666Y-128623809D01*
X129166666Y-128861904D01*
X129119047Y-128957142D01*
X129071428Y-129004761D01*
X128976190Y-129052380D01*
X128690476Y-129052380D01*
X128595238Y-129004761D01*
X128547619Y-128957142D01*
%TO.C,U3*%
X111138095Y-140652380D02*
X111138095Y-141461904D01*
X111185714Y-141557142D01*
X111233333Y-141604761D01*
X111328571Y-141652380D01*
X111519047Y-141652380D01*
X111614285Y-141604761D01*
X111661904Y-141557142D01*
X111709523Y-141461904D01*
X111709523Y-140652380D01*
X112090476Y-140652380D02*
X112709523Y-140652380D01*
X112376190Y-141033333D01*
X112519047Y-141033333D01*
X112614285Y-141080952D01*
X112661904Y-141128571D01*
X112709523Y-141223809D01*
X112709523Y-141461904D01*
X112661904Y-141557142D01*
X112614285Y-141604761D01*
X112519047Y-141652380D01*
X112233333Y-141652380D01*
X112138095Y-141604761D01*
X112090476Y-141557142D01*
%TO.C,C4*%
X108983333Y-157032142D02*
X108935714Y-157079761D01*
X108792857Y-157127380D01*
X108697619Y-157127380D01*
X108554761Y-157079761D01*
X108459523Y-156984523D01*
X108411904Y-156889285D01*
X108364285Y-156698809D01*
X108364285Y-156555952D01*
X108411904Y-156365476D01*
X108459523Y-156270238D01*
X108554761Y-156175000D01*
X108697619Y-156127380D01*
X108792857Y-156127380D01*
X108935714Y-156175000D01*
X108983333Y-156222619D01*
X109840476Y-156460714D02*
X109840476Y-157127380D01*
X109602380Y-156079761D02*
X109364285Y-156794047D01*
X109983333Y-156794047D01*
%TO.C,R16*%
X119554642Y-131332380D02*
X119221309Y-130856190D01*
X118983214Y-131332380D02*
X118983214Y-130332380D01*
X119364166Y-130332380D01*
X119459404Y-130380000D01*
X119507023Y-130427619D01*
X119554642Y-130522857D01*
X119554642Y-130665714D01*
X119507023Y-130760952D01*
X119459404Y-130808571D01*
X119364166Y-130856190D01*
X118983214Y-130856190D01*
X120507023Y-131332380D02*
X119935595Y-131332380D01*
X120221309Y-131332380D02*
X120221309Y-130332380D01*
X120126071Y-130475238D01*
X120030833Y-130570476D01*
X119935595Y-130618095D01*
X121364166Y-130332380D02*
X121173690Y-130332380D01*
X121078452Y-130380000D01*
X121030833Y-130427619D01*
X120935595Y-130570476D01*
X120887976Y-130760952D01*
X120887976Y-131141904D01*
X120935595Y-131237142D01*
X120983214Y-131284761D01*
X121078452Y-131332380D01*
X121268928Y-131332380D01*
X121364166Y-131284761D01*
X121411785Y-131237142D01*
X121459404Y-131141904D01*
X121459404Y-130903809D01*
X121411785Y-130808571D01*
X121364166Y-130760952D01*
X121268928Y-130713333D01*
X121078452Y-130713333D01*
X120983214Y-130760952D01*
X120935595Y-130808571D01*
X120887976Y-130903809D01*
%TO.C,R14*%
X107052380Y-153667857D02*
X106576190Y-154001190D01*
X107052380Y-154239285D02*
X106052380Y-154239285D01*
X106052380Y-153858333D01*
X106100000Y-153763095D01*
X106147619Y-153715476D01*
X106242857Y-153667857D01*
X106385714Y-153667857D01*
X106480952Y-153715476D01*
X106528571Y-153763095D01*
X106576190Y-153858333D01*
X106576190Y-154239285D01*
X107052380Y-152715476D02*
X107052380Y-153286904D01*
X107052380Y-153001190D02*
X106052380Y-153001190D01*
X106195238Y-153096428D01*
X106290476Y-153191666D01*
X106338095Y-153286904D01*
X106385714Y-151858333D02*
X107052380Y-151858333D01*
X106004761Y-152096428D02*
X106719047Y-152334523D01*
X106719047Y-151715476D01*
%TO.C,C5*%
X114758333Y-149557142D02*
X114710714Y-149604761D01*
X114567857Y-149652380D01*
X114472619Y-149652380D01*
X114329761Y-149604761D01*
X114234523Y-149509523D01*
X114186904Y-149414285D01*
X114139285Y-149223809D01*
X114139285Y-149080952D01*
X114186904Y-148890476D01*
X114234523Y-148795238D01*
X114329761Y-148700000D01*
X114472619Y-148652380D01*
X114567857Y-148652380D01*
X114710714Y-148700000D01*
X114758333Y-148747619D01*
X115663095Y-148652380D02*
X115186904Y-148652380D01*
X115139285Y-149128571D01*
X115186904Y-149080952D01*
X115282142Y-149033333D01*
X115520238Y-149033333D01*
X115615476Y-149080952D01*
X115663095Y-149128571D01*
X115710714Y-149223809D01*
X115710714Y-149461904D01*
X115663095Y-149557142D01*
X115615476Y-149604761D01*
X115520238Y-149652380D01*
X115282142Y-149652380D01*
X115186904Y-149604761D01*
X115139285Y-149557142D01*
%TO.C,R9*%
X81819880Y-137866666D02*
X81343690Y-138200000D01*
X81819880Y-138438095D02*
X80819880Y-138438095D01*
X80819880Y-138057142D01*
X80867500Y-137961904D01*
X80915119Y-137914285D01*
X81010357Y-137866666D01*
X81153214Y-137866666D01*
X81248452Y-137914285D01*
X81296071Y-137961904D01*
X81343690Y-138057142D01*
X81343690Y-138438095D01*
X81819880Y-137390476D02*
X81819880Y-137200000D01*
X81772261Y-137104761D01*
X81724642Y-137057142D01*
X81581785Y-136961904D01*
X81391309Y-136914285D01*
X81010357Y-136914285D01*
X80915119Y-136961904D01*
X80867500Y-137009523D01*
X80819880Y-137104761D01*
X80819880Y-137295238D01*
X80867500Y-137390476D01*
X80915119Y-137438095D01*
X81010357Y-137485714D01*
X81248452Y-137485714D01*
X81343690Y-137438095D01*
X81391309Y-137390476D01*
X81438928Y-137295238D01*
X81438928Y-137104761D01*
X81391309Y-137009523D01*
X81343690Y-136961904D01*
X81248452Y-136914285D01*
%TO.C,U6*%
X130238095Y-126902380D02*
X130238095Y-127711904D01*
X130285714Y-127807142D01*
X130333333Y-127854761D01*
X130428571Y-127902380D01*
X130619047Y-127902380D01*
X130714285Y-127854761D01*
X130761904Y-127807142D01*
X130809523Y-127711904D01*
X130809523Y-126902380D01*
X131714285Y-126902380D02*
X131523809Y-126902380D01*
X131428571Y-126950000D01*
X131380952Y-126997619D01*
X131285714Y-127140476D01*
X131238095Y-127330952D01*
X131238095Y-127711904D01*
X131285714Y-127807142D01*
X131333333Y-127854761D01*
X131428571Y-127902380D01*
X131619047Y-127902380D01*
X131714285Y-127854761D01*
X131761904Y-127807142D01*
X131809523Y-127711904D01*
X131809523Y-127473809D01*
X131761904Y-127378571D01*
X131714285Y-127330952D01*
X131619047Y-127283333D01*
X131428571Y-127283333D01*
X131333333Y-127330952D01*
X131285714Y-127378571D01*
X131238095Y-127473809D01*
%TO.C,R7*%
X123533333Y-151902380D02*
X123200000Y-151426190D01*
X122961904Y-151902380D02*
X122961904Y-150902380D01*
X123342857Y-150902380D01*
X123438095Y-150950000D01*
X123485714Y-150997619D01*
X123533333Y-151092857D01*
X123533333Y-151235714D01*
X123485714Y-151330952D01*
X123438095Y-151378571D01*
X123342857Y-151426190D01*
X122961904Y-151426190D01*
X123866666Y-150902380D02*
X124533333Y-150902380D01*
X124104761Y-151902380D01*
D11*
%TO.C,R11*%
X89626190Y-136021428D02*
X89388095Y-136188095D01*
X89626190Y-136307142D02*
X89126190Y-136307142D01*
X89126190Y-136116666D01*
X89150000Y-136069047D01*
X89173809Y-136045238D01*
X89221428Y-136021428D01*
X89292857Y-136021428D01*
X89340476Y-136045238D01*
X89364285Y-136069047D01*
X89388095Y-136116666D01*
X89388095Y-136307142D01*
X89626190Y-135545238D02*
X89626190Y-135830952D01*
X89626190Y-135688095D02*
X89126190Y-135688095D01*
X89197619Y-135735714D01*
X89245238Y-135783333D01*
X89269047Y-135830952D01*
X89626190Y-135069047D02*
X89626190Y-135354761D01*
X89626190Y-135211904D02*
X89126190Y-135211904D01*
X89197619Y-135259523D01*
X89245238Y-135307142D01*
X89269047Y-135354761D01*
D10*
%TO.C,J1*%
X121216666Y-128202380D02*
X121216666Y-128916666D01*
X121169047Y-129059523D01*
X121073809Y-129154761D01*
X120930952Y-129202380D01*
X120835714Y-129202380D01*
X122216666Y-129202380D02*
X121645238Y-129202380D01*
X121930952Y-129202380D02*
X121930952Y-128202380D01*
X121835714Y-128345238D01*
X121740476Y-128440476D01*
X121645238Y-128488095D01*
%TO.C,J4*%
X122802380Y-158358333D02*
X123516666Y-158358333D01*
X123659523Y-158405952D01*
X123754761Y-158501190D01*
X123802380Y-158644047D01*
X123802380Y-158739285D01*
X123135714Y-157453571D02*
X123802380Y-157453571D01*
X122754761Y-157691666D02*
X123469047Y-157929761D01*
X123469047Y-157310714D01*
%TO.C,JP2*%
X130641666Y-163127380D02*
X130641666Y-163841666D01*
X130594047Y-163984523D01*
X130498809Y-164079761D01*
X130355952Y-164127380D01*
X130260714Y-164127380D01*
X131117857Y-164127380D02*
X131117857Y-163127380D01*
X131498809Y-163127380D01*
X131594047Y-163175000D01*
X131641666Y-163222619D01*
X131689285Y-163317857D01*
X131689285Y-163460714D01*
X131641666Y-163555952D01*
X131594047Y-163603571D01*
X131498809Y-163651190D01*
X131117857Y-163651190D01*
X132070238Y-163222619D02*
X132117857Y-163175000D01*
X132213095Y-163127380D01*
X132451190Y-163127380D01*
X132546428Y-163175000D01*
X132594047Y-163222619D01*
X132641666Y-163317857D01*
X132641666Y-163413095D01*
X132594047Y-163555952D01*
X132022619Y-164127380D01*
X132641666Y-164127380D01*
X131485714Y-162152380D02*
X130914285Y-162152380D01*
X131200000Y-162152380D02*
X131200000Y-161152380D01*
X131104761Y-161295238D01*
X131009523Y-161390476D01*
X130914285Y-161438095D01*
X136066666Y-161152380D02*
X136685714Y-161152380D01*
X136352380Y-161533333D01*
X136495238Y-161533333D01*
X136590476Y-161580952D01*
X136638095Y-161628571D01*
X136685714Y-161723809D01*
X136685714Y-161961904D01*
X136638095Y-162057142D01*
X136590476Y-162104761D01*
X136495238Y-162152380D01*
X136209523Y-162152380D01*
X136114285Y-162104761D01*
X136066666Y-162057142D01*
%TO.C,R2*%
X123533333Y-153152380D02*
X123200000Y-152676190D01*
X122961904Y-153152380D02*
X122961904Y-152152380D01*
X123342857Y-152152380D01*
X123438095Y-152200000D01*
X123485714Y-152247619D01*
X123533333Y-152342857D01*
X123533333Y-152485714D01*
X123485714Y-152580952D01*
X123438095Y-152628571D01*
X123342857Y-152676190D01*
X122961904Y-152676190D01*
X123914285Y-152247619D02*
X123961904Y-152200000D01*
X124057142Y-152152380D01*
X124295238Y-152152380D01*
X124390476Y-152200000D01*
X124438095Y-152247619D01*
X124485714Y-152342857D01*
X124485714Y-152438095D01*
X124438095Y-152580952D01*
X123866666Y-153152380D01*
X124485714Y-153152380D01*
%TO.C,J7*%
X89641666Y-122702380D02*
X89641666Y-123416666D01*
X89594047Y-123559523D01*
X89498809Y-123654761D01*
X89355952Y-123702380D01*
X89260714Y-123702380D01*
X90022619Y-122702380D02*
X90689285Y-122702380D01*
X90260714Y-123702380D01*
%TO.C,C10*%
X89857142Y-132657142D02*
X89809523Y-132704761D01*
X89666666Y-132752380D01*
X89571428Y-132752380D01*
X89428571Y-132704761D01*
X89333333Y-132609523D01*
X89285714Y-132514285D01*
X89238095Y-132323809D01*
X89238095Y-132180952D01*
X89285714Y-131990476D01*
X89333333Y-131895238D01*
X89428571Y-131800000D01*
X89571428Y-131752380D01*
X89666666Y-131752380D01*
X89809523Y-131800000D01*
X89857142Y-131847619D01*
X90809523Y-132752380D02*
X90238095Y-132752380D01*
X90523809Y-132752380D02*
X90523809Y-131752380D01*
X90428571Y-131895238D01*
X90333333Y-131990476D01*
X90238095Y-132038095D01*
X91428571Y-131752380D02*
X91523809Y-131752380D01*
X91619047Y-131800000D01*
X91666666Y-131847619D01*
X91714285Y-131942857D01*
X91761904Y-132133333D01*
X91761904Y-132371428D01*
X91714285Y-132561904D01*
X91666666Y-132657142D01*
X91619047Y-132704761D01*
X91523809Y-132752380D01*
X91428571Y-132752380D01*
X91333333Y-132704761D01*
X91285714Y-132657142D01*
X91238095Y-132561904D01*
X91190476Y-132371428D01*
X91190476Y-132133333D01*
X91238095Y-131942857D01*
X91285714Y-131847619D01*
X91333333Y-131800000D01*
X91428571Y-131752380D01*
%TO.C,JP1*%
X130666666Y-156277380D02*
X130666666Y-156991666D01*
X130619047Y-157134523D01*
X130523809Y-157229761D01*
X130380952Y-157277380D01*
X130285714Y-157277380D01*
X131142857Y-157277380D02*
X131142857Y-156277380D01*
X131523809Y-156277380D01*
X131619047Y-156325000D01*
X131666666Y-156372619D01*
X131714285Y-156467857D01*
X131714285Y-156610714D01*
X131666666Y-156705952D01*
X131619047Y-156753571D01*
X131523809Y-156801190D01*
X131142857Y-156801190D01*
X132666666Y-157277380D02*
X132095238Y-157277380D01*
X132380952Y-157277380D02*
X132380952Y-156277380D01*
X132285714Y-156420238D01*
X132190476Y-156515476D01*
X132095238Y-156563095D01*
X131485714Y-159152380D02*
X130914285Y-159152380D01*
X131200000Y-159152380D02*
X131200000Y-158152380D01*
X131104761Y-158295238D01*
X131009523Y-158390476D01*
X130914285Y-158438095D01*
X136066666Y-158152380D02*
X136685714Y-158152380D01*
X136352380Y-158533333D01*
X136495238Y-158533333D01*
X136590476Y-158580952D01*
X136638095Y-158628571D01*
X136685714Y-158723809D01*
X136685714Y-158961904D01*
X136638095Y-159057142D01*
X136590476Y-159104761D01*
X136495238Y-159152380D01*
X136209523Y-159152380D01*
X136114285Y-159104761D01*
X136066666Y-159057142D01*
%TO.C,C7*%
X117557142Y-157091666D02*
X117604761Y-157139285D01*
X117652380Y-157282142D01*
X117652380Y-157377380D01*
X117604761Y-157520238D01*
X117509523Y-157615476D01*
X117414285Y-157663095D01*
X117223809Y-157710714D01*
X117080952Y-157710714D01*
X116890476Y-157663095D01*
X116795238Y-157615476D01*
X116700000Y-157520238D01*
X116652380Y-157377380D01*
X116652380Y-157282142D01*
X116700000Y-157139285D01*
X116747619Y-157091666D01*
X116652380Y-156758333D02*
X116652380Y-156091666D01*
X117652380Y-156520238D01*
%TO.C,C15*%
X82882142Y-146342857D02*
X82929761Y-146390476D01*
X82977380Y-146533333D01*
X82977380Y-146628571D01*
X82929761Y-146771428D01*
X82834523Y-146866666D01*
X82739285Y-146914285D01*
X82548809Y-146961904D01*
X82405952Y-146961904D01*
X82215476Y-146914285D01*
X82120238Y-146866666D01*
X82025000Y-146771428D01*
X81977380Y-146628571D01*
X81977380Y-146533333D01*
X82025000Y-146390476D01*
X82072619Y-146342857D01*
X82977380Y-145390476D02*
X82977380Y-145961904D01*
X82977380Y-145676190D02*
X81977380Y-145676190D01*
X82120238Y-145771428D01*
X82215476Y-145866666D01*
X82263095Y-145961904D01*
X81977380Y-144485714D02*
X81977380Y-144961904D01*
X82453571Y-145009523D01*
X82405952Y-144961904D01*
X82358333Y-144866666D01*
X82358333Y-144628571D01*
X82405952Y-144533333D01*
X82453571Y-144485714D01*
X82548809Y-144438095D01*
X82786904Y-144438095D01*
X82882142Y-144485714D01*
X82929761Y-144533333D01*
X82977380Y-144628571D01*
X82977380Y-144866666D01*
X82929761Y-144961904D01*
X82882142Y-145009523D01*
%TO.C,C25*%
X133057142Y-119707142D02*
X133009523Y-119754761D01*
X132866666Y-119802380D01*
X132771428Y-119802380D01*
X132628571Y-119754761D01*
X132533333Y-119659523D01*
X132485714Y-119564285D01*
X132438095Y-119373809D01*
X132438095Y-119230952D01*
X132485714Y-119040476D01*
X132533333Y-118945238D01*
X132628571Y-118850000D01*
X132771428Y-118802380D01*
X132866666Y-118802380D01*
X133009523Y-118850000D01*
X133057142Y-118897619D01*
X133438095Y-118897619D02*
X133485714Y-118850000D01*
X133580952Y-118802380D01*
X133819047Y-118802380D01*
X133914285Y-118850000D01*
X133961904Y-118897619D01*
X134009523Y-118992857D01*
X134009523Y-119088095D01*
X133961904Y-119230952D01*
X133390476Y-119802380D01*
X134009523Y-119802380D01*
X134914285Y-118802380D02*
X134438095Y-118802380D01*
X134390476Y-119278571D01*
X134438095Y-119230952D01*
X134533333Y-119183333D01*
X134771428Y-119183333D01*
X134866666Y-119230952D01*
X134914285Y-119278571D01*
X134961904Y-119373809D01*
X134961904Y-119611904D01*
X134914285Y-119707142D01*
X134866666Y-119754761D01*
X134771428Y-119802380D01*
X134533333Y-119802380D01*
X134438095Y-119754761D01*
X134390476Y-119707142D01*
D12*
%TO.C,R5*%
X91117500Y-137132379D02*
X91117500Y-137467621D01*
X90357500Y-137132379D02*
X90357500Y-137467621D01*
%TO.C,C6*%
X105784165Y-144960000D02*
X106015835Y-144960000D01*
X105784165Y-144240000D02*
X106015835Y-144240000D01*
%TO.C,X1*%
X113600000Y-162000000D02*
X113900000Y-162000000D01*
X115500000Y-163200000D02*
X115500000Y-163600000D01*
X113900000Y-162000000D02*
X113900000Y-160800000D01*
X115500000Y-159600000D02*
X117700000Y-159600000D01*
X119300000Y-160800000D02*
X119300000Y-162000000D01*
X117700000Y-163200000D02*
X115500000Y-163200000D01*
%TO.C,C21*%
X105090000Y-155765835D02*
X105090000Y-155534165D01*
X105810000Y-155765835D02*
X105810000Y-155534165D01*
%TO.C,R1*%
X110930000Y-155165121D02*
X110930000Y-154829879D01*
X110170000Y-155165121D02*
X110170000Y-154829879D01*
%TO.C,C1*%
X113390000Y-157784165D02*
X113390000Y-158015835D01*
X114110000Y-157784165D02*
X114110000Y-158015835D01*
%TO.C,R12*%
X137970000Y-160132379D02*
X137970000Y-160467621D01*
X138730000Y-160132379D02*
X138730000Y-160467621D01*
%TO.C,J2*%
X101825000Y-124680000D02*
X101825000Y-127420000D01*
X100875000Y-118680000D02*
X100875000Y-124680000D01*
X95795000Y-118680000D02*
X95795000Y-124680000D01*
X99995000Y-124680000D02*
X99995000Y-118680000D01*
X94915000Y-129530000D02*
X94915000Y-127420000D01*
X92815000Y-132670000D02*
X91995000Y-132670000D01*
X99995000Y-118680000D02*
X100875000Y-118680000D01*
X91995000Y-132670000D02*
X91995000Y-131100000D01*
X99995000Y-129530000D02*
X99995000Y-127420000D01*
X101825000Y-127420000D02*
X91425000Y-127420000D01*
X93255000Y-118680000D02*
X93255000Y-124680000D01*
X95795000Y-129530000D02*
X95795000Y-127420000D01*
X91425000Y-127420000D02*
X91425000Y-124680000D01*
X98335000Y-118680000D02*
X98335000Y-124680000D01*
X97455000Y-124680000D02*
X97455000Y-118680000D01*
X97455000Y-129530000D02*
X97455000Y-127420000D01*
X97455000Y-118680000D02*
X98335000Y-118680000D01*
X92375000Y-129530000D02*
X92375000Y-127420000D01*
X92375000Y-118680000D02*
X93255000Y-118680000D01*
X94915000Y-124680000D02*
X94915000Y-118680000D01*
X91425000Y-124680000D02*
X101825000Y-124680000D01*
X100875000Y-129530000D02*
X100875000Y-127420000D01*
X92375000Y-124680000D02*
X92375000Y-118680000D01*
X98335000Y-129530000D02*
X98335000Y-127420000D01*
X94915000Y-118680000D02*
X95795000Y-118680000D01*
X93255000Y-129530000D02*
X93255000Y-127420000D01*
%TO.C,R6*%
X126067621Y-153120000D02*
X125732379Y-153120000D01*
X126067621Y-153880000D02*
X125732379Y-153880000D01*
%TO.C,U1*%
X116885000Y-150315000D02*
X116410000Y-150315000D01*
X116885000Y-155535000D02*
X116410000Y-155535000D01*
X111665000Y-150315000D02*
X112140000Y-150315000D01*
X116885000Y-150790000D02*
X116885000Y-150315000D01*
X116885000Y-155060000D02*
X116885000Y-155535000D01*
X111665000Y-155060000D02*
X111665000Y-155535000D01*
X111665000Y-150790000D02*
X111665000Y-150315000D01*
%TO.C,C2*%
X112140835Y-161660000D02*
X111909165Y-161660000D01*
X112140835Y-160940000D02*
X111909165Y-160940000D01*
%TO.C,R10*%
X90117500Y-140267621D02*
X90117500Y-139932379D01*
X89357500Y-140267621D02*
X89357500Y-139932379D01*
%TO.C,C3*%
X109741665Y-160940000D02*
X109973335Y-160940000D01*
X109741665Y-161660000D02*
X109973335Y-161660000D01*
%TO.C,L2*%
X93772742Y-141790000D02*
X92102258Y-141790000D01*
X93772742Y-143610000D02*
X92102258Y-143610000D01*
%TO.C,C8*%
X114184165Y-146660000D02*
X114415835Y-146660000D01*
X114184165Y-145940000D02*
X114415835Y-145940000D01*
%TO.C,R8*%
X82157500Y-140267621D02*
X82157500Y-139932379D01*
X82917500Y-140267621D02*
X82917500Y-139932379D01*
%TO.C,U5*%
X94497500Y-139300000D02*
X94497500Y-140100000D01*
X91377500Y-139300000D02*
X91377500Y-138500000D01*
X94497500Y-139300000D02*
X94497500Y-137500000D01*
X91377500Y-139300000D02*
X91377500Y-140100000D01*
%TO.C,F1*%
X114590000Y-131897936D02*
X114590000Y-133102064D01*
X116410000Y-131897936D02*
X116410000Y-133102064D01*
%TO.C,G\u002A\u002A\u002A*%
G36*
X124227992Y-146201970D02*
G01*
X123944058Y-146201970D01*
X123808058Y-146203090D01*
X123718459Y-146209073D01*
X123659111Y-146223853D01*
X123613859Y-146251366D01*
X123568689Y-146293406D01*
X123502176Y-146379577D01*
X123478306Y-146475990D01*
X123477253Y-146510900D01*
X123494115Y-146663537D01*
X123548974Y-146770621D01*
X123648240Y-146840601D01*
X123751986Y-146873015D01*
X123852622Y-146895118D01*
X123852622Y-146577340D01*
X124227992Y-146577340D01*
X124227992Y-147296798D01*
X123967782Y-147296798D01*
X123713584Y-147281243D01*
X123507824Y-147232516D01*
X123344085Y-147147523D01*
X123215948Y-147023168D01*
X123136039Y-146895783D01*
X123096182Y-146774821D01*
X123074407Y-146619234D01*
X123071525Y-146454012D01*
X123088346Y-146304144D01*
X123114047Y-146217610D01*
X123205103Y-146067244D01*
X123330459Y-145937537D01*
X123460318Y-145854117D01*
X123545404Y-145824377D01*
X123651761Y-145806187D01*
X123795093Y-145797505D01*
X123907364Y-145796007D01*
X124227992Y-145795320D01*
X124227992Y-146201970D01*
G37*
G36*
X123328557Y-140155552D02*
G01*
X123311653Y-140202382D01*
X123266712Y-140292525D01*
X123192441Y-140428438D01*
X123087544Y-140612582D01*
X122956807Y-140837055D01*
X122882772Y-140965950D01*
X122837851Y-141053608D01*
X122817805Y-141111726D01*
X122818397Y-141151997D01*
X122832098Y-141181144D01*
X122860146Y-141227692D01*
X122913453Y-141318645D01*
X122986258Y-141444081D01*
X123072797Y-141594073D01*
X123160292Y-141746446D01*
X123448176Y-142248926D01*
X123947566Y-142631957D01*
X124099133Y-142748862D01*
X124232194Y-142852745D01*
X124339309Y-142937692D01*
X124413035Y-142997790D01*
X124445932Y-143027126D01*
X124446957Y-143028799D01*
X124417121Y-143032700D01*
X124333393Y-143036174D01*
X124204441Y-143039057D01*
X124038933Y-143041185D01*
X123845538Y-143042394D01*
X123716872Y-143042610D01*
X122986786Y-143042610D01*
X122434360Y-142087972D01*
X122306156Y-141866024D01*
X122188480Y-141661524D01*
X122084878Y-141480696D01*
X121998894Y-141329762D01*
X121934077Y-141214944D01*
X121893970Y-141142465D01*
X121881933Y-141118607D01*
X121906894Y-141098073D01*
X121977268Y-141047668D01*
X122086295Y-140972040D01*
X122227212Y-140875838D01*
X122393256Y-140763710D01*
X122577666Y-140640306D01*
X122577930Y-140640130D01*
X122765028Y-140515575D01*
X122936466Y-140401655D01*
X123084919Y-140303220D01*
X123203061Y-140225123D01*
X123283567Y-140172214D01*
X123318720Y-140149574D01*
X123328557Y-140155552D01*
G37*
G36*
X125228977Y-139265107D02*
G01*
X125231027Y-139315506D01*
X125236774Y-139418518D01*
X125245616Y-139564341D01*
X125256950Y-139743175D01*
X125270173Y-139945218D01*
X125278013Y-140062384D01*
X125291615Y-140273561D01*
X125302904Y-140467456D01*
X125311398Y-140634139D01*
X125316613Y-140763674D01*
X125318068Y-140846130D01*
X125317114Y-140867639D01*
X125307341Y-140885376D01*
X125284051Y-140870266D01*
X125243847Y-140817477D01*
X125183333Y-140722182D01*
X125099113Y-140579549D01*
X125030652Y-140460223D01*
X124754125Y-139974796D01*
X123399051Y-139992840D01*
X122828176Y-140233387D01*
X122654304Y-140305670D01*
X122502042Y-140367094D01*
X122379970Y-140414352D01*
X122296672Y-140444137D01*
X122260728Y-140453145D01*
X122259950Y-140452299D01*
X122275817Y-140420188D01*
X122318847Y-140342018D01*
X122384558Y-140225695D01*
X122468462Y-140079124D01*
X122566076Y-139910213D01*
X122622691Y-139812869D01*
X122982784Y-139195074D01*
X125228977Y-139195074D01*
X125228977Y-139265107D01*
G37*
G36*
X125135135Y-144346609D02*
G01*
X124642462Y-144367042D01*
X124451043Y-144374359D01*
X124260965Y-144380530D01*
X124090378Y-144385041D01*
X123957429Y-144387373D01*
X123921451Y-144387580D01*
X123770031Y-144395208D01*
X123651352Y-144416165D01*
X123604214Y-144433655D01*
X123524620Y-144505458D01*
X123467775Y-144615180D01*
X123445972Y-144739058D01*
X123445972Y-144739534D01*
X123467084Y-144840008D01*
X123520145Y-144942561D01*
X123589737Y-145020704D01*
X123620996Y-145040247D01*
X123685105Y-145053792D01*
X123810047Y-145064177D01*
X123994170Y-145071328D01*
X124235819Y-145075172D01*
X124418641Y-145075862D01*
X125138120Y-145075862D01*
X125119494Y-145466872D01*
X124337474Y-145466872D01*
X124094745Y-145466607D01*
X123906120Y-145465396D01*
X123763142Y-145462609D01*
X123657354Y-145457619D01*
X123580299Y-145449800D01*
X123523521Y-145438521D01*
X123478563Y-145423157D01*
X123436967Y-145403079D01*
X123430332Y-145399534D01*
X123272740Y-145291677D01*
X123163670Y-145159631D01*
X123098413Y-144994554D01*
X123072262Y-144787600D01*
X123071290Y-144724958D01*
X123085937Y-144523006D01*
X123129146Y-144371304D01*
X123129811Y-144369831D01*
X123222904Y-144229273D01*
X123356765Y-144108370D01*
X123509606Y-144025997D01*
X123537383Y-144016739D01*
X123613917Y-144004097D01*
X123747600Y-143993986D01*
X123933064Y-143986629D01*
X124164940Y-143982249D01*
X124395845Y-143981034D01*
X125135135Y-143981034D01*
X125135135Y-144346609D01*
G37*
G36*
X124227992Y-148344704D02*
G01*
X124226800Y-148598992D01*
X124223131Y-148793606D01*
X124216845Y-148931391D01*
X124207805Y-149015191D01*
X124195871Y-149047851D01*
X124193583Y-149048522D01*
X124152265Y-149026724D01*
X124088130Y-148971962D01*
X124017371Y-148900180D01*
X123956180Y-148827324D01*
X123930824Y-148789778D01*
X123913634Y-148771767D01*
X123884722Y-148768910D01*
X123835599Y-148784753D01*
X123757777Y-148822841D01*
X123642765Y-148886722D01*
X123498393Y-148970394D01*
X123356942Y-149052596D01*
X123235529Y-149122213D01*
X123143924Y-149173715D01*
X123091901Y-149201573D01*
X123083923Y-149204926D01*
X123077538Y-149176203D01*
X123072824Y-149100260D01*
X123070655Y-148992431D01*
X123070603Y-148971705D01*
X123070603Y-148738484D01*
X123883407Y-148282142D01*
X123883655Y-148164840D01*
X123883903Y-148047537D01*
X123070603Y-148047537D01*
X123070603Y-147680881D01*
X123234827Y-147661156D01*
X123330120Y-147653544D01*
X123469528Y-147647250D01*
X123634606Y-147642911D01*
X123806910Y-147641165D01*
X123813521Y-147641158D01*
X124227992Y-147640886D01*
X124227992Y-148344704D01*
G37*
%TO.C,C16*%
X92226248Y-144340000D02*
X93648752Y-144340000D01*
X92226248Y-147060000D02*
X93648752Y-147060000D01*
%TO.C,C24*%
X129334165Y-121310000D02*
X129565835Y-121310000D01*
X129334165Y-120590000D02*
X129565835Y-120590000D01*
%TO.C,D3*%
X111700000Y-133660000D02*
X113375000Y-133660000D01*
X111700000Y-130540000D02*
X112350000Y-130540000D01*
X111700000Y-133660000D02*
X111050000Y-133660000D01*
X111700000Y-130540000D02*
X111050000Y-130540000D01*
%TO.C,R3*%
X125732379Y-150880000D02*
X126067621Y-150880000D01*
X125732379Y-150120000D02*
X126067621Y-150120000D01*
%TO.C,C26*%
X127490000Y-122698335D02*
X127490000Y-122466665D01*
X128210000Y-122698335D02*
X128210000Y-122466665D01*
%TO.C,R4*%
X83917500Y-137132379D02*
X83917500Y-137467621D01*
X83157500Y-137132379D02*
X83157500Y-137467621D01*
%TO.C,C13*%
X87577500Y-140184165D02*
X87577500Y-140415835D01*
X88297500Y-140184165D02*
X88297500Y-140415835D01*
%TO.C,J5*%
X101065000Y-162960000D02*
X101065000Y-163410000D01*
X101065000Y-163410000D02*
X105535000Y-163410000D01*
X105535000Y-158990000D02*
X104585000Y-158990000D01*
X105535000Y-159440000D02*
X105535000Y-158990000D01*
X105535000Y-163410000D02*
X105535000Y-162960000D01*
X101065000Y-159440000D02*
X101065000Y-158990000D01*
X101065000Y-158990000D02*
X102015000Y-158990000D01*
X102015000Y-158990000D02*
X102015000Y-157500000D01*
%TO.C,C14*%
X95497500Y-140184165D02*
X95497500Y-140415835D01*
X94777500Y-140184165D02*
X94777500Y-140415835D01*
%TO.C,C17*%
X85026248Y-147740000D02*
X86448752Y-147740000D01*
X85026248Y-150460000D02*
X86448752Y-150460000D01*
%TO.C,L1*%
X86572742Y-143610000D02*
X84902258Y-143610000D01*
X86572742Y-141790000D02*
X84902258Y-141790000D01*
%TO.C,J6*%
X144010000Y-127435000D02*
X144010000Y-122965000D01*
X140040000Y-127435000D02*
X139590000Y-127435000D01*
X140040000Y-122965000D02*
X139590000Y-122965000D01*
X139590000Y-122965000D02*
X139590000Y-123915000D01*
X139590000Y-127435000D02*
X139590000Y-126485000D01*
X143560000Y-127435000D02*
X144010000Y-127435000D01*
X144010000Y-122965000D02*
X143560000Y-122965000D01*
X139590000Y-126485000D02*
X138100000Y-126485000D01*
%TO.C,C12*%
X92821665Y-137060000D02*
X93053335Y-137060000D01*
X92821665Y-136340000D02*
X93053335Y-136340000D01*
%TO.C,JP4*%
X92900000Y-157700000D02*
X95700000Y-157700000D01*
X96350000Y-158400000D02*
X96350000Y-159000000D01*
X95700000Y-159700000D02*
X92900000Y-159700000D01*
X92250000Y-159000000D02*
X92250000Y-158400000D01*
X96350000Y-158400000D02*
G75*
G03*
X95650000Y-157700000I-699999J1D01*
G01*
X92250000Y-159000000D02*
G75*
G03*
X92950000Y-159700000I699999J-1D01*
G01*
X92950000Y-157700000D02*
G75*
G03*
X92250000Y-158400000I-1J-699999D01*
G01*
X95650000Y-159700000D02*
G75*
G03*
X96350000Y-159000000I1J699999D01*
G01*
%TO.C,Y1*%
X111050000Y-159200000D02*
X110850000Y-159200000D01*
X111050000Y-160600000D02*
X110850000Y-160600000D01*
X112500000Y-160500000D02*
X112500000Y-159300000D01*
%TO.C,C11*%
X85589165Y-137060000D02*
X85820835Y-137060000D01*
X85589165Y-136340000D02*
X85820835Y-136340000D01*
%TO.C,C19*%
X136990000Y-160184165D02*
X136990000Y-160415835D01*
X137710000Y-160184165D02*
X137710000Y-160415835D01*
%TO.C,C18*%
X92226248Y-147740000D02*
X93648752Y-147740000D01*
X92226248Y-150460000D02*
X93648752Y-150460000D01*
%TO.C,JP5*%
X120350000Y-155700000D02*
X120350000Y-155100000D01*
X123800000Y-156400000D02*
X121000000Y-156400000D01*
X124450000Y-155100000D02*
X124450000Y-155700000D01*
X121000000Y-154400000D02*
X123800000Y-154400000D01*
X124450000Y-155100000D02*
G75*
G03*
X123750000Y-154400000I-699999J1D01*
G01*
X123750000Y-156400000D02*
G75*
G03*
X124450000Y-155700000I1J699999D01*
G01*
X121050000Y-154400000D02*
G75*
G03*
X120350000Y-155100000I-1J-699999D01*
G01*
X120350000Y-155700000D02*
G75*
G03*
X121050000Y-156400000I699999J-1D01*
G01*
%TO.C,R15*%
X108120000Y-147292621D02*
X108120000Y-146957379D01*
X108880000Y-147292621D02*
X108880000Y-146957379D01*
%TO.C,JP3*%
X96350000Y-161400000D02*
X96350000Y-162000000D01*
X92250000Y-162000000D02*
X92250000Y-161400000D01*
X92900000Y-160700000D02*
X95700000Y-160700000D01*
X95700000Y-162700000D02*
X92900000Y-162700000D01*
X96350000Y-161400000D02*
G75*
G03*
X95650000Y-160700000I-699999J1D01*
G01*
X92950000Y-160700000D02*
G75*
G03*
X92250000Y-161400000I-1J-699999D01*
G01*
X92250000Y-162000000D02*
G75*
G03*
X92950000Y-162700000I699999J-1D01*
G01*
X95650000Y-162700000D02*
G75*
G03*
X96350000Y-162000000I1J699999D01*
G01*
%TO.C,D2*%
X109450000Y-139300000D02*
X109450000Y-132400000D01*
X106150000Y-139300000D02*
X109450000Y-139300000D01*
X106150000Y-139300000D02*
X106150000Y-132400000D01*
%TO.C,U4*%
X84177500Y-139300000D02*
X84177500Y-140100000D01*
X87297500Y-139300000D02*
X87297500Y-137500000D01*
X87297500Y-139300000D02*
X87297500Y-140100000D01*
X84177500Y-139300000D02*
X84177500Y-138500000D01*
D13*
%TO.C,U2*%
X98725000Y-151600000D02*
X106725000Y-151600000D01*
X103725000Y-145200000D02*
X106725000Y-145200000D01*
D12*
%TO.C,C20*%
X91110000Y-160365835D02*
X91110000Y-160134165D01*
X90390000Y-160365835D02*
X90390000Y-160134165D01*
%TO.C,C9*%
X85026248Y-135860000D02*
X86448752Y-135860000D01*
X85026248Y-133140000D02*
X86448752Y-133140000D01*
%TO.C,C22*%
X109860000Y-147240835D02*
X109860000Y-147009165D01*
X109140000Y-147240835D02*
X109140000Y-147009165D01*
%TO.C,C23*%
X116715835Y-158860000D02*
X116484165Y-158860000D01*
X116715835Y-158140000D02*
X116484165Y-158140000D01*
%TO.C,R13*%
X90130000Y-160417621D02*
X90130000Y-160082379D01*
X89370000Y-160417621D02*
X89370000Y-160082379D01*
%TO.C,D1*%
X109700000Y-135150000D02*
X109700000Y-138450000D01*
X109700000Y-135150000D02*
X115100000Y-135150000D01*
X109700000Y-138450000D02*
X115100000Y-138450000D01*
%TO.C,R17*%
X122645121Y-132430000D02*
X122309879Y-132430000D01*
X122645121Y-131670000D02*
X122309879Y-131670000D01*
%TO.C,J3*%
X129400000Y-155140000D02*
X130740000Y-155140000D01*
X133460000Y-155140000D02*
X135200000Y-155140000D01*
X129400000Y-129340000D02*
X130740000Y-129340000D01*
X135200000Y-155140000D02*
X135200000Y-129340000D01*
X135200000Y-129340000D02*
X133460000Y-129340000D01*
X129400000Y-153650000D02*
X129400000Y-155140000D01*
X129400000Y-130830000D02*
X129400000Y-129340000D01*
X129400000Y-153650000D02*
X128200000Y-153650000D01*
%TO.C,U3*%
X115860000Y-145210000D02*
X115860000Y-142090000D01*
X112740000Y-142090000D02*
X112890000Y-142090000D01*
X115860000Y-142090000D02*
X115710000Y-142090000D01*
X112740000Y-143650000D02*
X112740000Y-142090000D01*
X115860000Y-145210000D02*
X115710000Y-145210000D01*
%TO.C,C4*%
X111333335Y-156340000D02*
X111101665Y-156340000D01*
X111333335Y-157060000D02*
X111101665Y-157060000D01*
%TO.C,R16*%
X120029879Y-131670000D02*
X120365121Y-131670000D01*
X120029879Y-132430000D02*
X120365121Y-132430000D01*
%TO.C,R14*%
X106070000Y-155817621D02*
X106070000Y-155482379D01*
X106830000Y-155817621D02*
X106830000Y-155482379D01*
%TO.C,C5*%
X116834165Y-148840000D02*
X117065835Y-148840000D01*
X116834165Y-149560000D02*
X117065835Y-149560000D01*
%TO.C,R9*%
X82157500Y-137867621D02*
X82157500Y-137532379D01*
X82917500Y-137867621D02*
X82917500Y-137532379D01*
%TO.C,U6*%
X129615000Y-121990000D02*
X128890000Y-121990000D01*
X133110000Y-121990000D02*
X133110000Y-122715000D01*
X128890000Y-121990000D02*
X128890000Y-122715000D01*
X132385000Y-121990000D02*
X133110000Y-121990000D01*
X132385000Y-126210000D02*
X133110000Y-126210000D01*
X128890000Y-126210000D02*
X128890000Y-125485000D01*
X129615000Y-126210000D02*
X128890000Y-126210000D01*
%TO.C,R7*%
X126070121Y-151880000D02*
X125734879Y-151880000D01*
X126070121Y-151120000D02*
X125734879Y-151120000D01*
%TO.C,R11*%
X90117500Y-137867621D02*
X90117500Y-137532379D01*
X89357500Y-137867621D02*
X89357500Y-137532379D01*
%TO.C,J1*%
X121535000Y-127910000D02*
X120585000Y-127910000D01*
X121535000Y-123490000D02*
X107065000Y-123490000D01*
X121535000Y-127460000D02*
X121535000Y-127910000D01*
X107065000Y-127910000D02*
X108015000Y-127910000D01*
X120585000Y-127910000D02*
X120585000Y-129400000D01*
X121535000Y-123940000D02*
X121535000Y-123490000D01*
X107065000Y-123490000D02*
X107065000Y-123940000D01*
X107065000Y-127460000D02*
X107065000Y-127910000D01*
%TO.C,J4*%
X123065000Y-158990000D02*
X124015000Y-158990000D01*
X127535000Y-158990000D02*
X126585000Y-158990000D01*
X123065000Y-163410000D02*
X127535000Y-163410000D01*
X124015000Y-158990000D02*
X124015000Y-157500000D01*
X127535000Y-159440000D02*
X127535000Y-158990000D01*
X123065000Y-159440000D02*
X123065000Y-158990000D01*
X127535000Y-163410000D02*
X127535000Y-162960000D01*
X123065000Y-162960000D02*
X123065000Y-163410000D01*
%TO.C,JP2*%
X132400000Y-160700000D02*
X135200000Y-160700000D01*
X131750000Y-162000000D02*
X131750000Y-161400000D01*
X135200000Y-162700000D02*
X132400000Y-162700000D01*
X135850000Y-161400000D02*
X135850000Y-162000000D01*
X135850000Y-161400000D02*
G75*
G03*
X135150000Y-160700000I-699999J1D01*
G01*
X135150000Y-162700000D02*
G75*
G03*
X135850000Y-162000000I1J699999D01*
G01*
X131750000Y-162000000D02*
G75*
G03*
X132450000Y-162700000I699999J-1D01*
G01*
X132450000Y-160700000D02*
G75*
G03*
X131750000Y-161400000I-1J-699999D01*
G01*
%TO.C,R2*%
X125734879Y-152120000D02*
X126070121Y-152120000D01*
X125734879Y-152880000D02*
X126070121Y-152880000D01*
%TO.C,J7*%
X89010000Y-127435000D02*
X89010000Y-126485000D01*
X88560000Y-127435000D02*
X89010000Y-127435000D01*
X89010000Y-122965000D02*
X89010000Y-123915000D01*
X84590000Y-127435000D02*
X85040000Y-127435000D01*
X89010000Y-123915000D02*
X90500000Y-123915000D01*
X88560000Y-122965000D02*
X89010000Y-122965000D01*
X85040000Y-122965000D02*
X84590000Y-122965000D01*
X84590000Y-122965000D02*
X84590000Y-127435000D01*
%TO.C,C10*%
X92226248Y-133140000D02*
X93648752Y-133140000D01*
X92226248Y-135860000D02*
X93648752Y-135860000D01*
%TO.C,JP1*%
X132400000Y-157700000D02*
X135200000Y-157700000D01*
X131750000Y-159000000D02*
X131750000Y-158400000D01*
X135850000Y-158400000D02*
X135850000Y-159000000D01*
X135200000Y-159700000D02*
X132400000Y-159700000D01*
X132450000Y-157700000D02*
G75*
G03*
X131750000Y-158400000I-1J-699999D01*
G01*
X131750000Y-159000000D02*
G75*
G03*
X132450000Y-159700000I699999J-1D01*
G01*
X135850000Y-158400000D02*
G75*
G03*
X135150000Y-157700000I-699999J1D01*
G01*
X135150000Y-159700000D02*
G75*
G03*
X135850000Y-159000000I1J699999D01*
G01*
%TO.C,C7*%
X114390000Y-157784165D02*
X114390000Y-158015835D01*
X115110000Y-157784165D02*
X115110000Y-158015835D01*
%TO.C,C15*%
X85026248Y-147060000D02*
X86448752Y-147060000D01*
X85026248Y-144340000D02*
X86448752Y-144340000D01*
%TO.C,C25*%
X132351665Y-121260000D02*
X132583335Y-121260000D01*
X132351665Y-120540000D02*
X132583335Y-120540000D01*
%TD*%
D14*
%TO.C,J2*%
X92815000Y-121680000D03*
%TD*%
M02*
