%TF.GenerationSoftware,KiCad,Pcbnew,(6.0.1)*%
%TF.CreationDate,2022-03-14T14:07:41+00:00*%
%TF.ProjectId,UGR-22 Screen,5547522d-3232-4205-9363-7265656e2e6b,rev?*%
%TF.SameCoordinates,Original*%
%TF.FileFunction,Soldermask,Top*%
%TF.FilePolarity,Negative*%
%FSLAX46Y46*%
G04 Gerber Fmt 4.6, Leading zero omitted, Abs format (unit mm)*
G04 Created by KiCad (PCBNEW (6.0.1)) date 2022-03-14 14:07:41*
%MOMM*%
%LPD*%
G01*
G04 APERTURE LIST*
G04 Aperture macros list*
%AMRoundRect*
0 Rectangle with rounded corners*
0 $1 Rounding radius*
0 $2 $3 $4 $5 $6 $7 $8 $9 X,Y pos of 4 corners*
0 Add a 4 corners polygon primitive as box body*
4,1,4,$2,$3,$4,$5,$6,$7,$8,$9,$2,$3,0*
0 Add four circle primitives for the rounded corners*
1,1,$1+$1,$2,$3*
1,1,$1+$1,$4,$5*
1,1,$1+$1,$6,$7*
1,1,$1+$1,$8,$9*
0 Add four rect primitives between the rounded corners*
20,1,$1+$1,$2,$3,$4,$5,0*
20,1,$1+$1,$4,$5,$6,$7,0*
20,1,$1+$1,$6,$7,$8,$9,0*
20,1,$1+$1,$8,$9,$2,$3,0*%
%AMFreePoly0*
4,1,22,0.550000,-0.750000,0.000000,-0.750000,0.000000,-0.745033,-0.079941,-0.743568,-0.215256,-0.701293,-0.333266,-0.622738,-0.424486,-0.514219,-0.481581,-0.384460,-0.499164,-0.250000,-0.500000,-0.250000,-0.500000,0.250000,-0.499164,0.250000,-0.499963,0.256109,-0.478152,0.396186,-0.417904,0.524511,-0.324060,0.630769,-0.204165,0.706417,-0.067858,0.745374,0.000000,0.744959,0.000000,0.750000,
0.550000,0.750000,0.550000,-0.750000,0.550000,-0.750000,$1*%
%AMFreePoly1*
4,1,20,0.000000,0.744959,0.073905,0.744508,0.209726,0.703889,0.328688,0.626782,0.421226,0.519385,0.479903,0.390333,0.500000,0.250000,0.500000,-0.250000,0.499851,-0.262216,0.476331,-0.402017,0.414519,-0.529596,0.319384,-0.634700,0.198574,-0.708877,0.061801,-0.746166,0.000000,-0.745033,0.000000,-0.750000,-0.550000,-0.750000,-0.550000,0.750000,0.000000,0.750000,0.000000,0.744959,
0.000000,0.744959,$1*%
G04 Aperture macros list end*
%ADD10RoundRect,0.160000X-0.160000X0.197500X-0.160000X-0.197500X0.160000X-0.197500X0.160000X0.197500X0*%
%ADD11RoundRect,0.155000X-0.212500X-0.155000X0.212500X-0.155000X0.212500X0.155000X-0.212500X0.155000X0*%
%ADD12R,1.500000X1.200000*%
%ADD13RoundRect,0.155000X0.155000X-0.212500X0.155000X0.212500X-0.155000X0.212500X-0.155000X-0.212500X0*%
%ADD14RoundRect,0.160000X0.160000X-0.197500X0.160000X0.197500X-0.160000X0.197500X-0.160000X-0.197500X0*%
%ADD15RoundRect,0.155000X-0.155000X0.212500X-0.155000X-0.212500X0.155000X-0.212500X0.155000X0.212500X0*%
%ADD16R,1.000000X2.500000*%
%ADD17RoundRect,0.160000X0.197500X0.160000X-0.197500X0.160000X-0.197500X-0.160000X0.197500X-0.160000X0*%
%ADD18RoundRect,0.062500X0.062500X-0.375000X0.062500X0.375000X-0.062500X0.375000X-0.062500X-0.375000X0*%
%ADD19RoundRect,0.062500X0.375000X-0.062500X0.375000X0.062500X-0.375000X0.062500X-0.375000X-0.062500X0*%
%ADD20R,3.500000X3.500000*%
%ADD21RoundRect,0.155000X0.212500X0.155000X-0.212500X0.155000X-0.212500X-0.155000X0.212500X-0.155000X0*%
%ADD22RoundRect,0.250000X0.362500X0.700000X-0.362500X0.700000X-0.362500X-0.700000X0.362500X-0.700000X0*%
%ADD23RoundRect,0.150000X-0.150000X0.512500X-0.150000X-0.512500X0.150000X-0.512500X0.150000X0.512500X0*%
%ADD24RoundRect,0.250001X-0.624999X0.462499X-0.624999X-0.462499X0.624999X-0.462499X0.624999X0.462499X0*%
%ADD25RoundRect,0.250000X-0.412500X-1.100000X0.412500X-1.100000X0.412500X1.100000X-0.412500X1.100000X0*%
%ADD26RoundRect,0.150000X0.587500X0.150000X-0.587500X0.150000X-0.587500X-0.150000X0.587500X-0.150000X0*%
%ADD27RoundRect,0.160000X-0.197500X-0.160000X0.197500X-0.160000X0.197500X0.160000X-0.197500X0.160000X0*%
%ADD28RoundRect,0.200000X-0.200000X-0.600000X0.200000X-0.600000X0.200000X0.600000X-0.200000X0.600000X0*%
%ADD29RoundRect,0.250001X-0.799999X-1.249999X0.799999X-1.249999X0.799999X1.249999X-0.799999X1.249999X0*%
%ADD30RoundRect,0.200000X0.600000X-0.200000X0.600000X0.200000X-0.600000X0.200000X-0.600000X-0.200000X0*%
%ADD31RoundRect,0.250001X1.249999X-0.799999X1.249999X0.799999X-1.249999X0.799999X-1.249999X-0.799999X0*%
%ADD32FreePoly0,180.000000*%
%ADD33R,1.000000X1.500000*%
%ADD34FreePoly1,180.000000*%
%ADD35R,1.050000X1.200000*%
%ADD36FreePoly0,0.000000*%
%ADD37FreePoly1,0.000000*%
%ADD38R,1.800000X3.500000*%
%ADD39RoundRect,0.125000X-0.262500X-0.125000X0.262500X-0.125000X0.262500X0.125000X-0.262500X0.125000X0*%
%ADD40R,3.400000X4.300000*%
%ADD41R,2.500000X1.800000*%
%ADD42R,1.300000X0.300000*%
%ADD43R,2.200000X1.800000*%
%ADD44R,0.350000X0.650000*%
%ADD45R,2.400000X1.550000*%
%ADD46RoundRect,0.062500X0.337500X0.062500X-0.337500X0.062500X-0.337500X-0.062500X0.337500X-0.062500X0*%
%ADD47RoundRect,0.062500X0.062500X0.337500X-0.062500X0.337500X-0.062500X-0.337500X0.062500X-0.337500X0*%
%ADD48R,2.700000X2.700000*%
%ADD49RoundRect,0.200000X0.200000X0.600000X-0.200000X0.600000X-0.200000X-0.600000X0.200000X-0.600000X0*%
%ADD50RoundRect,0.250001X0.799999X1.249999X-0.799999X1.249999X-0.799999X-1.249999X0.799999X-1.249999X0*%
%ADD51RoundRect,0.200000X-0.600000X0.200000X-0.600000X-0.200000X0.600000X-0.200000X0.600000X0.200000X0*%
%ADD52RoundRect,0.250001X-1.249999X0.799999X-1.249999X-0.799999X1.249999X-0.799999X1.249999X0.799999X0*%
G04 APERTURE END LIST*
%TO.C,G\u002A\u002A\u002A*%
G36*
X125610571Y-139896477D02*
G01*
X125653961Y-139957001D01*
X125719540Y-140058270D01*
X125802965Y-140193452D01*
X125899895Y-140355712D01*
X125969775Y-140475385D01*
X126338469Y-141112299D01*
X125940422Y-141802959D01*
X125821477Y-142009382D01*
X125703400Y-142214374D01*
X125592787Y-142406476D01*
X125496236Y-142574229D01*
X125420343Y-142706174D01*
X125387243Y-142763780D01*
X125232112Y-143033941D01*
X124759629Y-142807802D01*
X124570568Y-142716652D01*
X124371885Y-142619742D01*
X124183122Y-142526673D01*
X124023821Y-142447048D01*
X123974339Y-142421936D01*
X123661531Y-142262210D01*
X124214147Y-142260612D01*
X124766762Y-142259013D01*
X125097537Y-141686083D01*
X125428313Y-141113152D01*
X125507329Y-140520873D01*
X125532444Y-140333132D01*
X125555052Y-140165097D01*
X125573732Y-140027253D01*
X125587063Y-139930087D01*
X125593623Y-139884085D01*
X125593713Y-139883532D01*
X125610571Y-139896477D01*
G37*
G36*
X125142132Y-148178902D02*
G01*
X125137748Y-148377377D01*
X125132486Y-148524041D01*
X125124995Y-148629644D01*
X125113924Y-148704933D01*
X125097921Y-148760658D01*
X125075637Y-148807569D01*
X125059770Y-148834222D01*
X124938813Y-148971488D01*
X124778937Y-149064063D01*
X124670337Y-149094720D01*
X124553034Y-149116468D01*
X124553034Y-148913053D01*
X124554760Y-148802877D01*
X124563630Y-148739646D01*
X124585184Y-148707763D01*
X124624961Y-148691632D01*
X124632342Y-148689732D01*
X124695846Y-148656625D01*
X124738326Y-148589276D01*
X124762668Y-148479188D01*
X124771757Y-148317862D01*
X124771999Y-148278528D01*
X124771999Y-148045959D01*
X124553034Y-148045959D01*
X124553034Y-147639308D01*
X125152536Y-147639308D01*
X125142132Y-148178902D01*
G37*
G36*
X124611510Y-145807215D02*
G01*
X124623415Y-145810665D01*
X124798292Y-145888655D01*
X124952623Y-146004898D01*
X125035550Y-146100078D01*
X125090958Y-146190976D01*
X125122634Y-146282110D01*
X125138722Y-146400185D01*
X125141971Y-146449130D01*
X125139392Y-146646512D01*
X125102894Y-146805903D01*
X125027013Y-146945026D01*
X124966080Y-147019806D01*
X124832904Y-147143448D01*
X124689912Y-147222980D01*
X124623415Y-147246444D01*
X124585619Y-147254622D01*
X124564548Y-147241303D01*
X124555326Y-147193923D01*
X124553078Y-147099921D01*
X124553034Y-147065128D01*
X124555968Y-146950128D01*
X124569418Y-146875546D01*
X124600350Y-146819338D01*
X124646876Y-146768259D01*
X124709019Y-146692843D01*
X124735988Y-146613018D01*
X124740718Y-146528840D01*
X124732163Y-146423883D01*
X124698090Y-146347974D01*
X124646876Y-146289422D01*
X124595077Y-146231274D01*
X124566821Y-146173920D01*
X124555138Y-146095317D01*
X124553034Y-145992553D01*
X124554251Y-145883884D01*
X124561152Y-145825172D01*
X124578613Y-145803815D01*
X124611510Y-145807215D01*
G37*
%TD*%
D10*
%TO.C,R5*%
X90737500Y-136702500D03*
X90737500Y-137897500D03*
%TD*%
D11*
%TO.C,C6*%
X105332500Y-144600000D03*
X106467500Y-144600000D03*
%TD*%
D12*
%TO.C,X1*%
X114550000Y-162800000D03*
X118650000Y-162800000D03*
X118650000Y-160000000D03*
X114550000Y-160000000D03*
%TD*%
D13*
%TO.C,C21*%
X105450000Y-156217500D03*
X105450000Y-155082500D03*
%TD*%
D14*
%TO.C,R1*%
X110550000Y-155595000D03*
X110550000Y-154400000D03*
%TD*%
D15*
%TO.C,C1*%
X113750000Y-157332500D03*
X113750000Y-158467500D03*
%TD*%
D10*
%TO.C,R12*%
X138350000Y-159702500D03*
X138350000Y-160897500D03*
%TD*%
D16*
%TO.C,J2*%
X92815000Y-131100000D03*
X95355000Y-131100000D03*
X97895000Y-131100000D03*
X100435000Y-131100000D03*
%TD*%
D17*
%TO.C,R6*%
X126497500Y-153500000D03*
X125302500Y-153500000D03*
%TD*%
D18*
%TO.C,U1*%
X112525000Y-155362500D03*
X113025000Y-155362500D03*
X113525000Y-155362500D03*
X114025000Y-155362500D03*
X114525000Y-155362500D03*
X115025000Y-155362500D03*
X115525000Y-155362500D03*
X116025000Y-155362500D03*
D19*
X116712500Y-154675000D03*
X116712500Y-154175000D03*
X116712500Y-153675000D03*
X116712500Y-153175000D03*
X116712500Y-152675000D03*
X116712500Y-152175000D03*
X116712500Y-151675000D03*
X116712500Y-151175000D03*
D18*
X116025000Y-150487500D03*
X115525000Y-150487500D03*
X115025000Y-150487500D03*
X114525000Y-150487500D03*
X114025000Y-150487500D03*
X113525000Y-150487500D03*
X113025000Y-150487500D03*
X112525000Y-150487500D03*
D19*
X111837500Y-151175000D03*
X111837500Y-151675000D03*
X111837500Y-152175000D03*
X111837500Y-152675000D03*
X111837500Y-153175000D03*
X111837500Y-153675000D03*
X111837500Y-154175000D03*
X111837500Y-154675000D03*
D20*
X114275000Y-152925000D03*
%TD*%
D21*
%TO.C,C2*%
X112592500Y-161300000D03*
X111457500Y-161300000D03*
%TD*%
D14*
%TO.C,R10*%
X89737500Y-140697500D03*
X89737500Y-139502500D03*
%TD*%
D11*
%TO.C,C3*%
X109290000Y-161300000D03*
X110425000Y-161300000D03*
%TD*%
D22*
%TO.C,L2*%
X94600000Y-142700000D03*
X91275000Y-142700000D03*
%TD*%
D11*
%TO.C,C8*%
X113732500Y-146300000D03*
X114867500Y-146300000D03*
%TD*%
D14*
%TO.C,R8*%
X82537500Y-140697500D03*
X82537500Y-139502500D03*
%TD*%
D23*
%TO.C,U5*%
X93887500Y-138162500D03*
X92937500Y-138162500D03*
X91987500Y-138162500D03*
X91987500Y-140437500D03*
X92937500Y-140437500D03*
X93887500Y-140437500D03*
%TD*%
D24*
%TO.C,F1*%
X115500000Y-131012500D03*
X115500000Y-133987500D03*
%TD*%
D25*
%TO.C,C16*%
X91375000Y-145700000D03*
X94500000Y-145700000D03*
%TD*%
D11*
%TO.C,C24*%
X128882500Y-120950000D03*
X130017500Y-120950000D03*
%TD*%
D26*
%TO.C,D3*%
X112637500Y-133050000D03*
X112637500Y-131150000D03*
X110762500Y-132100000D03*
%TD*%
D27*
%TO.C,R3*%
X125302500Y-150500000D03*
X126497500Y-150500000D03*
%TD*%
D13*
%TO.C,C26*%
X127850000Y-123150000D03*
X127850000Y-122015000D03*
%TD*%
D10*
%TO.C,R4*%
X83537500Y-136702500D03*
X83537500Y-137897500D03*
%TD*%
D15*
%TO.C,C13*%
X87937500Y-139732500D03*
X87937500Y-140867500D03*
%TD*%
D28*
%TO.C,J5*%
X102675000Y-158300000D03*
X103925000Y-158300000D03*
D29*
X106475000Y-161200000D03*
X100125000Y-161200000D03*
%TD*%
D15*
%TO.C,C14*%
X95137500Y-139732500D03*
X95137500Y-140867500D03*
%TD*%
D25*
%TO.C,C17*%
X84175000Y-149100000D03*
X87300000Y-149100000D03*
%TD*%
D22*
%TO.C,L1*%
X87400000Y-142700000D03*
X84075000Y-142700000D03*
%TD*%
D30*
%TO.C,J6*%
X138900000Y-125825000D03*
X138900000Y-124575000D03*
D31*
X141800000Y-128375000D03*
X141800000Y-122025000D03*
%TD*%
D11*
%TO.C,C12*%
X92370000Y-136700000D03*
X93505000Y-136700000D03*
%TD*%
D32*
%TO.C,JP4*%
X95600000Y-158700000D03*
D33*
X94300000Y-158700000D03*
D34*
X93000000Y-158700000D03*
%TD*%
D35*
%TO.C,Y1*%
X111775000Y-159900000D03*
X110125000Y-159900000D03*
%TD*%
D11*
%TO.C,C11*%
X85137500Y-136700000D03*
X86272500Y-136700000D03*
%TD*%
D15*
%TO.C,C19*%
X137350000Y-159732500D03*
X137350000Y-160867500D03*
%TD*%
D25*
%TO.C,C18*%
X91375000Y-149100000D03*
X94500000Y-149100000D03*
%TD*%
D36*
%TO.C,JP5*%
X121100000Y-155400000D03*
D33*
X122400000Y-155400000D03*
D37*
X123700000Y-155400000D03*
%TD*%
D14*
%TO.C,R15*%
X108500000Y-147722500D03*
X108500000Y-146527500D03*
%TD*%
D32*
%TO.C,JP3*%
X95600000Y-161700000D03*
D33*
X94300000Y-161700000D03*
D34*
X93000000Y-161700000D03*
%TD*%
D38*
%TO.C,D2*%
X107800000Y-137400000D03*
X107800000Y-132400000D03*
%TD*%
D23*
%TO.C,U4*%
X86687500Y-138162500D03*
X85737500Y-138162500D03*
X84787500Y-138162500D03*
X84787500Y-140437500D03*
X85737500Y-140437500D03*
X86687500Y-140437500D03*
%TD*%
D39*
%TO.C,U2*%
X98825000Y-146500000D03*
X98825000Y-147765000D03*
X98825000Y-149035000D03*
X98825000Y-150300000D03*
X106625000Y-150300000D03*
X106625000Y-149035000D03*
X106625000Y-147765000D03*
X106625000Y-146495000D03*
D40*
X102725000Y-148400000D03*
%TD*%
D13*
%TO.C,C20*%
X90750000Y-160817500D03*
X90750000Y-159682500D03*
%TD*%
D25*
%TO.C,C9*%
X84175000Y-134500000D03*
X87300000Y-134500000D03*
%TD*%
D13*
%TO.C,C22*%
X109500000Y-147692500D03*
X109500000Y-146557500D03*
%TD*%
D21*
%TO.C,C23*%
X117167500Y-158500000D03*
X116032500Y-158500000D03*
%TD*%
D14*
%TO.C,R13*%
X89750000Y-160847500D03*
X89750000Y-159652500D03*
%TD*%
D41*
%TO.C,D1*%
X111100000Y-136800000D03*
X115100000Y-136800000D03*
%TD*%
D17*
%TO.C,R17*%
X123075000Y-132050000D03*
X121880000Y-132050000D03*
%TD*%
D42*
%TO.C,J3*%
X128850000Y-153240000D03*
X128850000Y-152740000D03*
X128850000Y-152240000D03*
X128850000Y-151740000D03*
X128850000Y-151240000D03*
X128850000Y-150740000D03*
X128850000Y-150240000D03*
X128850000Y-149740000D03*
X128850000Y-149240000D03*
X128850000Y-148740000D03*
X128850000Y-148240000D03*
X128850000Y-147740000D03*
X128850000Y-147240000D03*
X128850000Y-146740000D03*
X128850000Y-146240000D03*
X128850000Y-145740000D03*
X128850000Y-145240000D03*
X128850000Y-144740000D03*
X128850000Y-144240000D03*
X128850000Y-143740000D03*
X128850000Y-143240000D03*
X128850000Y-142740000D03*
X128850000Y-142240000D03*
X128850000Y-141740000D03*
X128850000Y-141240000D03*
X128850000Y-140740000D03*
X128850000Y-140240000D03*
X128850000Y-139740000D03*
X128850000Y-139240000D03*
X128850000Y-138740000D03*
X128850000Y-138240000D03*
X128850000Y-137740000D03*
X128850000Y-137240000D03*
X128850000Y-136740000D03*
X128850000Y-136240000D03*
X128850000Y-135740000D03*
X128850000Y-135240000D03*
X128850000Y-134740000D03*
X128850000Y-134240000D03*
X128850000Y-133740000D03*
X128850000Y-133240000D03*
X128850000Y-132740000D03*
X128850000Y-132240000D03*
X128850000Y-131740000D03*
X128850000Y-131240000D03*
D43*
X132100000Y-129340000D03*
X132100000Y-155140000D03*
%TD*%
D44*
%TO.C,U3*%
X113325000Y-145200000D03*
X113975000Y-145200000D03*
X114625000Y-145200000D03*
X115275000Y-145200000D03*
X115275000Y-142100000D03*
X114625000Y-142100000D03*
X113975000Y-142100000D03*
X113325000Y-142100000D03*
D45*
X114300000Y-143650000D03*
%TD*%
D21*
%TO.C,C4*%
X111785000Y-156700000D03*
X110650000Y-156700000D03*
%TD*%
D27*
%TO.C,R16*%
X119600000Y-132050000D03*
X120795000Y-132050000D03*
%TD*%
D14*
%TO.C,R14*%
X106450000Y-156247500D03*
X106450000Y-155052500D03*
%TD*%
D11*
%TO.C,C5*%
X116382500Y-149200000D03*
X117517500Y-149200000D03*
%TD*%
D14*
%TO.C,R9*%
X82537500Y-138297500D03*
X82537500Y-137102500D03*
%TD*%
D46*
%TO.C,U6*%
X132950000Y-125100000D03*
X132950000Y-124600000D03*
X132950000Y-124100000D03*
X132950000Y-123600000D03*
X132950000Y-123100000D03*
D47*
X132000000Y-122150000D03*
X131500000Y-122150000D03*
X131000000Y-122150000D03*
X130500000Y-122150000D03*
X130000000Y-122150000D03*
D46*
X129050000Y-123100000D03*
X129050000Y-123600000D03*
X129050000Y-124100000D03*
X129050000Y-124600000D03*
X129050000Y-125100000D03*
D47*
X130000000Y-126050000D03*
X130500000Y-126050000D03*
X131000000Y-126050000D03*
X131500000Y-126050000D03*
X132000000Y-126050000D03*
D48*
X131000000Y-124100000D03*
%TD*%
D17*
%TO.C,R7*%
X126500000Y-151500000D03*
X125305000Y-151500000D03*
%TD*%
D14*
%TO.C,R11*%
X89737500Y-138297500D03*
X89737500Y-137102500D03*
%TD*%
D49*
%TO.C,J1*%
X119925000Y-128600000D03*
X118675000Y-128600000D03*
X117425000Y-128600000D03*
X116175000Y-128600000D03*
X114925000Y-128600000D03*
X113675000Y-128600000D03*
X112425000Y-128600000D03*
X111175000Y-128600000D03*
X109925000Y-128600000D03*
X108675000Y-128600000D03*
D50*
X122475000Y-125700000D03*
X106125000Y-125700000D03*
%TD*%
D28*
%TO.C,J4*%
X124675000Y-158300000D03*
X125925000Y-158300000D03*
D29*
X128475000Y-161200000D03*
X122125000Y-161200000D03*
%TD*%
D36*
%TO.C,JP2*%
X132500000Y-161700000D03*
D33*
X133800000Y-161700000D03*
D37*
X135100000Y-161700000D03*
%TD*%
D27*
%TO.C,R2*%
X125305000Y-152500000D03*
X126500000Y-152500000D03*
%TD*%
D51*
%TO.C,J7*%
X89700000Y-124575000D03*
X89700000Y-125825000D03*
D52*
X86800000Y-122025000D03*
X86800000Y-128375000D03*
%TD*%
D25*
%TO.C,C10*%
X91375000Y-134500000D03*
X94500000Y-134500000D03*
%TD*%
D36*
%TO.C,JP1*%
X132500000Y-158700000D03*
D33*
X133800000Y-158700000D03*
D37*
X135100000Y-158700000D03*
%TD*%
D15*
%TO.C,C7*%
X114750000Y-157332500D03*
X114750000Y-158467500D03*
%TD*%
D25*
%TO.C,C15*%
X84175000Y-145700000D03*
X87300000Y-145700000D03*
%TD*%
D11*
%TO.C,C25*%
X131900000Y-120900000D03*
X133035000Y-120900000D03*
%TD*%
M02*
