M48
; DRILL file {KiCad (6.0.1)} date Mon Mar 14 14:07:48 2022
; FORMAT={-:-/ absolute / inch / decimal}
; #@! TF.CreationDate,2022-03-14T14:07:48+00:00
; #@! TF.GenerationSoftware,Kicad,Pcbnew,(6.0.1)
; #@! TF.FileFunction,Plated,1,2,PTH
FMAT,2
INCH
; #@! TA.AperFunction,Plated,PTH,ViaDrill
T1C0.0157
%
G90
G05
T1
X3.2215Y-6.4331
X3.3002Y-5.128
X3.4134Y-6.3543
X3.5069Y-5.2943
X3.5177Y-5.7352
X3.5187Y-5.8711
X3.5236Y-4.7165
X3.5591Y-4.7559
X3.5974Y-5.9518
X3.6014Y-6.4321
X3.6742Y-5.0827
X3.7126Y-6.1821
X3.7136Y-6.4321
X3.7894Y-5.2943
X3.8228Y-6.0591
X3.8268Y-5.7441
X3.8268Y-5.9409
X3.8307Y-5.5472
X3.8307Y-6.1142
X3.8376Y-6.4321
X3.8504Y-5.7913
X3.9528Y-5.4921
X3.9557Y-5.2638
X3.9843Y-6.1152
X4.0433Y-5.9764
X4.0787Y-4.8268
X4.0856Y-5.6614
X4.124Y-5.0913
X4.1516Y-5.063
X4.1516Y-5.4843
X4.1742Y-6.2274
X4.1792Y-5.0915
X4.1821Y-5.5552
X4.1909Y-5.6575
X4.2411Y-5.6644
X4.248Y-5.6063
X4.2667Y-6.0591
X4.2717Y-5.7303
X4.3159Y-6.127
X4.3307Y-5.4961
X4.3337Y-5.2549
X4.3386Y-5.5472
X4.3425Y-4.9409
X4.3425Y-6.2264
X4.3465Y-5.1457
X4.3671Y-5.8622
X4.3671Y-6.4035
X4.3976Y-5.626
X4.4345Y-5.1943
X4.4449Y-5.2874
X4.4518Y-6.2392
X4.4783Y-5.5295
X4.4921Y-5.7992
X4.5Y-6.0197
X4.5039Y-4.6732
X4.5118Y-6.3425
X4.5217Y-5.5295
X4.5776Y-5.7126
X4.5906Y-6.4449
X4.5958Y-5.8205
X4.5984Y-4.9173
X4.6467Y-6.0797
X4.6496Y-6.5157
X4.6624Y-5.3248
X4.686Y-5.5266
X4.6929Y-6.1693
X4.6969Y-5.8937
X4.7008Y-5.7008
X4.7126Y-5.8106
X4.7953Y-5.7028
X4.8031Y-5.1102
X4.8091Y-5.4035
X4.8474Y-4.7835
X4.8858Y-5.563
X4.8907Y-5.2854
X4.9173Y-5.1988
X4.9331Y-6.5118
X4.935Y-4.9291
X4.938Y-4.81
X4.9528Y-5.878
X4.9547Y-5.4429
X4.9616Y-5.0433
X4.9803Y-5.7008
X4.9951Y-5.1319
X4.999Y-6.0876
X5.001Y-5.0433
X5.0069Y-5.874
X5.0335Y-4.7618
X5.1398Y-4.6486
X5.1614Y-4.7598
X5.1762Y-4.6831
X5.2008Y-5.126
X5.2008Y-5.2835
X5.2008Y-5.4409
X5.2008Y-5.5984
X5.2008Y-5.7559
X5.2008Y-5.9134
X5.2008Y-6.0709
X5.2244Y-6.0079
X5.2303Y-4.9635
X5.2677Y-6.1821
X5.2677Y-6.4321
X5.2785Y-5.0098
X5.2835Y-4.8189
X5.3031Y-4.8947
X5.3189Y-4.9705
X5.3346Y-4.8425
X5.378Y-5.0709
X5.3809Y-6.3917
X5.4144Y-6.2352
X5.4921Y-6.2953
X5.4961Y-6.1142
X5.6073Y-6.2785
X5.6457Y-6.4567
X5.6969Y-5.0787
X5.815Y-5.0787
X5.815Y-6.1142
T0
M30
