%TF.GenerationSoftware,KiCad,Pcbnew,(6.0.1)*%
%TF.CreationDate,2022-03-14T14:07:41+00:00*%
%TF.ProjectId,UGR-22 Screen,5547522d-3232-4205-9363-7265656e2e6b,rev?*%
%TF.SameCoordinates,Original*%
%TF.FileFunction,Copper,L2,Bot*%
%TF.FilePolarity,Positive*%
%FSLAX46Y46*%
G04 Gerber Fmt 4.6, Leading zero omitted, Abs format (unit mm)*
G04 Created by KiCad (PCBNEW (6.0.1)) date 2022-03-14 14:07:41*
%MOMM*%
%LPD*%
G01*
G04 APERTURE LIST*
%TA.AperFunction,ViaPad*%
%ADD10C,0.800000*%
%TD*%
%TA.AperFunction,Conductor*%
%ADD11C,0.254000*%
%TD*%
%TA.AperFunction,Conductor*%
%ADD12C,0.625000*%
%TD*%
%TA.AperFunction,Conductor*%
%ADD13C,0.203200*%
%TD*%
%TA.AperFunction,Conductor*%
%ADD14C,0.381000*%
%TD*%
%TA.AperFunction,Conductor*%
%ADD15C,0.508000*%
%TD*%
%TA.AperFunction,Conductor*%
%ADD16C,0.200000*%
%TD*%
G04 APERTURE END LIST*
D10*
%TO.N,GND*%
X126500000Y-144800000D03*
X110300000Y-125500000D03*
X147700000Y-129000000D03*
X114300000Y-152900000D03*
X126875000Y-130350000D03*
X103775000Y-143800000D03*
X132100000Y-146200000D03*
X110200000Y-140900000D03*
X97200000Y-145900000D03*
X110075000Y-133475000D03*
X97300000Y-140900000D03*
X106025000Y-158175000D03*
X116800000Y-124900000D03*
X139600000Y-155300000D03*
X118425000Y-135250000D03*
X144700000Y-129000000D03*
X123125000Y-121500000D03*
X107900000Y-142400000D03*
X113075000Y-158475000D03*
X86700000Y-161400000D03*
X110000000Y-139600000D03*
X119200000Y-156700000D03*
X91475000Y-163375000D03*
X110925000Y-148900000D03*
X119300000Y-149700000D03*
X110400000Y-130700000D03*
X109625000Y-155625000D03*
X100400000Y-139500000D03*
X110925000Y-162650000D03*
X125350000Y-125200000D03*
X102700000Y-151800000D03*
X119025000Y-140375000D03*
X100475000Y-133700000D03*
X125800000Y-149300000D03*
X97475000Y-163375000D03*
X118100000Y-165500000D03*
X132100000Y-130200000D03*
X97300000Y-155300000D03*
X97200000Y-150900000D03*
X136600000Y-128800000D03*
X89375000Y-149125000D03*
X89350000Y-145675000D03*
X101200000Y-155325000D03*
X132100000Y-138200000D03*
X114400000Y-118700000D03*
X147700000Y-155300000D03*
X124100000Y-141300000D03*
X136675000Y-162350000D03*
X143400000Y-164000000D03*
X81825000Y-163400000D03*
X89075000Y-134475000D03*
X111700000Y-142900000D03*
X132100000Y-150200000D03*
X124225000Y-134250000D03*
X96250000Y-134475000D03*
X103600000Y-122600000D03*
X132100000Y-142200000D03*
X132100000Y-154200000D03*
X83825000Y-130250000D03*
X132100000Y-134200000D03*
%TO.N,+3V3*%
X127175000Y-149200000D03*
X116271180Y-145100000D03*
X132850000Y-126073900D03*
X93325000Y-129100000D03*
X97100000Y-153900000D03*
X91375000Y-151175000D03*
X122000000Y-129800000D03*
X110300000Y-158150000D03*
X106450000Y-143700000D03*
X119700500Y-147590000D03*
X125425000Y-122175000D03*
X139500000Y-159900000D03*
X134700000Y-124325000D03*
X131100000Y-120900000D03*
X134200000Y-122400000D03*
X127850000Y-120950000D03*
X108375000Y-153900000D03*
X124900000Y-132050000D03*
X108500000Y-145550000D03*
X114600000Y-161100000D03*
%TO.N,+5V*%
X114100000Y-147300000D03*
X125300000Y-165400000D03*
X126975000Y-154625000D03*
%TO.N,MCU_RX*%
X107725000Y-143875000D03*
X104748900Y-129319486D03*
%TO.N,LCD_CS*%
X122150000Y-137250000D03*
X125850000Y-138250000D03*
%TO.N,LCD_RST*%
X119400000Y-144800000D03*
X121800000Y-144850000D03*
%TO.N,FLASH_CS*%
X118025000Y-154425000D03*
X97800000Y-147100000D03*
%TO.N,I2C1_SCL*%
X135100000Y-126250000D03*
X126025000Y-128100000D03*
%TO.N,I2C1_SDA*%
X134075000Y-127250000D03*
X127025000Y-128100000D03*
%TO.N,SWDIO*%
X105450000Y-128600000D03*
X105450000Y-139300000D03*
%TO.N,SWCLK*%
X106151100Y-129325000D03*
X106225000Y-141101100D03*
%TO.N,CANL*%
X114850000Y-140450000D03*
X112900000Y-134300000D03*
%TO.N,CANH*%
X113750000Y-140450000D03*
X112635135Y-131935135D03*
%TO.N,SWITCH_1*%
X142425000Y-159475000D03*
X137525000Y-158375000D03*
%TO.N,SWITCH_2*%
X116734176Y-147840254D03*
X116600000Y-163700000D03*
%TO.N,SW1_1*%
X131475000Y-118950000D03*
X133800000Y-157025000D03*
%TO.N,SW1_2*%
X133800000Y-163375000D03*
X130550000Y-118075000D03*
%TO.N,SW2_1*%
X89500000Y-119800000D03*
X94325000Y-163375000D03*
%TO.N,SW2_2*%
X94300000Y-157025000D03*
X90400000Y-120800000D03*
%TO.N,TS_IRQ*%
X135500000Y-123000000D03*
X132700000Y-152600000D03*
%TD*%
D11*
%TO.N,+3V3*%
X125425000Y-122175000D02*
X125450000Y-122150000D01*
X134598900Y-124325000D02*
X134700000Y-124325000D01*
X116271180Y-145100000D02*
X116125000Y-145246180D01*
X119700500Y-147590000D02*
X119700500Y-146100500D01*
X134362500Y-123987500D02*
X134362500Y-123837500D01*
D12*
X94100000Y-153900000D02*
X91375000Y-151175000D01*
X116125000Y-145100000D02*
X115325000Y-144300000D01*
D11*
X134700000Y-124325000D02*
X134362500Y-123987500D01*
D12*
X125425000Y-122150000D02*
X126200000Y-122150000D01*
X92850000Y-129575000D02*
X93325000Y-129100000D01*
D11*
X119500000Y-145900000D02*
X118700000Y-145900000D01*
D12*
X126587500Y-148562500D02*
X127475000Y-149450000D01*
X97100000Y-153900000D02*
X94100000Y-153900000D01*
X131050000Y-122150000D02*
X132675000Y-122150000D01*
X108375000Y-157450000D02*
X108375000Y-153900000D01*
X131100000Y-160950000D02*
X134250000Y-160950000D01*
X114600000Y-161100000D02*
X113300000Y-161100000D01*
D13*
X139500000Y-159900000D02*
X138450000Y-160950000D01*
D12*
X129200000Y-151175000D02*
X129200000Y-134875000D01*
X122950000Y-132150000D02*
X122025000Y-131225000D01*
X122025000Y-130550000D02*
X122025000Y-129225000D01*
D11*
X119700500Y-146100500D02*
X119500000Y-145900000D01*
X122000000Y-129800000D02*
X122000000Y-129250000D01*
D12*
X92850000Y-149700000D02*
X92850000Y-146550000D01*
D11*
X110300000Y-158125000D02*
X110300000Y-158150000D01*
D12*
X127475000Y-149450000D02*
X129200000Y-151175000D01*
D11*
X106137500Y-144412500D02*
X106137500Y-144012500D01*
D13*
X134200000Y-122400000D02*
X133562500Y-123037500D01*
D11*
X125450000Y-122150000D02*
X126200000Y-122150000D01*
D12*
X115325000Y-144300000D02*
X109750000Y-144300000D01*
X106137500Y-144412500D02*
X107275000Y-145550000D01*
D11*
X127175000Y-149150000D02*
X126587500Y-148562500D01*
D12*
X127650000Y-122150000D02*
X131050000Y-122150000D01*
X133562500Y-123037500D02*
X134362500Y-123837500D01*
X129200000Y-134875000D02*
X127625000Y-133300000D01*
X134725000Y-124200000D02*
X134725000Y-124350000D01*
D11*
X131100000Y-122100000D02*
X131050000Y-122150000D01*
D12*
X133050000Y-122525000D02*
X133562500Y-123037500D01*
X122025000Y-125550000D02*
X125425000Y-122150000D01*
X132675000Y-122150000D02*
X133050000Y-122525000D01*
X129200000Y-151175000D02*
X129200000Y-159050000D01*
X94600000Y-144800000D02*
X105750000Y-144800000D01*
X92850000Y-149700000D02*
X92850000Y-130275000D01*
D11*
X122000000Y-129250000D02*
X122025000Y-129225000D01*
D12*
X122025000Y-129225000D02*
X122025000Y-125550000D01*
X127625000Y-133300000D02*
X126475000Y-132150000D01*
D11*
X131100000Y-120900000D02*
X131100000Y-122100000D01*
D12*
X126475000Y-132150000D02*
X122950000Y-132150000D01*
X105750000Y-144800000D02*
X106137500Y-144412500D01*
X107275000Y-145550000D02*
X108500000Y-145550000D01*
X110300000Y-158125000D02*
X109050000Y-158125000D01*
X118700000Y-145900000D02*
X117900000Y-145100000D01*
X126200000Y-122150000D02*
X127650000Y-122150000D01*
D11*
X106137500Y-144012500D02*
X106450000Y-143700000D01*
D12*
X109050000Y-158125000D02*
X108375000Y-157450000D01*
X109750000Y-144300000D02*
X108500000Y-145550000D01*
X113300000Y-161100000D02*
X110350000Y-158150000D01*
X129200000Y-159050000D02*
X131100000Y-160950000D01*
X110350000Y-158150000D02*
X110300000Y-158150000D01*
X92850000Y-130275000D02*
X92850000Y-129575000D01*
D11*
X127850000Y-121950000D02*
X127650000Y-122150000D01*
X132850000Y-126073900D02*
X134598900Y-124325000D01*
D12*
X92850000Y-146550000D02*
X94600000Y-144800000D01*
X134362500Y-123837500D02*
X134725000Y-124200000D01*
X91375000Y-151175000D02*
X92850000Y-149700000D01*
X117900000Y-145100000D02*
X116271180Y-145100000D01*
X122025000Y-131225000D02*
X122025000Y-130550000D01*
X126587500Y-148562500D02*
X123925000Y-145900000D01*
D13*
X138450000Y-160950000D02*
X134250000Y-160950000D01*
D11*
X127850000Y-120950000D02*
X127850000Y-121950000D01*
X127175000Y-149200000D02*
X127175000Y-149150000D01*
D12*
X123925000Y-145900000D02*
X118700000Y-145900000D01*
D14*
%TO.N,+5V*%
X119396627Y-148500000D02*
X118800000Y-147903373D01*
D15*
X126975000Y-164300000D02*
X126975000Y-154625000D01*
D14*
X118800000Y-147903373D02*
X118800000Y-147100000D01*
X120500000Y-148500000D02*
X119396627Y-148500000D01*
X117800000Y-146100000D02*
X115300000Y-146100000D01*
X115300000Y-146100000D02*
X114100000Y-147300000D01*
X126625000Y-154625000D02*
X120500000Y-148500000D01*
X126975000Y-154625000D02*
X126625000Y-154625000D01*
D15*
X125300000Y-165400000D02*
X125875000Y-165400000D01*
X125875000Y-165400000D02*
X126975000Y-164300000D01*
D14*
X118800000Y-147100000D02*
X117800000Y-146100000D01*
D13*
%TO.N,MCU_RX*%
X104748900Y-129319486D02*
X104950000Y-129520586D01*
X104950000Y-138641739D02*
X104650000Y-138941739D01*
X104950000Y-129520586D02*
X104950000Y-138641739D01*
X104650000Y-138941739D02*
X104650000Y-140800000D01*
X104650000Y-140800000D02*
X107725000Y-143875000D01*
%TO.N,LCD_CS*%
X124850000Y-137250000D02*
X122150000Y-137250000D01*
X125850000Y-138250000D02*
X124850000Y-137250000D01*
%TO.N,LCD_RST*%
X119450000Y-144850000D02*
X121800000Y-144850000D01*
X119400000Y-144800000D02*
X119450000Y-144850000D01*
%TO.N,FLASH_CS*%
X112725000Y-154425000D02*
X105400000Y-147100000D01*
X105400000Y-147100000D02*
X97800000Y-147100000D01*
X118025000Y-154425000D02*
X112725000Y-154425000D01*
%TO.N,I2C1_SCL*%
X126683478Y-126775000D02*
X126025000Y-127433478D01*
X126025000Y-127433478D02*
X126025000Y-128100000D01*
X133916739Y-126250000D02*
X133391739Y-126775000D01*
X135100000Y-126250000D02*
X133916739Y-126250000D01*
X133391739Y-126775000D02*
X126683478Y-126775000D01*
%TO.N,I2C1_SDA*%
X127875000Y-127250000D02*
X134075000Y-127250000D01*
X127025000Y-128100000D02*
X127875000Y-127250000D01*
%TO.N,SWDIO*%
X105450000Y-128600000D02*
X105450000Y-139300000D01*
%TO.N,SWCLK*%
X105950000Y-138575000D02*
X106225000Y-138850000D01*
X106151100Y-129325000D02*
X105950000Y-129526100D01*
X106225000Y-138850000D02*
X106225000Y-141101100D01*
X105950000Y-129526100D02*
X105950000Y-138575000D01*
D14*
%TO.N,CANL*%
X114850000Y-140432755D02*
X112900000Y-138482755D01*
X114850000Y-140450000D02*
X114850000Y-140432755D01*
X112900000Y-138482755D02*
X112900000Y-134300000D01*
%TO.N,CANH*%
X112109989Y-138809989D02*
X113750000Y-140450000D01*
X112635135Y-131935135D02*
X112109989Y-132460281D01*
X112109989Y-132460281D02*
X112109989Y-138809989D01*
D16*
%TO.N,SWITCH_1*%
X137550000Y-158350000D02*
X137525000Y-158375000D01*
X141300000Y-158350000D02*
X137550000Y-158350000D01*
X142425000Y-159475000D02*
X141300000Y-158350000D01*
D13*
%TO.N,SWITCH_2*%
X116600000Y-163700000D02*
X120000000Y-160300000D01*
X116734176Y-148734176D02*
X116734176Y-147840254D01*
X120000000Y-152000000D02*
X116734176Y-148734176D01*
X120000000Y-160300000D02*
X120000000Y-152000000D01*
D14*
%TO.N,SW1_1*%
X134325000Y-156500000D02*
X133800000Y-157025000D01*
X145800000Y-122700000D02*
X145800000Y-153725000D01*
X145800000Y-153725000D02*
X143025000Y-156500000D01*
X131475000Y-118950000D02*
X142050000Y-118950000D01*
X143025000Y-156500000D02*
X134325000Y-156500000D01*
X142050000Y-118950000D02*
X145800000Y-122700000D01*
%TO.N,SW1_2*%
X140925000Y-163375000D02*
X133800000Y-163375000D01*
X146600000Y-122229021D02*
X146600000Y-157700000D01*
X130550000Y-118075000D02*
X142445979Y-118075000D01*
X142445979Y-118075000D02*
X146600000Y-122229021D01*
X146600000Y-157700000D02*
X140925000Y-163375000D01*
%TO.N,SW2_1*%
X84325000Y-157900000D02*
X88850000Y-157900000D01*
X87200000Y-119850000D02*
X81350000Y-125700000D01*
X81350000Y-125700000D02*
X81350000Y-154925000D01*
X89500000Y-119800000D02*
X89450000Y-119850000D01*
X89450000Y-119850000D02*
X87200000Y-119850000D01*
X81350000Y-154925000D02*
X84325000Y-157900000D01*
X88850000Y-157900000D02*
X94325000Y-163375000D01*
%TO.N,SW2_2*%
X87500000Y-120825000D02*
X82275000Y-126050000D01*
X84725000Y-157025000D02*
X94300000Y-157025000D01*
X90375000Y-120825000D02*
X87500000Y-120825000D01*
X82275000Y-154575000D02*
X84725000Y-157025000D01*
X90400000Y-120800000D02*
X90375000Y-120825000D01*
X82275000Y-126050000D02*
X82275000Y-154575000D01*
D13*
%TO.N,TS_IRQ*%
X133400000Y-151900000D02*
X132700000Y-152600000D01*
X136600000Y-126800000D02*
X133400000Y-130000000D01*
X133400000Y-130000000D02*
X133400000Y-151900000D01*
X135500000Y-123000000D02*
X136600000Y-124100000D01*
X136600000Y-124100000D02*
X136600000Y-126800000D01*
%TD*%
%TA.AperFunction,Conductor*%
%TO.N,GND*%
G36*
X147092040Y-117770046D02*
G01*
X147138574Y-117823666D01*
X147150000Y-117876096D01*
X147150000Y-119000000D01*
X148274000Y-119000000D01*
X148342121Y-119020002D01*
X148388614Y-119073658D01*
X148400000Y-119126000D01*
X148400000Y-165374000D01*
X148379998Y-165442121D01*
X148326342Y-165488614D01*
X148274000Y-165500000D01*
X147150000Y-165500000D01*
X147150000Y-166624000D01*
X147129998Y-166692121D01*
X147076342Y-166738614D01*
X147024000Y-166750000D01*
X81576000Y-166750000D01*
X81507879Y-166729998D01*
X81461386Y-166676342D01*
X81450000Y-166624000D01*
X81450000Y-165500000D01*
X80326000Y-165500000D01*
X80257879Y-165479998D01*
X80211386Y-165426342D01*
X80200000Y-165374000D01*
X80200000Y-154939136D01*
X80900196Y-154939136D01*
X80908960Y-154987117D01*
X80910605Y-154996126D01*
X80911255Y-155000034D01*
X80919868Y-155057326D01*
X80922956Y-155063757D01*
X80924237Y-155070771D01*
X80929392Y-155080695D01*
X80950944Y-155122184D01*
X80952713Y-155125724D01*
X80977792Y-155177952D01*
X80982634Y-155183190D01*
X80985921Y-155189518D01*
X80990184Y-155194509D01*
X81026963Y-155231288D01*
X81030392Y-155234854D01*
X81068625Y-155276214D01*
X81074919Y-155279870D01*
X81080922Y-155285247D01*
X83986373Y-158190698D01*
X83996228Y-158201787D01*
X84016936Y-158228055D01*
X84024683Y-158233410D01*
X84024685Y-158233411D01*
X84064581Y-158260984D01*
X84067804Y-158263287D01*
X84114419Y-158297718D01*
X84121150Y-158300082D01*
X84127016Y-158304136D01*
X84182234Y-158321599D01*
X84185975Y-158322847D01*
X84231786Y-158338935D01*
X84231791Y-158338936D01*
X84240673Y-158342055D01*
X84247802Y-158342335D01*
X84254600Y-158344485D01*
X84261143Y-158345000D01*
X84313158Y-158345000D01*
X84318104Y-158345097D01*
X84374383Y-158347308D01*
X84381418Y-158345443D01*
X84389464Y-158345000D01*
X88613485Y-158345000D01*
X88681606Y-158365002D01*
X88702580Y-158381905D01*
X93631581Y-163310906D01*
X93665607Y-163373218D01*
X93667725Y-163386172D01*
X93668757Y-163395524D01*
X93682251Y-163517744D01*
X93683113Y-163525553D01*
X93685723Y-163532684D01*
X93685723Y-163532686D01*
X93733327Y-163662770D01*
X93737553Y-163674319D01*
X93741789Y-163680622D01*
X93741789Y-163680623D01*
X93820923Y-163798386D01*
X93825908Y-163805805D01*
X93831527Y-163810918D01*
X93831528Y-163810919D01*
X93937460Y-163907309D01*
X93943076Y-163912419D01*
X94082293Y-163988008D01*
X94235522Y-164028207D01*
X94319477Y-164029526D01*
X94386319Y-164030576D01*
X94386322Y-164030576D01*
X94393916Y-164030695D01*
X94548332Y-163995329D01*
X94618742Y-163959917D01*
X94683072Y-163927563D01*
X94683075Y-163927561D01*
X94689855Y-163924151D01*
X94695626Y-163919222D01*
X94695629Y-163919220D01*
X94804536Y-163826204D01*
X94804536Y-163826203D01*
X94810314Y-163821269D01*
X94902416Y-163693096D01*
X115940729Y-163693096D01*
X115945141Y-163733059D01*
X115955425Y-163826204D01*
X115958113Y-163850553D01*
X115960723Y-163857684D01*
X115960723Y-163857686D01*
X116009119Y-163989934D01*
X116012553Y-163999319D01*
X116016789Y-164005622D01*
X116016789Y-164005623D01*
X116037997Y-164037183D01*
X116100908Y-164130805D01*
X116106527Y-164135918D01*
X116106528Y-164135919D01*
X116117903Y-164146269D01*
X116218076Y-164237419D01*
X116357293Y-164313008D01*
X116510522Y-164353207D01*
X116594477Y-164354526D01*
X116661319Y-164355576D01*
X116661322Y-164355576D01*
X116668916Y-164355695D01*
X116823332Y-164320329D01*
X116915434Y-164274007D01*
X116958072Y-164252563D01*
X116958075Y-164252561D01*
X116964855Y-164249151D01*
X116970626Y-164244222D01*
X116970629Y-164244220D01*
X117079536Y-164151204D01*
X117079536Y-164151203D01*
X117085314Y-164146269D01*
X117177755Y-164017624D01*
X117236842Y-163870641D01*
X117246165Y-163805132D01*
X117258581Y-163717891D01*
X117258581Y-163717888D01*
X117259162Y-163713807D01*
X117259307Y-163700000D01*
X117258415Y-163692624D01*
X117253788Y-163654392D01*
X117249865Y-163621975D01*
X117261538Y-163551946D01*
X117285857Y-163517744D01*
X120215435Y-160588167D01*
X120231125Y-160575495D01*
X120234226Y-160572673D01*
X120242974Y-160567025D01*
X120262203Y-160542633D01*
X120265784Y-160538603D01*
X120265686Y-160538520D01*
X120269039Y-160534563D01*
X120272720Y-160530882D01*
X120275746Y-160526648D01*
X120283149Y-160516289D01*
X120286712Y-160511544D01*
X120309920Y-160482105D01*
X120309921Y-160482103D01*
X120316368Y-160473925D01*
X120319214Y-160465820D01*
X120324210Y-160458829D01*
X120337937Y-160412929D01*
X120339771Y-160407285D01*
X120353021Y-160369553D01*
X120353022Y-160369550D01*
X120355648Y-160362071D01*
X120356100Y-160356852D01*
X120356100Y-160354141D01*
X120356198Y-160351865D01*
X120356333Y-160351415D01*
X120356387Y-160351417D01*
X120356402Y-160351186D01*
X120358177Y-160345249D01*
X120356197Y-160294851D01*
X120356100Y-160289905D01*
X120356100Y-152051432D01*
X120358235Y-152031371D01*
X120358432Y-152027187D01*
X120360624Y-152017007D01*
X120356973Y-151986160D01*
X120356656Y-151980785D01*
X120356528Y-151980796D01*
X120356100Y-151975618D01*
X120356100Y-151970416D01*
X120353161Y-151952757D01*
X120352326Y-151946885D01*
X120347916Y-151909626D01*
X120347914Y-151909619D01*
X120346690Y-151899278D01*
X120342970Y-151891532D01*
X120341560Y-151883058D01*
X120318808Y-151840891D01*
X120316115Y-151835604D01*
X120298805Y-151799558D01*
X120298803Y-151799555D01*
X120295372Y-151792410D01*
X120292001Y-151788400D01*
X120290063Y-151786462D01*
X120288548Y-151784811D01*
X120288327Y-151784401D01*
X120288369Y-151784363D01*
X120288208Y-151784180D01*
X120285265Y-151778726D01*
X120248205Y-151744468D01*
X120244640Y-151741039D01*
X117127181Y-148623579D01*
X117093155Y-148561267D01*
X117090276Y-148534484D01*
X117090276Y-148454969D01*
X117110278Y-148386848D01*
X117134446Y-148359158D01*
X117213708Y-148291462D01*
X117213711Y-148291459D01*
X117219490Y-148286523D01*
X117311931Y-148157878D01*
X117371018Y-148010895D01*
X117393338Y-147854061D01*
X117393483Y-147840254D01*
X117374452Y-147682987D01*
X117318456Y-147534800D01*
X117270433Y-147464926D01*
X117233031Y-147410505D01*
X117233030Y-147410503D01*
X117228729Y-147404246D01*
X117110451Y-147298865D01*
X117103065Y-147294954D01*
X116977164Y-147228293D01*
X116977165Y-147228293D01*
X116970450Y-147224738D01*
X116816809Y-147186146D01*
X116809210Y-147186106D01*
X116809209Y-147186106D01*
X116743357Y-147185761D01*
X116658397Y-147185316D01*
X116651017Y-147187088D01*
X116651015Y-147187088D01*
X116511739Y-147220525D01*
X116511736Y-147220526D01*
X116504360Y-147222297D01*
X116363590Y-147294954D01*
X116244215Y-147399092D01*
X116153126Y-147528698D01*
X116127614Y-147594134D01*
X116110738Y-147637419D01*
X116095582Y-147676291D01*
X116094590Y-147683824D01*
X116094590Y-147683825D01*
X116085352Y-147753999D01*
X116074905Y-147833350D01*
X116080277Y-147882004D01*
X116090489Y-147974499D01*
X116092289Y-147990807D01*
X116094899Y-147997938D01*
X116094899Y-147997940D01*
X116133083Y-148102282D01*
X116146729Y-148139573D01*
X116150965Y-148145876D01*
X116150965Y-148145877D01*
X116227055Y-148259110D01*
X116235084Y-148271059D01*
X116240703Y-148276172D01*
X116240704Y-148276173D01*
X116336875Y-148363681D01*
X116373798Y-148424321D01*
X116378076Y-148456875D01*
X116378076Y-148682748D01*
X116375942Y-148702797D01*
X116375744Y-148706987D01*
X116373552Y-148717169D01*
X116374776Y-148727510D01*
X116377203Y-148748016D01*
X116377520Y-148753391D01*
X116377648Y-148753380D01*
X116378076Y-148758558D01*
X116378076Y-148763760D01*
X116378930Y-148768890D01*
X116381015Y-148781419D01*
X116381850Y-148787291D01*
X116386260Y-148824550D01*
X116386262Y-148824557D01*
X116387486Y-148834898D01*
X116391206Y-148842644D01*
X116392616Y-148851118D01*
X116412672Y-148888288D01*
X116415368Y-148893285D01*
X116418061Y-148898572D01*
X116435371Y-148934618D01*
X116435373Y-148934621D01*
X116438804Y-148941766D01*
X116442175Y-148945776D01*
X116444113Y-148947714D01*
X116445628Y-148949365D01*
X116445849Y-148949775D01*
X116445807Y-148949813D01*
X116445968Y-148949996D01*
X116448911Y-148955450D01*
X116456558Y-148962518D01*
X116456558Y-148962519D01*
X116485971Y-148989708D01*
X116489537Y-148993138D01*
X119606995Y-152110596D01*
X119641021Y-152172908D01*
X119643900Y-152199691D01*
X119643900Y-160100309D01*
X119623898Y-160168430D01*
X119606995Y-160189404D01*
X116785724Y-163010674D01*
X116723412Y-163044700D01*
X116684709Y-163046413D01*
X116682633Y-163045892D01*
X116675037Y-163045852D01*
X116675035Y-163045852D01*
X116607163Y-163045497D01*
X116524221Y-163045062D01*
X116516841Y-163046834D01*
X116516839Y-163046834D01*
X116377563Y-163080271D01*
X116377560Y-163080272D01*
X116370184Y-163082043D01*
X116229414Y-163154700D01*
X116110039Y-163258838D01*
X116018950Y-163388444D01*
X116016190Y-163395524D01*
X115965494Y-163525553D01*
X115961406Y-163536037D01*
X115960414Y-163543570D01*
X115960414Y-163543571D01*
X115946589Y-163648588D01*
X115940729Y-163693096D01*
X94902416Y-163693096D01*
X94902755Y-163692624D01*
X94961842Y-163545641D01*
X94984162Y-163388807D01*
X94984307Y-163375000D01*
X94965276Y-163217733D01*
X94909280Y-163069546D01*
X94819553Y-162938992D01*
X94701275Y-162833611D01*
X94693889Y-162829700D01*
X94567988Y-162763039D01*
X94567989Y-162763039D01*
X94561274Y-162759484D01*
X94407633Y-162720892D01*
X94400035Y-162720852D01*
X94400034Y-162720852D01*
X94386945Y-162720784D01*
X94351454Y-162720598D01*
X94283440Y-162700240D01*
X94263020Y-162683695D01*
X89264420Y-157685095D01*
X89230394Y-157622783D01*
X89235459Y-157551968D01*
X89278006Y-157495132D01*
X89344526Y-157470321D01*
X89353515Y-157470000D01*
X93767763Y-157470000D01*
X93835884Y-157490002D01*
X93852560Y-157502804D01*
X93918076Y-157562419D01*
X94057293Y-157638008D01*
X94210522Y-157678207D01*
X94294477Y-157679526D01*
X94361319Y-157680576D01*
X94361322Y-157680576D01*
X94368916Y-157680695D01*
X94523332Y-157645329D01*
X94605421Y-157604043D01*
X94658072Y-157577563D01*
X94658075Y-157577561D01*
X94664855Y-157574151D01*
X94670626Y-157569222D01*
X94670629Y-157569220D01*
X94779536Y-157476204D01*
X94779536Y-157476203D01*
X94785314Y-157471269D01*
X94877755Y-157342624D01*
X94936842Y-157195641D01*
X94959162Y-157038807D01*
X94959307Y-157025000D01*
X94940276Y-156867733D01*
X94884280Y-156719546D01*
X94794553Y-156588992D01*
X94676275Y-156483611D01*
X94668889Y-156479700D01*
X94542988Y-156413039D01*
X94542989Y-156413039D01*
X94536274Y-156409484D01*
X94382633Y-156370892D01*
X94375034Y-156370852D01*
X94375033Y-156370852D01*
X94309181Y-156370507D01*
X94224221Y-156370062D01*
X94216841Y-156371834D01*
X94216839Y-156371834D01*
X94077563Y-156405271D01*
X94077560Y-156405272D01*
X94070184Y-156407043D01*
X93929414Y-156479700D01*
X93923695Y-156484689D01*
X93850033Y-156548949D01*
X93785551Y-156578657D01*
X93767203Y-156580000D01*
X84961515Y-156580000D01*
X84893394Y-156559998D01*
X84872420Y-156543095D01*
X82756905Y-154427580D01*
X82722879Y-154365268D01*
X82720000Y-154338485D01*
X82720000Y-151168096D01*
X90715729Y-151168096D01*
X90733113Y-151325553D01*
X90735723Y-151332684D01*
X90735723Y-151332686D01*
X90773262Y-151435266D01*
X90787553Y-151474319D01*
X90875908Y-151605805D01*
X90993076Y-151712419D01*
X91132293Y-151788008D01*
X91139635Y-151789934D01*
X91139637Y-151789935D01*
X91172305Y-151798505D01*
X91229427Y-151831286D01*
X93666951Y-154268810D01*
X93677812Y-154281193D01*
X93695611Y-154304389D01*
X93725349Y-154327208D01*
X93725351Y-154327210D01*
X93814054Y-154395274D01*
X93951983Y-154452406D01*
X94062834Y-154467000D01*
X94062836Y-154467000D01*
X94062846Y-154467001D01*
X94091810Y-154470814D01*
X94091811Y-154470814D01*
X94100000Y-154471892D01*
X94108189Y-154470814D01*
X94128973Y-154468078D01*
X94145418Y-154467000D01*
X96740557Y-154467000D01*
X96800679Y-154482269D01*
X96857293Y-154513008D01*
X97010522Y-154553207D01*
X97094477Y-154554526D01*
X97161319Y-154555576D01*
X97161322Y-154555576D01*
X97168916Y-154555695D01*
X97323332Y-154520329D01*
X97412917Y-154475273D01*
X97458072Y-154452563D01*
X97458075Y-154452561D01*
X97464855Y-154449151D01*
X97470626Y-154444222D01*
X97470629Y-154444220D01*
X97579536Y-154351204D01*
X97579536Y-154351203D01*
X97585314Y-154346269D01*
X97677755Y-154217624D01*
X97736842Y-154070641D01*
X97749181Y-153983941D01*
X97758581Y-153917891D01*
X97758581Y-153917888D01*
X97759162Y-153913807D01*
X97759307Y-153900000D01*
X97758472Y-153893096D01*
X107715729Y-153893096D01*
X107724226Y-153970062D01*
X107731634Y-154037156D01*
X107733113Y-154050553D01*
X107787553Y-154199319D01*
X107791793Y-154205629D01*
X107794266Y-154210482D01*
X107808000Y-154267687D01*
X107808000Y-157404583D01*
X107806922Y-157421028D01*
X107803108Y-157450000D01*
X107808000Y-157487160D01*
X107808000Y-157487166D01*
X107819162Y-157571945D01*
X107819902Y-157577563D01*
X107822594Y-157598017D01*
X107879726Y-157735946D01*
X107947790Y-157824649D01*
X107947792Y-157824651D01*
X107970611Y-157854389D01*
X107993807Y-157872188D01*
X108006190Y-157883049D01*
X108616951Y-158493810D01*
X108627812Y-158506193D01*
X108645611Y-158529389D01*
X108675349Y-158552208D01*
X108675351Y-158552210D01*
X108727053Y-158591882D01*
X108764054Y-158620274D01*
X108901983Y-158677406D01*
X109012834Y-158692000D01*
X109012836Y-158692000D01*
X109012846Y-158692001D01*
X109041810Y-158695814D01*
X109041811Y-158695814D01*
X109050000Y-158696892D01*
X109058189Y-158695814D01*
X109078973Y-158693078D01*
X109095418Y-158692000D01*
X109894513Y-158692000D01*
X109954635Y-158707269D01*
X110050616Y-158759383D01*
X110050618Y-158759384D01*
X110057293Y-158763008D01*
X110165088Y-158791287D01*
X110222209Y-158824068D01*
X112866951Y-161468810D01*
X112877812Y-161481193D01*
X112895611Y-161504389D01*
X112925349Y-161527208D01*
X112925351Y-161527210D01*
X113014054Y-161595274D01*
X113151983Y-161652406D01*
X113262834Y-161667000D01*
X113262836Y-161667000D01*
X113262846Y-161667001D01*
X113291810Y-161670814D01*
X113291811Y-161670814D01*
X113300000Y-161671892D01*
X113308189Y-161670814D01*
X113328973Y-161668078D01*
X113345418Y-161667000D01*
X114240557Y-161667000D01*
X114300679Y-161682269D01*
X114357293Y-161713008D01*
X114510522Y-161753207D01*
X114594477Y-161754526D01*
X114661319Y-161755576D01*
X114661322Y-161755576D01*
X114668916Y-161755695D01*
X114823332Y-161720329D01*
X114899007Y-161682269D01*
X114958072Y-161652563D01*
X114958075Y-161652561D01*
X114964855Y-161649151D01*
X114970626Y-161644222D01*
X114970629Y-161644220D01*
X115079536Y-161551204D01*
X115079536Y-161551203D01*
X115085314Y-161546269D01*
X115177755Y-161417624D01*
X115236842Y-161270641D01*
X115247407Y-161196407D01*
X115258581Y-161117891D01*
X115258581Y-161117888D01*
X115259162Y-161113807D01*
X115259307Y-161100000D01*
X115240276Y-160942733D01*
X115184280Y-160794546D01*
X115094553Y-160663992D01*
X114976275Y-160558611D01*
X114967565Y-160553999D01*
X114842988Y-160488039D01*
X114842989Y-160488039D01*
X114836274Y-160484484D01*
X114682633Y-160445892D01*
X114675034Y-160445852D01*
X114675033Y-160445852D01*
X114609181Y-160445507D01*
X114524221Y-160445062D01*
X114516841Y-160446834D01*
X114516839Y-160446834D01*
X114377563Y-160480271D01*
X114377560Y-160480272D01*
X114370184Y-160482043D01*
X114363439Y-160485524D01*
X114363440Y-160485524D01*
X114298647Y-160518966D01*
X114240857Y-160533000D01*
X113587049Y-160533000D01*
X113518928Y-160512998D01*
X113497954Y-160496095D01*
X110926468Y-157924609D01*
X110897697Y-157880053D01*
X110886963Y-157851647D01*
X110884280Y-157844546D01*
X110827127Y-157761388D01*
X110798855Y-157720251D01*
X110798854Y-157720249D01*
X110794553Y-157713992D01*
X110786588Y-157706895D01*
X110754388Y-157678207D01*
X110676275Y-157608611D01*
X110656267Y-157598017D01*
X110542988Y-157538039D01*
X110542989Y-157538039D01*
X110536274Y-157534484D01*
X110382633Y-157495892D01*
X110375034Y-157495852D01*
X110375033Y-157495852D01*
X110309181Y-157495507D01*
X110224221Y-157495062D01*
X110216841Y-157496834D01*
X110216839Y-157496834D01*
X110077563Y-157530271D01*
X110077560Y-157530272D01*
X110070184Y-157532043D01*
X110063440Y-157535524D01*
X110063437Y-157535525D01*
X110047085Y-157543965D01*
X109989294Y-157558000D01*
X109337049Y-157558000D01*
X109268928Y-157537998D01*
X109247954Y-157521095D01*
X108978905Y-157252046D01*
X108944879Y-157189734D01*
X108942000Y-157162951D01*
X108942000Y-154267644D01*
X108954648Y-154218385D01*
X108952755Y-154217624D01*
X108965685Y-154185459D01*
X109011842Y-154070641D01*
X109024181Y-153983941D01*
X109033581Y-153917891D01*
X109033581Y-153917888D01*
X109034162Y-153913807D01*
X109034307Y-153900000D01*
X109031851Y-153879700D01*
X109023479Y-153810524D01*
X109015276Y-153742733D01*
X108959280Y-153594546D01*
X108869553Y-153463992D01*
X108751275Y-153358611D01*
X108743889Y-153354700D01*
X108617988Y-153288039D01*
X108617989Y-153288039D01*
X108611274Y-153284484D01*
X108457633Y-153245892D01*
X108450034Y-153245852D01*
X108450033Y-153245852D01*
X108384181Y-153245507D01*
X108299221Y-153245062D01*
X108291841Y-153246834D01*
X108291839Y-153246834D01*
X108152563Y-153280271D01*
X108152560Y-153280272D01*
X108145184Y-153282043D01*
X108004414Y-153354700D01*
X107885039Y-153458838D01*
X107793950Y-153588444D01*
X107736406Y-153736037D01*
X107735414Y-153743570D01*
X107735414Y-153743571D01*
X107716836Y-153884689D01*
X107715729Y-153893096D01*
X97758472Y-153893096D01*
X97756851Y-153879700D01*
X97748479Y-153810524D01*
X97740276Y-153742733D01*
X97684280Y-153594546D01*
X97594553Y-153463992D01*
X97476275Y-153358611D01*
X97468889Y-153354700D01*
X97342988Y-153288039D01*
X97342989Y-153288039D01*
X97336274Y-153284484D01*
X97182633Y-153245892D01*
X97175034Y-153245852D01*
X97175033Y-153245852D01*
X97109181Y-153245507D01*
X97024221Y-153245062D01*
X97016841Y-153246834D01*
X97016839Y-153246834D01*
X96877563Y-153280271D01*
X96877560Y-153280272D01*
X96870184Y-153282043D01*
X96863439Y-153285524D01*
X96863440Y-153285524D01*
X96798647Y-153318966D01*
X96740857Y-153333000D01*
X94387049Y-153333000D01*
X94318928Y-153312998D01*
X94297954Y-153296095D01*
X92265954Y-151264095D01*
X92231928Y-151201783D01*
X92236993Y-151130968D01*
X92265954Y-151085905D01*
X93218810Y-150133049D01*
X93231193Y-150122188D01*
X93254389Y-150104389D01*
X93277208Y-150074651D01*
X93277210Y-150074649D01*
X93345274Y-149985946D01*
X93402406Y-149848017D01*
X93407015Y-149813008D01*
X93417000Y-149737166D01*
X93417000Y-149737160D01*
X93421892Y-149700000D01*
X93418078Y-149671027D01*
X93417000Y-149654582D01*
X93417000Y-147093096D01*
X97140729Y-147093096D01*
X97141563Y-147100646D01*
X97155378Y-147225778D01*
X97158113Y-147250553D01*
X97160723Y-147257684D01*
X97160723Y-147257686D01*
X97181109Y-147313392D01*
X97212553Y-147399319D01*
X97216789Y-147405622D01*
X97216789Y-147405623D01*
X97265220Y-147477695D01*
X97300908Y-147530805D01*
X97306527Y-147535918D01*
X97306528Y-147535919D01*
X97412460Y-147632309D01*
X97418076Y-147637419D01*
X97557293Y-147713008D01*
X97710522Y-147753207D01*
X97794477Y-147754526D01*
X97861319Y-147755576D01*
X97861322Y-147755576D01*
X97868916Y-147755695D01*
X98023332Y-147720329D01*
X98124970Y-147669211D01*
X98158072Y-147652563D01*
X98158075Y-147652561D01*
X98164855Y-147649151D01*
X98170626Y-147644222D01*
X98170629Y-147644220D01*
X98279542Y-147551199D01*
X98279543Y-147551198D01*
X98285314Y-147546269D01*
X98289745Y-147540103D01*
X98312402Y-147508573D01*
X98368397Y-147464926D01*
X98414724Y-147456100D01*
X105200309Y-147456100D01*
X105268430Y-147476102D01*
X105289404Y-147493005D01*
X112436833Y-154640435D01*
X112449505Y-154656125D01*
X112452327Y-154659226D01*
X112457975Y-154667974D01*
X112466153Y-154674421D01*
X112482367Y-154687203D01*
X112486397Y-154690784D01*
X112486480Y-154690686D01*
X112490437Y-154694039D01*
X112494118Y-154697720D01*
X112498350Y-154700744D01*
X112498352Y-154700746D01*
X112508711Y-154708149D01*
X112513456Y-154711712D01*
X112542895Y-154734920D01*
X112542897Y-154734921D01*
X112551075Y-154741368D01*
X112559180Y-154744214D01*
X112566171Y-154749210D01*
X112601462Y-154759764D01*
X112612071Y-154762937D01*
X112617715Y-154764771D01*
X112655447Y-154778021D01*
X112655450Y-154778022D01*
X112662929Y-154780648D01*
X112668148Y-154781100D01*
X112670859Y-154781100D01*
X112673135Y-154781198D01*
X112673585Y-154781333D01*
X112673583Y-154781387D01*
X112673814Y-154781402D01*
X112679751Y-154783177D01*
X112730149Y-154781197D01*
X112735095Y-154781100D01*
X117408572Y-154781100D01*
X117476693Y-154801102D01*
X117513152Y-154836822D01*
X117525908Y-154855805D01*
X117531526Y-154860917D01*
X117628107Y-154948798D01*
X117643076Y-154962419D01*
X117782293Y-155038008D01*
X117935522Y-155078207D01*
X118019477Y-155079526D01*
X118086319Y-155080576D01*
X118086322Y-155080576D01*
X118093916Y-155080695D01*
X118248332Y-155045329D01*
X118342295Y-154998071D01*
X118383072Y-154977563D01*
X118383075Y-154977561D01*
X118389855Y-154974151D01*
X118395626Y-154969222D01*
X118395629Y-154969220D01*
X118504536Y-154876204D01*
X118504536Y-154876203D01*
X118510314Y-154871269D01*
X118602755Y-154742624D01*
X118661842Y-154595641D01*
X118678972Y-154475273D01*
X118683581Y-154442891D01*
X118683581Y-154442888D01*
X118684162Y-154438807D01*
X118684307Y-154425000D01*
X118665276Y-154267733D01*
X118609280Y-154119546D01*
X118602748Y-154110042D01*
X118523855Y-153995251D01*
X118523854Y-153995249D01*
X118519553Y-153988992D01*
X118401275Y-153883611D01*
X118393889Y-153879700D01*
X118267988Y-153813039D01*
X118267989Y-153813039D01*
X118261274Y-153809484D01*
X118107633Y-153770892D01*
X118100034Y-153770852D01*
X118100033Y-153770852D01*
X118034181Y-153770507D01*
X117949221Y-153770062D01*
X117941841Y-153771834D01*
X117941839Y-153771834D01*
X117802563Y-153805271D01*
X117802560Y-153805272D01*
X117795184Y-153807043D01*
X117654414Y-153879700D01*
X117535039Y-153983838D01*
X117530672Y-153990051D01*
X117530667Y-153990057D01*
X117512890Y-154015351D01*
X117457356Y-154059583D01*
X117409804Y-154068900D01*
X112924692Y-154068900D01*
X112856571Y-154048898D01*
X112835597Y-154031995D01*
X105688167Y-146884565D01*
X105675495Y-146868875D01*
X105672673Y-146865774D01*
X105667025Y-146857026D01*
X105642633Y-146837797D01*
X105638603Y-146834216D01*
X105638520Y-146834314D01*
X105634563Y-146830961D01*
X105630882Y-146827280D01*
X105626648Y-146824254D01*
X105616289Y-146816851D01*
X105611544Y-146813288D01*
X105582105Y-146790080D01*
X105582103Y-146790079D01*
X105573925Y-146783632D01*
X105565820Y-146780786D01*
X105558829Y-146775790D01*
X105512938Y-146762066D01*
X105507293Y-146760232D01*
X105469553Y-146746979D01*
X105469550Y-146746978D01*
X105462071Y-146744352D01*
X105456852Y-146743900D01*
X105454141Y-146743900D01*
X105451864Y-146743802D01*
X105451415Y-146743667D01*
X105451417Y-146743613D01*
X105451184Y-146743598D01*
X105445248Y-146741823D01*
X105395385Y-146743782D01*
X105394850Y-146743803D01*
X105389904Y-146743900D01*
X98415764Y-146743900D01*
X98347643Y-146723898D01*
X98311924Y-146689267D01*
X98298855Y-146670251D01*
X98298854Y-146670249D01*
X98294553Y-146663992D01*
X98176275Y-146558611D01*
X98168889Y-146554700D01*
X98072954Y-146503905D01*
X98036274Y-146484484D01*
X97882633Y-146445892D01*
X97875034Y-146445852D01*
X97875033Y-146445852D01*
X97809181Y-146445507D01*
X97724221Y-146445062D01*
X97716841Y-146446834D01*
X97716839Y-146446834D01*
X97577563Y-146480271D01*
X97577560Y-146480272D01*
X97570184Y-146482043D01*
X97429414Y-146554700D01*
X97310039Y-146658838D01*
X97218950Y-146788444D01*
X97161406Y-146936037D01*
X97160414Y-146943570D01*
X97160414Y-146943571D01*
X97145973Y-147053266D01*
X97140729Y-147093096D01*
X93417000Y-147093096D01*
X93417000Y-146837049D01*
X93437002Y-146768928D01*
X93453905Y-146747954D01*
X94797954Y-145403905D01*
X94860266Y-145369879D01*
X94887049Y-145367000D01*
X105704583Y-145367000D01*
X105721028Y-145368078D01*
X105750000Y-145371892D01*
X105758189Y-145370814D01*
X105758190Y-145370814D01*
X105787154Y-145367001D01*
X105787164Y-145367000D01*
X105787166Y-145367000D01*
X105898017Y-145352406D01*
X106035946Y-145295274D01*
X106042882Y-145289952D01*
X106042886Y-145289950D01*
X106051530Y-145283317D01*
X106056651Y-145281337D01*
X106063235Y-145277218D01*
X106063237Y-145277217D01*
X106063897Y-145278536D01*
X106117751Y-145257718D01*
X106187300Y-145271984D01*
X106217327Y-145294186D01*
X106841951Y-145918810D01*
X106852812Y-145931193D01*
X106870611Y-145954389D01*
X106900349Y-145977208D01*
X106900351Y-145977210D01*
X106974364Y-146034002D01*
X106989054Y-146045274D01*
X107126983Y-146102406D01*
X107237834Y-146117000D01*
X107237836Y-146117000D01*
X107237846Y-146117001D01*
X107266810Y-146120814D01*
X107266811Y-146120814D01*
X107275000Y-146121892D01*
X107283189Y-146120814D01*
X107303973Y-146118078D01*
X107320418Y-146117000D01*
X108140557Y-146117000D01*
X108200679Y-146132269D01*
X108257293Y-146163008D01*
X108410522Y-146203207D01*
X108494477Y-146204526D01*
X108561319Y-146205576D01*
X108561322Y-146205576D01*
X108568916Y-146205695D01*
X108723332Y-146170329D01*
X108799007Y-146132269D01*
X108858072Y-146102563D01*
X108858075Y-146102561D01*
X108864855Y-146099151D01*
X108870626Y-146094222D01*
X108870629Y-146094220D01*
X108979536Y-146001204D01*
X108979536Y-146001203D01*
X108985314Y-145996269D01*
X109077755Y-145867624D01*
X109131019Y-145735126D01*
X109158831Y-145693028D01*
X109947954Y-144903905D01*
X110010266Y-144869879D01*
X110037049Y-144867000D01*
X115037951Y-144867000D01*
X115106072Y-144887002D01*
X115127046Y-144903905D01*
X115663046Y-145439905D01*
X115697072Y-145502217D01*
X115692007Y-145573032D01*
X115649460Y-145629868D01*
X115582940Y-145654679D01*
X115573951Y-145655000D01*
X115333887Y-145655000D01*
X115319077Y-145654127D01*
X115295217Y-145651303D01*
X115285864Y-145650196D01*
X115276600Y-145651888D01*
X115276599Y-145651888D01*
X115228874Y-145660604D01*
X115224970Y-145661254D01*
X115176985Y-145668468D01*
X115176984Y-145668468D01*
X115167674Y-145669868D01*
X115161244Y-145672956D01*
X115154228Y-145674237D01*
X115145871Y-145678578D01*
X115145866Y-145678580D01*
X115102807Y-145700948D01*
X115099330Y-145702686D01*
X115047048Y-145727792D01*
X115041808Y-145732636D01*
X115035482Y-145735922D01*
X115030491Y-145740184D01*
X114993712Y-145776963D01*
X114990146Y-145780392D01*
X114948786Y-145818625D01*
X114945130Y-145824919D01*
X114939753Y-145830922D01*
X114162263Y-146608412D01*
X114099951Y-146642438D01*
X114072510Y-146645315D01*
X114024221Y-146645062D01*
X114016841Y-146646834D01*
X114016839Y-146646834D01*
X113877563Y-146680271D01*
X113877560Y-146680272D01*
X113870184Y-146682043D01*
X113729414Y-146754700D01*
X113610039Y-146858838D01*
X113518950Y-146988444D01*
X113461406Y-147136037D01*
X113460414Y-147143570D01*
X113460414Y-147143571D01*
X113441855Y-147284546D01*
X113440729Y-147293096D01*
X113441563Y-147300646D01*
X113456146Y-147432733D01*
X113458113Y-147450553D01*
X113460723Y-147457684D01*
X113460723Y-147457686D01*
X113509143Y-147590000D01*
X113512553Y-147599319D01*
X113516789Y-147605622D01*
X113516789Y-147605623D01*
X113568776Y-147682987D01*
X113600908Y-147730805D01*
X113606527Y-147735918D01*
X113606528Y-147735919D01*
X113641453Y-147767698D01*
X113718076Y-147837419D01*
X113857293Y-147913008D01*
X114010522Y-147953207D01*
X114094477Y-147954526D01*
X114161319Y-147955576D01*
X114161322Y-147955576D01*
X114168916Y-147955695D01*
X114323332Y-147920329D01*
X114394976Y-147884296D01*
X114458072Y-147852563D01*
X114458075Y-147852561D01*
X114464855Y-147849151D01*
X114470626Y-147844222D01*
X114470629Y-147844220D01*
X114579536Y-147751204D01*
X114579536Y-147751203D01*
X114585314Y-147746269D01*
X114677755Y-147617624D01*
X114736842Y-147470641D01*
X114759162Y-147313807D01*
X114759173Y-147312730D01*
X114784038Y-147246986D01*
X114795465Y-147233860D01*
X115447420Y-146581905D01*
X115509732Y-146547879D01*
X115536515Y-146545000D01*
X117563485Y-146545000D01*
X117631606Y-146565002D01*
X117652580Y-146581905D01*
X118318095Y-147247420D01*
X118352121Y-147309732D01*
X118355000Y-147336515D01*
X118355000Y-147869486D01*
X118354127Y-147884296D01*
X118350196Y-147917509D01*
X118357171Y-147955695D01*
X118360605Y-147974499D01*
X118361255Y-147978407D01*
X118369868Y-148035699D01*
X118372956Y-148042130D01*
X118374237Y-148049144D01*
X118397031Y-148093024D01*
X118400944Y-148100557D01*
X118402713Y-148104097D01*
X118427792Y-148156325D01*
X118432634Y-148161563D01*
X118435921Y-148167891D01*
X118440184Y-148172882D01*
X118476963Y-148209661D01*
X118480392Y-148213227D01*
X118518625Y-148254587D01*
X118524919Y-148258243D01*
X118530922Y-148263620D01*
X119058000Y-148790698D01*
X119067855Y-148801787D01*
X119088563Y-148828055D01*
X119096310Y-148833410D01*
X119096312Y-148833411D01*
X119113632Y-148845381D01*
X119135194Y-148860283D01*
X119136208Y-148860984D01*
X119139431Y-148863287D01*
X119186046Y-148897718D01*
X119192777Y-148900082D01*
X119198643Y-148904136D01*
X119253861Y-148921599D01*
X119257602Y-148922847D01*
X119303413Y-148938935D01*
X119303418Y-148938936D01*
X119312300Y-148942055D01*
X119319429Y-148942335D01*
X119326227Y-148944485D01*
X119332770Y-148945000D01*
X119384786Y-148945000D01*
X119389732Y-148945097D01*
X119446011Y-148947308D01*
X119453046Y-148945443D01*
X119461092Y-148945000D01*
X120263485Y-148945000D01*
X120331606Y-148965002D01*
X120352580Y-148981905D01*
X126286373Y-154915698D01*
X126296228Y-154926787D01*
X126316936Y-154953055D01*
X126324683Y-154958410D01*
X126324685Y-154958411D01*
X126364581Y-154985984D01*
X126367804Y-154988287D01*
X126414420Y-155022719D01*
X126412239Y-155025672D01*
X126450290Y-155062744D01*
X126466500Y-155124567D01*
X126466500Y-164037183D01*
X126446498Y-164105304D01*
X126429595Y-164126278D01*
X125755804Y-164800069D01*
X125693492Y-164834095D01*
X125622677Y-164829030D01*
X125607751Y-164822329D01*
X125542986Y-164788038D01*
X125542987Y-164788038D01*
X125536274Y-164784484D01*
X125382633Y-164745892D01*
X125375034Y-164745852D01*
X125375033Y-164745852D01*
X125309181Y-164745507D01*
X125224221Y-164745062D01*
X125216841Y-164746834D01*
X125216839Y-164746834D01*
X125077563Y-164780271D01*
X125077560Y-164780272D01*
X125070184Y-164782043D01*
X124929414Y-164854700D01*
X124810039Y-164958838D01*
X124718950Y-165088444D01*
X124661406Y-165236037D01*
X124640729Y-165393096D01*
X124658113Y-165550553D01*
X124712553Y-165699319D01*
X124716789Y-165705622D01*
X124716789Y-165705623D01*
X124781475Y-165801885D01*
X124800908Y-165830805D01*
X124806527Y-165835918D01*
X124806528Y-165835919D01*
X124887567Y-165909658D01*
X124918076Y-165937419D01*
X125057293Y-166013008D01*
X125210522Y-166053207D01*
X125294477Y-166054526D01*
X125361319Y-166055576D01*
X125361322Y-166055576D01*
X125368916Y-166055695D01*
X125523332Y-166020329D01*
X125600490Y-165981523D01*
X125658072Y-165952563D01*
X125658075Y-165952561D01*
X125664855Y-165949151D01*
X125677103Y-165938690D01*
X125741892Y-165909658D01*
X125758935Y-165908500D01*
X125803928Y-165908500D01*
X125816058Y-165909855D01*
X125816097Y-165909373D01*
X125825044Y-165910093D01*
X125833800Y-165912074D01*
X125887508Y-165908742D01*
X125895310Y-165908500D01*
X125911513Y-165908500D01*
X125920429Y-165907223D01*
X125921878Y-165907016D01*
X125931928Y-165905987D01*
X125970216Y-165903611D01*
X125979177Y-165903055D01*
X125987623Y-165900006D01*
X125990514Y-165899407D01*
X126007480Y-165895178D01*
X126010305Y-165894352D01*
X126019187Y-165893080D01*
X126062298Y-165873478D01*
X126071649Y-165869672D01*
X126107735Y-165856645D01*
X126116181Y-165853596D01*
X126123429Y-165848301D01*
X126126027Y-165846920D01*
X126141145Y-165838085D01*
X126143614Y-165836506D01*
X126151782Y-165832792D01*
X126187653Y-165801884D01*
X126195569Y-165795599D01*
X126202615Y-165790452D01*
X126202620Y-165790447D01*
X126206552Y-165787575D01*
X126217527Y-165776600D01*
X126224375Y-165770242D01*
X126255323Y-165743576D01*
X126255324Y-165743575D01*
X126262127Y-165737713D01*
X126267011Y-165730178D01*
X126272458Y-165723934D01*
X126282058Y-165712069D01*
X127284304Y-164709823D01*
X127293844Y-164702200D01*
X127293530Y-164701832D01*
X127300366Y-164696014D01*
X127307958Y-164691224D01*
X127343593Y-164650875D01*
X127348939Y-164645188D01*
X127360382Y-164633745D01*
X127366659Y-164625370D01*
X127373033Y-164617541D01*
X127404378Y-164582049D01*
X127408192Y-164573926D01*
X127409826Y-164571438D01*
X127418814Y-164556477D01*
X127420229Y-164553892D01*
X127425616Y-164546705D01*
X127442241Y-164502357D01*
X127446168Y-164493040D01*
X127462466Y-164458326D01*
X127466281Y-164450200D01*
X127467662Y-164441331D01*
X127468528Y-164438498D01*
X127472958Y-164421611D01*
X127473592Y-164418726D01*
X127476745Y-164410316D01*
X127480254Y-164363094D01*
X127481408Y-164353048D01*
X127482751Y-164344425D01*
X127482751Y-164344422D01*
X127483500Y-164339614D01*
X127483500Y-164324094D01*
X127483846Y-164314757D01*
X127486874Y-164274007D01*
X127487539Y-164265059D01*
X127485665Y-164256280D01*
X127485102Y-164248022D01*
X127483500Y-164232839D01*
X127483500Y-155079577D01*
X127507178Y-155006051D01*
X127520783Y-154987117D01*
X127552755Y-154942624D01*
X127611842Y-154795641D01*
X127623495Y-154713757D01*
X127633581Y-154642891D01*
X127633581Y-154642888D01*
X127634162Y-154638807D01*
X127634307Y-154625000D01*
X127615276Y-154467733D01*
X127559280Y-154319546D01*
X127523670Y-154267733D01*
X127473855Y-154195251D01*
X127473854Y-154195249D01*
X127469553Y-154188992D01*
X127351275Y-154083611D01*
X127211274Y-154009484D01*
X127057633Y-153970892D01*
X127050034Y-153970852D01*
X127050033Y-153970852D01*
X126984181Y-153970507D01*
X126899221Y-153970062D01*
X126891841Y-153971834D01*
X126891839Y-153971834D01*
X126841840Y-153983838D01*
X126745184Y-154007043D01*
X126741111Y-154009145D01*
X126671571Y-154014052D01*
X126609377Y-153980052D01*
X120838627Y-148209302D01*
X120828772Y-148198213D01*
X120813895Y-148179342D01*
X120808064Y-148171945D01*
X120800317Y-148166590D01*
X120800315Y-148166589D01*
X120760419Y-148139016D01*
X120757196Y-148136713D01*
X120718160Y-148107880D01*
X120710581Y-148102282D01*
X120703850Y-148099918D01*
X120697984Y-148095864D01*
X120642766Y-148078401D01*
X120639025Y-148077153D01*
X120593214Y-148061065D01*
X120593209Y-148061064D01*
X120584327Y-148057945D01*
X120577198Y-148057665D01*
X120570400Y-148055515D01*
X120563857Y-148055000D01*
X120511841Y-148055000D01*
X120506895Y-148054903D01*
X120506633Y-148054893D01*
X120450616Y-148052692D01*
X120443581Y-148054557D01*
X120435535Y-148055000D01*
X120405462Y-148055000D01*
X120337341Y-148034998D01*
X120290848Y-147981342D01*
X120280744Y-147911068D01*
X120288555Y-147882004D01*
X120334506Y-147767698D01*
X120334508Y-147767691D01*
X120337342Y-147760641D01*
X120354363Y-147641042D01*
X120359081Y-147607891D01*
X120359081Y-147607888D01*
X120359662Y-147603807D01*
X120359807Y-147590000D01*
X120340776Y-147432733D01*
X120284780Y-147284546D01*
X120217152Y-147186146D01*
X120199355Y-147160251D01*
X120199354Y-147160249D01*
X120195053Y-147153992D01*
X120124181Y-147090847D01*
X120086626Y-147030598D01*
X120082000Y-146996771D01*
X120082000Y-146593000D01*
X120102002Y-146524879D01*
X120155658Y-146478386D01*
X120208000Y-146467000D01*
X123637951Y-146467000D01*
X123706072Y-146487002D01*
X123727046Y-146503905D01*
X126496788Y-149273647D01*
X126530814Y-149335959D01*
X126531244Y-149338590D01*
X126532280Y-149343006D01*
X126533113Y-149350553D01*
X126535723Y-149357685D01*
X126580876Y-149481072D01*
X126587553Y-149499319D01*
X126591789Y-149505622D01*
X126591789Y-149505623D01*
X126653310Y-149597175D01*
X126675908Y-149630805D01*
X126681527Y-149635918D01*
X126681528Y-149635919D01*
X126742953Y-149691811D01*
X126793076Y-149737419D01*
X126799749Y-149741042D01*
X126925616Y-149809383D01*
X126925618Y-149809384D01*
X126932293Y-149813008D01*
X127040088Y-149841287D01*
X127097209Y-149874068D01*
X128596095Y-151372954D01*
X128630121Y-151435266D01*
X128633000Y-151462049D01*
X128633000Y-159004583D01*
X128631922Y-159021028D01*
X128628108Y-159050000D01*
X128633000Y-159087160D01*
X128633000Y-159087166D01*
X128643846Y-159169546D01*
X128647594Y-159198017D01*
X128704726Y-159335946D01*
X128772790Y-159424649D01*
X128772792Y-159424651D01*
X128795611Y-159454389D01*
X128818807Y-159472188D01*
X128831190Y-159483049D01*
X130666951Y-161318810D01*
X130677812Y-161331193D01*
X130695611Y-161354389D01*
X130725349Y-161377208D01*
X130725351Y-161377210D01*
X130814054Y-161445274D01*
X130900787Y-161481200D01*
X130940965Y-161497842D01*
X130951983Y-161502406D01*
X131100000Y-161521893D01*
X131128981Y-161518078D01*
X131145424Y-161517000D01*
X134287166Y-161517000D01*
X134398017Y-161502406D01*
X134535946Y-161445274D01*
X134654389Y-161354389D01*
X134659413Y-161347842D01*
X134664252Y-161343003D01*
X134726565Y-161308979D01*
X134753345Y-161306100D01*
X138398572Y-161306100D01*
X138418621Y-161308234D01*
X138422811Y-161308432D01*
X138432993Y-161310624D01*
X138463840Y-161306973D01*
X138469215Y-161306656D01*
X138469204Y-161306528D01*
X138474382Y-161306100D01*
X138479584Y-161306100D01*
X138490919Y-161304213D01*
X138497243Y-161303161D01*
X138503115Y-161302326D01*
X138540374Y-161297916D01*
X138540381Y-161297914D01*
X138550722Y-161296690D01*
X138558468Y-161292970D01*
X138566942Y-161291560D01*
X138609109Y-161268808D01*
X138614396Y-161266115D01*
X138650442Y-161248805D01*
X138650445Y-161248803D01*
X138657590Y-161245372D01*
X138661600Y-161242001D01*
X138663538Y-161240063D01*
X138665189Y-161238548D01*
X138665599Y-161238327D01*
X138665637Y-161238369D01*
X138665820Y-161238208D01*
X138671274Y-161235265D01*
X138705519Y-161198219D01*
X138708949Y-161194652D01*
X139314223Y-160589379D01*
X139376535Y-160555354D01*
X139410509Y-160554029D01*
X139410522Y-160553207D01*
X139561319Y-160555576D01*
X139561322Y-160555576D01*
X139568916Y-160555695D01*
X139723332Y-160520329D01*
X139822103Y-160470653D01*
X139858072Y-160452563D01*
X139858075Y-160452561D01*
X139864855Y-160449151D01*
X139870626Y-160444222D01*
X139870629Y-160444220D01*
X139979536Y-160351204D01*
X139979536Y-160351203D01*
X139985314Y-160346269D01*
X140077755Y-160217624D01*
X140136842Y-160070641D01*
X140159162Y-159913807D01*
X140159307Y-159900000D01*
X140140276Y-159742733D01*
X140084280Y-159594546D01*
X140008773Y-159484682D01*
X139998855Y-159470251D01*
X139998854Y-159470249D01*
X139994553Y-159463992D01*
X139876275Y-159358611D01*
X139868889Y-159354700D01*
X139742988Y-159288039D01*
X139742989Y-159288039D01*
X139736274Y-159284484D01*
X139582633Y-159245892D01*
X139575034Y-159245852D01*
X139575033Y-159245852D01*
X139509181Y-159245507D01*
X139424221Y-159245062D01*
X139416841Y-159246834D01*
X139416839Y-159246834D01*
X139277563Y-159280271D01*
X139277560Y-159280272D01*
X139270184Y-159282043D01*
X139129414Y-159354700D01*
X139010039Y-159458838D01*
X138918950Y-159588444D01*
X138861406Y-159736037D01*
X138840729Y-159893096D01*
X138850254Y-159979367D01*
X138837848Y-160049270D01*
X138814110Y-160082288D01*
X138339403Y-160556995D01*
X138277091Y-160591021D01*
X138250308Y-160593900D01*
X134753345Y-160593900D01*
X134685224Y-160573898D01*
X134664252Y-160556997D01*
X134659413Y-160552158D01*
X134654389Y-160545611D01*
X134535946Y-160454726D01*
X134398017Y-160397594D01*
X134287166Y-160383000D01*
X131387049Y-160383000D01*
X131318928Y-160362998D01*
X131297954Y-160346095D01*
X129803905Y-158852046D01*
X129769879Y-158789734D01*
X129767000Y-158762951D01*
X129767000Y-158368096D01*
X136865729Y-158368096D01*
X136883113Y-158525553D01*
X136885723Y-158532684D01*
X136885723Y-158532686D01*
X136917776Y-158620274D01*
X136937553Y-158674319D01*
X137025908Y-158805805D01*
X137031527Y-158810918D01*
X137031528Y-158810919D01*
X137084901Y-158859484D01*
X137143076Y-158912419D01*
X137282293Y-158988008D01*
X137435522Y-159028207D01*
X137519477Y-159029526D01*
X137586319Y-159030576D01*
X137586322Y-159030576D01*
X137593916Y-159030695D01*
X137748332Y-158995329D01*
X137818742Y-158959917D01*
X137883072Y-158927563D01*
X137883075Y-158927561D01*
X137889855Y-158924151D01*
X137895626Y-158919222D01*
X137895629Y-158919220D01*
X138004542Y-158826199D01*
X138004543Y-158826198D01*
X138010314Y-158821269D01*
X138014745Y-158815103D01*
X138056516Y-158756973D01*
X138112511Y-158713326D01*
X138158838Y-158704500D01*
X141100971Y-158704500D01*
X141169092Y-158724502D01*
X141190066Y-158741405D01*
X141739362Y-159290701D01*
X141773388Y-159353013D01*
X141775189Y-159396243D01*
X141767534Y-159454389D01*
X141765729Y-159468096D01*
X141774421Y-159546825D01*
X141779798Y-159595524D01*
X141783113Y-159625553D01*
X141785723Y-159632684D01*
X141785723Y-159632686D01*
X141828754Y-159750273D01*
X141837553Y-159774319D01*
X141925908Y-159905805D01*
X141931527Y-159910918D01*
X141931528Y-159910919D01*
X141939190Y-159917891D01*
X142043076Y-160012419D01*
X142182293Y-160088008D01*
X142335522Y-160128207D01*
X142419477Y-160129526D01*
X142486319Y-160130576D01*
X142486322Y-160130576D01*
X142493916Y-160130695D01*
X142648332Y-160095329D01*
X142759327Y-160039505D01*
X142783072Y-160027563D01*
X142783075Y-160027561D01*
X142789855Y-160024151D01*
X142795626Y-160019222D01*
X142795629Y-160019220D01*
X142904536Y-159926204D01*
X142904536Y-159926203D01*
X142910314Y-159921269D01*
X143002755Y-159792624D01*
X143061842Y-159645641D01*
X143084162Y-159488807D01*
X143084307Y-159475000D01*
X143065276Y-159317733D01*
X143009280Y-159169546D01*
X142919553Y-159038992D01*
X142801275Y-158933611D01*
X142661274Y-158859484D01*
X142507633Y-158820892D01*
X142500034Y-158820852D01*
X142500033Y-158820852D01*
X142430454Y-158820488D01*
X142349221Y-158820062D01*
X142341833Y-158821836D01*
X142340802Y-158821955D01*
X142270833Y-158809915D01*
X142237225Y-158785886D01*
X141586916Y-158135578D01*
X141574414Y-158120098D01*
X141571475Y-158116868D01*
X141565825Y-158108118D01*
X141541562Y-158088991D01*
X141537567Y-158085441D01*
X141537483Y-158085540D01*
X141533520Y-158082182D01*
X141529844Y-158078506D01*
X141518675Y-158070524D01*
X141515348Y-158068146D01*
X141510605Y-158064585D01*
X141481325Y-158041503D01*
X141481321Y-158041501D01*
X141473143Y-158035054D01*
X141465075Y-158032221D01*
X141458115Y-158027247D01*
X141412414Y-158013580D01*
X141406765Y-158011744D01*
X141369269Y-157998576D01*
X141369270Y-157998576D01*
X141361792Y-157995950D01*
X141356596Y-157995500D01*
X141353891Y-157995500D01*
X141351635Y-157995403D01*
X141351159Y-157995260D01*
X141351161Y-157995214D01*
X141350962Y-157995201D01*
X141345045Y-157993432D01*
X141295411Y-157995382D01*
X141294876Y-157995403D01*
X141289930Y-157995500D01*
X138124682Y-157995500D01*
X138056561Y-157975498D01*
X138030114Y-157949860D01*
X138028878Y-157950949D01*
X138023855Y-157945251D01*
X138019553Y-157938992D01*
X137996172Y-157918160D01*
X137953401Y-157880053D01*
X137901275Y-157833611D01*
X137893889Y-157829700D01*
X137794730Y-157777198D01*
X137761274Y-157759484D01*
X137607633Y-157720892D01*
X137600034Y-157720852D01*
X137600033Y-157720852D01*
X137534181Y-157720507D01*
X137449221Y-157720062D01*
X137441841Y-157721834D01*
X137441839Y-157721834D01*
X137302563Y-157755271D01*
X137302560Y-157755272D01*
X137295184Y-157757043D01*
X137154414Y-157829700D01*
X137035039Y-157933838D01*
X136943950Y-158063444D01*
X136886406Y-158211037D01*
X136885414Y-158218570D01*
X136885414Y-158218571D01*
X136868466Y-158347308D01*
X136865729Y-158368096D01*
X129767000Y-158368096D01*
X129767000Y-151220417D01*
X129768078Y-151203971D01*
X129770814Y-151183188D01*
X129771892Y-151175000D01*
X129768078Y-151146028D01*
X129767000Y-151129583D01*
X129767000Y-134920417D01*
X129768078Y-134903971D01*
X129770814Y-134883188D01*
X129771892Y-134875000D01*
X129767000Y-134837840D01*
X129767000Y-134837834D01*
X129752406Y-134726983D01*
X129695274Y-134589054D01*
X129627210Y-134500351D01*
X129627208Y-134500349D01*
X129604389Y-134470611D01*
X129581193Y-134452812D01*
X129568810Y-134441951D01*
X126908049Y-131781190D01*
X126897188Y-131768807D01*
X126879389Y-131745611D01*
X126849651Y-131722792D01*
X126849649Y-131722790D01*
X126760946Y-131654726D01*
X126623017Y-131597594D01*
X126623009Y-131597593D01*
X126512166Y-131583000D01*
X126512163Y-131583000D01*
X126512154Y-131582999D01*
X126483190Y-131579186D01*
X126483189Y-131579186D01*
X126475000Y-131578108D01*
X126466811Y-131579186D01*
X126446027Y-131581922D01*
X126429582Y-131583000D01*
X125407757Y-131583000D01*
X125339636Y-131562998D01*
X125323938Y-131551077D01*
X125318346Y-131546095D01*
X125276275Y-131508611D01*
X125268889Y-131504700D01*
X125142988Y-131438039D01*
X125142989Y-131438039D01*
X125136274Y-131434484D01*
X124982633Y-131395892D01*
X124975034Y-131395852D01*
X124975033Y-131395852D01*
X124909181Y-131395507D01*
X124824221Y-131395062D01*
X124816841Y-131396834D01*
X124816839Y-131396834D01*
X124677563Y-131430271D01*
X124677560Y-131430272D01*
X124670184Y-131432043D01*
X124663439Y-131435524D01*
X124663440Y-131435524D01*
X124549998Y-131494076D01*
X124529414Y-131504700D01*
X124523692Y-131509692D01*
X124523690Y-131509693D01*
X124475251Y-131551949D01*
X124410769Y-131581657D01*
X124392422Y-131583000D01*
X123237049Y-131583000D01*
X123168928Y-131562998D01*
X123147954Y-131546095D01*
X122628905Y-131027046D01*
X122594879Y-130964734D01*
X122592000Y-130937951D01*
X122592000Y-130106565D01*
X122601092Y-130059571D01*
X122636842Y-129970641D01*
X122648737Y-129887062D01*
X122658581Y-129817891D01*
X122658581Y-129817888D01*
X122659162Y-129813807D01*
X122659307Y-129800000D01*
X122640276Y-129642733D01*
X122600134Y-129536501D01*
X122592000Y-129491964D01*
X122592000Y-125837049D01*
X122612002Y-125768928D01*
X122628905Y-125747954D01*
X125536052Y-122840807D01*
X125597017Y-122807082D01*
X125640929Y-122797025D01*
X125640933Y-122797024D01*
X125648332Y-122795329D01*
X125730695Y-122753905D01*
X125777361Y-122730435D01*
X125833975Y-122717000D01*
X132387951Y-122717000D01*
X132456072Y-122737002D01*
X132477046Y-122753905D01*
X132622790Y-122899649D01*
X133187850Y-123464710D01*
X133187853Y-123464712D01*
X133964665Y-124241524D01*
X133998691Y-124303836D01*
X133993626Y-124374651D01*
X133964669Y-124419709D01*
X133001596Y-125382782D01*
X132939286Y-125416806D01*
X132911843Y-125419683D01*
X132879217Y-125419512D01*
X132774221Y-125418962D01*
X132766841Y-125420734D01*
X132766839Y-125420734D01*
X132627563Y-125454171D01*
X132627560Y-125454172D01*
X132620184Y-125455943D01*
X132479414Y-125528600D01*
X132360039Y-125632738D01*
X132268950Y-125762344D01*
X132266190Y-125769424D01*
X132217659Y-125893900D01*
X132211406Y-125909937D01*
X132210414Y-125917470D01*
X132210414Y-125917471D01*
X132203130Y-125972802D01*
X132190729Y-126066996D01*
X132208113Y-126224453D01*
X132210723Y-126231584D01*
X132210723Y-126231586D01*
X132217315Y-126249599D01*
X132221941Y-126320445D01*
X132187531Y-126382545D01*
X132125009Y-126416184D01*
X132098989Y-126418900D01*
X126734910Y-126418900D01*
X126714849Y-126416765D01*
X126710665Y-126416568D01*
X126700485Y-126414376D01*
X126669638Y-126418027D01*
X126664263Y-126418344D01*
X126664274Y-126418472D01*
X126659096Y-126418900D01*
X126653894Y-126418900D01*
X126643434Y-126420641D01*
X126636235Y-126421839D01*
X126630363Y-126422674D01*
X126593104Y-126427084D01*
X126593097Y-126427086D01*
X126582756Y-126428310D01*
X126575010Y-126432030D01*
X126566536Y-126433440D01*
X126527930Y-126454270D01*
X126524369Y-126456192D01*
X126519082Y-126458885D01*
X126486057Y-126474745D01*
X126475888Y-126479628D01*
X126471878Y-126482998D01*
X126469955Y-126484921D01*
X126468282Y-126486455D01*
X126467873Y-126486676D01*
X126467836Y-126486635D01*
X126467658Y-126486792D01*
X126462204Y-126489735D01*
X126455136Y-126497382D01*
X126455135Y-126497382D01*
X126427959Y-126526781D01*
X126424529Y-126530347D01*
X125809565Y-127145311D01*
X125793875Y-127157983D01*
X125790774Y-127160805D01*
X125782026Y-127166453D01*
X125775579Y-127174631D01*
X125762797Y-127190845D01*
X125759216Y-127194875D01*
X125759314Y-127194958D01*
X125755961Y-127198915D01*
X125752280Y-127202596D01*
X125749256Y-127206828D01*
X125749254Y-127206830D01*
X125741851Y-127217189D01*
X125738288Y-127221934D01*
X125715080Y-127251373D01*
X125715079Y-127251375D01*
X125708632Y-127259553D01*
X125705786Y-127267658D01*
X125700790Y-127274649D01*
X125697806Y-127284628D01*
X125687066Y-127320540D01*
X125685232Y-127326185D01*
X125671979Y-127363925D01*
X125669352Y-127371407D01*
X125668900Y-127376626D01*
X125668900Y-127379337D01*
X125668802Y-127381614D01*
X125668667Y-127382063D01*
X125668613Y-127382061D01*
X125668598Y-127382294D01*
X125666823Y-127388230D01*
X125668560Y-127432445D01*
X125668803Y-127438628D01*
X125668900Y-127443574D01*
X125668900Y-127484774D01*
X125648898Y-127552895D01*
X125625729Y-127579723D01*
X125540765Y-127653842D01*
X125540761Y-127653846D01*
X125535039Y-127658838D01*
X125443950Y-127788444D01*
X125416291Y-127859385D01*
X125399958Y-127901279D01*
X125386406Y-127936037D01*
X125385414Y-127943570D01*
X125385414Y-127943571D01*
X125369604Y-128063664D01*
X125365729Y-128093096D01*
X125383113Y-128250553D01*
X125437553Y-128399319D01*
X125441789Y-128405622D01*
X125441789Y-128405623D01*
X125494782Y-128484484D01*
X125525908Y-128530805D01*
X125531527Y-128535918D01*
X125531528Y-128535919D01*
X125624230Y-128620271D01*
X125643076Y-128637419D01*
X125782293Y-128713008D01*
X125935522Y-128753207D01*
X126019477Y-128754526D01*
X126086319Y-128755576D01*
X126086322Y-128755576D01*
X126093916Y-128755695D01*
X126248332Y-128720329D01*
X126318742Y-128684917D01*
X126383072Y-128652563D01*
X126383075Y-128652561D01*
X126389855Y-128649151D01*
X126442656Y-128604055D01*
X126507445Y-128575024D01*
X126577645Y-128585629D01*
X126609285Y-128606672D01*
X126624230Y-128620271D01*
X126643076Y-128637419D01*
X126782293Y-128713008D01*
X126935522Y-128753207D01*
X127019477Y-128754526D01*
X127086319Y-128755576D01*
X127086322Y-128755576D01*
X127093916Y-128755695D01*
X127248332Y-128720329D01*
X127318742Y-128684917D01*
X127383072Y-128652563D01*
X127383075Y-128652561D01*
X127389855Y-128649151D01*
X127395626Y-128644222D01*
X127395629Y-128644220D01*
X127504536Y-128551204D01*
X127504536Y-128551203D01*
X127510314Y-128546269D01*
X127602755Y-128417624D01*
X127661842Y-128270641D01*
X127677739Y-128158941D01*
X127683581Y-128117891D01*
X127683581Y-128117888D01*
X127684162Y-128113807D01*
X127684307Y-128100000D01*
X127674865Y-128021975D01*
X127686538Y-127951946D01*
X127710857Y-127917744D01*
X127985596Y-127643005D01*
X128047908Y-127608979D01*
X128074691Y-127606100D01*
X133458572Y-127606100D01*
X133526693Y-127626102D01*
X133563152Y-127661822D01*
X133575908Y-127680805D01*
X133693076Y-127787419D01*
X133832293Y-127863008D01*
X133985522Y-127903207D01*
X134069477Y-127904526D01*
X134136319Y-127905576D01*
X134136322Y-127905576D01*
X134143916Y-127905695D01*
X134298332Y-127870329D01*
X134368742Y-127834917D01*
X134433072Y-127802563D01*
X134433075Y-127802561D01*
X134439855Y-127799151D01*
X134445626Y-127794222D01*
X134445629Y-127794220D01*
X134554536Y-127701204D01*
X134554536Y-127701203D01*
X134560314Y-127696269D01*
X134652755Y-127567624D01*
X134711842Y-127420641D01*
X134734162Y-127263807D01*
X134734307Y-127250000D01*
X134715276Y-127092733D01*
X134705562Y-127067025D01*
X134688520Y-127021925D01*
X134683152Y-126951131D01*
X134716910Y-126888674D01*
X134779076Y-126854382D01*
X134852089Y-126860183D01*
X134857293Y-126863008D01*
X135010522Y-126903207D01*
X135094477Y-126904526D01*
X135161319Y-126905576D01*
X135161322Y-126905576D01*
X135168916Y-126905695D01*
X135323332Y-126870329D01*
X135435347Y-126813992D01*
X135458072Y-126802563D01*
X135458075Y-126802561D01*
X135464855Y-126799151D01*
X135470626Y-126794222D01*
X135470629Y-126794220D01*
X135579536Y-126701204D01*
X135579536Y-126701203D01*
X135585314Y-126696269D01*
X135677755Y-126567624D01*
X135736842Y-126420641D01*
X135759162Y-126263807D01*
X135759307Y-126250000D01*
X135740276Y-126092733D01*
X135684280Y-125944546D01*
X135655628Y-125902857D01*
X135598855Y-125820251D01*
X135598854Y-125820249D01*
X135594553Y-125813992D01*
X135476275Y-125708611D01*
X135468889Y-125704700D01*
X135422269Y-125680016D01*
X135336274Y-125634484D01*
X135182633Y-125595892D01*
X135175034Y-125595852D01*
X135175033Y-125595852D01*
X135109181Y-125595507D01*
X135024221Y-125595062D01*
X135016841Y-125596834D01*
X135016839Y-125596834D01*
X134877563Y-125630271D01*
X134877560Y-125630272D01*
X134870184Y-125632043D01*
X134729414Y-125704700D01*
X134610039Y-125808838D01*
X134605672Y-125815051D01*
X134605667Y-125815057D01*
X134587890Y-125840351D01*
X134532356Y-125884583D01*
X134484804Y-125893900D01*
X133968167Y-125893900D01*
X133948118Y-125891766D01*
X133943928Y-125891568D01*
X133933746Y-125889376D01*
X133923405Y-125890600D01*
X133902901Y-125893027D01*
X133897521Y-125893344D01*
X133897532Y-125893472D01*
X133892353Y-125893900D01*
X133887155Y-125893900D01*
X133882687Y-125894644D01*
X133813342Y-125880359D01*
X133762588Y-125830715D01*
X133746730Y-125761512D01*
X133770804Y-125694721D01*
X133783406Y-125680016D01*
X134460127Y-125003295D01*
X134522439Y-124969269D01*
X134581193Y-124970514D01*
X134603165Y-124976278D01*
X134603174Y-124976279D01*
X134610522Y-124978207D01*
X134694477Y-124979526D01*
X134761319Y-124980576D01*
X134761322Y-124980576D01*
X134768916Y-124980695D01*
X134923332Y-124945329D01*
X134993742Y-124909917D01*
X135058072Y-124877563D01*
X135058075Y-124877561D01*
X135064855Y-124874151D01*
X135070626Y-124869222D01*
X135070629Y-124869220D01*
X135179536Y-124776204D01*
X135179536Y-124776203D01*
X135185314Y-124771269D01*
X135277755Y-124642624D01*
X135336842Y-124495641D01*
X135342965Y-124452615D01*
X135358581Y-124342891D01*
X135358581Y-124342888D01*
X135359162Y-124338807D01*
X135359307Y-124325000D01*
X135340276Y-124167733D01*
X135284280Y-124019546D01*
X135240658Y-123956076D01*
X135228094Y-123932934D01*
X135220274Y-123914054D01*
X135152210Y-123825350D01*
X135152204Y-123825344D01*
X135145753Y-123816937D01*
X135120154Y-123750716D01*
X135134420Y-123681168D01*
X135184022Y-123630373D01*
X135253212Y-123614458D01*
X135277688Y-123618358D01*
X135410522Y-123653207D01*
X135496206Y-123654553D01*
X135561320Y-123655576D01*
X135561323Y-123655576D01*
X135568916Y-123655695D01*
X135576317Y-123654000D01*
X135583587Y-123653236D01*
X135653425Y-123666010D01*
X135685849Y-123689451D01*
X136206995Y-124210597D01*
X136241021Y-124272909D01*
X136243900Y-124299692D01*
X136243900Y-126600308D01*
X136223898Y-126668429D01*
X136206995Y-126689403D01*
X133184565Y-129711833D01*
X133168875Y-129724505D01*
X133165774Y-129727327D01*
X133157026Y-129732975D01*
X133150579Y-129741153D01*
X133137797Y-129757367D01*
X133134216Y-129761397D01*
X133134314Y-129761480D01*
X133130961Y-129765437D01*
X133127280Y-129769118D01*
X133124256Y-129773350D01*
X133124254Y-129773352D01*
X133116851Y-129783711D01*
X133113288Y-129788456D01*
X133090080Y-129817895D01*
X133090079Y-129817897D01*
X133083632Y-129826075D01*
X133080786Y-129834180D01*
X133075790Y-129841171D01*
X133072806Y-129851150D01*
X133062066Y-129887062D01*
X133060232Y-129892707D01*
X133046979Y-129930447D01*
X133044352Y-129937929D01*
X133043900Y-129943148D01*
X133043900Y-129945859D01*
X133043802Y-129948136D01*
X133043667Y-129948585D01*
X133043613Y-129948583D01*
X133043598Y-129948816D01*
X133041823Y-129954752D01*
X133042232Y-129965156D01*
X133043803Y-130005150D01*
X133043900Y-130010096D01*
X133043900Y-151700308D01*
X133023898Y-151768429D01*
X133006995Y-151789403D01*
X132885724Y-151910674D01*
X132823412Y-151944700D01*
X132784709Y-151946413D01*
X132782633Y-151945892D01*
X132775037Y-151945852D01*
X132775035Y-151945852D01*
X132707163Y-151945497D01*
X132624221Y-151945062D01*
X132616841Y-151946834D01*
X132616839Y-151946834D01*
X132477563Y-151980271D01*
X132477560Y-151980272D01*
X132470184Y-151982043D01*
X132329414Y-152054700D01*
X132210039Y-152158838D01*
X132118950Y-152288444D01*
X132061406Y-152436037D01*
X132060414Y-152443570D01*
X132060414Y-152443571D01*
X132059312Y-152451946D01*
X132040729Y-152593096D01*
X132058113Y-152750553D01*
X132112553Y-152899319D01*
X132200908Y-153030805D01*
X132206527Y-153035918D01*
X132206528Y-153035919D01*
X132217903Y-153046269D01*
X132318076Y-153137419D01*
X132457293Y-153213008D01*
X132610522Y-153253207D01*
X132694477Y-153254526D01*
X132761319Y-153255576D01*
X132761322Y-153255576D01*
X132768916Y-153255695D01*
X132923332Y-153220329D01*
X132993742Y-153184917D01*
X133058072Y-153152563D01*
X133058075Y-153152561D01*
X133064855Y-153149151D01*
X133070626Y-153144222D01*
X133070629Y-153144220D01*
X133179536Y-153051204D01*
X133179536Y-153051203D01*
X133185314Y-153046269D01*
X133277755Y-152917624D01*
X133336842Y-152770641D01*
X133359162Y-152613807D01*
X133359307Y-152600000D01*
X133349865Y-152521975D01*
X133361538Y-152451946D01*
X133385857Y-152417744D01*
X133580905Y-152222696D01*
X133643217Y-152188670D01*
X133714032Y-152193735D01*
X133770868Y-152236282D01*
X133795679Y-152302802D01*
X133796000Y-152311791D01*
X133796000Y-154012575D01*
X133793579Y-154037153D01*
X133791024Y-154050000D01*
X133796000Y-154075017D01*
X133810737Y-154149106D01*
X133817631Y-154159423D01*
X133817631Y-154159424D01*
X133854378Y-154214420D01*
X133866876Y-154233124D01*
X133950894Y-154289263D01*
X134050000Y-154308976D01*
X134062847Y-154306421D01*
X134087425Y-154304000D01*
X144012575Y-154304000D01*
X144037153Y-154306421D01*
X144050000Y-154308976D01*
X144149106Y-154289263D01*
X144233124Y-154233124D01*
X144289263Y-154149106D01*
X144304000Y-154075017D01*
X144308976Y-154050000D01*
X144306421Y-154037153D01*
X144304000Y-154012575D01*
X144304000Y-130487425D01*
X144306421Y-130462844D01*
X144306555Y-130462170D01*
X144308976Y-130450000D01*
X144289263Y-130350894D01*
X144233124Y-130266876D01*
X144149106Y-130210737D01*
X144075017Y-130196000D01*
X144063826Y-130193774D01*
X144062172Y-130193445D01*
X144050000Y-130191024D01*
X144037153Y-130193579D01*
X144012575Y-130196000D01*
X134087425Y-130196000D01*
X134062847Y-130193579D01*
X134050000Y-130191024D01*
X134036176Y-130193774D01*
X134032502Y-130193445D01*
X134025420Y-130193445D01*
X134025420Y-130192811D01*
X133965465Y-130187447D01*
X133909397Y-130143893D01*
X133885777Y-130076941D01*
X133902103Y-130007847D01*
X133922501Y-129981100D01*
X136815433Y-127088168D01*
X136831129Y-127075491D01*
X136834225Y-127072674D01*
X136842974Y-127067025D01*
X136862207Y-127042628D01*
X136865783Y-127038604D01*
X136865685Y-127038521D01*
X136869044Y-127034557D01*
X136872719Y-127030882D01*
X136883167Y-127016263D01*
X136886674Y-127011592D01*
X136916368Y-126973925D01*
X136919214Y-126965819D01*
X136924210Y-126958829D01*
X136937937Y-126912929D01*
X136939771Y-126907285D01*
X136953021Y-126869553D01*
X136953022Y-126869550D01*
X136955648Y-126862071D01*
X136956100Y-126856852D01*
X136956100Y-126854141D01*
X136956198Y-126851865D01*
X136956333Y-126851415D01*
X136956387Y-126851417D01*
X136956402Y-126851186D01*
X136958177Y-126845249D01*
X136956197Y-126794851D01*
X136956100Y-126789905D01*
X136956100Y-124151428D01*
X136958234Y-124131379D01*
X136958432Y-124127189D01*
X136960624Y-124117007D01*
X136956973Y-124086160D01*
X136956656Y-124080785D01*
X136956528Y-124080796D01*
X136956100Y-124075618D01*
X136956100Y-124070416D01*
X136953161Y-124052757D01*
X136952326Y-124046885D01*
X136947916Y-124009626D01*
X136947914Y-124009619D01*
X136946690Y-123999278D01*
X136942970Y-123991532D01*
X136941560Y-123983058D01*
X136918808Y-123940891D01*
X136916115Y-123935604D01*
X136898805Y-123899558D01*
X136898803Y-123899555D01*
X136895372Y-123892410D01*
X136892001Y-123888400D01*
X136890063Y-123886462D01*
X136888548Y-123884811D01*
X136888327Y-123884401D01*
X136888369Y-123884363D01*
X136888208Y-123884180D01*
X136885265Y-123878726D01*
X136848219Y-123844481D01*
X136844652Y-123841051D01*
X136186019Y-123182417D01*
X136151994Y-123120105D01*
X136150372Y-123075569D01*
X136158581Y-123017891D01*
X136158581Y-123017888D01*
X136159162Y-123013807D01*
X136159307Y-123000000D01*
X136140276Y-122842733D01*
X136084280Y-122694546D01*
X135994553Y-122563992D01*
X135876275Y-122458611D01*
X135868889Y-122454700D01*
X135773388Y-122404135D01*
X135736274Y-122384484D01*
X135582633Y-122345892D01*
X135575034Y-122345852D01*
X135575033Y-122345852D01*
X135509181Y-122345507D01*
X135424221Y-122345062D01*
X135416841Y-122346834D01*
X135416839Y-122346834D01*
X135277563Y-122380271D01*
X135277560Y-122380272D01*
X135270184Y-122382043D01*
X135129414Y-122454700D01*
X135123697Y-122459687D01*
X135123690Y-122459692D01*
X135068004Y-122508271D01*
X135003522Y-122537980D01*
X134933215Y-122528111D01*
X134879404Y-122481797D01*
X134859181Y-122412000D01*
X134859264Y-122404135D01*
X134859264Y-122404129D01*
X134859307Y-122400000D01*
X134840276Y-122242733D01*
X134784280Y-122094546D01*
X134776996Y-122083947D01*
X134698855Y-121970251D01*
X134698854Y-121970249D01*
X134694553Y-121963992D01*
X134675005Y-121946575D01*
X134658260Y-121931656D01*
X134576275Y-121858611D01*
X134568889Y-121854700D01*
X134442988Y-121788039D01*
X134442989Y-121788039D01*
X134436274Y-121784484D01*
X134282633Y-121745892D01*
X134275034Y-121745852D01*
X134275033Y-121745852D01*
X134209181Y-121745507D01*
X134124221Y-121745062D01*
X134116841Y-121746834D01*
X134116839Y-121746834D01*
X133977563Y-121780271D01*
X133977560Y-121780272D01*
X133970184Y-121782043D01*
X133829414Y-121854700D01*
X133710039Y-121958838D01*
X133705672Y-121965052D01*
X133705669Y-121965055D01*
X133658734Y-122031837D01*
X133624443Y-122080629D01*
X133621088Y-122085402D01*
X133565554Y-122129634D01*
X133494922Y-122136820D01*
X133428906Y-122102047D01*
X133108049Y-121781190D01*
X133097188Y-121768807D01*
X133079389Y-121745611D01*
X133049651Y-121722792D01*
X133049649Y-121722790D01*
X132960946Y-121654726D01*
X132823017Y-121597594D01*
X132823009Y-121597593D01*
X132712166Y-121583000D01*
X132712163Y-121583000D01*
X132712154Y-121582999D01*
X132683190Y-121579186D01*
X132683189Y-121579186D01*
X132675000Y-121578108D01*
X132666811Y-121579186D01*
X132646027Y-121581922D01*
X132629582Y-121583000D01*
X131649676Y-121583000D01*
X131581555Y-121562998D01*
X131535062Y-121509342D01*
X131524958Y-121439068D01*
X131554452Y-121374488D01*
X131567845Y-121361189D01*
X131579536Y-121351204D01*
X131585314Y-121346269D01*
X131677755Y-121217624D01*
X131736842Y-121070641D01*
X131754994Y-120943096D01*
X131758581Y-120917891D01*
X131758581Y-120917888D01*
X131759162Y-120913807D01*
X131759307Y-120900000D01*
X131740276Y-120742733D01*
X131684280Y-120594546D01*
X131633219Y-120520251D01*
X131598855Y-120470251D01*
X131598854Y-120470249D01*
X131594553Y-120463992D01*
X131476275Y-120358611D01*
X131468889Y-120354700D01*
X131342988Y-120288039D01*
X131342989Y-120288039D01*
X131336274Y-120284484D01*
X131182633Y-120245892D01*
X131175034Y-120245852D01*
X131175033Y-120245852D01*
X131109181Y-120245507D01*
X131024221Y-120245062D01*
X131016841Y-120246834D01*
X131016839Y-120246834D01*
X130877563Y-120280271D01*
X130877560Y-120280272D01*
X130870184Y-120282043D01*
X130729414Y-120354700D01*
X130610039Y-120458838D01*
X130518950Y-120588444D01*
X130461406Y-120736037D01*
X130460414Y-120743570D01*
X130460414Y-120743571D01*
X130451711Y-120809682D01*
X130440729Y-120893096D01*
X130458113Y-121050553D01*
X130460723Y-121057684D01*
X130460723Y-121057686D01*
X130486343Y-121127695D01*
X130512553Y-121199319D01*
X130516789Y-121205622D01*
X130516789Y-121205623D01*
X130546152Y-121249319D01*
X130600908Y-121330805D01*
X130624820Y-121352563D01*
X130637176Y-121363806D01*
X130674099Y-121424446D01*
X130672376Y-121495422D01*
X130632554Y-121554199D01*
X130567277Y-121582116D01*
X130552377Y-121583000D01*
X128446830Y-121583000D01*
X128378709Y-121562998D01*
X128332216Y-121509342D01*
X128322112Y-121439068D01*
X128344508Y-121383474D01*
X128350834Y-121374670D01*
X128427755Y-121267624D01*
X128486842Y-121120641D01*
X128507186Y-120977695D01*
X128508581Y-120967891D01*
X128508581Y-120967888D01*
X128509162Y-120963807D01*
X128509307Y-120950000D01*
X128490276Y-120792733D01*
X128434280Y-120644546D01*
X128344553Y-120513992D01*
X128333021Y-120503717D01*
X128289772Y-120465184D01*
X128226275Y-120408611D01*
X128218889Y-120404700D01*
X128132465Y-120358941D01*
X128086274Y-120334484D01*
X127932633Y-120295892D01*
X127925034Y-120295852D01*
X127925033Y-120295852D01*
X127859181Y-120295507D01*
X127774221Y-120295062D01*
X127766841Y-120296834D01*
X127766839Y-120296834D01*
X127627563Y-120330271D01*
X127627560Y-120330272D01*
X127620184Y-120332043D01*
X127479414Y-120404700D01*
X127360039Y-120508838D01*
X127268950Y-120638444D01*
X127266190Y-120645524D01*
X127233661Y-120728957D01*
X127211406Y-120786037D01*
X127210414Y-120793570D01*
X127210414Y-120793571D01*
X127196318Y-120900646D01*
X127190729Y-120943096D01*
X127193770Y-120970641D01*
X127204811Y-121070641D01*
X127208113Y-121100553D01*
X127210723Y-121107684D01*
X127210723Y-121107686D01*
X127259178Y-121240095D01*
X127262553Y-121249319D01*
X127266789Y-121255622D01*
X127266789Y-121255623D01*
X127337727Y-121361189D01*
X127346885Y-121374819D01*
X127346886Y-121374820D01*
X127350908Y-121380805D01*
X127349910Y-121381476D01*
X127376187Y-121439308D01*
X127365948Y-121509562D01*
X127319352Y-121563128D01*
X127251435Y-121583000D01*
X125736986Y-121583000D01*
X125678028Y-121568355D01*
X125667986Y-121563038D01*
X125667987Y-121563038D01*
X125661274Y-121559484D01*
X125507633Y-121520892D01*
X125500034Y-121520852D01*
X125500033Y-121520852D01*
X125434181Y-121520507D01*
X125349221Y-121520062D01*
X125341841Y-121521834D01*
X125341839Y-121521834D01*
X125202563Y-121555271D01*
X125202560Y-121555272D01*
X125195184Y-121557043D01*
X125054414Y-121629700D01*
X124935039Y-121733838D01*
X124843950Y-121863444D01*
X124811539Y-121946575D01*
X124783241Y-121989900D01*
X121656190Y-125116951D01*
X121643807Y-125127812D01*
X121620611Y-125145611D01*
X121597794Y-125175346D01*
X121597779Y-125175364D01*
X121539468Y-125251358D01*
X121539466Y-125251361D01*
X121529726Y-125264054D01*
X121472594Y-125401983D01*
X121461375Y-125487202D01*
X121458000Y-125512834D01*
X121458000Y-125512840D01*
X121456384Y-125525119D01*
X121453108Y-125550000D01*
X121454186Y-125558189D01*
X121456922Y-125578973D01*
X121458000Y-125595418D01*
X121458000Y-129393033D01*
X121435086Y-129465485D01*
X121418950Y-129488444D01*
X121416190Y-129495524D01*
X121365667Y-129625109D01*
X121361406Y-129636037D01*
X121360414Y-129643570D01*
X121360414Y-129643571D01*
X121341965Y-129783711D01*
X121340729Y-129793096D01*
X121347210Y-129851795D01*
X121356365Y-129934717D01*
X121358113Y-129950553D01*
X121360723Y-129957684D01*
X121360723Y-129957686D01*
X121369291Y-129981100D01*
X121412553Y-130099319D01*
X121416790Y-130105625D01*
X121416792Y-130105628D01*
X121436581Y-130135076D01*
X121458000Y-130205352D01*
X121458000Y-131179583D01*
X121456922Y-131196028D01*
X121453108Y-131225000D01*
X121458000Y-131262160D01*
X121458000Y-131262166D01*
X121465243Y-131317178D01*
X121472594Y-131373017D01*
X121529726Y-131510946D01*
X121597790Y-131599649D01*
X121597792Y-131599651D01*
X121620611Y-131629389D01*
X121643807Y-131647188D01*
X121656190Y-131658049D01*
X122516951Y-132518810D01*
X122527812Y-132531193D01*
X122545611Y-132554389D01*
X122575349Y-132577208D01*
X122575351Y-132577210D01*
X122664054Y-132645274D01*
X122801983Y-132702406D01*
X122950000Y-132721893D01*
X122978981Y-132718078D01*
X122995424Y-132717000D01*
X126187951Y-132717000D01*
X126256072Y-132737002D01*
X126277046Y-132753905D01*
X128596095Y-135072954D01*
X128630121Y-135135266D01*
X128633000Y-135162049D01*
X128633000Y-149501951D01*
X128612998Y-149570072D01*
X128559342Y-149616565D01*
X128489068Y-149626669D01*
X128424488Y-149597175D01*
X128417905Y-149591046D01*
X127801468Y-148974609D01*
X127772697Y-148930053D01*
X127762904Y-148904136D01*
X127759280Y-148894546D01*
X127721612Y-148839738D01*
X127673855Y-148770251D01*
X127673854Y-148770249D01*
X127669553Y-148763992D01*
X127659901Y-148755392D01*
X127556946Y-148663664D01*
X127551275Y-148658611D01*
X127428162Y-148593426D01*
X127398026Y-148571167D01*
X124358049Y-145531190D01*
X124347188Y-145518807D01*
X124329389Y-145495611D01*
X124299651Y-145472792D01*
X124299649Y-145472790D01*
X124210946Y-145404726D01*
X124087237Y-145353484D01*
X124080644Y-145350753D01*
X124080643Y-145350753D01*
X124073017Y-145347594D01*
X124071171Y-145347351D01*
X124064831Y-145346516D01*
X124064830Y-145346516D01*
X123993477Y-145337122D01*
X123962166Y-145333000D01*
X123962163Y-145333000D01*
X123962154Y-145332999D01*
X123933190Y-145329186D01*
X123933189Y-145329186D01*
X123925000Y-145328108D01*
X123916811Y-145329186D01*
X123896027Y-145331922D01*
X123879582Y-145333000D01*
X122497726Y-145333000D01*
X122429605Y-145312998D01*
X122383112Y-145259342D01*
X122373008Y-145189068D01*
X122380819Y-145160004D01*
X122434006Y-145027698D01*
X122434008Y-145027691D01*
X122436842Y-145020641D01*
X122451515Y-144917538D01*
X122458581Y-144867891D01*
X122458581Y-144867888D01*
X122459162Y-144863807D01*
X122459307Y-144850000D01*
X122440276Y-144692733D01*
X122384280Y-144544546D01*
X122372983Y-144528108D01*
X122298855Y-144420251D01*
X122298854Y-144420249D01*
X122294553Y-144413992D01*
X122273923Y-144395611D01*
X122248311Y-144372792D01*
X122176275Y-144308611D01*
X122168889Y-144304700D01*
X122067881Y-144251219D01*
X122036274Y-144234484D01*
X121882633Y-144195892D01*
X121875034Y-144195852D01*
X121875033Y-144195852D01*
X121809181Y-144195507D01*
X121724221Y-144195062D01*
X121716841Y-144196834D01*
X121716839Y-144196834D01*
X121577563Y-144230271D01*
X121577560Y-144230272D01*
X121570184Y-144232043D01*
X121429414Y-144304700D01*
X121310039Y-144408838D01*
X121305672Y-144415051D01*
X121305667Y-144415057D01*
X121287890Y-144440351D01*
X121232356Y-144484583D01*
X121184804Y-144493900D01*
X120050128Y-144493900D01*
X119982007Y-144473898D01*
X119946288Y-144439267D01*
X119898855Y-144370251D01*
X119898854Y-144370249D01*
X119894553Y-144363992D01*
X119776275Y-144258611D01*
X119768889Y-144254700D01*
X119642988Y-144188039D01*
X119642989Y-144188039D01*
X119636274Y-144184484D01*
X119482633Y-144145892D01*
X119475034Y-144145852D01*
X119475033Y-144145852D01*
X119409181Y-144145507D01*
X119324221Y-144145062D01*
X119316841Y-144146834D01*
X119316839Y-144146834D01*
X119177563Y-144180271D01*
X119177560Y-144180272D01*
X119170184Y-144182043D01*
X119029414Y-144254700D01*
X118910039Y-144358838D01*
X118818950Y-144488444D01*
X118790178Y-144562241D01*
X118771654Y-144609753D01*
X118761406Y-144636037D01*
X118760414Y-144643570D01*
X118760414Y-144643571D01*
X118754225Y-144690586D01*
X118740729Y-144793096D01*
X118741563Y-144800647D01*
X118744268Y-144825154D01*
X118731862Y-144895058D01*
X118683632Y-144947158D01*
X118614891Y-144964912D01*
X118547464Y-144942684D01*
X118529934Y-144928075D01*
X118333049Y-144731190D01*
X118322188Y-144718807D01*
X118304389Y-144695611D01*
X118274651Y-144672792D01*
X118274649Y-144672790D01*
X118185946Y-144604726D01*
X118048017Y-144547594D01*
X118048009Y-144547593D01*
X117937166Y-144533000D01*
X117937163Y-144533000D01*
X117937154Y-144532999D01*
X117908190Y-144529186D01*
X117908189Y-144529186D01*
X117900000Y-144528108D01*
X117891811Y-144529186D01*
X117871027Y-144531922D01*
X117854582Y-144533000D01*
X116630383Y-144533000D01*
X116571424Y-144518354D01*
X116514167Y-144488038D01*
X116514164Y-144488037D01*
X116507454Y-144484484D01*
X116353813Y-144445892D01*
X116346213Y-144445852D01*
X116346212Y-144445852D01*
X116324125Y-144445736D01*
X116256110Y-144425377D01*
X116235692Y-144408833D01*
X115758049Y-143931190D01*
X115747188Y-143918807D01*
X115729389Y-143895611D01*
X115699651Y-143872792D01*
X115699649Y-143872790D01*
X115610946Y-143804726D01*
X115473017Y-143747594D01*
X115473009Y-143747593D01*
X115362166Y-143733000D01*
X115362163Y-143733000D01*
X115362154Y-143732999D01*
X115333190Y-143729186D01*
X115333189Y-143729186D01*
X115325000Y-143728108D01*
X115316811Y-143729186D01*
X115296027Y-143731922D01*
X115279582Y-143733000D01*
X109795417Y-143733000D01*
X109778971Y-143731922D01*
X109750000Y-143728108D01*
X109741811Y-143729186D01*
X109741810Y-143729186D01*
X109712846Y-143732999D01*
X109712837Y-143733000D01*
X109712834Y-143733000D01*
X109601991Y-143747593D01*
X109601983Y-143747594D01*
X109464054Y-143804726D01*
X109375351Y-143872790D01*
X109375349Y-143872792D01*
X109345611Y-143895611D01*
X109327812Y-143918807D01*
X109316951Y-143931190D01*
X108355732Y-144892409D01*
X108296051Y-144925833D01*
X108277563Y-144930271D01*
X108277559Y-144930272D01*
X108270184Y-144932043D01*
X108263439Y-144935524D01*
X108263440Y-144935524D01*
X108198647Y-144968966D01*
X108140857Y-144983000D01*
X107562049Y-144983000D01*
X107493928Y-144962998D01*
X107472954Y-144946095D01*
X106890287Y-144363428D01*
X106856261Y-144301116D01*
X106861326Y-144230301D01*
X106897551Y-144178522D01*
X106929537Y-144151203D01*
X106935314Y-144146269D01*
X106936062Y-144145228D01*
X106994588Y-144110011D01*
X107065553Y-144112106D01*
X107124121Y-144152235D01*
X107136314Y-144170932D01*
X107137553Y-144174319D01*
X107141785Y-144180616D01*
X107141787Y-144180621D01*
X107191805Y-144255055D01*
X107225908Y-144305805D01*
X107231527Y-144310918D01*
X107231528Y-144310919D01*
X107299524Y-144372790D01*
X107343076Y-144412419D01*
X107482293Y-144488008D01*
X107635522Y-144528207D01*
X107719477Y-144529526D01*
X107786319Y-144530576D01*
X107786322Y-144530576D01*
X107793916Y-144530695D01*
X107948332Y-144495329D01*
X108018742Y-144459917D01*
X108083072Y-144427563D01*
X108083075Y-144427561D01*
X108089855Y-144424151D01*
X108095626Y-144419222D01*
X108095629Y-144419220D01*
X108204536Y-144326204D01*
X108204536Y-144326203D01*
X108210314Y-144321269D01*
X108302755Y-144192624D01*
X108361842Y-144045641D01*
X108378130Y-143931190D01*
X108383581Y-143892891D01*
X108383581Y-143892888D01*
X108384162Y-143888807D01*
X108384307Y-143875000D01*
X108365276Y-143717733D01*
X108309280Y-143569546D01*
X108219553Y-143438992D01*
X108101275Y-143333611D01*
X107961274Y-143259484D01*
X107807633Y-143220892D01*
X107800034Y-143220852D01*
X107800033Y-143220852D01*
X107735052Y-143220512D01*
X107649221Y-143220062D01*
X107642527Y-143221669D01*
X107572856Y-143209678D01*
X107539251Y-143185650D01*
X107242790Y-142889189D01*
X106305658Y-141952056D01*
X106271633Y-141889746D01*
X106276698Y-141818931D01*
X106319245Y-141762095D01*
X106366624Y-141740143D01*
X106440929Y-141723125D01*
X106440933Y-141723124D01*
X106448332Y-141721429D01*
X106518742Y-141686017D01*
X106583072Y-141653663D01*
X106583075Y-141653661D01*
X106589855Y-141650251D01*
X106595626Y-141645322D01*
X106595629Y-141645320D01*
X106704536Y-141552304D01*
X106704536Y-141552303D01*
X106710314Y-141547369D01*
X106802755Y-141418724D01*
X106861842Y-141271741D01*
X106884162Y-141114907D01*
X106884307Y-141101100D01*
X106880789Y-141072024D01*
X106878118Y-141049956D01*
X106865276Y-140943833D01*
X106809280Y-140795646D01*
X106781773Y-140755623D01*
X106723855Y-140671351D01*
X106723854Y-140671349D01*
X106719553Y-140665092D01*
X106677579Y-140627695D01*
X106623281Y-140579317D01*
X106585725Y-140519066D01*
X106581100Y-140485240D01*
X106581100Y-138901432D01*
X106583235Y-138881371D01*
X106583432Y-138877187D01*
X106585624Y-138867007D01*
X106581973Y-138836160D01*
X106581656Y-138830785D01*
X106581528Y-138830796D01*
X106581100Y-138825618D01*
X106581100Y-138824125D01*
X111660185Y-138824125D01*
X111670330Y-138879668D01*
X111670594Y-138881115D01*
X111671244Y-138885023D01*
X111679857Y-138942315D01*
X111682945Y-138948746D01*
X111684226Y-138955760D01*
X111688567Y-138964116D01*
X111710933Y-139007173D01*
X111712702Y-139010713D01*
X111737781Y-139062941D01*
X111742623Y-139068179D01*
X111745910Y-139074507D01*
X111750173Y-139079498D01*
X111786952Y-139116277D01*
X111790381Y-139119843D01*
X111828614Y-139161203D01*
X111834908Y-139164859D01*
X111840911Y-139170236D01*
X113056581Y-140385906D01*
X113090607Y-140448218D01*
X113092725Y-140461172D01*
X113095382Y-140485240D01*
X113105935Y-140580823D01*
X113108113Y-140600553D01*
X113110723Y-140607684D01*
X113110723Y-140607686D01*
X113132119Y-140666152D01*
X113162553Y-140749319D01*
X113166789Y-140755622D01*
X113166789Y-140755623D01*
X113198457Y-140802749D01*
X113250908Y-140880805D01*
X113256527Y-140885918D01*
X113256528Y-140885919D01*
X113339835Y-140961722D01*
X113368076Y-140987419D01*
X113507293Y-141063008D01*
X113660522Y-141103207D01*
X113744477Y-141104526D01*
X113811319Y-141105576D01*
X113811322Y-141105576D01*
X113818916Y-141105695D01*
X113973332Y-141070329D01*
X114077895Y-141017740D01*
X114108072Y-141002563D01*
X114108075Y-141002561D01*
X114114855Y-140999151D01*
X114219239Y-140909999D01*
X114284028Y-140880968D01*
X114354228Y-140891573D01*
X114385868Y-140912616D01*
X114436964Y-140959109D01*
X114468076Y-140987419D01*
X114607293Y-141063008D01*
X114760522Y-141103207D01*
X114844477Y-141104526D01*
X114911319Y-141105576D01*
X114911322Y-141105576D01*
X114918916Y-141105695D01*
X115073332Y-141070329D01*
X115177895Y-141017740D01*
X115208072Y-141002563D01*
X115208075Y-141002561D01*
X115214855Y-140999151D01*
X115220626Y-140994222D01*
X115220629Y-140994220D01*
X115329536Y-140901204D01*
X115329536Y-140901203D01*
X115335314Y-140896269D01*
X115427755Y-140767624D01*
X115486842Y-140620641D01*
X115509162Y-140463807D01*
X115509307Y-140450000D01*
X115490276Y-140292733D01*
X115434280Y-140144546D01*
X115427748Y-140135042D01*
X115348855Y-140020251D01*
X115348854Y-140020249D01*
X115344553Y-140013992D01*
X115226275Y-139908611D01*
X115086274Y-139834484D01*
X114932633Y-139795892D01*
X114925034Y-139795852D01*
X114925033Y-139795852D01*
X114893788Y-139795688D01*
X114825774Y-139775329D01*
X114805355Y-139758785D01*
X113381905Y-138335335D01*
X113347879Y-138273023D01*
X113345000Y-138246240D01*
X113345000Y-137243096D01*
X121490729Y-137243096D01*
X121508113Y-137400553D01*
X121562553Y-137549319D01*
X121566789Y-137555622D01*
X121566789Y-137555623D01*
X121619782Y-137634484D01*
X121650908Y-137680805D01*
X121656527Y-137685918D01*
X121656528Y-137685919D01*
X121687020Y-137713664D01*
X121768076Y-137787419D01*
X121907293Y-137863008D01*
X122060522Y-137903207D01*
X122144477Y-137904526D01*
X122211319Y-137905576D01*
X122211322Y-137905576D01*
X122218916Y-137905695D01*
X122373332Y-137870329D01*
X122495390Y-137808941D01*
X122508072Y-137802563D01*
X122508075Y-137802561D01*
X122514855Y-137799151D01*
X122520626Y-137794222D01*
X122520629Y-137794220D01*
X122629542Y-137701199D01*
X122629543Y-137701198D01*
X122635314Y-137696269D01*
X122639745Y-137690103D01*
X122662402Y-137658573D01*
X122718397Y-137614926D01*
X122764724Y-137606100D01*
X124650309Y-137606100D01*
X124718430Y-137626102D01*
X124739404Y-137643005D01*
X125164099Y-138067700D01*
X125198125Y-138130012D01*
X125199926Y-138173239D01*
X125190729Y-138243096D01*
X125194033Y-138273023D01*
X125205326Y-138375307D01*
X125208113Y-138400553D01*
X125210723Y-138407684D01*
X125210723Y-138407686D01*
X125255902Y-138531143D01*
X125262553Y-138549319D01*
X125266789Y-138555622D01*
X125266789Y-138555623D01*
X125325108Y-138642410D01*
X125350908Y-138680805D01*
X125356527Y-138685918D01*
X125356528Y-138685919D01*
X125455639Y-138776102D01*
X125468076Y-138787419D01*
X125607293Y-138863008D01*
X125760522Y-138903207D01*
X125844477Y-138904526D01*
X125911319Y-138905576D01*
X125911322Y-138905576D01*
X125918916Y-138905695D01*
X126073332Y-138870329D01*
X126146782Y-138833388D01*
X126208072Y-138802563D01*
X126208075Y-138802561D01*
X126214855Y-138799151D01*
X126220626Y-138794222D01*
X126220629Y-138794220D01*
X126329536Y-138701204D01*
X126329536Y-138701203D01*
X126335314Y-138696269D01*
X126427755Y-138567624D01*
X126486842Y-138420641D01*
X126504235Y-138298430D01*
X126508581Y-138267891D01*
X126508581Y-138267888D01*
X126509162Y-138263807D01*
X126509307Y-138250000D01*
X126507561Y-138235567D01*
X126494787Y-138130012D01*
X126490276Y-138092733D01*
X126434280Y-137944546D01*
X126380927Y-137866916D01*
X126348855Y-137820251D01*
X126348854Y-137820249D01*
X126344553Y-137813992D01*
X126226275Y-137708611D01*
X126086274Y-137634484D01*
X125932633Y-137595892D01*
X125925034Y-137595852D01*
X125925033Y-137595852D01*
X125860052Y-137595512D01*
X125774221Y-137595062D01*
X125767527Y-137596669D01*
X125697856Y-137584678D01*
X125664251Y-137560650D01*
X125138168Y-137034567D01*
X125125496Y-137018878D01*
X125122676Y-137015778D01*
X125117025Y-137007026D01*
X125092633Y-136987797D01*
X125088603Y-136984216D01*
X125088520Y-136984314D01*
X125084563Y-136980961D01*
X125080882Y-136977280D01*
X125076648Y-136974254D01*
X125066289Y-136966851D01*
X125061544Y-136963288D01*
X125032105Y-136940080D01*
X125032103Y-136940079D01*
X125023925Y-136933632D01*
X125015820Y-136930786D01*
X125008829Y-136925790D01*
X124962938Y-136912066D01*
X124957293Y-136910232D01*
X124919553Y-136896979D01*
X124919550Y-136896978D01*
X124912071Y-136894352D01*
X124906852Y-136893900D01*
X124904141Y-136893900D01*
X124901864Y-136893802D01*
X124901415Y-136893667D01*
X124901417Y-136893613D01*
X124901184Y-136893598D01*
X124895248Y-136891823D01*
X124845385Y-136893782D01*
X124844850Y-136893803D01*
X124839904Y-136893900D01*
X122765764Y-136893900D01*
X122697643Y-136873898D01*
X122661924Y-136839267D01*
X122648855Y-136820251D01*
X122648854Y-136820249D01*
X122644553Y-136813992D01*
X122526275Y-136708611D01*
X122518889Y-136704700D01*
X122392988Y-136638039D01*
X122392989Y-136638039D01*
X122386274Y-136634484D01*
X122232633Y-136595892D01*
X122225034Y-136595852D01*
X122225033Y-136595852D01*
X122159181Y-136595507D01*
X122074221Y-136595062D01*
X122066841Y-136596834D01*
X122066839Y-136596834D01*
X121927563Y-136630271D01*
X121927560Y-136630272D01*
X121920184Y-136632043D01*
X121779414Y-136704700D01*
X121660039Y-136808838D01*
X121568950Y-136938444D01*
X121511406Y-137086037D01*
X121490729Y-137243096D01*
X113345000Y-137243096D01*
X113345000Y-134837887D01*
X113365002Y-134769766D01*
X113378251Y-134752602D01*
X113379539Y-134751202D01*
X113385314Y-134746269D01*
X113477755Y-134617624D01*
X113536842Y-134470641D01*
X113559162Y-134313807D01*
X113559307Y-134300000D01*
X113540276Y-134142733D01*
X113484280Y-133994546D01*
X113394553Y-133863992D01*
X113276275Y-133758611D01*
X113136274Y-133684484D01*
X112982633Y-133645892D01*
X112975034Y-133645852D01*
X112975033Y-133645852D01*
X112909181Y-133645507D01*
X112824221Y-133645062D01*
X112816841Y-133646834D01*
X112816839Y-133646834D01*
X112710403Y-133672387D01*
X112639495Y-133668840D01*
X112581761Y-133627520D01*
X112555531Y-133561546D01*
X112554989Y-133549868D01*
X112554989Y-132716483D01*
X112574991Y-132648362D01*
X112628647Y-132601869D01*
X112682967Y-132590499D01*
X112696452Y-132590711D01*
X112696455Y-132590711D01*
X112704051Y-132590830D01*
X112858467Y-132555464D01*
X112949529Y-132509665D01*
X112993207Y-132487698D01*
X112993210Y-132487696D01*
X112999990Y-132484286D01*
X113005761Y-132479357D01*
X113005764Y-132479355D01*
X113114671Y-132386339D01*
X113114671Y-132386338D01*
X113120449Y-132381404D01*
X113212890Y-132252759D01*
X113271977Y-132105776D01*
X113278100Y-132062750D01*
X113293716Y-131953026D01*
X113293716Y-131953023D01*
X113294297Y-131948942D01*
X113294442Y-131935135D01*
X113275411Y-131777868D01*
X113219415Y-131629681D01*
X113187332Y-131583000D01*
X113133990Y-131505386D01*
X113133989Y-131505384D01*
X113129688Y-131499127D01*
X113011410Y-131393746D01*
X113004024Y-131389835D01*
X112965700Y-131369544D01*
X112871409Y-131319619D01*
X112717768Y-131281027D01*
X112710169Y-131280987D01*
X112710168Y-131280987D01*
X112644316Y-131280642D01*
X112559356Y-131280197D01*
X112551976Y-131281969D01*
X112551974Y-131281969D01*
X112412698Y-131315406D01*
X112412695Y-131315407D01*
X112405319Y-131317178D01*
X112264549Y-131389835D01*
X112145174Y-131493973D01*
X112054085Y-131623579D01*
X112025313Y-131697376D01*
X112015400Y-131722802D01*
X111996541Y-131771172D01*
X111975864Y-131928231D01*
X111972261Y-131927757D01*
X111956940Y-131979934D01*
X111940037Y-132000908D01*
X111819291Y-132121654D01*
X111808202Y-132131509D01*
X111781934Y-132152217D01*
X111776579Y-132159964D01*
X111776578Y-132159966D01*
X111749005Y-132199862D01*
X111746702Y-132203085D01*
X111712271Y-132249700D01*
X111709907Y-132256431D01*
X111705853Y-132262297D01*
X111703013Y-132271278D01*
X111688395Y-132317500D01*
X111687142Y-132321256D01*
X111671054Y-132367067D01*
X111671053Y-132367072D01*
X111667934Y-132375954D01*
X111667654Y-132383083D01*
X111665504Y-132389881D01*
X111664989Y-132396424D01*
X111664989Y-132448440D01*
X111664892Y-132453386D01*
X111662681Y-132509665D01*
X111664546Y-132516700D01*
X111664989Y-132524746D01*
X111664989Y-138776102D01*
X111664116Y-138790912D01*
X111660185Y-138824125D01*
X106581100Y-138824125D01*
X106581100Y-138820416D01*
X106578161Y-138802757D01*
X106577326Y-138796885D01*
X106572916Y-138759626D01*
X106572914Y-138759619D01*
X106571690Y-138749278D01*
X106567970Y-138741532D01*
X106566560Y-138733058D01*
X106543808Y-138690891D01*
X106541115Y-138685604D01*
X106523805Y-138649558D01*
X106523803Y-138649555D01*
X106520372Y-138642410D01*
X106517001Y-138638400D01*
X106515063Y-138636462D01*
X106513548Y-138634811D01*
X106513327Y-138634401D01*
X106513369Y-138634363D01*
X106513208Y-138634180D01*
X106510265Y-138628726D01*
X106473220Y-138594482D01*
X106469653Y-138591052D01*
X106343004Y-138464402D01*
X106308979Y-138402090D01*
X106306100Y-138375307D01*
X106306100Y-130057364D01*
X106326102Y-129989243D01*
X106375486Y-129944799D01*
X106509172Y-129877563D01*
X106509175Y-129877561D01*
X106515955Y-129874151D01*
X106521726Y-129869222D01*
X106521729Y-129869220D01*
X106630636Y-129776204D01*
X106630636Y-129776203D01*
X106636414Y-129771269D01*
X106728855Y-129642624D01*
X106787942Y-129495641D01*
X106810262Y-129338807D01*
X106810407Y-129325000D01*
X106791376Y-129167733D01*
X106735380Y-129019546D01*
X106645653Y-128888992D01*
X106633680Y-128878324D01*
X106609360Y-128856656D01*
X106527375Y-128783611D01*
X106387374Y-128709484D01*
X106233733Y-128670892D01*
X106226133Y-128670852D01*
X106218603Y-128669901D01*
X106218861Y-128667862D01*
X106160887Y-128650514D01*
X106114671Y-128596618D01*
X106104468Y-128560014D01*
X106090276Y-128442733D01*
X106034280Y-128294546D01*
X105944553Y-128163992D01*
X105826275Y-128058611D01*
X105818889Y-128054700D01*
X105692988Y-127988039D01*
X105692989Y-127988039D01*
X105686274Y-127984484D01*
X105532633Y-127945892D01*
X105525034Y-127945852D01*
X105525033Y-127945852D01*
X105459181Y-127945507D01*
X105374221Y-127945062D01*
X105366841Y-127946834D01*
X105366839Y-127946834D01*
X105227563Y-127980271D01*
X105227560Y-127980272D01*
X105220184Y-127982043D01*
X105079414Y-128054700D01*
X104960039Y-128158838D01*
X104868950Y-128288444D01*
X104866190Y-128295524D01*
X104816178Y-128423798D01*
X104811406Y-128436037D01*
X104810414Y-128443570D01*
X104810414Y-128443571D01*
X104795699Y-128555343D01*
X104766977Y-128620271D01*
X104707711Y-128659362D01*
X104685259Y-128664062D01*
X104680715Y-128664588D01*
X104673121Y-128664548D01*
X104615525Y-128678376D01*
X104526463Y-128699757D01*
X104526460Y-128699758D01*
X104519084Y-128701529D01*
X104378314Y-128774186D01*
X104258939Y-128878324D01*
X104167850Y-129007930D01*
X104165090Y-129015010D01*
X104113320Y-129147793D01*
X104110306Y-129155523D01*
X104109314Y-129163056D01*
X104109314Y-129163057D01*
X104095151Y-129270641D01*
X104089629Y-129312582D01*
X104098321Y-129391311D01*
X104103164Y-129435172D01*
X104107013Y-129470039D01*
X104109623Y-129477170D01*
X104109623Y-129477172D01*
X104148420Y-129583189D01*
X104161453Y-129618805D01*
X104165689Y-129625108D01*
X104165689Y-129625109D01*
X104243668Y-129741153D01*
X104249808Y-129750291D01*
X104255427Y-129755404D01*
X104255428Y-129755405D01*
X104347491Y-129839175D01*
X104366976Y-129856905D01*
X104506193Y-129932494D01*
X104513536Y-129934420D01*
X104514285Y-129934717D01*
X104570258Y-129978392D01*
X104593900Y-130051868D01*
X104593900Y-138442047D01*
X104573898Y-138510168D01*
X104556996Y-138531142D01*
X104495330Y-138592807D01*
X104434564Y-138653573D01*
X104418871Y-138666247D01*
X104415773Y-138669066D01*
X104407026Y-138674714D01*
X104387797Y-138699106D01*
X104384216Y-138703136D01*
X104384314Y-138703219D01*
X104380961Y-138707176D01*
X104377280Y-138710857D01*
X104374256Y-138715089D01*
X104374254Y-138715091D01*
X104366851Y-138725450D01*
X104363288Y-138730195D01*
X104340080Y-138759634D01*
X104340079Y-138759636D01*
X104333632Y-138767814D01*
X104330786Y-138775919D01*
X104325790Y-138782910D01*
X104322806Y-138792889D01*
X104312066Y-138828801D01*
X104310232Y-138834446D01*
X104297036Y-138872024D01*
X104294352Y-138879668D01*
X104293900Y-138884887D01*
X104293900Y-138887598D01*
X104293802Y-138889875D01*
X104293667Y-138890324D01*
X104293613Y-138890322D01*
X104293598Y-138890555D01*
X104291823Y-138896491D01*
X104292232Y-138906895D01*
X104293803Y-138946889D01*
X104293900Y-138951835D01*
X104293900Y-140748572D01*
X104291766Y-140768621D01*
X104291568Y-140772811D01*
X104289376Y-140782993D01*
X104290600Y-140793334D01*
X104293027Y-140813840D01*
X104293344Y-140819215D01*
X104293472Y-140819204D01*
X104293900Y-140824382D01*
X104293900Y-140829584D01*
X104294754Y-140834714D01*
X104296839Y-140847243D01*
X104297674Y-140853115D01*
X104302084Y-140890374D01*
X104302086Y-140890381D01*
X104303310Y-140900722D01*
X104307030Y-140908468D01*
X104308440Y-140916942D01*
X104323779Y-140945370D01*
X104331192Y-140959109D01*
X104333885Y-140964396D01*
X104351195Y-141000442D01*
X104351197Y-141000445D01*
X104354628Y-141007590D01*
X104357999Y-141011600D01*
X104359937Y-141013538D01*
X104361452Y-141015189D01*
X104361673Y-141015599D01*
X104361631Y-141015637D01*
X104361792Y-141015820D01*
X104364735Y-141021274D01*
X104372382Y-141028342D01*
X104372382Y-141028343D01*
X104401795Y-141055532D01*
X104405361Y-141058962D01*
X106235588Y-142889189D01*
X106269614Y-142951501D01*
X106264549Y-143022316D01*
X106222002Y-143079152D01*
X106204283Y-143090250D01*
X106079414Y-143154700D01*
X105960039Y-143258838D01*
X105868950Y-143388444D01*
X105811406Y-143536037D01*
X105810414Y-143543570D01*
X105810414Y-143543571D01*
X105806995Y-143569546D01*
X105790729Y-143693096D01*
X105800406Y-143780743D01*
X105789681Y-143842198D01*
X105790166Y-143842343D01*
X105787182Y-143852321D01*
X105787181Y-143852323D01*
X105775402Y-143891711D01*
X105773572Y-143897343D01*
X105756484Y-143946002D01*
X105756000Y-143951591D01*
X105756000Y-143952970D01*
X105754389Y-143960452D01*
X105731176Y-144010633D01*
X105715311Y-144031308D01*
X105704451Y-144043690D01*
X105552046Y-144196095D01*
X105489734Y-144230121D01*
X105462951Y-144233000D01*
X94645424Y-144233000D01*
X94628978Y-144231922D01*
X94608188Y-144229185D01*
X94600000Y-144228107D01*
X94451983Y-144247594D01*
X94314054Y-144304726D01*
X94225351Y-144372790D01*
X94225349Y-144372792D01*
X94195611Y-144395611D01*
X94177812Y-144418807D01*
X94166951Y-144431190D01*
X93632095Y-144966046D01*
X93569783Y-145000072D01*
X93498968Y-144995007D01*
X93442132Y-144952460D01*
X93417321Y-144885940D01*
X93417000Y-144876951D01*
X93417000Y-129862050D01*
X93437002Y-129793929D01*
X93453905Y-129772955D01*
X93468481Y-129758379D01*
X93529446Y-129724654D01*
X93548332Y-129720329D01*
X93618742Y-129684917D01*
X93683072Y-129652563D01*
X93683075Y-129652561D01*
X93689855Y-129649151D01*
X93695626Y-129644222D01*
X93695629Y-129644220D01*
X93804536Y-129551204D01*
X93804536Y-129551203D01*
X93810314Y-129546269D01*
X93902755Y-129417624D01*
X93961842Y-129270641D01*
X93971846Y-129200345D01*
X93983581Y-129117891D01*
X93983581Y-129117888D01*
X93984162Y-129113807D01*
X93984307Y-129100000D01*
X93965276Y-128942733D01*
X93909280Y-128794546D01*
X93855927Y-128716916D01*
X93823855Y-128670251D01*
X93823854Y-128670249D01*
X93819553Y-128663992D01*
X93701275Y-128558611D01*
X93693889Y-128554700D01*
X93567988Y-128488039D01*
X93567989Y-128488039D01*
X93561274Y-128484484D01*
X93407633Y-128445892D01*
X93400034Y-128445852D01*
X93400033Y-128445852D01*
X93334181Y-128445507D01*
X93249221Y-128445062D01*
X93241841Y-128446834D01*
X93241839Y-128446834D01*
X93102563Y-128480271D01*
X93102560Y-128480272D01*
X93095184Y-128482043D01*
X92954414Y-128554700D01*
X92835039Y-128658838D01*
X92743950Y-128788444D01*
X92741190Y-128795524D01*
X92695564Y-128912548D01*
X92667267Y-128955873D01*
X92481190Y-129141951D01*
X92468798Y-129152819D01*
X92455456Y-129163057D01*
X92445611Y-129170611D01*
X92422792Y-129200349D01*
X92422790Y-129200351D01*
X92381961Y-129253561D01*
X92354726Y-129289054D01*
X92297594Y-129426983D01*
X92283000Y-129537834D01*
X92283000Y-129537840D01*
X92278108Y-129575000D01*
X92279186Y-129583189D01*
X92281922Y-129603973D01*
X92283000Y-129620418D01*
X92283000Y-146504583D01*
X92281922Y-146521028D01*
X92278108Y-146550000D01*
X92279186Y-146558189D01*
X92281922Y-146578973D01*
X92283000Y-146595418D01*
X92283000Y-149412951D01*
X92262998Y-149481072D01*
X92246095Y-149502046D01*
X91230732Y-150517409D01*
X91171051Y-150550833D01*
X91152563Y-150555271D01*
X91152559Y-150555272D01*
X91145184Y-150557043D01*
X91004414Y-150629700D01*
X90885039Y-150733838D01*
X90793950Y-150863444D01*
X90736406Y-151011037D01*
X90735414Y-151018570D01*
X90735414Y-151018571D01*
X90726550Y-151085905D01*
X90715729Y-151168096D01*
X82720000Y-151168096D01*
X82720000Y-126286515D01*
X82740002Y-126218394D01*
X82756905Y-126197420D01*
X87647420Y-121306905D01*
X87709732Y-121272879D01*
X87736515Y-121270000D01*
X89895238Y-121270000D01*
X89963359Y-121290002D01*
X89980036Y-121302805D01*
X90018076Y-121337419D01*
X90157293Y-121413008D01*
X90310522Y-121453207D01*
X90394477Y-121454526D01*
X90461319Y-121455576D01*
X90461322Y-121455576D01*
X90468916Y-121455695D01*
X90623332Y-121420329D01*
X90700583Y-121381476D01*
X90758072Y-121352563D01*
X90758075Y-121352561D01*
X90764855Y-121349151D01*
X90770626Y-121344222D01*
X90770629Y-121344220D01*
X90879536Y-121251204D01*
X90879536Y-121251203D01*
X90885314Y-121246269D01*
X90977755Y-121117624D01*
X91036842Y-120970641D01*
X91059162Y-120813807D01*
X91059307Y-120800000D01*
X91040276Y-120642733D01*
X90984280Y-120494546D01*
X90961170Y-120460921D01*
X90898855Y-120370251D01*
X90898854Y-120370249D01*
X90894553Y-120363992D01*
X90888514Y-120358611D01*
X90819176Y-120296834D01*
X90776275Y-120258611D01*
X90768889Y-120254700D01*
X90642988Y-120188039D01*
X90642989Y-120188039D01*
X90636274Y-120184484D01*
X90482633Y-120145892D01*
X90475034Y-120145852D01*
X90475033Y-120145852D01*
X90409181Y-120145507D01*
X90324221Y-120145062D01*
X90316841Y-120146834D01*
X90316839Y-120146834D01*
X90276595Y-120156496D01*
X90205687Y-120152949D01*
X90147953Y-120111629D01*
X90121723Y-120045656D01*
X90130273Y-119986982D01*
X90134007Y-119977694D01*
X90134008Y-119977692D01*
X90136842Y-119970641D01*
X90159162Y-119813807D01*
X90159307Y-119800000D01*
X90140276Y-119642733D01*
X90084280Y-119494546D01*
X90038943Y-119428580D01*
X89998855Y-119370251D01*
X89998854Y-119370249D01*
X89994553Y-119363992D01*
X89983167Y-119353847D01*
X89881946Y-119263664D01*
X89876275Y-119258611D01*
X89868889Y-119254700D01*
X89742988Y-119188039D01*
X89742989Y-119188039D01*
X89736274Y-119184484D01*
X89582633Y-119145892D01*
X89575034Y-119145852D01*
X89575033Y-119145852D01*
X89509181Y-119145507D01*
X89424221Y-119145062D01*
X89416841Y-119146834D01*
X89416839Y-119146834D01*
X89277563Y-119180271D01*
X89277560Y-119180272D01*
X89270184Y-119182043D01*
X89129414Y-119254700D01*
X89010039Y-119358838D01*
X89006635Y-119363682D01*
X88946799Y-119400549D01*
X88913604Y-119405000D01*
X87233887Y-119405000D01*
X87219077Y-119404127D01*
X87195217Y-119401303D01*
X87185864Y-119400196D01*
X87176600Y-119401888D01*
X87176599Y-119401888D01*
X87128874Y-119410604D01*
X87124970Y-119411254D01*
X87076985Y-119418468D01*
X87076984Y-119418468D01*
X87067674Y-119419868D01*
X87061244Y-119422956D01*
X87054228Y-119424237D01*
X87045871Y-119428578D01*
X87045866Y-119428580D01*
X87002807Y-119450948D01*
X86999330Y-119452686D01*
X86947048Y-119477792D01*
X86941808Y-119482636D01*
X86935482Y-119485922D01*
X86930491Y-119490184D01*
X86893712Y-119526963D01*
X86890146Y-119530392D01*
X86848786Y-119568625D01*
X86845130Y-119574919D01*
X86839753Y-119580922D01*
X81059302Y-125361373D01*
X81048213Y-125371228D01*
X81021945Y-125391936D01*
X81016590Y-125399683D01*
X81016589Y-125399685D01*
X80989016Y-125439581D01*
X80986713Y-125442804D01*
X80952282Y-125489419D01*
X80949918Y-125496150D01*
X80945864Y-125502016D01*
X80943024Y-125510997D01*
X80928406Y-125557219D01*
X80927153Y-125560975D01*
X80911065Y-125606786D01*
X80911064Y-125606791D01*
X80907945Y-125615673D01*
X80907665Y-125622802D01*
X80905515Y-125629600D01*
X80905000Y-125636143D01*
X80905000Y-125688159D01*
X80904903Y-125693105D01*
X80902692Y-125749384D01*
X80904557Y-125756419D01*
X80905000Y-125764465D01*
X80905000Y-154891113D01*
X80904127Y-154905923D01*
X80900196Y-154939136D01*
X80200000Y-154939136D01*
X80200000Y-119126000D01*
X80220002Y-119057879D01*
X80273658Y-119011386D01*
X80326000Y-119000000D01*
X81450000Y-119000000D01*
X81450000Y-117925904D01*
X81470002Y-117857783D01*
X81523658Y-117811290D01*
X81575903Y-117799904D01*
X129787770Y-117763213D01*
X129855905Y-117783163D01*
X129902439Y-117836783D01*
X129912596Y-117907050D01*
X129912215Y-117908962D01*
X129911406Y-117911037D01*
X129910636Y-117916883D01*
X129910635Y-117916890D01*
X129909449Y-117925904D01*
X129890729Y-118068096D01*
X129891563Y-118075646D01*
X129904173Y-118189864D01*
X129908113Y-118225553D01*
X129910723Y-118232684D01*
X129910723Y-118232686D01*
X129941898Y-118317875D01*
X129962553Y-118374319D01*
X129966789Y-118380622D01*
X129966789Y-118380623D01*
X130037051Y-118485183D01*
X130050908Y-118505805D01*
X130056527Y-118510918D01*
X130056528Y-118510919D01*
X130099388Y-118549918D01*
X130168076Y-118612419D01*
X130307293Y-118688008D01*
X130460522Y-118728207D01*
X130544477Y-118729526D01*
X130611319Y-118730576D01*
X130611322Y-118730576D01*
X130618916Y-118730695D01*
X130673965Y-118718087D01*
X130744832Y-118722376D01*
X130802130Y-118764298D01*
X130827668Y-118830543D01*
X130827017Y-118857353D01*
X130815729Y-118943096D01*
X130823269Y-119011386D01*
X130830144Y-119073658D01*
X130833113Y-119100553D01*
X130835723Y-119107684D01*
X130835723Y-119107686D01*
X130864208Y-119185524D01*
X130887553Y-119249319D01*
X130975908Y-119380805D01*
X130981527Y-119385918D01*
X130981528Y-119385919D01*
X131087460Y-119482309D01*
X131093076Y-119487419D01*
X131232293Y-119563008D01*
X131385522Y-119603207D01*
X131469477Y-119604526D01*
X131536319Y-119605576D01*
X131536322Y-119605576D01*
X131543916Y-119605695D01*
X131698332Y-119570329D01*
X131781069Y-119528717D01*
X131833072Y-119502563D01*
X131833075Y-119502561D01*
X131839855Y-119499151D01*
X131845626Y-119494222D01*
X131845629Y-119494220D01*
X131922483Y-119428580D01*
X131926453Y-119425189D01*
X131991243Y-119396158D01*
X132008284Y-119395000D01*
X141813485Y-119395000D01*
X141881606Y-119415002D01*
X141902580Y-119431905D01*
X145318095Y-122847420D01*
X145352121Y-122909732D01*
X145355000Y-122936515D01*
X145355000Y-153488485D01*
X145334998Y-153556606D01*
X145318095Y-153577580D01*
X142877580Y-156018095D01*
X142815268Y-156052121D01*
X142788485Y-156055000D01*
X134358887Y-156055000D01*
X134344077Y-156054127D01*
X134320217Y-156051303D01*
X134310864Y-156050196D01*
X134301600Y-156051888D01*
X134301599Y-156051888D01*
X134253874Y-156060604D01*
X134249970Y-156061254D01*
X134201985Y-156068468D01*
X134201984Y-156068468D01*
X134192674Y-156069868D01*
X134186244Y-156072956D01*
X134179228Y-156074237D01*
X134170870Y-156078579D01*
X134170869Y-156078579D01*
X134127821Y-156100941D01*
X134124280Y-156102710D01*
X134072048Y-156127792D01*
X134066810Y-156132634D01*
X134060482Y-156135921D01*
X134055491Y-156140184D01*
X134018712Y-156176963D01*
X134015146Y-156180392D01*
X133973786Y-156218625D01*
X133970130Y-156224919D01*
X133964753Y-156230922D01*
X133862263Y-156333412D01*
X133799951Y-156367438D01*
X133772510Y-156370315D01*
X133724221Y-156370062D01*
X133716841Y-156371834D01*
X133716839Y-156371834D01*
X133577563Y-156405271D01*
X133577560Y-156405272D01*
X133570184Y-156407043D01*
X133429414Y-156479700D01*
X133310039Y-156583838D01*
X133218950Y-156713444D01*
X133216190Y-156720524D01*
X133176222Y-156823037D01*
X133161406Y-156861037D01*
X133160414Y-156868570D01*
X133160414Y-156868571D01*
X133149674Y-156950155D01*
X133140729Y-157018096D01*
X133144610Y-157053247D01*
X133156722Y-157162951D01*
X133158113Y-157175553D01*
X133212553Y-157324319D01*
X133216789Y-157330622D01*
X133216789Y-157330623D01*
X133254752Y-157387117D01*
X133300908Y-157455805D01*
X133306527Y-157460918D01*
X133306528Y-157460919D01*
X133397795Y-157543965D01*
X133418076Y-157562419D01*
X133557293Y-157638008D01*
X133710522Y-157678207D01*
X133794477Y-157679526D01*
X133861319Y-157680576D01*
X133861322Y-157680576D01*
X133868916Y-157680695D01*
X134023332Y-157645329D01*
X134105421Y-157604043D01*
X134158072Y-157577563D01*
X134158075Y-157577561D01*
X134164855Y-157574151D01*
X134170626Y-157569222D01*
X134170629Y-157569220D01*
X134279536Y-157476204D01*
X134279536Y-157476203D01*
X134285314Y-157471269D01*
X134377755Y-157342624D01*
X134436842Y-157195641D01*
X134457107Y-157053247D01*
X134486507Y-156988624D01*
X134546179Y-156950155D01*
X134581850Y-156945000D01*
X142991113Y-156945000D01*
X143005923Y-156945873D01*
X143039136Y-156949804D01*
X143096141Y-156939393D01*
X143100034Y-156938745D01*
X143116242Y-156936308D01*
X143157326Y-156930132D01*
X143163757Y-156927044D01*
X143170771Y-156925763D01*
X143222185Y-156899056D01*
X143225725Y-156897287D01*
X143269456Y-156876288D01*
X143269457Y-156876287D01*
X143277952Y-156872208D01*
X143283190Y-156867366D01*
X143289518Y-156864079D01*
X143294509Y-156859816D01*
X143331288Y-156823037D01*
X143334854Y-156819608D01*
X143369296Y-156787770D01*
X143376214Y-156781375D01*
X143379870Y-156775081D01*
X143385247Y-156769078D01*
X145939905Y-154214420D01*
X146002217Y-154180394D01*
X146073032Y-154185459D01*
X146129868Y-154228006D01*
X146154679Y-154294526D01*
X146155000Y-154303515D01*
X146155000Y-157463485D01*
X146134998Y-157531606D01*
X146118095Y-157552580D01*
X140777580Y-162893095D01*
X140715268Y-162927121D01*
X140688485Y-162930000D01*
X134332449Y-162930000D01*
X134264328Y-162909998D01*
X134248631Y-162898077D01*
X134181951Y-162838668D01*
X134176275Y-162833611D01*
X134036274Y-162759484D01*
X133882633Y-162720892D01*
X133875034Y-162720852D01*
X133875033Y-162720852D01*
X133809181Y-162720507D01*
X133724221Y-162720062D01*
X133716841Y-162721834D01*
X133716839Y-162721834D01*
X133577563Y-162755271D01*
X133577560Y-162755272D01*
X133570184Y-162757043D01*
X133429414Y-162829700D01*
X133310039Y-162933838D01*
X133218950Y-163063444D01*
X133161406Y-163211037D01*
X133160414Y-163218570D01*
X133160414Y-163218571D01*
X133143410Y-163347735D01*
X133140729Y-163368096D01*
X133149421Y-163446824D01*
X133157251Y-163517744D01*
X133158113Y-163525553D01*
X133160723Y-163532684D01*
X133160723Y-163532686D01*
X133208327Y-163662770D01*
X133212553Y-163674319D01*
X133216789Y-163680622D01*
X133216789Y-163680623D01*
X133295923Y-163798386D01*
X133300908Y-163805805D01*
X133306527Y-163810918D01*
X133306528Y-163810919D01*
X133412460Y-163907309D01*
X133418076Y-163912419D01*
X133557293Y-163988008D01*
X133710522Y-164028207D01*
X133794477Y-164029526D01*
X133861319Y-164030576D01*
X133861322Y-164030576D01*
X133868916Y-164030695D01*
X134023332Y-163995329D01*
X134093742Y-163959917D01*
X134158072Y-163927563D01*
X134158075Y-163927561D01*
X134164855Y-163924151D01*
X134170626Y-163919222D01*
X134170629Y-163919220D01*
X134251453Y-163850189D01*
X134316243Y-163821158D01*
X134333284Y-163820000D01*
X140891113Y-163820000D01*
X140905923Y-163820873D01*
X140939136Y-163824804D01*
X140996141Y-163814393D01*
X141000034Y-163813745D01*
X141016242Y-163811308D01*
X141057326Y-163805132D01*
X141063757Y-163802044D01*
X141070771Y-163800763D01*
X141122185Y-163774056D01*
X141125725Y-163772287D01*
X141169456Y-163751288D01*
X141169457Y-163751287D01*
X141177952Y-163747208D01*
X141183190Y-163742366D01*
X141189518Y-163739079D01*
X141194509Y-163734816D01*
X141231288Y-163698037D01*
X141234854Y-163694608D01*
X141269296Y-163662770D01*
X141276214Y-163656375D01*
X141279870Y-163650081D01*
X141285247Y-163644078D01*
X146890698Y-158038627D01*
X146901787Y-158028772D01*
X146920658Y-158013895D01*
X146928055Y-158008064D01*
X146936428Y-157995950D01*
X146960984Y-157960419D01*
X146963287Y-157957196D01*
X146992120Y-157918160D01*
X146997718Y-157910581D01*
X147000082Y-157903850D01*
X147004136Y-157897984D01*
X147021599Y-157842766D01*
X147022847Y-157839025D01*
X147038935Y-157793214D01*
X147038936Y-157793209D01*
X147042055Y-157784327D01*
X147042335Y-157777198D01*
X147044485Y-157770400D01*
X147045000Y-157763857D01*
X147045000Y-157711841D01*
X147045097Y-157706895D01*
X147046938Y-157660026D01*
X147047308Y-157650616D01*
X147045443Y-157643581D01*
X147045000Y-157635535D01*
X147045000Y-122262908D01*
X147045873Y-122248098D01*
X147046508Y-122242733D01*
X147049804Y-122214885D01*
X147039393Y-122157880D01*
X147038745Y-122153987D01*
X147031532Y-122106009D01*
X147030132Y-122096695D01*
X147027044Y-122090264D01*
X147025763Y-122083250D01*
X146999056Y-122031836D01*
X146997287Y-122028296D01*
X146976288Y-121984565D01*
X146976287Y-121984564D01*
X146972208Y-121976069D01*
X146967366Y-121970831D01*
X146964079Y-121964503D01*
X146959816Y-121959512D01*
X146923037Y-121922733D01*
X146919608Y-121919167D01*
X146887770Y-121884725D01*
X146881375Y-121877807D01*
X146875081Y-121874151D01*
X146869078Y-121868774D01*
X142968514Y-117968210D01*
X142934488Y-117905898D01*
X142939553Y-117835083D01*
X142982100Y-117778247D01*
X143048620Y-117753436D01*
X143057513Y-117753115D01*
X147023904Y-117750096D01*
X147092040Y-117770046D01*
G37*
%TD.AperFunction*%
%TD*%
M02*
